<svg width="32" height="32" viewBox="0 0 32 32" fill="none" xmlns="http://www.w3.org/2000/svg">
<path d="M14.3321 15.7519L0.308927 29.7133C-0.0617297 30.084 -0.0617297 30.7635 0.308927 31.1342C0.494255 31.3195 0.741359 31.443 0.988463 31.443C1.23557 31.443 1.48267 31.3195 1.668 31.1342L15.7529 17.0492L29.8379 31.1342C30.0232 31.3195 30.2703 31.443 30.5174 31.443C30.7645 31.443 31.0116 31.3195 31.197 31.1342C31.5676 30.7635 31.5676 30.1457 31.197 29.7133L17.3591 15.7519L31.3205 1.72875C31.6912 1.35809 31.6912 0.740332 31.3205 0.3079C30.9499 -0.0627569 30.3321 -0.0627569 29.8997 0.3079L15.8147 14.4546L1.72978 0.3079C1.35912 -0.0627569 0.741359 -0.0627569 0.308927 0.3079C-0.123506 0.678556 -0.0617297 1.29632 0.308927 1.72875L14.3321 15.7519Z" fill="#171714"/>
</svg>
