<svg width="60" height="60" viewBox="0 0 60 60" fill="none" xmlns="http://www.w3.org/2000/svg">
<path d="M51.2133 8.78672C45.5469 3.12059 38.0133 0 30 0C21.9867 0 14.4531 3.12059 8.78672 8.78672C3.12059 14.453 0 21.9867 0 30C0 38.0133 3.12059 45.547 8.78672 51.2133C14.4531 56.8794 21.9867 60 30 60C38.0133 60 45.5469 56.8794 51.2133 51.2133C56.8794 45.547 60 38.0133 60 30C60 21.9867 56.8794 14.453 51.2133 8.78672ZM30 56.4844C22.9257 56.4844 16.275 53.7295 11.2727 48.7273C6.27047 43.725 3.51562 37.0743 3.51562 30C3.51562 22.9257 6.27047 16.275 11.2727 11.2727C16.275 6.27047 22.9257 3.51562 30 3.51562C37.0743 3.51562 43.725 6.27047 48.7273 11.2727C53.7295 16.275 56.4844 22.9257 56.4844 30C56.4844 37.0743 53.7295 43.725 48.7273 48.7273C43.725 53.7295 37.0743 56.4844 30 56.4844Z" fill="#FECA43"/>
<path d="M30 7.65625C17.6796 7.65625 7.65625 17.6795 7.65625 29.9999C7.65625 42.3203 17.6796 52.3437 30 52.3437C42.3204 52.3437 52.3438 42.3203 52.3438 29.9999C52.3438 17.6795 42.3204 7.65625 30 7.65625ZM30 11.1719C40.3819 11.1719 48.8282 19.6182 48.8282 30C48.8282 34.7541 47.0562 39.1014 44.1393 42.4186C43.0279 38.1213 40.0039 34.5852 36.0337 32.7764C38.0778 31.0545 39.3797 28.4782 39.3797 25.6026C39.3797 20.4306 35.1721 16.223 30.0002 16.223C24.8282 16.223 20.6206 20.4306 20.6206 25.6026C20.6206 28.4782 21.9225 31.0545 23.9666 32.7764C19.9963 34.5852 16.9723 38.1211 15.861 42.4186C12.9439 39.1013 11.1719 34.754 11.1719 29.9999C11.1719 19.618 19.6182 11.1719 30 11.1719ZM24.1361 25.6026C24.1361 22.3691 26.7666 19.7386 30 19.7386C33.2335 19.7386 35.864 22.3691 35.864 25.6026C35.864 28.836 33.2335 31.4665 30 31.4665C26.7666 31.4665 24.1361 28.8359 24.1361 25.6026ZM30 34.9861C35.8301 34.9861 40.6233 39.5095 41.0549 45.2309C37.9484 47.4918 34.1276 48.828 30 48.828C25.8725 48.828 22.0517 47.4919 18.9452 45.2309C19.3768 39.5096 24.17 34.9861 30 34.9861Z" fill="#FECA43"/>
</svg>
