<svg width="50" height="60" viewBox="0 0 50 60" fill="none" xmlns="http://www.w3.org/2000/svg">
<path d="M24.9978 0C11.5203 0 0.555664 10.9646 0.555664 24.4421V37.3241C0.555664 41.4714 3.88789 44.8528 8.01523 44.9373C8.63586 47.4162 10.8815 49.2579 13.55 49.2579H19.2556V26.6678H13.55C10.8829 26.6678 8.63809 28.5075 8.01617 30.9844H4.07129V24.442C4.07129 12.9032 13.4588 3.51562 24.9978 3.51562C36.5368 3.51562 45.9243 12.9032 45.9243 24.4421V30.9844H41.9795C41.3574 28.5075 39.1127 26.6678 36.4456 26.6678H30.74V49.2578H36.4456C39.1141 49.2578 41.3599 47.4161 41.9804 44.9372C43.4301 44.9075 44.7809 44.4714 45.9243 43.7375V45.9255C45.9243 51.7477 41.1877 56.4843 35.3655 56.4843H16.2478V59.9999H35.3656C43.1264 59.9999 49.4401 53.6862 49.4401 45.9255V24.4421C49.44 10.9646 38.4753 0 24.9978 0V0ZM15.74 30.1834V45.7421H13.55C12.3424 45.7421 11.3599 44.7598 11.3599 43.5521V32.3734C11.3599 31.1658 12.3424 30.1834 13.55 30.1834H15.74ZM4.07129 37.3241V34.5H7.84438V41.4125C5.73582 41.2447 4.07129 39.4751 4.07129 37.3241ZM45.9243 37.3241C45.9243 39.4751 44.2598 41.2447 42.1512 41.4127V34.5H45.9243V37.3241ZM34.2556 45.7421V30.1834H36.4456C37.6532 30.1834 38.6357 31.1658 38.6357 32.3734V43.5521C38.6357 44.7598 37.6532 45.7421 36.4456 45.7421H34.2556Z" fill="#FECA43"/>
</svg>
