<svg width="60" height="60" viewBox="0 0 60 60" fill="none" xmlns="http://www.w3.org/2000/svg">
<path d="M44.1596 35.4529L43.2747 34.6879V25.3935C43.2747 20.2476 40.3313 15.7762 36.0396 13.5745V10.5312C36.0396 7.20133 33.3306 4.49231 30.0007 4.49231C26.6709 4.49231 23.9617 7.20133 23.9617 10.5312V13.5743C19.6701 15.7761 16.7267 20.2475 16.7267 25.3935V34.6879L15.8418 35.4529C13.872 37.1559 12.7422 39.6259 12.7422 42.2297V47.2335H23.1303C23.0526 47.6499 23.0102 48.0786 23.0102 48.5171C23.0102 52.3717 26.1462 55.5077 30.0009 55.5077C33.8555 55.5077 36.9914 52.3717 36.9914 48.5171C36.9914 48.0786 36.9489 47.6499 36.8713 47.2335H47.2594V42.2297C47.2592 39.6261 46.1294 37.156 44.1596 35.4529ZM43.7436 43.718H16.2577V42.2298C16.2577 40.6478 16.9442 39.1471 18.1409 38.1125L18.9336 37.4272H41.0677L41.8604 38.1123C43.0572 39.1471 43.7436 40.6478 43.7436 42.2297V43.718ZM33.4757 48.5172C33.4757 50.4333 31.9168 51.9921 30.0007 51.9921C28.0846 51.9921 26.5257 50.4333 26.5257 48.5172C26.5257 48.0639 26.6138 47.631 26.7725 47.2336H33.229C33.3875 47.6311 33.4757 48.0639 33.4757 48.5172ZM30.0006 8.00793C31.392 8.00793 32.5239 9.13985 32.5239 10.5312V12.3611C31.7066 12.2031 30.8632 12.1195 30.0005 12.1195C29.1379 12.1195 28.2945 12.2031 27.4772 12.3611V10.5312C27.4773 9.13985 28.6093 8.00793 30.0006 8.00793ZM30.0006 15.6351C35.3814 15.6351 39.7591 20.0126 39.7591 25.3935V33.9116H20.2423V25.3935C20.2423 20.0127 24.6198 15.6351 30.0006 15.6351Z" fill="#FECA43"/>
<path d="M3.51563 30.0001C3.51563 24.906 7.65996 20.7618 12.754 20.7618V17.2462C5.72133 17.2462 0 22.9677 0 30.0001C0 32.6165 0.786914 35.1315 2.27566 37.2728C3.72914 39.3635 5.74652 40.9572 8.10961 41.8815L9.39023 38.6075C5.82152 37.2115 3.51563 33.8329 3.51563 30.0001Z" fill="#FECA43"/>
<path d="M10.5469 30.0001C10.5469 28.7831 11.537 27.7931 12.754 27.7931V24.2775C9.59848 24.2775 7.03125 26.8446 7.03125 30.0001C7.03125 32.4415 8.58328 34.6165 10.8932 35.4122L12.0382 32.0883C11.1462 31.781 10.5469 30.9418 10.5469 30.0001Z" fill="#FECA43"/>
<path d="M47.2461 17.2462V20.7618C52.34 20.7618 56.4843 24.9062 56.4843 30.0001C56.4843 33.8331 54.1783 37.2116 50.6096 38.6075L51.8902 41.8816C54.2534 40.9574 56.2708 39.3637 57.7242 37.273C59.2132 35.1315 60 32.6165 60 30.0001C60 22.9677 54.2786 17.2462 47.2461 17.2462Z" fill="#FECA43"/>
<path d="M52.9688 30.0001C52.9688 26.8446 50.4016 24.2775 47.2461 24.2775V27.7931C48.4631 27.7931 49.4532 28.7832 49.4532 30.0001C49.4532 30.9418 48.8539 31.7808 47.9618 32.0881L49.1069 35.412C51.4168 34.6164 52.9688 32.4415 52.9688 30.0001Z" fill="#FECA43"/>
</svg>
