<svg width="60" height="60" viewBox="0 0 60 60" fill="none" xmlns="http://www.w3.org/2000/svg">
<g clip-path="url(#clip0)">
<path d="M45.6438 34.7535C48.9149 31.0629 50.9043 26.212 50.9043 20.9042C50.9043 9.37755 41.5266 0 30.0001 0C18.4735 0 9.09598 9.37755 9.09598 20.9042C9.09598 26.2118 11.0854 31.0629 14.3564 34.7535L7.48047 54.2506L16.677 54.1612L23.7828 60L30.0001 42.3707L36.2172 60L43.3232 54.1612L52.5197 54.2506L45.6438 34.7535ZM37.8654 54.09L33.4342 41.5247C36.9391 40.943 40.1522 39.4872 42.8407 37.3883L47.529 50.6821L42.0776 50.629L37.8654 54.09ZM17.9227 50.629L12.4713 50.6821L17.1594 37.3883C19.8479 39.4872 23.0611 40.943 26.566 41.5247L22.1348 54.09L17.9227 50.629ZM30.0001 3.51988C39.5858 3.51988 47.3844 11.3184 47.3844 20.9042C47.3844 30.4899 39.5858 38.2884 30.0001 38.2884C20.4144 38.2884 12.6159 30.4899 12.6159 20.9042C12.6159 11.3184 20.4144 3.51988 30.0001 3.51988Z" fill="#FECA43"/>
<path d="M19.4805 28.863H40.5215V13.9339L35.0418 15.7256L30.0009 11.4614L24.9602 15.7256L19.4805 13.9339V28.863ZM23.0004 18.7881L25.7337 19.6819L30.0009 16.0719L34.2683 19.6819L37.0016 18.7881V25.3431H23.0004V18.7881Z" fill="#FECA43"/>
</g>
<defs>
<clipPath id="clip0">
<rect width="60" height="60" fill="white"/>
</clipPath>
</defs>
</svg>
