<svg width="60" height="58" viewBox="0 0 60 58" fill="none" xmlns="http://www.w3.org/2000/svg">
<path d="M49.2237 0.733887H0V39.3016H42.1996V48.366C42.1996 53.2736 46.1922 57.2663 51.0998 57.2663C56.0074 57.2663 60.0001 53.2737 60.0001 48.366V11.3764L49.2237 0.733887ZM3.51562 4.24951H47.7804L56.4844 12.8456V20.3793C55.4427 19.5688 54.2211 18.9804 52.8898 18.6849C52.2831 16.0539 49.923 14.0856 47.1105 14.0856C43.8395 14.0856 41.1784 16.7469 41.1784 20.0178C41.1784 23.2887 43.8395 25.9499 47.1105 25.9499C49.5941 25.9499 51.7247 24.4153 52.6072 22.2449C54.748 22.9274 56.3295 24.873 56.4727 27.2016L47.7803 35.7861H3.51562V4.24951ZM49.5271 20.0178C49.5271 21.3503 48.4431 22.4343 47.1105 22.4343C45.778 22.4343 44.694 21.3502 44.694 20.0178C44.694 18.6853 45.778 17.6013 47.1105 17.6013C48.4431 17.6013 49.5271 18.6853 49.5271 20.0178ZM56.4844 48.366C56.4844 51.3351 54.0689 53.7507 51.0997 53.7507C48.1305 53.7507 45.7151 51.3352 45.7151 48.366V39.3016H49.2236L56.4844 32.1311V48.366Z" fill="#FECA43"/>
<path d="M14.0986 30.3402L25.5862 8.28506L28.7045 9.90928L17.217 31.9644L14.0986 30.3402Z" fill="#FECA43"/>
<path d="M19.2578 13.6655C19.2578 10.7578 16.8921 8.39209 13.9844 8.39209C11.0766 8.39209 8.71094 10.7578 8.71094 13.6655C8.71094 16.5733 11.0766 18.939 13.9844 18.939C16.8921 18.939 19.2578 16.5733 19.2578 13.6655ZM13.9844 15.4233C13.0151 15.4233 12.2266 14.6348 12.2266 13.6655C12.2266 12.6963 13.0151 11.9077 13.9844 11.9077C14.9536 11.9077 15.7422 12.6963 15.7422 13.6655C15.7422 14.6348 14.9536 15.4233 13.9844 15.4233Z" fill="#FECA43"/>
<path d="M28.9844 21.0964C26.0766 21.0964 23.7109 23.4621 23.7109 26.3699C23.7109 29.2776 26.0766 31.6433 28.9844 31.6433C31.8922 31.6433 34.2578 29.2776 34.2578 26.3699C34.2578 23.4621 31.8922 21.0964 28.9844 21.0964ZM28.9844 28.1277C28.0151 28.1277 27.2266 27.3391 27.2266 26.3699C27.2266 25.4006 28.0151 24.6121 28.9844 24.6121C29.9537 24.6121 30.7422 25.4006 30.7422 26.3699C30.7422 27.3391 29.9537 28.1277 28.9844 28.1277Z" fill="#FECA43"/>
</svg>
