<svg width="60" height="60" viewBox="0 0 60 60" fill="none" xmlns="http://www.w3.org/2000/svg">
<g clip-path="url(#clip0)">
<path d="M58.7928 36.2672L58.7927 36.2671C57.782 34.8481 56.2792 33.9075 54.5612 33.6188C52.8657 33.334 51.1611 33.7185 49.7527 34.7002V2.56995H12.1064V35.5618H0V57.4297H40.2785L57.2638 45.3633C60.193 43.2771 60.8789 39.1965 58.7928 36.2672ZM55.2258 42.4985L39.1568 53.914H15.6662V38.0142C17.467 36.1867 19.3979 35.3973 22.0086 35.3973C23.7859 35.3973 25.7973 36.0157 27.0136 36.9362L27.4843 37.2924H40.7268C42.1418 37.2924 43.2929 38.4812 43.2929 39.9425C43.2929 41.4038 42.1418 42.5927 40.7268 42.5927H33.1616V46.1085H40.7268C43.6545 46.1085 46.1053 44.0002 46.6806 41.2025L51.736 37.602C52.3901 37.1362 53.1862 36.9528 53.9784 37.086C54.7704 37.2192 55.4631 37.6526 55.9291 38.3068V38.3067C56.8905 39.657 56.5745 41.5379 55.2258 42.4985ZM12.1504 53.914H3.51578V39.0775H12.1504V53.914ZM33.5669 6.08573V19.6036H28.2919V6.08573H33.5669ZM37.0827 23.1192V6.08573H46.2368V37.2022L46.1898 37.2356C45.1991 35.189 43.123 33.7765 40.7267 33.7765H28.6276C26.8182 32.5981 24.3427 31.8815 22.0086 31.8815C19.5806 31.8815 17.4894 32.4284 15.6221 33.5713V6.08573H24.7761V23.1193H37.0827V23.1192Z" fill="#FECA43"/>
</g>
<defs>
<clipPath id="clip0">
<rect width="60" height="60" fill="white"/>
</clipPath>
</defs>
</svg>
