<svg width="70" height="70" viewBox="0 0 70 70" fill="none" xmlns="http://www.w3.org/2000/svg">
<path d="M67.9492 54.9154C11.1174 54.9154 13.6515 54.9259 13.6479 54.8964C13.0251 49.9085 13.0501 50.2276 13.0907 50.2216C40.362 50.0798 -24.8477 50.2305 63.4129 50.2305C67.0901 50.2305 69.8633 47.4445 69.8633 43.75V15.9619C69.8633 13.2686 67.6724 11.0735 64.979 11.0687L48.0014 11.0395V6.69922C48.0014 4.28682 46.0388 2.32422 43.6264 2.32422H39.5287C37.117 2.32422 35.155 4.28627 35.155 6.69785V11.0173L16.9427 10.9856L15.5776 3.46719C15.213 1.45824 13.4662 0 11.4244 0H2.05078C0.918203 0 0 0.918203 0 2.05078C0 3.18336 0.918203 4.10156 2.05078 4.10156C11.9759 4.10156 11.5143 4.04701 11.5421 4.19986C13.7672 16.4542 12.351 7.88963 18.3206 46.0927L13.0721 46.12C10.6075 46.1295 8.68889 48.2929 8.9965 50.7547L9.57783 55.4053C9.83527 57.4643 11.5942 59.017 13.6691 59.017H17.3086C14.7383 64.0078 18.3787 70 24.017 70C29.6527 70 33.2969 64.0099 30.7254 59.017H50.2578C47.6874 64.0078 51.3279 70 56.9662 70C62.6017 70 66.246 64.0102 63.6744 59.017H67.9492C69.0818 59.017 70 58.0988 70 56.9662C70 55.8336 69.0818 54.9154 67.9492 54.9154ZM39.2567 6.69785C39.2567 6.54787 39.3788 6.42578 39.5288 6.42578H43.6265C43.7773 6.42578 43.9 6.54842 43.9 6.69922V21.875C43.9 23.0076 44.8182 23.9258 45.9508 23.9258H48.9963L42.6047 30.3213C42.0375 30.8889 41.1191 30.8889 40.5519 30.3213L34.1601 23.9258H37.2058C38.3384 23.9258 39.2566 23.0076 39.2566 21.875V6.69785H39.2567ZM35.1552 15.1189V19.8242H31.7319C28.9803 19.8242 27.5959 23.1593 29.5425 25.1076L37.651 33.2207C39.8213 35.3922 43.3352 35.3925 45.5057 33.2207L53.6141 25.1076C55.5595 23.1611 54.1788 19.8242 51.4248 19.8242H48.0015V15.1411L64.972 15.1703C65.4076 15.171 65.7617 15.5262 65.7617 15.9619V43.75C65.7617 45.1728 64.8178 46.1289 63.4129 46.1289H22.4777L17.6273 15.0884L35.1552 15.1189ZM27.4576 62.4576C27.4576 64.3549 25.9141 65.8984 24.0168 65.8984C22.1196 65.8984 20.5762 64.3549 20.5762 62.4576C20.5762 60.5604 22.1197 59.0168 24.017 59.0168C25.9142 59.0168 27.4576 60.5605 27.4576 62.4576ZM60.4069 62.4576C60.4069 64.3549 58.8634 65.8984 56.9662 65.8984C55.0689 65.8984 53.5254 64.3549 53.5254 62.4576C53.5254 60.5604 55.0689 59.0168 56.9662 59.0168C58.8634 59.0168 60.4069 60.5605 60.4069 62.4576Z" fill="#FECA43"/>
</svg>
