<svg width="70" height="70" viewBox="0 0 70 70" fill="none" xmlns="http://www.w3.org/2000/svg">
<path d="M43.2991 29.6507L51.521 23.6524C53.1202 22.4857 52.291 19.9449 50.3122 19.9449H40.1586L37.0192 10.2426C36.409 8.35756 33.7283 8.35373 33.1169 10.2426L29.9775 19.9449H19.8238C17.8441 19.9449 17.0167 22.4862 18.6151 23.6524L26.8369 29.6507L23.6953 39.3595C23.085 41.2458 25.2546 42.8153 26.8551 41.6476L35.0678 35.6559L43.2805 41.6476C44.8717 42.8081 47.0522 41.2502 46.4404 39.3595L43.2991 29.6507ZM38.9397 29.5006L40.5928 34.6093L36.277 31.4606C35.5566 30.9351 34.5797 30.9353 33.8595 31.4606L29.5437 34.6093L31.1968 29.5006C31.4695 28.6576 31.1701 27.7347 30.4543 27.2124L26.1147 24.0464H31.4697C32.359 24.0464 33.1471 23.4732 33.4208 22.627L35.0682 17.5356L36.7157 22.627C36.9895 23.473 37.7776 24.0464 38.6668 24.0464H44.0218L39.6822 27.2124C38.9664 27.7347 38.6669 28.6576 38.9397 29.5006Z" fill="#FECA43"/>
<path d="M68.2983 64.6573L56.5639 44.0363C60.1004 39.4185 62.2067 33.6422 62.2067 27.3805C62.2066 12.2828 49.9709 0 34.9312 0C19.8914 0 7.65578 12.2828 7.65578 27.3805C7.65578 33.6886 9.79283 39.5042 13.3769 44.1388L1.70058 64.6577C0.346795 67.0381 2.05933 70 4.79986 70H22.2383C24.0995 70 25.8282 68.9936 26.7496 67.3738L33.9386 54.741C34.6867 54.7679 35.2481 54.769 36.0586 54.7358L43.2494 67.3736C44.171 68.9938 45.8997 70.0001 47.7609 70.0001H65.1993C67.9367 70 69.654 67.0411 68.2983 64.6573ZM23.1846 65.3454C22.9906 65.6865 22.628 65.8984 22.2382 65.8984H5.71369L16.2767 47.336C19.9035 50.7545 24.4581 53.1914 29.5167 54.2181L23.1846 65.3454ZM11.7573 27.3805C11.7573 14.5444 22.153 4.10156 34.9312 4.10156C47.7093 4.10156 58.105 14.5444 58.105 27.3805C58.105 40.2166 47.7093 50.6595 34.9312 50.6595C22.153 50.6595 11.7573 40.2165 11.7573 27.3805ZM47.7609 65.8984C47.3711 65.8984 47.0085 65.6865 46.8144 65.3453L40.4688 54.1933C45.5195 53.1435 50.0632 50.6874 53.675 47.2526L64.2854 65.8984H47.7609Z" fill="#FECA43"/>
</svg>
