<svg width="70" height="70" viewBox="0 0 70 70" fill="none" xmlns="http://www.w3.org/2000/svg">
<path d="M69.5305 64.8676L65.8362 38.9977C65.5218 36.7965 63.6081 35.1367 61.3847 35.1367H56.0928C57.8017 30.7997 58.7388 26.8432 58.7388 23.7043C58.7388 10.6337 48.1284 0 35.0864 0C22.0444 0 11.4341 10.6337 11.4341 23.7043C11.4341 27.0927 12.4954 31.1217 14.0643 35.1367H9.54038C7.35889 35.1367 5.49719 36.6954 5.1137 38.843L0.495066 64.7131C0.00274178 67.4715 2.12503 70 4.92188 70H65.0791C67.8157 70 69.917 67.5738 69.5305 64.8676ZM35.0865 4.10156C45.867 4.10156 54.6373 12.8953 54.6373 23.7043C54.6373 28.6665 51.4663 36.9392 46.5586 44.7799C45.6771 46.1884 44.9177 47.2857 44.9023 47.3088C40.334 53.9768 36.5027 57.0117 35.0865 57.0117C34.3485 57.0117 32.9268 56.2457 31.0358 54.4638C30.4687 53.8647 27.6429 51.4291 23.5155 44.7856C18.668 36.983 15.5358 28.7079 15.5358 23.7042C15.5358 12.8953 24.3061 4.10156 35.0865 4.10156ZM9.15141 39.5639C9.18505 39.3753 9.34856 39.2383 9.54038 39.2383H15.8353C15.8705 39.3128 15.9065 39.3866 15.942 39.4611L7.82401 46.999L9.15141 39.5639ZM10.6432 65.8984C4.43216 65.8984 4.78776 65.959 4.61891 65.7569C4.44596 65.5505 4.3828 66.2739 6.62622 53.7083L17.8817 43.2571C20.7277 48.4684 23.7891 52.6812 26.3579 55.5238L10.6432 65.8984ZM18.0878 65.8984L29.3584 58.4577C31.4893 60.2403 33.3766 61.1133 35.0865 61.1133C39.0574 61.1133 43.5847 55.8809 46.0704 52.6709L51.2809 65.8984H18.0878ZM65.3774 65.7623C65.209 65.9568 65.9766 65.8984 55.6891 65.8984L48.9128 48.6961C50.922 45.6678 52.777 42.4166 54.2988 39.2383H61.3848C61.5802 39.2383 61.7482 39.3842 61.7758 39.5775C65.7253 67.2355 65.5612 65.5506 65.3774 65.7623Z" fill="#FECA43"/>
<ellipse cx="35" cy="22.75" rx="8.75" ry="8.75" fill="#FECA43"/>
</svg>
