<svg width="70" height="70" viewBox="0 0 70 70" fill="none" xmlns="http://www.w3.org/2000/svg">
<path d="M57.6197 0H12.3803C7.43846 0 3.41797 4.02049 3.41797 8.96232V61.0378C3.41797 65.9795 7.43846 70 12.3803 70H57.6197C62.5615 70 66.582 65.9795 66.582 61.0377V8.96232C66.582 4.02049 62.5615 0 57.6197 0ZM62.4805 61.0377C62.4805 63.7179 60.2999 65.8984 57.6197 65.8984H12.3803C9.70006 65.8984 7.51953 63.7179 7.51953 61.0377V8.96232C7.51953 6.28209 9.70006 4.10156 12.3803 4.10156H57.6197C60.2999 4.10156 62.4805 6.28209 62.4805 8.96232V61.0377Z" fill="#FECA43"/>
<path d="M52.1438 18.9503C53.4396 20.2463 55.6446 19.3106 55.6446 17.5003C55.6446 16.9754 55.4443 16.4506 55.0439 16.0502L48.4814 9.48774C47.9214 8.81576 46.5851 8.61069 45.69 9.38643C45.604 9.4608 46.0677 9.00115 39.0186 16.0502C38.2177 16.851 38.2177 18.1496 39.0186 18.9505C39.8194 19.7512 41.118 19.7512 41.9189 18.9505L44.9806 15.8888V54.1118L41.9189 51.0501C41.1181 50.2494 39.8195 50.2494 39.0186 51.0501C38.2177 51.8509 38.2177 53.1494 39.0186 53.9503L45.5702 60.5019C46.4609 61.4081 47.8966 61.2145 48.4814 60.5128L55.0439 53.9503C55.4443 53.55 55.6446 53.0252 55.6446 52.5003C55.6446 50.6896 53.4392 49.7547 52.1438 51.0503L49.0821 54.1118V15.8888L52.1438 18.9503Z" fill="#FECA43"/>
<path d="M25.3252 10.6081C24.5485 8.52721 21.5517 8.44518 20.6879 10.5561C20.6717 10.596 21.003 9.72678 13.3219 29.895C12.9187 30.9535 13.45 32.1383 14.5085 32.5413C15.5669 32.9448 16.7517 32.4131 17.1548 31.3547L18.4817 27.8709H27.4561L28.7688 31.3489C29.0787 32.1701 29.859 32.6761 30.6878 32.6761C32.1114 32.6761 33.1147 31.248 32.6061 29.9007L25.3252 10.6081ZM20.0438 23.7693L22.9895 16.0351L25.9084 23.7693H20.0438Z" fill="#FECA43"/>
<path d="M29.6431 57.0117H20.2933L31.0555 40.4945C31.9432 39.1319 30.9625 37.3242 29.3372 37.3242H16.913C15.7805 37.3242 14.8623 38.2424 14.8623 39.375C14.8623 40.5076 15.7805 41.4258 16.913 41.4258H25.5533L14.7912 57.943C13.9033 59.3056 14.8839 61.1133 16.5093 61.1133H29.6431C30.7756 61.1133 31.6938 60.1951 31.6938 59.0625C31.6938 57.9299 30.7758 57.0117 29.6431 57.0117Z" fill="#FECA43"/>
</svg>
