<svg width="70" height="70" viewBox="0 0 70 70" fill="none" xmlns="http://www.w3.org/2000/svg">
<g clip-path="url(#clip0)">
<path d="M35.0134 28.0657C41.5747 28.0657 46.9126 22.6942 46.9126 16.0917C46.9126 9.48919 41.5747 4.11768 35.0134 4.11768C28.4522 4.11768 23.1143 9.48919 23.1143 16.0917C23.1143 22.6942 28.4522 28.0657 35.0134 28.0657ZM35.0134 8.24665C39.3122 8.24665 42.8094 11.7659 42.8094 16.0917C42.8094 20.4175 39.3122 23.9367 35.0134 23.9367C30.7147 23.9367 27.2174 20.4175 27.2174 16.0917C27.2174 11.7659 30.7147 8.24665 35.0134 8.24665Z" fill="#FECA43"/>
<path d="M59.0855 28.0656C63.2334 28.0656 66.6079 24.6698 66.6079 20.4958C66.6079 16.3218 63.2334 12.926 59.0855 12.926C54.9376 12.926 51.563 16.3218 51.563 20.4958C51.563 24.6698 54.9376 28.0656 59.0855 28.0656ZM59.0855 17.055C60.9709 17.055 62.5048 18.5985 62.5048 20.4958C62.5048 22.3931 60.9709 23.9366 59.0855 23.9366C57.2001 23.9366 55.6662 22.3931 55.6662 20.4958C55.6662 18.5985 57.2001 17.055 59.0855 17.055Z" fill="#FECA43"/>
<path d="M60.7405 32.7451H57.5674C53.8282 32.7451 50.6003 34.9682 49.1295 38.1612C46.1012 34.8347 41.7515 32.7451 36.9256 32.7451H33.1019C28.276 32.7451 23.9262 34.8347 20.898 38.1612C19.427 34.9682 16.1992 32.7451 12.4599 32.7451H9.28683C4.16608 32.7451 0 36.9121 0 42.0339V57.0648C0 59.2883 1.80457 61.0974 4.02274 61.0974H16.5684C16.7788 63.561 18.8375 65.5016 21.3395 65.5016H48.688C51.1898 65.5016 53.2485 63.561 53.459 61.0974H65.8614C68.1586 61.0974 70.0275 59.2242 70.0275 56.9216V42.0339C70.0273 36.9121 65.8612 32.7451 60.7405 32.7451ZM4.10316 42.0339C4.10316 39.1888 6.42856 36.8741 9.28683 36.8741H12.4599C15.3182 36.8741 17.6436 39.1888 17.6436 42.0339V43.4475C16.264 47.0623 16.5494 49.2287 16.5494 56.9684H4.10316V42.0339ZM49.3747 60.6816C49.3747 61.0627 49.0667 61.3727 48.688 61.3727H21.3393C20.9606 61.3727 20.6526 61.0626 20.6526 60.6816V49.4017C20.6526 42.4939 26.2373 36.8741 33.1017 36.8741H36.9255C43.79 36.8741 49.3747 42.4939 49.3747 49.4015V60.6816ZM65.9241 56.9216C65.9241 56.9928 66.689 56.9684 53.4779 56.9684C53.4779 49.1714 53.7611 47.0564 52.3837 43.4475V42.0339C52.3837 39.1888 54.7091 36.8741 57.5674 36.8741H60.7405C63.5988 36.8741 65.9241 39.1888 65.9241 42.0339V56.9216Z" fill="#FECA43"/>
<path d="M10.9419 28.0656C15.0898 28.0656 18.4644 24.6698 18.4644 20.4958C18.4644 16.3218 15.0898 12.926 10.9419 12.926C6.79401 12.926 3.41943 16.3218 3.41943 20.4958C3.41943 24.6698 6.79401 28.0656 10.9419 28.0656ZM10.9419 17.055C12.8273 17.055 14.3612 18.5985 14.3612 20.4958C14.3612 22.3931 12.8273 23.9366 10.9419 23.9366C9.0565 23.9366 7.5226 22.3931 7.5226 20.4958C7.5226 18.5985 9.0565 17.055 10.9419 17.055Z" fill="#FECA43"/>
</g>
<defs>
<clipPath id="clip0">
<rect width="70" height="70" fill="white"/>
</clipPath>
</defs>
</svg>
