<svg width="70" height="70" viewBox="0 0 70 70" fill="none" xmlns="http://www.w3.org/2000/svg">
<path d="M59.7441 10.2572C46.069 -3.4176 23.9344 -3.41924 10.2577 10.2572C-3.41711 23.9323 -3.41875 46.0669 10.2577 59.7436C23.9328 73.4185 46.0674 73.4201 59.7441 59.7436C73.419 46.0684 73.4206 23.934 59.7441 10.2572ZM37.0512 65.8223V48.0313H47.4485C46.5291 54.6297 44.9068 60.5177 42.7967 64.8947C40.9432 65.3783 39.0221 65.6925 37.0512 65.8223ZM27.2044 64.8946C25.5915 61.5515 24.2621 57.3292 23.315 52.5552C25.0333 51.5877 26.3352 49.9669 26.8831 48.0314H32.9505V65.8223C30.9796 65.6925 29.0582 65.3783 27.2044 64.8946ZM5.42729 43.9306C3.71541 38.2721 3.62465 32.0285 5.42729 26.0701H17.9662C17.5996 30.2405 17.4936 34.4465 17.6454 38.7068C15.1014 39.401 13.0903 41.3961 12.373 43.9306H5.42729ZM32.9505 4.17856V16.7648C30.4386 17.4757 28.4568 19.4576 27.7459 21.9695H22.5532C23.4726 15.371 25.0949 9.48302 27.205 5.10599C29.0586 4.62239 30.9798 4.30842 32.9505 4.17856ZM42.7969 5.10613C44.9069 9.48302 46.5291 15.371 47.4485 21.9696H42.2558C41.5449 19.4577 39.5631 17.4759 37.0512 16.7649V4.1787C39.0221 4.30842 40.9432 4.62239 42.7969 5.10613ZM50.3738 43.9306C48.4769 43.9306 46.9337 42.3875 46.9337 40.4907C46.9337 38.5939 48.4769 37.0507 50.3738 37.0507C52.2706 37.0507 53.8138 38.5939 53.8138 40.4907C53.8138 42.3875 52.2706 43.9306 50.3738 43.9306ZM48.3062 33.2406C43.7336 34.5467 41.4986 39.7205 43.6669 43.9307H37.0512V31.2747C39.5631 30.5637 41.5449 28.582 42.2558 26.0701H47.9184C48.134 28.4169 48.264 30.8163 48.3062 33.2406ZM35.0009 20.5798C36.8977 20.5798 38.4409 22.123 38.4409 24.0198C38.4409 25.9166 36.8977 27.4597 35.0009 27.4597C33.104 27.4597 31.5608 25.9166 31.5608 24.0198C31.5608 22.123 33.104 20.5798 35.0009 20.5798ZM27.7459 26.0701C28.4568 28.582 30.4386 30.5637 32.9505 31.2747V43.9306H26.8831C26.1789 41.4425 24.2278 39.4743 21.7498 38.7463C21.5885 34.4596 21.7033 30.2105 22.0834 26.0701H27.7459ZM19.6281 42.541C21.5249 42.541 23.0681 44.0841 23.0681 45.9809C23.0681 47.8778 21.5249 49.421 19.6281 49.421C17.7313 49.421 16.1881 47.8778 16.1881 45.9809C16.1881 44.0841 17.7313 42.541 19.6281 42.541ZM52.4074 33.2309C52.3667 30.8135 52.242 28.418 52.0356 26.0701H64.5746C66.2864 31.7286 66.3772 37.9722 64.5746 43.9306H57.0806C59.2529 39.7127 57.0044 34.5205 52.4074 33.2309ZM63.0052 21.9695H51.5871C50.846 16.3564 49.6462 11.2884 48.052 7.00555C54.6202 10.0799 59.9354 15.3987 63.0052 21.9695ZM21.9497 7.00555C20.3555 11.2884 19.1557 16.3565 18.4146 21.9695H6.9966C10.0663 15.3987 15.3815 10.0799 21.9497 7.00555ZM6.9966 48.0313H12.373C13.242 51.1017 16.0102 53.3814 19.3233 53.5138C20.0166 56.9668 20.9058 60.1645 21.9571 62.9986C15.3854 59.9248 10.0676 54.6046 6.9966 48.0313ZM48.052 62.9953C49.6462 58.7125 50.8461 53.6444 51.5873 48.0313H63.0052C59.9354 54.6023 54.6202 59.9208 48.052 62.9953Z" fill="#FECA43"/>
</svg>
