<svg width="18" height="18" viewBox="0 0 18 18" fill="none" xmlns="http://www.w3.org/2000/svg">
<path d="M7.46208 13.7194L5.34106 15.8404C4.46172 16.7198 3.03771 16.7198 2.15912 15.8406C1.28035 14.9618 1.28035 13.5377 2.15894 12.6591L6.40173 8.4163C7.28032 7.53767 8.70447 7.53767 9.58307 8.4163C9.87596 8.70919 10.3509 8.70919 10.6437 8.4163C10.9366 8.12341 10.9366 7.64852 10.6437 7.35563C9.17933 5.89122 6.80546 5.89122 5.34106 7.35563L1.09831 11.5984C-0.366102 13.0628 -0.366102 15.4367 1.09831 16.9011C2.56254 18.3662 4.93658 18.3662 6.40176 16.9011L8.52279 14.78C8.81567 14.4872 8.81567 14.0123 8.52279 13.7194C8.2299 13.4265 7.75497 13.4265 7.46208 13.7194Z" fill="#0C5EA7"/>
<path d="M16.9008 1.09831C15.4364 -0.366102 13.0617 -0.366102 11.5973 1.09831L9.05257 3.64307C8.75968 3.93596 8.75968 4.41085 9.05257 4.70374C9.34546 4.99663 9.82035 4.99663 10.1132 4.70374L12.658 2.15898C13.5366 1.28035 14.9615 1.28035 15.8401 2.15898C16.7187 3.03757 16.7187 4.46172 15.8401 5.34032L11.1736 10.0069C10.295 10.8855 8.87085 10.8855 7.99225 10.0069C7.69936 9.71399 7.22447 9.71399 6.93158 10.0069C6.63869 10.2998 6.63869 10.7747 6.93158 11.0676C8.39599 12.532 10.7699 12.532 12.2343 11.0676L16.9008 6.40102C18.3652 4.93662 18.3652 2.56271 16.9008 1.09831Z" fill="#0C5EA7"/>
</svg>
