<svg width="18" height="18" viewBox="0 0 18 18" fill="none" xmlns="http://www.w3.org/2000/svg">
<path d="M13.1883 9.36492L13.1176 9.29425L13.0469 9.36496L12.988 9.42388C12.4385 9.97356 11.6231 10.7893 10.9236 11.4929C10.0795 10.935 9.31763 10.3233 8.70291 9.70905C7.94122 8.94796 6.9963 7.87544 6.46042 7.09527C7.12706 6.43363 7.97747 5.58499 8.60621 4.95729L8.67707 4.88656L8.60625 4.81579L4.71665 0.929261L4.6466 0.859273L4.57593 0.928622L2.63519 2.83292L2.63519 2.83291L2.63455 2.83356L2.63169 2.83642C2.06311 3.40455 1.8275 4.17718 1.91932 5.11859L2.01882 5.10888L1.91932 5.11859C2.06538 6.6159 3.05012 8.43199 4.38466 10.1328C5.72168 11.8367 7.42177 13.4401 9.01977 14.5117C9.94414 15.1315 11.0766 15.7327 12.18 15.9808C13.2842 16.2292 14.3769 16.1267 15.1924 15.3119C16.3175 14.1877 16.7547 13.7229 16.7811 13.6949L16.7817 13.6942L16.7818 13.6941L17.073 13.3835L17.1392 13.3128L17.0707 13.2444L13.1883 9.36492ZM7.14873 4.88612C5.94812 6.0838 5.52272 6.50456 5.2144 6.80951C5.19214 6.83153 5.17049 6.85294 5.14921 6.87399L5.09421 6.9284L5.13306 6.9953L5.30382 7.28941L5.30384 7.28943C5.82927 8.19383 7.03982 9.57386 7.93918 10.4725C8.93222 11.4648 9.95089 12.1644 11.0108 12.8273L11.0786 12.8697L11.1348 12.813L11.3826 12.5631C11.3826 12.5631 11.3826 12.5631 11.3826 12.5631C11.8998 12.0417 12.6401 11.2999 13.118 10.8214L15.6311 13.3325C15.3806 13.5901 14.99 13.9875 14.4286 14.5485C13.8767 15.1 13.0422 15.1164 12.1421 14.8587C11.2463 14.6023 10.3188 14.0828 9.62158 13.6152C8.15731 12.6332 6.56156 11.1342 5.30012 9.55069C4.03569 7.96345 3.12072 6.30819 2.99442 5.0138L2.99442 5.01379C2.93361 4.3908 3.07432 3.92181 3.39377 3.60153L4.63971 2.37898L7.14873 4.88612Z" fill="#0C5EA7" stroke="#0C5EA7" stroke-width="0.2"/>
</svg>
