<svg width="18" height="18" viewBox="0 0 18 18" fill="none" xmlns="http://www.w3.org/2000/svg">
<path d="M18 9C18 4.39474 14.5407 0.597832 10.079 0.0646172C10.0774 0.0644414 10.0758 0.0642656 10.0742 0.0640547C10.0068 0.0560391 9.93934 0.0486562 9.87152 0.0421172C9.85929 0.0409219 9.84698 0.0399727 9.83475 0.0388477C9.77653 0.0335039 9.71824 0.0283711 9.65971 0.0241523C9.63601 0.0224297 9.61218 0.0211992 9.58845 0.0196523C9.54028 0.0165586 9.49215 0.0133242 9.44381 0.0109687C9.4057 0.00910547 9.36749 0.00801563 9.32927 0.00660938C9.29412 0.00534375 9.25903 0.00369141 9.22377 0.0028125C9.14934 0.000984374 9.07474 0 9 0C8.92526 0 8.85066 0.000984374 8.77623 0.00284766C8.74097 0.00369141 8.70592 0.00537891 8.67073 0.00664453C8.63255 0.00801563 8.5943 0.00914063 8.55619 0.0110039C8.50781 0.0133594 8.45972 0.0165586 8.41155 0.0196875C8.38779 0.0212344 8.36399 0.0224648 8.34029 0.0241875C8.28176 0.0284414 8.22347 0.0335391 8.16525 0.0388828C8.15298 0.0400078 8.14071 0.040957 8.12848 0.0421523C8.0607 0.0486563 7.99316 0.0560742 7.9258 0.0640898C7.92418 0.0642656 7.9226 0.0644414 7.92098 0.0646523C3.4593 0.597832 0 4.39474 0 9C0 11.5673 1.07511 13.8835 2.79956 15.5231C4.18887 17.0681 6.49111 18 9 18C11.5089 18 13.8111 17.0681 15.2004 15.5231C16.9249 13.8835 18 11.5673 18 9ZM1.53724 9.74999H5.26163C5.29344 10.7892 5.39107 11.7798 5.54832 12.6905C4.77447 13.0137 4.04764 13.4453 3.38762 13.9743C2.36914 12.826 1.69745 11.3633 1.53724 9.74999ZM3.35254 4.06526C3.97171 4.60171 4.71435 5.04042 5.53922 5.36393C5.38738 6.25971 5.29277 7.23136 5.26159 8.25001H1.53724C1.69559 6.65515 2.35364 5.20745 3.35254 4.06526ZM16.4628 8.25001H12.7384C12.7072 7.23136 12.6126 6.25971 12.4607 5.36393C13.2856 5.04042 14.0283 4.60171 14.6474 4.06526C15.6464 5.20745 16.3044 6.65515 16.4628 8.25001ZM6.76325 8.25001C6.79395 7.37849 6.87691 6.55228 6.99824 5.79611C7.64037 5.92956 8.31231 6.00001 9 6.00001C9.68769 6.00001 10.3596 5.92952 11.0018 5.79611C11.1231 6.55232 11.2061 7.37852 11.2367 8.25001H6.76325ZM11.2367 9.74999C11.2058 10.6296 11.1216 11.4631 10.9984 12.225C10.3506 12.0772 9.68133 12 9 12C8.31867 12 7.64944 12.0772 7.00158 12.225C6.87843 11.4631 6.79419 10.6296 6.76325 9.74999H11.2367ZM12.1367 3.87587C11.9319 3.1224 11.679 2.45211 11.3835 1.88961C12.1581 2.15065 12.8853 2.53804 13.5388 3.03789C13.1331 3.36723 12.6598 3.64943 12.1367 3.87587ZM10.6973 4.32752C10.1563 4.43995 9.58634 4.5 9 4.5C8.41366 4.5 7.84371 4.43995 7.30266 4.32752C7.75139 2.60156 8.40505 1.49998 9 1.49998C9.59495 1.49998 10.2486 2.6016 10.6973 4.32752ZM5.86325 3.87587C5.34016 3.64943 4.86686 3.36723 4.46115 3.03792C5.11471 2.53807 5.84184 2.15068 6.61651 1.88965C6.32095 2.45211 6.06818 3.12237 5.86325 3.87587ZM5.87914 14.1827C6.08157 14.9139 6.3296 15.565 6.61827 16.1136C5.85134 15.8569 5.1396 15.4799 4.50563 15.0046C4.93478 14.6813 5.39494 14.4059 5.87914 14.1827ZM7.30811 13.6932C7.85609 13.566 8.4228 13.5 9 13.5C9.5772 13.5 10.1439 13.566 10.6919 13.6932C10.2433 15.4072 9.59256 16.5 9 16.5C8.40744 16.5 7.75666 15.4072 7.30811 13.6932ZM11.3817 16.1136C11.6704 15.565 11.9185 14.9139 12.1209 14.1827C12.6051 14.4059 13.0652 14.6813 13.4943 15.0046C12.8604 15.4799 12.1487 15.8569 11.3817 16.1136ZM12.4517 12.6905C12.609 11.7798 12.7066 10.7892 12.7384 9.75002H16.4628C16.3025 11.3634 15.6308 12.8261 14.6124 13.9743C13.9524 13.4453 13.2255 13.0137 12.4517 12.6905Z" fill="#0C5EA7"/>
</svg>
