<svg width="18" height="18" viewBox="0 0 18 18" fill="none" xmlns="http://www.w3.org/2000/svg">
<path d="M9 0C5.21989 0 2.14453 3.07536 2.14453 6.85547C2.14453 9.29573 2.88686 10.2743 6.45402 14.9769C7.07323 15.7932 7.77509 16.7184 8.57812 17.7891C8.67772 17.9218 8.83403 18 9.00004 18C9.16604 18 9.32231 17.9218 9.42191 17.789C10.2202 16.7241 10.919 15.8024 11.5356 14.9892C15.1114 10.273 15.8555 9.29152 15.8555 6.85547C15.8555 3.07536 12.7801 0 9 0ZM10.6952 14.352C10.1888 15.0199 9.62705 15.7609 8.99989 16.5946C8.36845 15.7555 7.80349 15.0107 7.29429 14.3395C3.82444 9.76521 3.19922 8.94097 3.19922 6.85547C3.19922 3.65692 5.80145 1.05469 9 1.05469C12.1986 1.05469 14.8008 3.65692 14.8008 6.85547C14.8008 8.93689 14.1739 9.76366 10.6952 14.352Z" fill="#0C5EA7"/>
<path d="M9 3.16406C6.96456 3.16406 5.30859 4.82003 5.30859 6.85547C5.30859 8.89091 6.96456 10.5469 9 10.5469C11.0354 10.5469 12.6914 8.89091 12.6914 6.85547C12.6914 4.82003 11.0354 3.16406 9 3.16406ZM9 9.49219C7.54611 9.49219 6.36328 8.30936 6.36328 6.85547C6.36328 5.40158 7.54611 4.21875 9 4.21875C10.4539 4.21875 11.6367 5.40158 11.6367 6.85547C11.6367 8.30936 10.4539 9.49219 9 9.49219Z" fill="#0C5EA7"/>
</svg>
