<svg width="17" height="18" viewBox="0 0 17 18" fill="none" xmlns="http://www.w3.org/2000/svg">
<path d="M1.17057 13.8986C-0.364486 12.3636 -0.364485 9.86522 1.17057 8.33016L7.13677 2.36396C9.32983 0.170904 12.8987 0.170905 15.0917 2.36396C17.2848 4.55702 17.2848 8.12587 15.0917 10.3189L7.93152 17.4776L7.13603 16.6821L14.2963 9.52344C16.0508 7.76893 16.0508 4.91402 14.2963 3.15951C12.5417 1.40499 9.6868 1.40491 7.93226 3.15945L1.96606 9.12565C0.869548 10.2222 0.869522 12.0066 1.96606 13.1031C3.0626 14.1997 4.84701 14.1997 5.94355 13.1031L11.9098 7.13694C12.3483 6.6984 12.3483 5.9845 11.9098 5.54595C11.4712 5.10741 10.7573 5.10741 10.3188 5.54595L3.95481 11.9099L3.15931 11.1144L9.52327 4.75046C10.4007 3.87301 11.8278 3.87301 12.7052 4.75046C13.5827 5.62792 13.5827 7.05497 12.7052 7.93243L6.73904 13.8986C5.20398 15.4337 2.70563 15.4337 1.17057 13.8986Z" fill="#0C5EA7"/>
</svg>
