<svg width="15" height="18" viewBox="0 0 15 18" fill="none" xmlns="http://www.w3.org/2000/svg">
<path d="M13.5 12.9727H12.8672C12.576 12.9727 11.8125 12.9727 11.8125 12.9727H10.0547V0.527344C10.0547 0.236109 9.81858 0 9.52734 0H0.527344C0.236109 0 0 0.236109 0 0.527344V12.9727L0.0273788 17.5C0.0273788 17.7912 0.290344 18 0.581578 18H13.5C13.7912 18 14.0273 17.7639 14.0273 17.4727V13.5C14.0273 13.2088 13.7912 12.9727 13.5 12.9727ZM3.58594 16.9453V6.55469H6.46875V16.9453H3.58594ZM7.52344 16.9453V6.02734C7.52344 5.73611 7.28733 5.5 6.99609 5.5H3.05859C2.76736 5.5 2.53125 5.73611 2.53125 6.02734V16.9453H1.05469V1.05469H9V16.9453H7.52344ZM12.9727 16.9453H10.0547V14.0273H12.9727V16.9453Z" fill="#0C5EA7"/>
</svg>
