<svg width="19" height="15" viewBox="0 0 19 15" fill="none" xmlns="http://www.w3.org/2000/svg">
<path d="M9.88087 9.53314L16.8875 3.46072V12.2813C16.8875 12.5468 16.6717 12.7625 16.4062 12.7625H2.59376C2.32826 12.7625 2.1125 12.5468 2.1125 12.2813V3.46072L9.11913 9.53314L9.11917 9.53317C9.2287 9.62791 9.36441 9.67505 9.5 9.67505C9.63558 9.67505 9.77129 9.62795 9.88084 9.53316L9.88087 9.53314ZM16.4062 1.07506H2.59376C1.68729 1.07506 0.95 1.81235 0.95 2.71882V12.2813C0.95 13.1878 1.68729 13.9251 2.59376 13.9251H16.4062C17.3127 13.9251 18.05 13.1878 18.05 12.2813V2.71882C18.05 1.81235 17.3127 1.07506 16.4062 1.07506ZM16.4062 2.23756C16.4418 2.23756 16.4765 2.24158 16.51 2.24911L9.5 8.32467L2.49003 2.24912C2.52347 2.24159 2.55815 2.23756 2.59373 2.23756H16.4062Z" fill="#0C5EA7" stroke="#0C5EA7" stroke-width="0.1"/>
</svg>
