<svg width="45" height="45" viewBox="0 0 45 45" fill="none" xmlns="http://www.w3.org/2000/svg">
<path d="M38.3203 5.27344H37.002V3.95508C37.002 1.77425 35.2277 0 33.0469 0H6.67969C4.49886 0 2.72461 1.77425 2.72461 3.95508V35.7715C2.72461 37.9523 4.49886 39.7266 6.67969 39.7266H7.99805V41.0449C7.99805 43.2258 9.77229 45 11.9531 45H38.3203C40.5011 45 42.2754 43.2258 42.2754 41.0449V9.22852C42.2754 7.04769 40.5011 5.27344 38.3203 5.27344ZM9.15645 10.1608C8.40938 10.9078 7.99805 11.9009 7.99805 12.9574V37.0898H6.67969C5.95274 37.0898 5.36133 36.4984 5.36133 35.7715V3.95508C5.36133 3.22813 5.95274 2.63672 6.67969 2.63672H33.0469C33.7738 2.63672 34.3652 3.22813 34.3652 3.95508V5.27344H15.682C14.6255 5.27344 13.6324 5.68485 12.8854 6.43184L9.15645 10.1608ZM15.9082 7.91016V13.1836H10.6348V12.9574C10.6348 12.6053 10.7719 12.2742 11.0209 12.0252L14.7498 8.29626C14.9988 8.04727 15.3299 7.91016 15.682 7.91016H15.9082ZM39.6387 41.0449C39.6387 41.7719 39.0473 42.3633 38.3203 42.3633H11.9531C11.2262 42.3633 10.6348 41.7719 10.6348 41.0449V15.8203H17.2266C17.9546 15.8203 18.5449 15.23 18.5449 14.502V7.91016H38.3203C39.0473 7.91016 39.6387 8.50157 39.6387 9.22852V41.0449Z" fill="white"/>
<path d="M35.6836 18.6328H14.5898C13.8618 18.6328 13.2715 19.2231 13.2715 19.9512C13.2715 20.6793 13.8618 21.2695 14.5898 21.2695H35.6836C36.4117 21.2695 37.002 20.6793 37.002 19.9512C37.002 19.2231 36.4117 18.6328 35.6836 18.6328Z" fill="white"/>
<path d="M35.6836 23.9062H14.5898C13.8618 23.9062 13.2715 24.4965 13.2715 25.2246C13.2715 25.9527 13.8618 26.543 14.5898 26.543H35.6836C36.4117 26.543 37.002 25.9527 37.002 25.2246C37.002 24.4965 36.4117 23.9062 35.6836 23.9062Z" fill="white"/>
<path d="M35.6836 29.1797H14.5898C13.8618 29.1797 13.2715 29.77 13.2715 30.498C13.2715 31.2261 13.8618 31.8164 14.5898 31.8164H35.6836C36.4117 31.8164 37.002 31.2261 37.002 30.498C37.002 29.77 36.4117 29.1797 35.6836 29.1797Z" fill="white"/>
<path d="M35.6836 34.4531H14.5898C13.8618 34.4531 13.2715 35.0434 13.2715 35.7715C13.2715 36.4996 13.8618 37.0898 14.5898 37.0898H35.6836C36.4117 37.0898 37.002 36.4996 37.002 35.7715C37.002 35.0434 36.4117 34.4531 35.6836 34.4531Z" fill="white"/>
</svg>
