<svg width="45" height="45" viewBox="0 0 45 45" fill="none" xmlns="http://www.w3.org/2000/svg">
<path d="M42.6869 2.31346C39.6023 -0.771152 34.5834 -0.771152 31.4987 2.31346L5.81783 27.9944C5.78355 28.028 5.75103 28.0637 5.72036 28.1013C5.50977 28.3584 5.84121 27.658 0.200306 41.3576C-0.206363 42.3453 0.0189002 43.4712 0.774056 44.2265C1.52983 44.9823 2.65614 45.2065 3.64289 44.8002C17.2282 39.2062 16.7271 39.4677 17.0061 39.1826L42.6871 13.5016C45.7716 10.4171 45.7716 5.39807 42.6869 2.31346ZM2.63865 42.3618L3.94392 39.1917L5.80869 41.0565L2.63865 42.3618ZM8.45033 39.9688L5.03165 36.5502L7.20712 31.2668L13.7336 37.7933L8.45033 39.9688ZM16.0645 36.3948L8.60563 28.9359L25.9046 11.6369L33.3634 19.0957L16.0645 36.3948ZM35.2282 17.231L27.7694 9.77221L29.6341 7.90743L37.093 15.3664L35.2282 17.231ZM40.8223 11.6371L38.9577 13.5018L31.4988 6.04292L33.3635 4.17823C35.42 2.12177 38.766 2.12186 40.8224 4.17823C42.8786 6.23461 42.8786 9.58061 40.8223 11.6371Z" fill="white"/>
</svg>
