<svg width="45" height="45" viewBox="0 0 45 45" fill="none" xmlns="http://www.w3.org/2000/svg">
<path d="M41.045 6.67921H37.0899V5.36085C37.0899 3.18001 35.3157 1.40576 33.1348 1.40576H3.95509C1.77425 1.40576 0 3.18001 0 5.36085V26.4546C0 28.6355 1.77425 30.4097 3.95509 30.4097H7.91017V37.0015C7.91017 38.1779 9.33594 38.7586 10.1607 37.9337L12.4113 35.6832H27.3153L34.8393 43.2072C35.6645 44.0327 37.0898 43.4533 37.0898 42.275V35.6832H41.0449C43.2257 35.6832 45 33.9089 45 31.7281V10.6343C45.0001 8.45346 43.2258 6.67921 41.045 6.67921ZM10.5469 33.8187V29.0914C10.5469 28.3633 9.95662 27.773 9.22853 27.773H3.95509C3.22814 27.773 2.63672 27.1816 2.63672 26.4546V5.36085C2.63672 4.6339 3.22814 4.04249 3.95509 4.04249H33.1348C33.8618 4.04249 34.4532 4.6339 34.4532 5.36085V26.4546C34.4532 27.1816 33.8618 27.773 33.1348 27.773H17.1387C16.789 27.773 16.4538 27.912 16.2065 28.1592L10.5469 33.8187ZM42.3634 31.7281C42.3634 32.455 41.7719 33.0465 41.045 33.0465H35.7716C35.0435 33.0465 34.4532 33.6367 34.4532 34.3648V39.0922L28.7936 33.4326C28.5463 33.1854 28.211 33.0465 27.8614 33.0465H15.048L17.6848 30.4097H33.1348C35.3157 30.4097 37.0899 28.6355 37.0899 26.4546V9.31593H41.045C41.7719 9.31593 42.3634 9.90735 42.3634 10.6343V31.7281Z" fill="white"/>
<path d="M25.2246 9.31592H6.5918C5.86371 9.31592 5.27344 9.90619 5.27344 10.6343C5.27344 11.3624 5.86371 11.9526 6.5918 11.9526H25.2246C25.9527 11.9526 26.543 11.3624 26.543 10.6343C26.543 9.90619 25.9527 9.31592 25.2246 9.31592Z" fill="white"/>
<path d="M30.4981 14.5894H6.5918C5.86371 14.5894 5.27344 15.1796 5.27344 15.9077C5.27344 16.6358 5.86371 17.2261 6.5918 17.2261H30.4981C31.2262 17.2261 31.8165 16.6358 31.8165 15.9077C31.8165 15.1796 31.2262 14.5894 30.4981 14.5894Z" fill="white"/>
<path d="M19.9512 19.8628H6.5918C5.86371 19.8628 5.27344 20.4531 5.27344 21.1812C5.27344 21.9092 5.86371 22.4995 6.5918 22.4995H19.9512C20.6793 22.4995 21.2696 21.9092 21.2696 21.1812C21.2696 20.4531 20.6793 19.8628 19.9512 19.8628Z" fill="white"/>
</svg>
