<svg width="13" height="21" viewBox="0 0 13 21" fill="none" xmlns="http://www.w3.org/2000/svg">
<path d="M6.70352 0C8.00932 0 8.41963 1.02213 8.76388 2.04266C8.90848 2.47602 12.3018 12.6172 12.4038 12.9216C12.431 13.0065 12.4126 13.1459 12.293 13.1964C12.1726 13.246 10.4095 13.9942 10.3119 14.0343C10.2143 14.0751 10.1049 14.0159 10.0697 13.9093C10.033 13.8044 9.30118 11.5935 9.21897 11.3468H4.18953C4.11026 11.5935 3.36964 13.8092 3.33661 13.9093C3.30285 14.011 3.19788 14.0799 3.09365 14.0343C2.98942 13.9894 1.21973 13.2412 1.11403 13.1964C1.01274 13.1531 0.966492 13.0274 1.00172 12.9216C1.12651 12.5419 4.46846 2.56334 4.63875 2.04266C4.97052 1.03735 5.39478 0 6.70352 0ZM0.733077 18.146C0.62738 18.146 0.542969 18.2422 0.542969 18.3591V20.7294C0.542969 20.8463 0.62738 20.9409 0.733077 20.9409H12.6688C12.7767 20.9409 12.8611 20.8463 12.8611 20.7294V18.3591C12.8611 18.2422 12.7767 18.146 12.6688 18.146H0.733077ZM6.69177 3.31151L4.9918 8.88277H8.41963L6.71379 3.31151H6.69177Z" fill="#4F5D68"/>
</svg>
