<svg width="36" height="28" viewBox="0 0 36 28" fill="none" xmlns="http://www.w3.org/2000/svg">
<g opacity="0.6">
<path d="M0 28L1.08791 22.2275C1.20202 21.5497 1.35418 20.4599 1.42265 19.863H3.18004L3.10016 20.6602H3.12298C3.56043 20.0864 4.19567 19.7937 4.84614 19.7937C6.0824 19.7937 6.71764 20.7872 6.71764 22.0157C6.71764 24.0066 5.44715 25.8088 3.4349 25.8088C3.0431 25.8088 2.63609 25.7049 2.4535 25.5739H2.43068L1.9666 27.9961H0V28ZM2.72738 24.0528C2.87953 24.2068 3.07353 24.3108 3.35121 24.3108C4.09297 24.3108 4.64453 23.1401 4.64453 22.1697C4.64453 21.7846 4.46955 21.4072 4.05493 21.4072C3.48815 21.4072 3.0393 22.0272 2.89855 22.963L2.72738 24.0528Z" fill="#4F5D68"/>
<path d="M10.5635 25.6817C10.5863 25.3544 10.6092 25.0155 10.6206 24.6882H10.5863C10.088 25.5431 9.38431 25.8127 8.7833 25.8127C7.76766 25.8127 7.02591 25.0155 7.02591 23.764C7.02591 21.8578 8.22793 19.7976 11.1531 19.7976C11.8949 19.7976 12.6785 19.9477 13.1654 20.1133L12.5986 23.1324C12.4731 23.7524 12.3551 24.9347 12.3665 25.6856H10.5635V25.6817ZM10.9553 21.3264C10.8298 21.3033 10.7119 21.2917 10.6092 21.2917C9.69623 21.2917 9.08381 22.5433 9.08381 23.3866C9.08381 23.9257 9.31584 24.2069 9.65058 24.2069C10.0081 24.2069 10.5065 23.8449 10.7499 22.4855L10.9553 21.3264Z" fill="#4F5D68"/>
<path d="M17.3457 25.5162C16.9539 25.7164 16.3871 25.8088 15.7518 25.8088C14.3748 25.8088 13.2679 24.9886 13.2679 23.3751C13.2679 21.3033 14.8617 19.7937 17.0718 19.7937C17.5359 19.7937 17.9276 19.863 18.2167 19.9708L17.7527 21.4804C17.5549 21.4111 17.3609 21.3764 17.0604 21.3764C15.9953 21.3764 15.3372 22.2082 15.3372 23.1671C15.3372 23.9026 15.8355 24.2223 16.33 24.2223C16.7675 24.2223 17.0832 24.1298 17.3723 24.0105L17.3457 25.5162Z" fill="#4F5D68"/>
<path d="M20.6776 19.9208L20.4113 21.2686C20.3771 21.4457 20.3314 21.6652 20.3314 21.8539C20.3314 22.1466 20.5292 22.4046 20.9553 22.4046C21.2215 22.4046 21.465 22.3353 21.6476 22.1928L22.0622 19.9208H24.0288L22.9409 25.6779H20.9629L21.4003 23.583H21.3775C21.0998 23.737 20.6852 23.841 20.1298 23.841C18.8822 23.841 18.2926 23.2326 18.2926 22.3199C18.2926 22.0734 18.3268 21.7577 18.3953 21.4534L18.7148 19.9208H20.6776Z" fill="#4F5D68"/>
<path d="M29.0008 25.3544C28.2362 25.728 27.3461 25.8127 26.7679 25.8127C25.1018 25.8127 24.1889 24.9231 24.1889 23.3211C24.1889 21.5651 25.4366 19.7976 27.5896 19.7976C28.7688 19.7976 29.6931 20.4522 29.6931 21.6344C29.7045 23.0747 28.3998 23.66 26.0528 23.5907C26.0756 23.7178 26.1441 23.8718 26.262 23.9758C26.4826 24.1645 26.8288 24.2685 27.2777 24.2685C27.8558 24.2685 28.3998 24.1529 28.8981 23.918L29.0008 25.3544ZM27.8558 21.6075C27.8558 21.4072 27.6695 21.2339 27.3461 21.2339C26.6424 21.2339 26.2925 21.7731 26.2354 22.1466C27.4374 22.1582 27.8558 21.981 27.8558 21.619V21.6075Z" fill="#4F5D68"/>
<path d="M30.4993 25.6817L31.5758 19.9208H33.5538L32.4773 25.6779H30.4993V25.6817Z" fill="#4F5D68"/>
<path d="M30.1382 19.8592L35.2697 19.863L34.9806 21.3341L29.8491 21.3302L30.1382 19.8592Z" fill="#4F5D68"/>
<path d="M1.97814 15.4037H36L35.4256 18.4228H1.48364L1.97814 15.4037Z" fill="#4F5D68"/>
<path fill-rule="evenodd" clip-rule="evenodd" d="M25.3396 18.4226C27.3078 16.4722 28.5292 13.7525 28.5292 10.7441C28.5292 4.81028 23.7777 0 17.9164 0C12.0551 0 7.30361 4.81028 7.30361 10.7441C7.30361 13.753 8.52537 16.473 10.4941 18.4234L25.3396 18.4226ZM22.7663 18.3929C25.249 16.7762 26.8935 13.9544 26.8935 10.7439C26.8935 5.72463 22.8743 1.65572 17.9163 1.65572C12.9584 1.65572 8.93917 5.72463 8.93917 10.7439C8.93917 13.9462 10.5752 16.7742 13.0474 18.3929H22.7663Z" fill="#4F5D68"/>
<path d="M25.3505 11.6503C25.3505 14.4827 23.9934 16.972 21.9445 18.3983H13.9241C11.884 16.9703 10.5338 14.4755 10.5338 11.6503C10.5338 7.22237 13.8506 3.63278 17.9421 3.63278C22.0336 3.63278 25.3505 7.22237 25.3505 11.6503Z" fill="#4F5D68"/>
</g>
</svg>
