<svg width="26" height="26" viewBox="0 0 26 26" fill="none" xmlns="http://www.w3.org/2000/svg">
<path d="M20.5473 16.1105C20.9776 16.2761 21.1432 16.9208 21.1761 17.202C21.2424 17.7151 21.0938 17.9135 20.9283 17.9135C20.7627 17.9135 20.5309 17.7151 20.2831 17.3182C20.0348 16.9208 19.9355 16.4745 20.0682 16.2427C20.1504 16.0936 20.3324 16.0278 20.5478 16.1105H20.5473ZM18.0333 17.9798C18.2981 17.9798 18.5958 18.0955 18.8605 18.3269C19.3731 18.7572 19.5222 19.2533 19.2574 19.6173C19.1083 19.7993 18.8605 19.9149 18.5793 19.9149C18.2981 19.9149 18.0004 19.8157 17.802 19.6337C17.3388 19.2368 17.2067 18.5747 17.5038 18.2112C17.62 18.0621 17.802 17.9798 18.0333 17.9798ZM12.2445 22.76C5.95854 22.76 0.864258 17.6652 0.864258 11.3797C0.864258 5.09428 5.95905 0 12.244 0C18.5295 0 23.6243 5.09479 23.6243 11.3797C23.6243 13.5133 23.0289 15.5152 22.0202 17.219C21.9868 17.2683 21.9041 17.2519 21.8876 17.1855C21.4907 14.3903 19.787 12.8516 17.3059 12.3889C17.0905 12.3555 17.0576 12.2234 17.3388 12.1905C18.0997 12.1242 19.1747 12.1406 19.7371 12.2398C19.77 11.9586 19.787 11.661 19.787 11.3633C19.787 7.21137 16.4124 3.83677 12.2604 3.83677C8.10904 3.83677 4.73445 7.21137 4.73445 11.3633C4.73445 15.5152 8.10904 18.8898 12.261 18.8898H12.608C12.4901 18.2183 12.4401 17.5365 12.4589 16.855C12.4759 16.3918 12.5751 16.3254 12.7735 16.6894C13.8156 18.4924 15.3045 20.1134 18.2153 20.7586C20.5972 21.2881 22.979 21.8999 25.5429 25.1583C25.7742 25.4395 25.4272 25.7372 25.1625 25.5058C22.5493 23.1898 20.1674 22.4289 18.0004 22.4289C15.5687 22.4459 13.9148 22.76 12.244 22.76H12.2445Z" fill="#4F5D68"/>
</svg>
