<svg width="25" height="24" viewBox="0 0 25 24" fill="none" xmlns="http://www.w3.org/2000/svg">
<path d="M22.4447 4.56627C22.1785 4.20268 21.9151 3.8391 21.6832 3.47266L7.44912 11.649L0.578277 7.70968C0.420583 8.13474 0.324188 8.58009 0.291992 9.03232L7.51497 13.2149L22.4447 4.56627Z" fill="#4F5D68"/>
<path d="M7.44898 14.7263L0.0685411 10.4893C0.0139258 10.7499 -0.00819107 11.0163 0.00269561 11.2823C0.00269561 14.5218 1.28956 17.6285 3.5802 19.9192C5.87084 22.2098 8.97761 23.4967 12.2171 23.4967C15.4565 23.4967 18.5633 22.2098 20.8539 19.9192C23.1446 17.6285 24.4314 14.5218 24.4314 11.2823C24.4451 9.34958 23.9913 7.44218 23.1088 5.72266L7.44898 14.7263Z" fill="#4F5D68"/>
<path d="M20.6898 2.4471C20.342 2.11876 19.9769 1.80914 19.5962 1.51953L7.44914 8.57074L1.59174 5.22693C1.39421 5.59051 1.19381 5.98845 0.961914 6.41787L7.38329 10.1253L20.6898 2.4471Z" fill="#4F5D68"/>
<path d="M18.4048 0.727165C17.9451 0.451944 17.4668 0.208972 16.9734 0L7.44866 5.48523L3.18015 3.07757C2.89386 3.36385 2.60757 3.73889 2.32129 4.10247L7.41717 7.01685L18.4048 0.727165Z" fill="#4F5D68"/>
</svg>
