<svg width="25" height="20" viewBox="0 0 25 20" fill="none" xmlns="http://www.w3.org/2000/svg">
<path d="M18.5714 9.92443H3.45658C3.45658 9.92443 3.91287 11.3789 4.42621 12.1203C4.5688 12.1203 17.8584 12.1203 17.8584 12.1203C17.8584 12.1203 20.4251 14.1166 21.6514 17.6529H7.56324C5.11065 15.6852 3.28547 13.0044 2.34436 9.92443C2.45843 9.55369 2.60103 9.18295 2.74362 8.81221H18.5714C19.7977 7.95665 21.024 6.61628 21.024 6.61628H3.85584C4.08399 6.24554 4.31213 5.8748 4.59732 5.50406H21.9365C22.3928 4.96221 23.3054 3.30814 23.3054 3.30814H6.47954C6.8788 2.90888 7.30657 2.53814 7.76287 2.19592H23.8188C24.2751 1.14074 24.5888 0 24.5888 0H7.13546C3.7988 2.36703 1.28918 5.84628 0.148438 9.92443C1.26066 13.974 3.77028 17.4818 7.13546 19.8774H24.5317C24.5317 19.8774 24.218 14.5729 18.5714 9.92443Z" fill="#4F5D68"/>
</svg>
