<svg width="51" height="13" viewBox="0 0 51 13" fill="none" xmlns="http://www.w3.org/2000/svg">
<g opacity="0.6">
<path d="M0.00797668 0.158374C0.426752 0.162236 0.845528 0.177686 1.26032 0.169961C1.42783 0.166099 1.47569 0.224036 1.4717 0.378536C1.46771 1.69179 1.46771 3.00117 1.46771 4.31442C1.46771 4.36464 1.45973 4.41871 1.46771 4.46892C1.47967 4.53459 1.5036 4.59639 1.51956 4.66205C1.57938 4.62729 1.65117 4.60797 1.69504 4.55776C2.13376 4.07495 2.68016 3.76981 3.33026 3.66552C4.41908 3.49171 5.472 3.55737 6.37337 4.25649C6.99555 4.7393 7.3186 5.41137 7.4901 6.14525C7.81714 7.53961 7.84905 8.93784 7.37045 10.309C6.85994 11.7691 5.76714 12.5995 4.21966 12.8428C2.75594 13.0746 1.34008 12.8853 0 12.2441C0.00797668 8.21941 0.00797668 4.18696 0.00797668 0.158374ZM1.4717 8.98032C1.4717 9.67558 1.47967 10.3708 1.46771 11.0661C1.46372 11.2785 1.54748 11.3751 1.73493 11.4523C2.19359 11.6455 2.68016 11.6995 3.17073 11.7382C4.46295 11.8347 5.54778 11.1781 5.95459 9.98844C6.37337 8.77175 6.35741 7.53189 5.96257 6.30748C5.75517 5.66244 5.34437 5.15645 4.66237 4.90925C4.24758 4.75861 3.82083 4.75475 3.3861 4.81655C2.393 4.95946 1.4717 5.97916 1.4717 6.95251C1.4717 7.62845 1.4717 8.30439 1.4717 8.98032Z" fill="#4F5D68"/>
<path d="M16.3642 11.097C16.5277 11.406 16.6872 11.6918 16.8268 11.9892C16.8467 12.0317 16.7829 12.1399 16.7271 12.1746C16.2445 12.4952 15.7061 12.6961 15.1397 12.8274C14.2783 13.0282 13.4048 13.0669 12.5393 12.8737C11.1713 12.5686 10.3019 11.7188 9.91102 10.4403C9.48427 9.04212 9.48427 7.61686 9.8831 6.21091C10.3298 4.63115 11.642 3.64621 13.329 3.61145C13.8316 3.59986 14.3381 3.64235 14.8326 3.71574C16.077 3.90886 16.771 4.68136 17.0581 5.82852C17.2536 6.60875 17.2137 7.3967 17.1219 8.18851C17.102 8.35846 17.0222 8.38936 16.8627 8.38936C15.1238 8.3855 13.3809 8.3855 11.642 8.3855C11.1075 8.3855 11.0756 8.38936 11.1235 8.89149C11.1634 9.31636 11.2232 9.75282 11.3668 10.1545C11.7058 11.1124 12.4396 11.6223 13.4646 11.7536C14.5056 11.8849 15.4628 11.6995 16.3642 11.097ZM13.4646 7.31945C14.1746 7.31945 14.8845 7.31945 15.5944 7.31945C15.6024 7.31945 15.6064 7.31945 15.6143 7.31945C15.7739 7.34263 15.8337 7.26924 15.8178 7.12246C15.7898 6.86754 15.7779 6.60875 15.734 6.35769C15.5864 5.50407 15.1158 5.00195 14.2623 4.84745C13.9193 4.78565 13.5484 4.79724 13.1974 4.82814C12.2282 4.90539 11.5143 5.50794 11.275 6.41949C11.2152 6.64351 11.1913 6.87526 11.1394 7.09929C11.0995 7.26537 11.1474 7.33104 11.3349 7.32718C12.0408 7.31559 12.7507 7.31945 13.4646 7.31945Z" fill="#4F5D68"/>
<path d="M23.0607 0.0038625C23.3718 0.0347625 23.6789 0.0618 23.986 0.0965625C24.7517 0.181538 25.4896 0.347625 26.1596 0.733875C27.2923 1.3905 27.8307 2.37544 27.8906 3.63848C27.9464 4.84358 27.6473 5.92121 26.7379 6.79028C26.1158 7.3851 25.342 7.69024 24.5045 7.86791C23.5233 8.07649 22.5302 8.06876 21.5332 7.99151C21.2859 7.9722 21.2699 7.97606 21.2699 8.2194C21.2699 9.64853 21.2699 11.0777 21.2699 12.5068C21.2699 12.7772 21.2699 12.7772 20.9828 12.7772C20.6557 12.7772 20.3327 12.7656 20.0056 12.781C19.7982 12.7926 19.7823 12.696 19.7823 12.5377C19.7863 10.7493 19.7823 8.961 19.7823 7.17266C19.7823 4.97104 19.7863 2.76941 19.7783 0.57165C19.7783 0.366938 19.8301 0.26265 20.0495 0.2472C20.7474 0.189263 21.4454 0.119738 22.1474 0.054075C22.267 0.0424875 22.3827 0.0270375 22.4983 0.0115875C22.6898 0.0038625 22.8732 0.0038625 23.0607 0.0038625ZM22.3986 6.77483C22.7257 6.75938 23.1006 6.75551 23.4675 6.72461C24.2173 6.66281 24.9272 6.47741 25.4896 5.9637C26.2673 5.25686 26.4149 4.34918 26.2673 3.38741C26.1078 2.35999 25.3979 1.76516 24.4167 1.47161C23.4476 1.18193 22.4505 1.236 21.4534 1.34415C21.3098 1.3596 21.2659 1.43685 21.2659 1.56431C21.2699 1.7304 21.2659 1.90035 21.2659 2.06644C21.2659 3.52646 21.2699 4.98649 21.2619 6.44651C21.2619 6.6435 21.3337 6.72848 21.5332 6.73234C21.8083 6.74393 22.0835 6.75938 22.3986 6.77483Z" fill="#4F5D68"/>
<path d="M39.8117 0.0038625C40.0231 0.112013 40.2704 0.1854 40.4419 0.3399C41.0122 0.84975 40.7849 1.69564 40.0391 1.90421C39.4288 2.07803 38.8346 1.7613 38.7269 1.20896C38.6192 0.66435 38.9462 0.177675 39.5086 0.04635C39.5445 0.038625 39.5804 0.01545 39.6163 0C39.6801 0.0038625 39.7439 0.0038625 39.8117 0.0038625Z" fill="#4F5D68"/>
<path d="M50.999 12.8119C50.7079 12.8119 50.4287 12.8196 50.1535 12.8042C50.1096 12.8003 50.0458 12.7192 50.0298 12.6613C49.9301 12.3407 49.8424 12.0162 49.7467 11.6995C49.7267 11.6377 49.6709 11.5914 49.635 11.5334C49.5871 11.5759 49.5353 11.6107 49.4994 11.6609C48.7775 12.6574 47.7804 13.063 46.54 12.9819C46.0016 12.9471 45.4911 12.8428 45.0085 12.6033C44.2946 12.248 43.832 11.6763 43.5927 10.9541C43.0582 9.34725 42.9824 7.71341 43.5488 6.10661C44.0633 4.64659 45.176 3.84705 46.7594 3.6771C47.593 3.58826 48.4185 3.62303 49.2202 3.88954C49.4396 3.96293 49.4156 3.81615 49.4156 3.69641C49.4156 2.66126 49.4156 1.62611 49.4156 0.5871C49.4156 0.0888375 49.3638 0.177675 49.8504 0.16995C50.0897 0.166088 50.329 0.16995 50.5683 0.16995C50.8435 0.16995 50.8435 0.16995 50.8435 0.428738C50.8435 2.28274 50.8435 4.13674 50.8435 5.99074C50.8435 7.56278 50.8315 9.13095 50.8514 10.703C50.8594 11.348 50.9472 11.9969 50.995 12.642C51.003 12.6883 50.999 12.7385 50.999 12.8119ZM49.4156 7.61299C49.4156 6.9834 49.3917 6.34995 49.4236 5.72036C49.4396 5.3766 49.3079 5.18734 48.9929 5.08305C48.8812 5.04443 48.7695 4.98649 48.6579 4.97104C48.3109 4.92083 47.9639 4.87448 47.6169 4.84744C46.3047 4.74701 45.2757 5.43068 44.9008 6.64736C44.6855 7.34648 44.6575 8.0649 44.6974 8.78719C44.7293 9.34725 44.7931 9.90345 45.0285 10.4249C45.2398 10.8961 45.543 11.3055 46.0176 11.5489C47.569 12.3446 49.4156 11.2592 49.4236 9.55583C49.4196 8.91079 49.4156 8.26189 49.4156 7.61299Z" fill="#4F5D68"/>
<path d="M34.3557 7.65548C34.4195 7.09155 34.4514 6.53921 34.3557 5.99074C34.236 5.32253 33.8372 4.97876 33.1033 4.89765C32.0025 4.77791 30.9496 4.98649 29.9326 5.38046C29.7691 5.44226 29.7013 5.43454 29.6414 5.26845C29.5617 5.04443 29.462 4.82426 29.3583 4.60796C29.2945 4.4805 29.3224 4.4187 29.45 4.34918C30.0243 4.0479 30.6385 3.87023 31.2807 3.77753C32.0783 3.65779 32.88 3.59213 33.6816 3.708C34.9619 3.8934 35.6758 4.60796 35.7795 5.85941C35.8274 6.42334 35.8114 6.99113 35.7994 7.55505C35.7675 8.99963 35.624 10.4481 35.7875 11.8926C35.8154 12.1283 35.8672 12.3639 35.9071 12.5956C35.9191 12.6574 35.9271 12.7192 35.943 12.8081C35.612 12.8081 35.3089 12.8158 35.0058 12.8003C34.9619 12.8003 34.9021 12.7115 34.8821 12.6536C34.7744 12.3368 34.6787 12.0162 34.571 11.6957C34.5511 11.6416 34.5032 11.5952 34.4673 11.545C34.4155 11.5798 34.3517 11.6068 34.3158 11.6532C33.7215 12.4411 32.888 12.7887 31.9148 12.8892C31.1411 12.9703 30.4152 12.8544 29.7691 12.4179C28.9555 11.8695 28.6683 11.0892 28.7201 10.1545C28.78 9.12323 29.3503 8.4666 30.2955 8.07263C30.9217 7.80998 31.5878 7.725 32.2578 7.68638C32.9199 7.65161 33.5859 7.6632 34.248 7.65548C34.2759 7.67093 34.3038 7.6632 34.3557 7.65548ZM34.3596 9.54038C34.3596 9.32794 34.3557 9.1155 34.3596 8.90306C34.3636 8.7756 34.3238 8.7138 34.1802 8.71766C33.6019 8.72153 33.0236 8.70221 32.4492 8.72925C31.9188 8.75243 31.3963 8.85285 30.9177 9.10778C30.5588 9.3009 30.2995 9.56741 30.2237 9.97684C30.0722 10.7764 30.5907 11.5141 31.4402 11.6686C32.2059 11.8077 32.9318 11.6763 33.562 11.2283C34.0725 10.8652 34.4594 10.4172 34.3596 9.73736C34.3517 9.6717 34.3596 9.60604 34.3596 9.54038Z" fill="#4F5D68"/>
<path d="M39.026 8.26961C39.026 6.85208 39.03 5.4384 39.022 4.02086C39.022 3.84319 39.0699 3.78525 39.2573 3.79298C39.5963 3.80456 39.9354 3.8007 40.2744 3.79684C40.402 3.79684 40.4578 3.83933 40.4538 3.96293C40.4498 4.10584 40.4538 4.24489 40.4538 4.3878C40.4538 7.09155 40.4538 9.79144 40.4538 12.4952C40.4538 12.7772 40.4538 12.7772 40.1587 12.7772C39.8596 12.7772 39.5605 12.7656 39.2613 12.781C39.0779 12.7887 39.026 12.7347 39.026 12.557C39.03 11.1279 39.026 9.69874 39.026 8.26961Z" fill="#4F5D68"/>
</g>
</svg>
