<svg width="24" height="23" viewBox="0 0 24 23" fill="none" xmlns="http://www.w3.org/2000/svg">
<path d="M11.4801 0.00138083C13.2702 0.00138083 14.9731 0.408428 16.5008 1.13659C16.7404 1.24358 16.9814 1.37242 17.2204 1.50137L16.1733 2.42385L14.6023 0.815503L11.8963 3.17315L10.3025 1.48025L5.32582 5.87455L8.51249 9.32516L7.26831 10.3956L10.4117 13.8463L9.16755 14.918L13.665 19.8264L16.3264 17.425L18.6411 19.9983C18.1824 20.3412 17.6805 20.6848 17.1353 20.9841C15.4764 21.9066 13.5552 22.4405 11.5028 22.4405C5.19467 22.4405 0.0654966 17.4053 0.0654966 11.2111C0.044061 5.05974 5.17339 0 11.4808 0L11.4801 0.00138083ZM9.38449 10.5245L12.1139 8.12311L14.5583 10.8033L11.8289 13.2033L9.38449 10.5237V10.5245ZM11.327 15.1546L14.0351 12.7322L16.5008 15.4117L13.7714 17.8131L11.327 15.1546ZM7.44342 5.95902L10.1707 3.55905L12.6165 6.23787L9.88713 8.6393L7.44342 5.95902ZM12.4414 4.67387L14.4704 2.87319L16.3044 4.86613L14.2733 6.68794L12.44 4.67387H12.4414ZM16.0641 12.9251L18.0931 11.1251L19.9271 13.1392L17.8967 14.9406L16.0641 12.9251ZM17.8535 16.9764L19.8839 15.1757L21.7165 17.1687L19.6868 18.9905L17.8535 16.9764ZM18.6829 7.71609L20.037 6.5168L21.2585 7.84564L19.9058 9.04559L18.6829 7.71609ZM16.9368 3.75131L18.2909 2.53025L19.5138 3.88087L18.1597 5.08154L16.9375 3.75205L16.9368 3.75131ZM20.4085 11.6829L21.7611 10.4822L23.0046 11.8111L21.6292 13.011L20.4085 11.6829ZM14.3187 8.70265L16.3484 6.9027L18.1817 8.89564L16.1527 10.6963L14.3187 8.70265Z" fill="#4F5D68"/>
</svg>
