<svg width="44" height="27" viewBox="0 0 44 27" fill="none" xmlns="http://www.w3.org/2000/svg">
<g>
<path d="M21.5842 13.3606C21.5981 13.1826 21.6586 12.4055 20.9731 12.4055C20.2288 12.4055 20.0935 13.3218 20.0935 13.3923H21.5821C21.5821 13.3867 21.583 13.3759 21.5842 13.3606Z" fill="#4F5D68"/>
<path d="M10.0111 15.6479C10.8231 15.6479 10.9585 14.5201 10.9585 14.3086C10.9585 14.3086 10.8908 14.3086 10.6878 14.2381C9.6728 14.2381 9.4698 14.7316 9.4698 15.084C9.4698 15.2954 9.60514 15.6479 10.0111 15.6479Z" fill="#4F5D68"/>
<path d="M39.1078 15.5069C39.8521 15.5069 40.1904 14.5201 40.1904 13.7447C40.1904 12.8989 39.9198 12.5465 39.4461 12.5465C38.8371 12.5465 38.3634 13.2513 38.3634 14.3791C38.3634 15.084 38.6341 15.5069 39.1078 15.5069Z" fill="#4F5D68"/>
<path d="M33.0177 14.3086C33.0177 14.5201 32.8824 15.6479 32.0704 15.6479C31.6644 15.6479 31.5291 15.2954 31.5291 15.084C31.5291 14.7316 31.7321 14.2381 32.7471 14.2381C32.95 14.3086 32.9501 14.3086 33.0177 14.3086Z" fill="#4F5D68"/>
<path fill-rule="evenodd" clip-rule="evenodd" d="M13.4622 0C6.49258 0.0704859 0.808594 5.9913 0.808594 13.3218C0.808594 20.6524 6.49258 26.6437 13.5976 26.6437C16.8858 26.6437 19.8412 25.3265 22.1339 23.2422C24.399 25.3552 27.386 26.6437 30.6495 26.6437C37.7545 26.6437 43.4385 20.6524 43.4385 13.3218C43.4385 7.82393 40.2412 3.07935 35.6166 1.05068C34.0878 0.374456 32.4088 0 30.6495 0H30.5818C27.2759 0 24.2687 1.32217 22.009 3.48423C19.787 1.36698 16.7892 0.140972 13.5299 0.140972C13.5299 0.0545003 13.5299 0.0210561 13.5143 0.00813831C13.5044 0 13.4884 0 13.4622 0ZM18.1312 16.7052L18.3342 15.5069C18.3062 15.5069 18.2665 15.519 18.2201 15.5332C18.1544 15.5532 18.0751 15.5774 17.9958 15.5774C17.5222 15.5774 17.4545 15.2954 17.5222 15.1545L17.9282 12.6875H18.6725L18.8755 11.3482H18.1988L18.3342 10.5024H16.9808C16.9808 10.5024 16.1689 15.1545 16.1689 15.7184C16.1689 16.5642 16.6425 16.9166 17.2515 16.9166C17.6575 16.9166 17.9958 16.7756 18.1312 16.7052ZM20.9731 16.9166C19.8905 16.9166 18.6048 16.4232 18.6048 14.4496C18.6048 12.6875 19.6198 11.1368 21.0408 11.2777C22.5295 11.2777 23.0031 12.4055 23.0031 13.3218C23.0031 13.6743 22.8001 14.5906 22.8001 14.5906H20.0258C20.0258 14.5906 19.7552 15.7184 21.2438 15.7184C21.9205 15.7184 22.6648 15.3659 22.6648 15.3659L22.3941 16.7052C22.3941 16.7052 21.9881 16.9166 20.9731 16.9166ZM29.5668 16.7051L29.8375 15.1545C29.8375 15.1545 29.1608 15.5069 28.6871 15.5069C27.7398 15.5069 27.3338 14.7315 27.3338 13.8857C27.3338 12.1941 28.1458 11.2777 29.0931 11.2777C29.7698 11.2777 30.3111 11.7007 30.3111 11.7007L30.5141 10.2205C30.5141 10.2205 29.7021 9.86802 28.9578 9.86802C27.4015 9.86802 25.8452 11.2777 25.8452 13.9562C25.8452 15.7183 26.6572 16.9166 28.2811 16.9166C28.8225 16.9166 29.5668 16.7051 29.5668 16.7051ZM9.0638 11.4187C9.0638 11.4187 9.74047 11.1368 10.6878 11.1368C11.1615 11.1368 12.5148 11.2073 12.5148 12.8989L11.9735 16.7756H10.7555L10.8231 16.2118C10.8089 16.2118 10.7795 16.24 10.7333 16.2845C10.5601 16.4511 10.1497 16.8461 9.40214 16.8461C8.92847 16.8461 8.11647 16.5642 8.11647 15.2954C8.11647 13.6743 9.40214 13.1809 10.5525 13.1809H11.1615C11.1615 13.1809 11.2291 13.1104 11.2291 12.8284C11.2291 12.4055 10.8231 12.335 10.3495 12.335C9.4698 12.335 8.8608 12.617 8.8608 12.617L9.0638 11.4187ZM13.8005 16.8461L13.8357 16.8463C14.2419 16.8486 15.8305 16.8577 15.8305 15.0135C15.8305 13.934 15.2211 13.6481 14.7489 13.4265C14.4503 13.2864 14.2065 13.172 14.2065 12.8989C14.2065 12.5465 14.4772 12.4055 14.9508 12.4055C15.1538 12.4055 15.8982 12.476 15.8982 12.476L16.1012 11.2073C16.1012 11.2073 15.6275 11.0663 14.8155 11.0663C13.8005 11.0663 12.7855 11.4892 12.7855 12.8989C12.7855 13.8962 13.4257 14.2267 13.9184 14.481C14.2267 14.6401 14.4772 14.7694 14.4772 15.0135C14.4772 15.4364 14.0035 15.5069 13.6652 15.5069C13.0562 15.5069 12.4472 15.2954 12.4472 15.2954L12.2442 16.5642C12.3118 16.7051 12.6502 16.8461 13.8005 16.8461ZM40.5288 11.9121L40.7994 10.009L42.2204 10.0795L41.2054 16.8461H39.8521L39.9198 16.3527C39.9198 16.3527 39.4461 16.9166 38.6341 16.9166C37.4838 16.9166 36.9424 15.7183 36.9424 14.5906C36.9424 12.7579 38.0251 11.2073 39.2431 11.2073C39.9874 11.2073 40.5288 11.9121 40.5288 11.9121ZM3.31218 16.7756L4.12418 11.7007L4.25951 16.7756H5.20684L6.96617 11.7007L6.22184 16.7756H7.64283L8.7255 10.009H6.4925L5.13917 14.1677L5.07151 10.009H3.10918L2.02651 16.7756H3.31218ZM24.4848 15.555C24.4258 15.9404 24.363 16.351 24.2888 16.7756V16.8461H22.8002L23.6798 11.3482H24.9655L24.8302 12.1236C24.8302 12.1236 25.3038 11.2777 25.9128 11.2777H26.1835C26.1589 11.3419 26.132 11.406 26.1037 11.4736C25.9765 11.7771 25.8205 12.1495 25.7098 12.8989C24.9355 12.6108 24.7489 13.8299 24.4848 15.555ZM32.6794 11.1368C31.7321 11.1368 31.0554 11.4187 31.0554 11.4187L30.8524 12.617C30.8524 12.617 31.4614 12.335 32.3411 12.335C32.8147 12.335 33.2207 12.4055 33.2207 12.8284C33.2207 13.1104 33.1531 13.1809 33.1531 13.1809H32.5441C31.3937 13.1809 30.1081 13.6743 30.1081 15.2954C30.1081 16.5642 30.9201 16.8461 31.3937 16.8461C32.1413 16.8461 32.5517 16.4511 32.7249 16.2845C32.7712 16.24 32.8005 16.2118 32.8147 16.2118L32.7471 16.7756H33.9651L34.5064 12.8989C34.5741 11.2073 33.1531 11.1368 32.6794 11.1368ZM35.8528 15.555C35.7938 15.9404 35.7309 16.351 35.6568 16.7756V16.8461H34.1681L35.0478 11.3482H36.3335L36.1981 12.1236C36.1981 12.1236 36.6718 11.2777 37.2808 11.2777H37.5515C37.5268 11.3419 37.4999 11.4061 37.4716 11.4737C37.3444 11.7772 37.1885 12.1495 37.0778 12.8989C36.3034 12.6108 36.1168 13.8299 35.8528 15.555Z" fill="#4F5D68"/>
</g>
</svg>
