<svg width="49" height="15" viewBox="0 0 49 15" fill="none" xmlns="http://www.w3.org/2000/svg">
<g>
<path d="M21.6078 14.5299L18.3345 11.0927L17.7255 14.5299H21.6078Z" fill="#4F5D68"/>
<path d="M30.3622 9.68658C30.6667 9.99905 30.8189 10.2334 30.7428 10.5459C30.7428 11.4833 29.5248 11.952 28.4591 11.952C26.9366 11.952 26.0992 11.7176 24.8051 11.1708L24.2722 10.9365L23.7393 14.1393C24.6528 14.5299 26.3276 14.9205 28.0784 14.9205C30.5144 14.9205 32.4937 14.2174 33.6355 12.9675L30.3622 9.68658Z" fill="#4F5D68"/>
<path d="M17.7255 14.5299L20.1614 0.468712H23.9676L21.6078 14.5299H17.7255Z" fill="#4F5D68"/>
<path d="M17.7255 14.5299L20.8465 0.468712H23.9676L21.6078 14.5299H17.7255Z" fill="#4F5D68"/>
<path d="M35.3863 0.62494C34.6251 0.312469 33.4071 0 31.8846 0C28.0784 0 25.3379 1.95294 25.3379 4.76517C25.3379 6.87434 27.241 7.96799 28.7635 8.67104C30.286 9.3741 30.7427 9.84281 30.7427 10.4677C30.7427 11.4052 29.5247 11.8739 28.459 11.8739C26.9365 11.8739 26.0991 11.6395 24.805 11.0927L24.2721 10.8583L23.7392 14.0612C24.6527 14.4517 26.3275 14.8423 28.0784 14.8423C32.113 14.8423 34.7773 12.8894 34.7773 9.92093C34.7773 8.28046 33.7877 7.03058 31.504 6.01505C30.1337 5.31199 29.2963 4.9214 29.2963 4.21835C29.2963 3.59341 29.9815 2.96847 31.504 2.96847C32.7981 2.96847 33.7116 3.20282 34.3967 3.51529L34.7773 3.67152L35.3863 0.62494Z" fill="#4F5D68"/>
<path d="M35.3863 0.62494C34.6251 0.312469 33.4071 0 31.8846 0C28.0784 0 26.023 1.95294 26.023 4.76517C26.023 6.87434 27.241 7.96799 28.7635 8.67104C30.286 9.3741 30.7427 9.84281 30.7427 10.4677C30.7427 11.4052 29.5247 11.8739 28.459 11.8739C26.9365 11.8739 26.0991 11.6395 24.805 11.0927L24.2721 10.8583L23.7392 14.0612C24.6527 14.4517 26.3275 14.8423 28.0784 14.8423C32.113 14.8423 34.7773 12.8894 34.7773 9.92093C34.7773 8.28046 33.7877 7.03058 31.504 6.01505C30.1337 5.31199 29.2963 4.9214 29.2963 4.21835C29.2963 3.59341 29.9815 2.96847 31.504 2.96847C32.7981 2.96847 33.7116 3.20282 34.3967 3.51529L34.7773 3.67152L35.3863 0.62494Z" fill="#4F5D68"/>
<path d="M41.9331 0.468712C41.0196 0.468712 40.3345 0.546831 39.9539 1.48424L34.2445 14.5299H38.3553L39.1165 12.1863H43.9885L44.4452 14.5299H48.0992L44.902 0.468712H41.9331ZM40.1822 9.84282C40.4106 9.13976 41.7047 5.70259 41.7047 5.70259C41.7047 5.70259 42.0092 4.8433 42.2376 4.29647L42.466 5.62447C42.466 5.62447 43.2272 9.13976 43.3795 9.92093H40.1822V9.84282Z" fill="#4F5D68"/>
<path d="M42.8466 0.468712C41.9331 0.468712 41.248 0.546831 40.8674 1.48424L34.2445 14.5299H38.3553L39.1165 12.1863H43.9885L44.4452 14.5299H48.0992L44.902 0.468712H42.8466ZM40.1822 9.84282C40.4867 9.06164 41.7047 5.70259 41.7047 5.70259C41.7047 5.70259 42.0092 4.8433 42.2376 4.29647L42.466 5.62447C42.466 5.62447 43.2272 9.13976 43.3795 9.92093H40.1822V9.84282Z" fill="#4F5D68"/>
<path d="M10.722 10.3115L10.3414 8.28046C9.65624 5.93694 7.44862 3.35906 5.01263 2.10918L8.43824 14.608H12.549L18.7151 0.546828H14.6043L10.722 10.3115Z" fill="#4F5D68"/>
<path d="M10.722 10.3115L10.3414 8.28046C9.65624 5.93694 7.44862 3.35906 5.01263 2.10918L8.43824 14.608H12.549L18.7151 0.546828H15.3656L10.722 10.3115Z" fill="#4F5D68"/>
<path d="M0.140625 0.468712L0.825747 0.624948C5.69773 1.79671 9.04724 4.76517 10.3414 8.28046L8.97109 1.64048C8.74272 0.703065 8.0576 0.468712 7.22022 0.468712H0.140625Z" fill="#4F5D68"/>
<path d="M0.140625 0.468712C5.01261 1.64047 9.04722 4.68706 10.3413 8.20235L9.04722 2.656C8.81884 1.71859 8.0576 1.17177 7.22022 1.17177L0.140625 0.468712Z" fill="#4F5D68"/>
<path d="M0.140625 0.468712C5.01261 1.64047 9.04722 4.68706 10.3413 8.20235L9.42784 5.15576C9.19947 4.21835 8.89497 3.28094 7.82922 2.89036L0.140625 0.468712Z" fill="#4F5D68"/>
<path d="M14.5282 9.84281L11.94 7.18682L10.722 10.1553L10.4175 8.20235C9.73238 5.85882 7.52476 3.28094 5.08877 2.03106L8.51438 14.5299H12.6251L14.5282 9.84281Z" fill="#4F5D68"/>
<path d="M34.7774 14.5299L38.3553 14.5299L39.1165 12.1863H43.9885L44.4452 14.5299H48.0992L46.8051 8.82728L42.2376 4.29647L42.466 5.54635C42.466 5.54635 43.2272 9.06164 43.3795 9.84281L40.1822 9.84282C40.4867 9.06164 41.7047 5.70259 41.7047 5.70259C41.7047 5.70259 42.0092 4.8433 42.2376 4.29647" fill="#4F5D68"/>
</g>
</svg>
