<svg width="19" height="25" viewBox="0 0 19 25" fill="none" xmlns="http://www.w3.org/2000/svg">
<path fill-rule="evenodd" clip-rule="evenodd" d="M0.532227 12.0415C0.532227 10.6803 0.645661 9.81646 3.4728 7.70483C5.80258 5.95968 13.298 0 13.298 0V9.94735H18.9959V24.2663H2.31228C1.335 24.2663 0.532227 23.4635 0.532227 22.4862V12.0415ZM13.298 9.94774V15.7155L2.82713 22.8444L16.0641 18.5426V9.94774H13.298ZM10.5058 9.07488C10.0171 8.66477 9.11838 8.91782 8.50758 9.65078C7.89678 10.3837 7.8008 11.3087 8.28944 11.7188C8.77808 12.1289 9.67683 11.8758 10.2876 11.1429C10.8984 10.4099 10.9944 9.48499 10.5058 9.07488Z" fill="#4F5D68"/>
</svg>
