<svg width="200" height="54" viewBox="0 0 200 54" fill="none" xmlns="http://www.w3.org/2000/svg">
<path d="M54.3652 20.2402C54.9216 22.4158 55.2395 24.669 55.2395 26.9999C55.2395 41.8791 42.8404 54 27.6197 54C12.3991 54 0 41.8791 0 26.9999C0 24.669 0.317925 22.4158 0.874294 20.2402H18.2012L27.6197 43.3553L37.0383 20.2402H54.3652Z" fill="#0C5EA7"/>
<path d="M27.6193 0C39.1839 0 49.119 6.99281 53.2123 16.8604H34.5342L27.6193 42.5007L20.7045 16.8604H2.02637C6.11965 6.99281 16.0548 0 27.6193 0Z" fill="#1691CC"/>
<path d="M66.8838 9.1682V13.2539H75.2854V29.7634H80.3178V13.2539H88.6768V9.1682H66.8838Z" fill="white"/>
<path d="M96.3534 20.757H88.1224C88.1224 19.3395 88.7194 18.0888 90.6812 18.0888H93.5386C95.671 18.0888 96.3534 19.3395 96.3534 20.757ZM101.173 23.5086V21.0072C101.173 18.0471 99.6799 15.0454 94.7327 15.0454H89.3591C84.8811 15.0454 83.0899 17.8804 83.0899 20.4652V24.1757C83.0899 27.3859 85.0517 29.8039 89.2738 29.8039H94.8607C99.9358 29.8039 101.173 27.5943 101.173 25.0095H96.3534C96.3534 26.1768 95.7563 26.7605 94.5622 26.7605H90.5106C88.4635 26.7605 88.1224 25.3847 88.1224 24.134V23.5503L101.173 23.5086Z" fill="white"/>
<path d="M119.554 15.087H114.052L110.64 19.548L107.058 15.087H101.599L107.442 22.0911L101.002 29.7622H106.418L110.555 24.5925L114.735 29.7622H120.151L113.711 22.0911L119.554 15.087Z" fill="white"/>
<path d="M122.241 9.16698V29.7622H127.273V13.2527H127.955L133.372 29.7622C134.523 29.7622 135.675 29.7622 136.869 29.7622C140.92 29.7622 141.475 28.6783 142.541 24.9678L145.953 13.2527H146.635V29.7622H151.667V9.16698C149.62 9.16698 147.616 9.16698 145.569 9.16698C144.631 9.16698 142.37 8.91684 141.091 12.002C139.769 16.5462 138.447 21.1322 137.082 25.6765C136.997 25.6765 136.869 25.6765 136.783 25.6765C135.376 21.5908 134.31 16.3378 132.732 11.8769C131.495 8.95853 128.979 9.16698 128.51 9.16698H122.241Z" fill="white"/>
<path d="M158.278 19.3395V18.8809C158.278 18.2972 158.619 18.1722 160.24 18.1722H163.779C165.699 18.1722 166.551 18.464 166.551 19.9649V20.3818H159.429C154.738 20.3818 153.373 21.8409 153.373 24.259V26.0517C153.373 28.5949 155.335 29.8039 158.406 29.8039C165.443 29.8039 165.656 29.8039 171.584 29.8039V20.2567C171.584 17.4217 169.963 15.087 165.187 15.087H159.557C154.823 15.087 153.501 16.9214 153.501 19.3395H158.278ZM160.666 23.4252H166.551V26.7188H160.666C158.832 26.7188 158.278 26.2602 158.278 25.0928C158.278 23.8004 158.918 23.4252 160.666 23.4252Z" fill="white"/>
<path d="M173.247 15.087V29.7622C180.966 29.7622 182.758 29.7622 190.52 29.7622C190.946 29.7622 199.006 29.929 199.006 23.3835V15.087H193.974C193.974 17.8803 193.974 20.6736 193.974 23.4669C193.974 26.3019 190.818 26.3852 190.562 26.3852H188.686V15.087H183.611V26.3852H178.28V15.087H173.247Z" fill="white"/>
<path d="M112 41.573C112 42.0449 111.848 42.3989 111.544 42.7135C111.241 43.0281 110.823 43.2247 110.291 43.3427C110.709 43.382 111.051 43.5 111.316 43.736C111.582 43.9719 111.696 44.2865 111.696 44.6798C111.696 45.1124 111.544 45.5056 111.278 45.8989C111.013 46.2528 110.633 46.5281 110.139 46.7247C109.646 46.9213 109.114 47 108.506 47C107.595 47 106.949 46.8034 106.57 46.4494C106.19 46.0562 106 45.4663 106 44.6011C106 43.736 106.152 42.9101 106.456 42.2022C106.759 41.4944 107.215 40.9438 107.785 40.5506C108.354 40.1573 109.076 40 109.873 40C110.329 40 110.709 40.0787 111.051 40.1966C111.354 40.3146 111.62 40.5112 111.772 40.7472C111.924 40.9831 112 41.2584 112 41.573ZM110.215 44.7191C110.215 44.4045 110.101 44.2079 109.873 44.0899C109.646 43.9719 109.342 43.8933 108.924 43.8933C108.506 43.8933 108.013 43.9326 107.443 44.0112C107.405 44.2079 107.405 44.4045 107.405 44.6405C107.405 45.073 107.481 45.3876 107.671 45.6236C107.861 45.8202 108.165 45.9382 108.62 45.9382C109.076 45.9382 109.456 45.8202 109.759 45.6236C110.063 45.3483 110.215 45.0337 110.215 44.7191ZM110.519 41.809C110.519 41.6124 110.443 41.4157 110.291 41.2978C110.139 41.1798 109.911 41.1011 109.646 41.1011C109.152 41.1011 108.734 41.2584 108.392 41.6124C108.051 41.9663 107.785 42.3989 107.671 42.9888C108.544 42.9494 109.152 42.9101 109.494 42.8315C109.835 42.7528 110.063 42.6348 110.253 42.4775C110.443 42.3202 110.519 42.0449 110.519 41.809Z" fill="#6D7D8A"/>
<path d="M127 37L121.802 41.916L125.062 47H122.859L120.304 42.7143C120.172 42.5042 120.084 42.2941 119.996 42.084H119.907L118.806 47H117L119.203 37H121.053L119.996 41.6639H120.04L120.392 41.2857L124.709 37H127Z" fill="#6D7D8A"/>
<path d="M132.583 46.8045H130.709C130.709 46.6872 130.709 46.4916 130.754 46.2179C130.8 45.9441 130.8 45.7095 130.846 45.5531H130.8C130.48 45.9441 130.206 46.257 129.977 46.4134C129.749 46.6089 129.52 46.7263 129.246 46.8436C128.971 46.9218 128.651 47 128.331 47C127.6 47 127.006 46.7654 126.594 46.3352C126.183 45.905 126 45.2793 126 44.4972C126 43.676 126.229 42.933 126.686 42.1899C127.143 41.4469 127.737 40.9385 128.469 40.5475C129.2 40.1955 130.069 40 131.074 40C131.897 40 132.857 40.1173 134 40.3129L132.949 44.6536C132.857 44.9665 132.811 45.3575 132.766 45.7877C132.72 46.2179 132.583 46.5698 132.583 46.8045ZM131.897 41.2514C131.577 41.1732 131.257 41.1732 130.846 41.1732C130.251 41.1732 129.749 41.2905 129.337 41.5642C128.926 41.838 128.56 42.2291 128.286 42.7374C128.011 43.2458 127.874 43.7933 127.874 44.3799C127.874 44.8101 127.966 45.162 128.149 45.3966C128.331 45.6313 128.606 45.7486 129.017 45.7486C129.566 45.7486 130.069 45.514 130.48 45.0056C130.937 44.5363 131.257 43.8715 131.44 43.0503L131.897 41.2514Z" fill="#6D7D8A"/>
<path d="M140 41.5819C140 42.0565 139.842 42.452 139.526 42.7288C139.211 43.0452 138.737 43.2429 138.105 43.322V43.3616C138.579 43.4011 138.934 43.5593 139.171 43.8362C139.408 44.113 139.566 44.4294 139.566 44.8644C139.566 45.2994 139.447 45.6554 139.211 45.9718C138.974 46.2881 138.618 46.5254 138.145 46.7232C137.671 46.8814 137.079 47 136.408 47C135.934 47 135.5 46.9605 135.066 46.8814C134.632 46.8023 134.276 46.6836 134 46.565L134.237 45.2599C134.908 45.6158 135.618 45.8136 136.289 45.8136C136.842 45.8136 137.276 45.7345 137.592 45.5367C137.908 45.3785 138.066 45.1412 138.066 44.8249C138.066 44.2316 137.513 43.9153 136.447 43.9153H135.342L135.539 42.8475H136.605C137.197 42.8475 137.671 42.7684 137.987 42.6102C138.303 42.452 138.461 42.2147 138.461 41.8983C138.461 41.6215 138.342 41.4237 138.105 41.3051C137.868 41.1864 137.553 41.1073 137.158 41.1073C136.447 41.1073 135.776 41.2655 135.066 41.6215L135.303 40.3559C136.013 40.1186 136.763 40 137.592 40C138.382 40 138.974 40.1582 139.368 40.435C139.763 40.7119 140 41.0282 140 41.5819Z" fill="#6D7D8A"/>
<path d="M147.583 46.8045H145.709C145.709 46.6872 145.709 46.4916 145.754 46.2179C145.8 45.9441 145.8 45.7095 145.846 45.5531H145.8C145.48 45.9441 145.206 46.257 144.977 46.4134C144.749 46.6089 144.52 46.7263 144.246 46.8436C143.971 46.9218 143.651 47 143.331 47C142.6 47 142.006 46.7654 141.594 46.3352C141.183 45.905 141 45.2793 141 44.4972C141 43.676 141.229 42.933 141.686 42.1899C142.143 41.4469 142.737 40.9385 143.469 40.5475C144.2 40.1955 145.069 40 146.074 40C146.897 40 147.857 40.1173 149 40.3129L147.949 44.6536C147.857 44.9665 147.811 45.3575 147.766 45.7877C147.72 46.2179 147.583 46.5698 147.583 46.8045ZM146.897 41.2514C146.577 41.1732 146.257 41.1732 145.846 41.1732C145.251 41.1732 144.749 41.2905 144.337 41.5642C143.926 41.838 143.56 42.2291 143.286 42.7374C143.011 43.2458 142.874 43.7933 142.874 44.3799C142.874 44.8101 142.966 45.162 143.149 45.3966C143.331 45.6313 143.606 45.7486 144.017 45.7486C144.566 45.7486 145.069 45.514 145.48 45.0056C145.937 44.5363 146.257 43.8715 146.44 43.0503L146.897 41.2514Z" fill="#6D7D8A"/>
<path d="M153.642 43.5412L155.388 47H153.418L152.612 44.9824L152.388 44.3235H152.343C152.254 44.4882 152.119 44.6118 152.03 44.7353C151.94 44.8588 151.313 45.6 150.104 47H148L151.403 43.5L149.746 40H151.716L152.478 42.0176C152.567 42.2647 152.657 42.4706 152.701 42.7176H152.746C152.836 42.6353 152.881 42.5118 152.97 42.3882C153.06 42.2647 153.731 41.4824 154.985 40H157L153.642 43.5412Z" fill="#6D7D8A"/>
<path d="M162.625 41.4604C162.458 41.2816 162.25 41.1475 161.958 41.0582C161.708 40.9688 161.417 40.8794 161.083 40.8794C160.625 40.8794 160.25 41.0135 159.875 41.2816C159.5 41.5498 159.208 41.952 159 42.4883C158.75 43.0246 158.667 43.561 158.667 44.142C158.667 44.7677 158.792 45.2146 159.042 45.5274C159.292 45.8403 159.667 46.019 160.125 46.019C160.417 46.019 160.708 45.9744 161.042 45.8403C161.375 45.7062 161.667 45.5721 161.917 45.3934L161.625 46.9129C160.958 47.2704 160.333 47.4492 159.667 47.4492C158.833 47.4492 158.167 47.1811 157.708 46.6001C157.25 46.0637 157 45.304 157 44.3207C157 43.4269 157.167 42.6224 157.542 41.8626C157.917 41.1029 158.375 40.5218 159.042 40.0749C159.667 39.6727 160.375 39.4492 161.208 39.4492C161.542 39.4492 161.875 39.4939 162.208 39.5833C162.542 39.6727 162.792 39.7621 163 39.8961L162.625 41.4604Z" fill="#6D7D8A"/>
<path d="M175 41.7299C175 41.9713 174.915 42.3736 174.787 43.0575L173.936 46.9195H172.234L173.128 42.977C173.213 42.4943 173.255 42.2126 173.255 42.092C173.255 41.4885 172.957 41.2069 172.404 41.2069C171.979 41.2069 171.511 41.4483 171.043 41.9713C170.574 42.454 170.234 43.0172 170.106 43.5805L169.34 46.9598H167.638L168.532 43.0172C168.617 42.5345 168.66 42.2529 168.66 42.1322C168.66 41.5287 168.362 41.2471 167.809 41.2471C167.511 41.2471 167.213 41.3678 166.872 41.6092C166.532 41.8506 166.234 42.1322 165.979 42.5345C165.723 42.9368 165.553 43.2586 165.468 43.6207L164.702 47H163L164.106 42.2126C164.277 41.4483 164.404 40.7644 164.489 40.1609H166.149C166.106 40.523 166.021 41.046 165.936 41.6494H165.979C166.362 41.1264 166.787 40.7241 167.213 40.4425C167.681 40.1609 168.149 40 168.574 40C169.681 40 170.277 40.5632 170.362 41.6897C170.745 41.1667 171.213 40.7241 171.681 40.4425C172.149 40.1609 172.66 40 173.128 40C173.723 40 174.191 40.1609 174.489 40.4828C174.872 40.6839 175 41.1264 175 41.7299Z" fill="#6D7D8A"/>
<path d="M181.76 46.8045H180.12C180.12 46.6872 180.12 46.4916 180.16 46.2179C180.2 45.9441 180.2 45.7095 180.24 45.5531H180.2C179.92 45.9441 179.68 46.257 179.48 46.4134C179.28 46.6089 179.08 46.7263 178.84 46.8436C178.6 46.9218 178.32 47 178.04 47C177.4 47 176.88 46.7654 176.52 46.3352C176.16 45.905 176 45.2793 176 44.4972C176 43.676 176.2 42.933 176.6 42.1899C177 41.4469 177.52 40.9385 178.16 40.5475C178.8 40.1955 179.56 40 180.44 40C181.16 40 182 40.1173 183 40.3129L182.08 44.6536C182 44.9665 181.96 45.3575 181.92 45.7877C181.88 46.2179 181.76 46.5698 181.76 46.8045ZM181.16 41.2514C180.88 41.1732 180.6 41.1732 180.24 41.1732C179.72 41.1732 179.28 41.2905 178.92 41.5642C178.56 41.838 178.24 42.2291 178 42.7374C177.76 43.2458 177.64 43.7933 177.64 44.3799C177.64 44.8101 177.72 45.162 177.88 45.3966C178.04 45.6313 178.28 45.7486 178.64 45.7486C179.12 45.7486 179.56 45.514 179.92 45.0056C180.32 44.5363 180.6 43.8715 180.76 43.0503L181.16 41.2514Z" fill="#6D7D8A"/>
<path d="M190.434 47H188.741L189.418 43.9529H186.328L185.693 47H184L185.524 40H187.217L186.624 42.7176H189.714L190.307 40H192L190.434 47Z" fill="#6D7D8A"/>
<path d="M199 41.809C199 42.5955 198.618 43.2247 197.892 43.5787C197.166 43.9719 196.057 44.1685 194.567 44.1685V44.2472V44.3652C194.567 44.8371 194.682 45.1517 194.949 45.427C195.217 45.6629 195.561 45.8202 196.057 45.8202C196.363 45.8202 196.707 45.7416 197.089 45.6236C197.471 45.5056 197.777 45.3483 198.083 45.1517L197.815 46.4494C197.166 46.8034 196.478 47 195.713 47C194.873 47 194.223 46.764 193.726 46.2921C193.268 45.8202 193 45.1124 193 44.2472C193 43.5 193.153 42.7921 193.497 42.1236C193.803 41.4551 194.261 40.9438 194.834 40.5506C195.408 40.1573 196.057 40 196.707 40C197.395 40 197.93 40.1573 198.312 40.5112C198.809 40.8258 199 41.2584 199 41.809ZM197.548 41.8483C197.548 41.6124 197.471 41.4551 197.318 41.3371C197.166 41.2191 196.936 41.1404 196.669 41.1404C196.21 41.1404 195.828 41.3371 195.446 41.691C195.064 42.0843 194.834 42.5169 194.72 43.1067C196.592 43.1067 197.548 42.6742 197.548 41.8483Z" fill="#6D7D8A"/>
</svg>
