<svg width="200" height="54" viewBox="0 0 200 54" fill="none" xmlns="http://www.w3.org/2000/svg">
<path d="M54.3652 20.2402C54.9216 22.4158 55.2395 24.669 55.2395 26.9999C55.2395 41.8791 42.8404 54 27.6197 54C12.3991 54 0 41.8791 0 26.9999C0 24.669 0.317925 22.4158 0.874294 20.2402H18.2012L27.6197 43.3553L37.0383 20.2402H54.3652Z" fill="#0C5EA7"/>
<path d="M27.6193 0C39.1839 0 49.119 6.99281 53.2123 16.8604H34.5342L27.6193 42.5007L20.7045 16.8604H2.02637C6.11965 6.99281 16.0548 0 27.6193 0Z" fill="#1691CC"/>
<path d="M66.8838 17.0061V21.0918H75.2854V37.6013H80.3178V21.0918H88.6768V17.0061H66.8838Z" fill="white"/>
<path d="M96.3534 28.5949H88.1224C88.1224 27.1774 88.7194 25.9267 90.6812 25.9267H93.5386C95.671 25.9267 96.3534 27.1774 96.3534 28.5949ZM101.173 31.3465V28.8451C101.173 25.885 99.6799 22.8833 94.7327 22.8833H89.3591C84.8811 22.8833 83.0899 25.7182 83.0899 28.3031V32.0136C83.0899 35.2237 85.0517 37.6418 89.2738 37.6418H94.8607C99.9358 37.6418 101.173 35.4322 101.173 32.8474H96.3534C96.3534 34.0147 95.7563 34.5984 94.5622 34.5984H90.5106C88.4635 34.5984 88.1224 33.2226 88.1224 31.9719V31.3882L101.173 31.3465Z" fill="white"/>
<path d="M119.554 22.9249H114.052L110.64 27.3858L107.058 22.9249H101.599L107.442 29.929L101.002 37.6001H106.418L110.555 32.4304L114.735 37.6001H120.151L113.711 29.929L119.554 22.9249Z" fill="white"/>
<path d="M122.241 17.0049V37.6001H127.273V21.0906H127.955L133.372 37.6001C134.523 37.6001 135.675 37.6001 136.869 37.6001C140.92 37.6001 141.475 36.5162 142.541 32.8057L145.953 21.0906H146.635V37.6001H151.667V17.0049C149.62 17.0049 147.616 17.0049 145.569 17.0049C144.631 17.0049 142.37 16.7547 141.091 19.8398C139.769 24.3841 138.447 28.9701 137.082 33.5144C136.997 33.5144 136.869 33.5144 136.783 33.5144C135.376 29.4287 134.31 24.1757 132.732 19.7148C131.495 16.7964 128.979 17.0049 128.51 17.0049H122.241Z" fill="white"/>
<path d="M158.278 27.1774V26.7188C158.278 26.1351 158.619 26.01 160.24 26.01H163.779C165.699 26.01 166.551 26.3019 166.551 27.8028V28.2197H159.429C154.738 28.2197 153.373 29.6788 153.373 32.0969V33.8896C153.373 36.4327 155.335 37.6418 158.406 37.6418C165.443 37.6418 165.656 37.6418 171.584 37.6418V28.0946C171.584 25.2596 169.963 22.9249 165.187 22.9249H159.557C154.823 22.9249 153.501 24.7593 153.501 27.1774H158.278ZM160.666 31.2631H166.551V34.5567H160.666C158.832 34.5567 158.278 34.0981 158.278 32.9307C158.278 31.6383 158.918 31.2631 160.666 31.2631Z" fill="white"/>
<path d="M173.247 22.9249V37.6001C180.966 37.6001 182.758 37.6001 190.52 37.6001C190.946 37.6001 199.006 37.7668 199.006 31.2214V22.9249H193.974C193.974 25.7182 193.974 28.5115 193.974 31.3048C193.974 34.1397 190.818 34.2231 190.562 34.2231H188.686V22.9249H183.611V34.2231H178.28V22.9249H173.247Z" fill="white"/>
</svg>
