<svg width="200" height="54" viewBox="0 0 200 54" fill="none" xmlns="http://www.w3.org/2000/svg">
<path d="M54.3652 20.2402C54.9216 22.4158 55.2395 24.669 55.2395 26.9999C55.2395 41.8791 42.8404 54 27.6197 54C12.3991 54 0 41.8791 0 26.9999C0 24.669 0.317925 22.4158 0.874294 20.2402H18.2012L27.6197 43.3553L37.0383 20.2402H54.3652Z" fill="#0C5EA7"/>
<path d="M27.6193 0C39.1839 0 49.119 6.99281 53.2123 16.8604H34.5342L27.6193 42.5007L20.7045 16.8604H2.02637C6.11965 6.99281 16.0548 0 27.6193 0Z" fill="#1691CC"/>
<path d="M66.8838 9.1682V13.2539H75.2854V29.7634H80.3178V13.2539H88.6768V9.1682H66.8838Z" fill="white"/>
<path d="M96.3534 20.757H88.1224C88.1224 19.3395 88.7194 18.0888 90.6812 18.0888H93.5386C95.671 18.0888 96.3534 19.3395 96.3534 20.757ZM101.173 23.5086V21.0072C101.173 18.0471 99.6799 15.0454 94.7327 15.0454H89.3591C84.8811 15.0454 83.0899 17.8804 83.0899 20.4652V24.1757C83.0899 27.3859 85.0517 29.8039 89.2738 29.8039H94.8607C99.9358 29.8039 101.173 27.5943 101.173 25.0095H96.3534C96.3534 26.1768 95.7563 26.7605 94.5622 26.7605H90.5106C88.4635 26.7605 88.1224 25.3847 88.1224 24.134V23.5503L101.173 23.5086Z" fill="white"/>
<path d="M119.554 15.087H114.052L110.64 19.548L107.058 15.087H101.599L107.442 22.0911L101.002 29.7622H106.418L110.555 24.5925L114.735 29.7622H120.151L113.711 22.0911L119.554 15.087Z" fill="white"/>
<path d="M122.241 9.16698V29.7622H127.273V13.2527H127.955L133.372 29.7622C134.523 29.7622 135.675 29.7622 136.869 29.7622C140.92 29.7622 141.475 28.6783 142.541 24.9678L145.953 13.2527H146.635V29.7622H151.667V9.16698C149.62 9.16698 147.616 9.16698 145.569 9.16698C144.631 9.16698 142.37 8.91684 141.091 12.002C139.769 16.5462 138.447 21.1322 137.082 25.6765C136.997 25.6765 136.869 25.6765 136.783 25.6765C135.376 21.5908 134.31 16.3378 132.732 11.8769C131.495 8.95853 128.979 9.16698 128.51 9.16698H122.241Z" fill="white"/>
<path d="M158.278 19.3395V18.8809C158.278 18.2972 158.619 18.1722 160.24 18.1722H163.779C165.699 18.1722 166.551 18.464 166.551 19.9649V20.3818H159.429C154.738 20.3818 153.373 21.8409 153.373 24.259V26.0517C153.373 28.5949 155.335 29.8039 158.406 29.8039C165.443 29.8039 165.656 29.8039 171.584 29.8039V20.2567C171.584 17.4217 169.963 15.087 165.187 15.087H159.557C154.823 15.087 153.501 16.9214 153.501 19.3395H158.278ZM160.666 23.4252H166.551V26.7188H160.666C158.832 26.7188 158.278 26.2602 158.278 25.0928C158.278 23.8004 158.918 23.4252 160.666 23.4252Z" fill="white"/>
<path d="M173.247 15.087V29.7622C180.966 29.7622 182.758 29.7622 190.52 29.7622C190.946 29.7622 199.006 29.929 199.006 23.3835V15.087H193.974C193.974 17.8803 193.974 20.6736 193.974 23.4669C193.974 26.3019 190.818 26.3852 190.562 26.3852H188.686V15.087H183.611V26.3852H178.28V15.087H173.247Z" fill="white"/>
<path d="M136.287 41.2516C136.287 41.7421 136.128 42.1101 135.81 42.4371C135.491 42.7641 135.054 42.9685 134.497 43.0912C134.934 43.1321 135.292 43.2547 135.571 43.5C135.849 43.7453 135.969 44.0723 135.969 44.4811C135.969 44.9308 135.81 45.3396 135.531 45.7484C135.253 46.1163 134.855 46.4025 134.337 46.6069C133.82 46.8113 133.263 46.8931 132.626 46.8931C131.671 46.8931 130.995 46.6887 130.597 46.3207C130.199 45.9119 130 45.2987 130 44.3994C130 43.5 130.159 42.6415 130.478 41.9056C130.796 41.1698 131.273 40.5975 131.87 40.1887C132.467 39.7799 133.223 39.6163 134.059 39.6163C134.536 39.6163 134.934 39.6981 135.292 39.8207C135.611 39.9434 135.889 40.1478 136.048 40.3931C136.208 40.6384 136.287 40.9245 136.287 41.2516ZM134.417 44.522C134.417 44.195 134.298 43.9906 134.059 43.8679C133.82 43.7453 133.502 43.6635 133.064 43.6635C132.626 43.6635 132.109 43.7044 131.512 43.7862C131.472 43.9906 131.472 44.195 131.472 44.4402C131.472 44.8899 131.552 45.217 131.751 45.4623C131.95 45.6258 132.308 45.7484 132.746 45.7484C133.223 45.7484 133.621 45.6258 133.939 45.4214C134.258 45.1761 134.417 44.8899 134.417 44.522ZM134.735 41.4968C134.735 41.2924 134.656 41.088 134.497 40.9654C134.337 40.8428 134.099 40.761 133.82 40.761C133.303 40.761 132.865 40.9245 132.507 41.2924C132.149 41.6604 131.87 42.1101 131.751 42.7233C132.666 42.6824 133.303 42.6415 133.661 42.5597C134.019 42.478 134.258 42.3553 134.457 42.1918C134.656 41.9874 134.735 41.783 134.735 41.4968Z" fill="#6D7D8A"/>
<path d="M148.065 38.4308H144.086L143.569 41.0472H145.081C145.996 41.0472 146.712 41.2925 147.269 41.7421C147.787 42.2327 148.065 42.8459 148.065 43.6635C148.065 44.6447 147.747 45.3805 147.07 45.9119C146.394 46.4434 145.439 46.7296 144.205 46.7296H140.783L142.773 37H148.383L148.065 38.4308ZM146.314 43.7453C146.314 42.805 145.757 42.3553 144.643 42.3553H143.33L142.693 45.4214H144.166C144.882 45.4214 145.439 45.2987 145.797 45.0126C146.115 44.6855 146.314 44.2767 146.314 43.7453Z" fill="#6D7D8A"/>
<path d="M155.228 41.4968C155.228 42.3145 154.83 42.9685 154.074 43.3365C153.318 43.7453 152.164 43.9497 150.612 43.9497V44.1541C150.612 44.6446 150.731 44.9717 151.01 45.2579C151.288 45.5031 151.647 45.6667 152.164 45.6667C152.482 45.6667 152.84 45.5849 153.238 45.4623C153.636 45.3396 153.954 45.1761 154.273 44.9717L153.994 46.3207C153.318 46.6887 152.602 46.8931 151.806 46.8931C150.93 46.8931 150.254 46.6478 149.736 46.1572C149.259 45.6667 148.98 44.9308 148.98 44.0314C148.98 43.2547 149.14 42.5189 149.498 41.8239C149.816 41.1289 150.294 40.5975 150.89 40.1887C151.487 39.7799 152.164 39.6163 152.84 39.6163C153.557 39.6163 154.114 39.7799 154.512 40.1478C154.989 40.4748 155.228 40.9245 155.228 41.4968ZM153.676 41.5377C153.676 41.2924 153.596 41.1289 153.437 41.0063C153.278 40.8836 153.039 40.8019 152.761 40.8019C152.283 40.8019 151.885 41.0063 151.487 41.3742C151.089 41.783 150.851 42.2327 150.731 42.8459C152.681 42.8459 153.676 42.3962 153.676 41.5377Z" fill="#6D7D8A"/>
<path d="M161.435 46.7296H159.844L161.037 41.0472H159.605C159.048 42.8459 158.61 44.0723 158.252 44.8082C157.894 45.544 157.496 46.0346 157.098 46.3616C156.621 46.6478 156.143 46.8113 155.546 46.8113C155.427 46.8113 155.307 46.8113 155.108 46.7704C154.949 46.7296 154.83 46.7296 154.75 46.6887L154.949 45.4214C155.069 45.4623 155.188 45.4623 155.387 45.4623C155.745 45.4623 156.063 45.2987 156.382 44.9308C156.7 44.5629 156.979 44.0315 157.297 43.2547C157.615 42.478 157.973 41.2925 158.451 39.6981H162.868L161.435 46.7296Z" fill="#6D7D8A"/>
<path d="M169.275 46.7295H167.643C167.643 46.6069 167.643 46.4025 167.683 46.1163C167.723 45.8302 167.723 45.5849 167.762 45.4214C167.484 45.8302 167.245 46.1572 167.046 46.3207C166.847 46.5251 166.648 46.6478 166.409 46.7704C166.171 46.8522 165.892 46.9339 165.614 46.9339C164.977 46.9339 164.46 46.6887 164.102 46.239C163.743 45.7893 163.584 45.1352 163.584 44.3176C163.584 43.4591 163.783 42.6824 164.181 41.9056C164.579 41.1289 165.096 40.5975 165.733 40.1887C166.37 39.8207 167.126 39.6163 168.001 39.6163C168.717 39.6163 169.553 39.739 170.548 39.9434L169.633 44.4811C169.553 44.8082 169.513 45.217 169.474 45.6667C169.434 46.1163 169.275 46.4843 169.275 46.7295ZM168.678 40.9245C168.399 40.8428 168.121 40.8428 167.762 40.8428C167.245 40.8428 166.807 40.9654 166.449 41.2516C166.051 41.5377 165.773 41.9465 165.534 42.478C165.295 43.0094 165.176 43.5818 165.176 44.195C165.176 44.6446 165.256 45.0126 165.415 45.2579C165.574 45.5031 165.813 45.6258 166.171 45.6258C166.648 45.6258 167.086 45.3805 167.444 44.849C167.842 44.3176 168.121 43.6635 168.28 42.805L168.678 40.9245Z" fill="#6D7D8A"/>
<path d="M177.989 42.1918C177.989 43.0503 177.79 43.8271 177.432 44.5629C177.074 45.2987 176.596 45.8711 175.96 46.2799C175.323 46.6887 174.646 46.8931 173.851 46.8931C173.413 46.8931 172.975 46.8113 172.577 46.6887L171.901 49.9182H170.309L171.941 41.9874C171.98 41.7421 172.06 41.4151 172.1 40.9245C172.14 40.434 172.179 40.066 172.219 39.7799H173.811C173.811 39.9025 173.811 40.1069 173.771 40.3931C173.731 40.6793 173.691 40.9245 173.691 41.0881H173.731C174.328 40.1069 175.084 39.5755 176.039 39.5755C176.676 39.5755 177.153 39.8208 177.511 40.2704C177.83 40.761 177.989 41.4151 177.989 42.1918ZM176.397 42.3554C176.397 41.8648 176.318 41.4969 176.119 41.2925C175.92 41.0472 175.681 40.9245 175.363 40.9245C175.044 40.9245 174.766 41.0472 174.487 41.2516C174.209 41.4969 173.93 41.8239 173.691 42.2736C173.453 42.7233 173.294 43.2138 173.214 43.6635L172.816 45.4623C172.896 45.5032 173.055 45.544 173.294 45.5849C173.532 45.6258 173.731 45.6667 173.89 45.6667C174.368 45.6667 174.806 45.5032 175.164 45.217C175.562 44.9308 175.84 44.522 176.039 43.9906C176.278 43.4591 176.397 42.9277 176.397 42.3554Z" fill="#6D7D8A"/>
<path d="M178.268 50C177.949 50 177.671 49.9591 177.392 49.8773L177.671 48.5692C177.83 48.6918 178.069 48.7327 178.347 48.7327C178.904 48.7327 179.382 48.4465 179.78 47.8333L180.456 46.7296L179.183 39.8207H180.854L181.491 44.6038L181.531 45.0535V45.3396H181.57C181.69 45.0535 181.769 44.8082 181.889 44.6038L184.435 39.8207H186.146L181.491 47.6289C180.973 48.4874 180.496 49.1006 179.979 49.4685C179.501 49.7956 178.904 50 178.268 50Z" fill="#6D7D8A"/>
<path d="M191.2 41.4151C191.041 41.2516 190.842 41.1289 190.563 41.0472C190.325 40.9654 190.046 40.8837 189.728 40.8837C189.29 40.8837 188.932 41.0063 188.574 41.2516C188.216 41.4969 187.937 41.8648 187.738 42.3554C187.499 42.8459 187.42 43.3365 187.42 43.8679C187.42 44.4403 187.539 44.8491 187.778 45.1352C188.017 45.4214 188.375 45.5849 188.813 45.5849C189.091 45.5849 189.37 45.544 189.688 45.4214C190.006 45.2987 190.285 45.1761 190.524 45.0126L190.245 46.4025C189.608 46.7296 189.012 46.8931 188.375 46.8931C187.579 46.8931 186.942 46.6478 186.505 46.1164C186.067 45.6258 185.828 44.9308 185.828 44.0315C185.828 43.2138 185.987 42.478 186.345 41.783C186.704 41.0881 187.141 40.5566 187.778 40.1478C188.375 39.7799 189.051 39.5755 189.847 39.5755C190.166 39.5755 190.484 39.6164 190.802 39.6981C191.121 39.7799 191.359 39.8616 191.558 39.9843L191.2 41.4151Z" fill="#6D7D8A"/>
<path d="M197.646 46.7296H196.055L196.254 45.2579H196.214C195.856 45.7893 195.458 46.1572 195.02 46.4843C194.582 46.7704 194.145 46.934 193.667 46.934C193.11 46.934 192.672 46.7704 192.394 46.4434C192.115 46.1163 191.956 45.6667 191.956 45.0535C191.956 44.8491 192.036 44.3994 192.155 43.7044L192.951 39.7799H194.543L193.707 43.7862C193.627 44.2767 193.588 44.6038 193.588 44.6855C193.588 44.9717 193.667 45.1761 193.787 45.3396C193.906 45.5031 194.105 45.5849 194.383 45.5849C194.702 45.5849 194.98 45.4623 195.299 45.2579C195.617 45.0126 195.896 44.7264 196.134 44.3176C196.373 43.9088 196.532 43.5409 196.612 43.1321L197.288 39.7799H198.88L198.005 44.4403C197.845 45.2987 197.726 46.0346 197.646 46.7296Z" fill="#6D7D8A"/>
</svg>
