<svg width="150" height="50" viewBox="0 0 150 50" fill="none" xmlns="http://www.w3.org/2000/svg">
<rect opacity="0.2" x="0.5" y="0.5" width="149" height="49" stroke="white"/>
<path d="M55.657 11.77H50.522C50.327 11.77 50.262 11.835 50.262 12.03V14.669C50.262 18.907 49.508 19.713 48.91 20.116H48.455C48.26 20.116 48.195 20.181 48.195 20.376V22.729C48.195 22.924 48.26 22.989 48.455 22.989H48.871C49.053 22.989 49.118 22.924 49.118 22.729V21H56.073V22.729C56.073 22.924 56.125 22.989 56.32 22.989H56.736C56.931 22.989 56.996 22.924 56.996 22.729V20.376C56.996 20.181 56.931 20.116 56.736 20.116H55.917V12.03C55.917 11.835 55.852 11.77 55.657 11.77ZM51.172 12.654H54.968V20.116H50.054C50.587 19.505 51.172 18.374 51.172 14.669V12.654ZM57.8414 16.515V18.803C57.8414 20.285 58.9204 21.182 60.6884 21.182C62.4824 21.182 63.5614 20.285 63.5614 18.803V16.515C63.5614 15.033 62.4824 14.123 60.6884 14.123C58.9204 14.123 57.8414 15.033 57.8414 16.515ZM62.6774 16.515V18.803C62.6774 19.791 61.9104 20.389 60.6884 20.389C59.4924 20.389 58.7124 19.791 58.7124 18.803V16.515C58.7124 15.514 59.4924 14.916 60.6884 14.916C61.9104 14.916 62.6774 15.514 62.6774 16.515ZM64.8362 16.684V18.621C64.8362 20.207 65.7592 21.182 67.6182 21.182C69.1652 21.182 70.0232 20.545 70.4132 19.362C70.4912 19.167 70.4262 19.089 70.2572 19.024L69.9192 18.92C69.7242 18.868 69.6592 18.894 69.5812 19.076C69.3082 19.96 68.7232 20.415 67.6442 20.415C66.3702 20.415 65.7072 19.739 65.7072 18.647V16.658C65.7072 15.566 66.3572 14.903 67.6442 14.903C68.7622 14.903 69.2952 15.319 69.5682 16.177C69.6332 16.346 69.7112 16.398 69.8932 16.333L70.2312 16.216C70.4002 16.151 70.4522 16.073 70.3872 15.878C70.0622 14.812 69.2562 14.123 67.6702 14.123C65.7592 14.123 64.8362 15.111 64.8362 16.684ZM76.3106 14.318H71.3056C71.1366 14.318 71.0716 14.37 71.0716 14.552V14.89C71.0716 15.059 71.1366 15.124 71.3056 15.124H73.3856V20.766C73.3856 20.948 73.4506 21 73.6196 21H74.0226C74.1916 21 74.2566 20.948 74.2566 20.766V15.124H76.3106C76.4926 15.124 76.5446 15.059 76.5446 14.89V14.552C76.5446 14.37 76.4926 14.318 76.3106 14.318ZM82.8005 14.318H82.3845C82.2155 14.318 82.1505 14.37 82.1505 14.552V19.869C81.7475 19.999 81.1105 20.22 80.2265 20.22C78.9655 20.22 78.4065 19.609 78.4065 18.439V14.552C78.4065 14.37 78.3545 14.318 78.1725 14.318H77.7695C77.5875 14.318 77.5355 14.37 77.5355 14.552V18.478C77.5355 20.077 78.3285 21.013 80.1095 21.013C81.0845 21.013 81.7085 20.805 82.1505 20.675V21.442C82.1505 22.677 81.5785 23.418 80.2525 23.418C79.2645 23.418 78.7705 23.002 78.4325 22.378C78.3285 22.222 78.2505 22.183 78.0555 22.287L77.7695 22.43C77.6005 22.521 77.5745 22.651 77.6785 22.82C78.1205 23.639 78.8745 24.211 80.2655 24.211C82.2415 24.211 83.0345 23.093 83.0345 21.403V14.552C83.0345 14.37 82.9695 14.318 82.8005 14.318ZM89.9736 14.318H84.9816C84.8126 14.318 84.7476 14.37 84.7476 14.552V20.766C84.7476 20.948 84.8126 21 84.9816 21H85.3976C85.5666 21 85.6316 20.948 85.6316 20.766V15.124H89.3366V20.766C89.3366 20.948 89.3886 21 89.5706 21H89.9736C90.1556 21 90.2076 20.948 90.2076 20.766V14.552C90.2076 14.37 90.1556 14.318 89.9736 14.318ZM97.2115 14.318H96.7955C96.6265 14.318 96.5615 14.37 96.5615 14.552V17.165H92.8045V14.552C92.8045 14.37 92.7395 14.318 92.5705 14.318H92.1545C91.9855 14.318 91.9205 14.37 91.9205 14.552V20.766C91.9205 20.948 91.9855 21 92.1545 21H92.5705C92.7395 21 92.8045 20.948 92.8045 20.766V17.971H96.5615V20.766C96.5615 20.948 96.6265 21 96.7955 21H97.2115C97.3805 21 97.4455 20.948 97.4455 20.766V14.552C97.4455 14.37 97.3805 14.318 97.2115 14.318ZM98.9488 16.515V18.803C98.9488 20.285 100.028 21.182 101.796 21.182C103.59 21.182 104.669 20.285 104.669 18.803V16.515C104.669 15.033 103.59 14.123 101.796 14.123C100.028 14.123 98.9488 15.033 98.9488 16.515ZM103.785 16.515V18.803C103.785 19.791 103.018 20.389 101.796 20.389C100.6 20.389 99.8198 19.791 99.8198 18.803V16.515C99.8198 15.514 100.6 14.916 101.796 14.916C103.018 14.916 103.785 15.514 103.785 16.515ZM114.528 16.06C114.528 14.968 113.852 14.318 112.669 14.318H109.484C109.302 14.318 109.237 14.383 109.237 14.552V20.753C109.237 20.935 109.302 21 109.484 21H112.838C114.034 21 114.762 20.298 114.762 19.154C114.762 18.361 114.437 17.802 113.735 17.503C114.294 17.217 114.528 16.697 114.528 16.06ZM112.578 17.191H110.121V15.059H112.526C113.254 15.059 113.644 15.436 113.644 16.125C113.644 16.801 113.215 17.191 112.578 17.191ZM112.682 20.246H110.121V17.919H112.656C113.423 17.919 113.852 18.348 113.852 19.076C113.852 19.817 113.423 20.246 112.682 20.246Z" fill="#6D7D8A"/>
<path d="M53.46 37.154C52.452 37.154 51.5793 36.93 50.842 36.482C50.114 36.034 49.5587 35.418 49.176 34.634C48.7933 33.8407 48.602 32.9447 48.602 31.946C48.602 30.798 48.826 29.8133 49.274 28.992C49.7313 28.1707 50.3613 27.55 51.164 27.13C51.9667 26.7007 52.8813 26.486 53.908 26.486C54.8507 26.486 55.938 26.6307 57.17 26.92L57.044 29.342H56.05L55.714 27.662C55.5833 27.5593 55.3593 27.4613 55.042 27.368C54.734 27.2747 54.3187 27.228 53.796 27.228C53.1147 27.228 52.5127 27.396 51.99 27.732C51.4673 28.068 51.0567 28.5673 50.758 29.23C50.4687 29.8927 50.324 30.6953 50.324 31.638C50.324 32.506 50.4407 33.2993 50.674 34.018C50.9167 34.7367 51.2807 35.3153 51.766 35.754C52.2607 36.1833 52.8627 36.398 53.572 36.398C54.02 36.398 54.4447 36.3467 54.846 36.244C55.2473 36.132 55.5553 35.9873 55.77 35.81V32.688L54.006 32.548V31.722H58.094V32.548L57.282 32.674V36.44C57.0767 36.4493 56.736 36.5287 56.26 36.678C55.7747 36.8273 55.3173 36.944 54.888 37.028C54.4587 37.112 53.9827 37.154 53.46 37.154ZM58.9933 33.094C58.9933 32.254 59.1659 31.526 59.5113 30.91C59.8566 30.294 60.3093 29.8273 60.8693 29.51C61.4386 29.1833 62.0453 29.02 62.6893 29.02C63.8653 29.02 64.7473 29.3933 65.3353 30.14C65.9326 30.8867 66.2313 31.8667 66.2313 33.08C66.2313 33.9293 66.0586 34.662 65.7133 35.278C65.3679 35.894 64.9106 36.3607 64.3413 36.678C63.7813 36.9953 63.1793 37.154 62.5353 37.154C61.3593 37.154 60.4726 36.7807 59.8753 36.034C59.2873 35.2873 58.9933 34.3073 58.9933 33.094ZM62.6193 36.356C63.2633 36.356 63.7579 36.09 64.1033 35.558C64.4486 35.026 64.6213 34.2373 64.6213 33.192C64.6213 32.156 64.4626 31.3347 64.1453 30.728C63.8279 30.1213 63.3193 29.818 62.6193 29.818C61.9753 29.818 61.4759 30.084 61.1213 30.616C60.7759 31.148 60.6033 31.9367 60.6033 32.982C60.6033 34.018 60.7666 34.8393 61.0933 35.446C61.4199 36.0527 61.9286 36.356 62.6193 36.356ZM67.5109 33.094C67.5109 32.254 67.6835 31.526 68.0289 30.91C68.3742 30.294 68.8269 29.8273 69.3869 29.51C69.9562 29.1833 70.5629 29.02 71.2069 29.02C72.3829 29.02 73.2649 29.3933 73.8529 30.14C74.4502 30.8867 74.7489 31.8667 74.7489 33.08C74.7489 33.9293 74.5762 34.662 74.2309 35.278C73.8855 35.894 73.4282 36.3607 72.8589 36.678C72.2989 36.9953 71.6969 37.154 71.0529 37.154C69.8769 37.154 68.9902 36.7807 68.3929 36.034C67.8049 35.2873 67.5109 34.3073 67.5109 33.094ZM71.1369 36.356C71.7809 36.356 72.2755 36.09 72.6209 35.558C72.9662 35.026 73.1389 34.2373 73.1389 33.192C73.1389 32.156 72.9802 31.3347 72.6629 30.728C72.3455 30.1213 71.8369 29.818 71.1369 29.818C70.4929 29.818 69.9935 30.084 69.6389 30.616C69.2935 31.148 69.1209 31.9367 69.1209 32.982C69.1209 34.018 69.2842 34.8393 69.6109 35.446C69.9375 36.0527 70.4462 36.356 71.1369 36.356ZM79.3744 40.78C78.1798 40.78 77.3118 40.5887 76.7704 40.206C76.2384 39.8327 75.9724 39.3147 75.9724 38.652C75.9724 38.2413 76.0984 37.8633 76.3504 37.518C76.6118 37.1727 76.9198 36.9113 77.2744 36.734C76.8451 36.4913 76.6304 36.0993 76.6304 35.558C76.6304 35.222 76.7284 34.9047 76.9244 34.606C77.1204 34.3073 77.3771 34.0787 77.6944 33.92C77.2278 33.7147 76.8684 33.4207 76.6164 33.038C76.3738 32.6553 76.2524 32.2027 76.2524 31.68C76.2524 31.1387 76.4018 30.6673 76.7004 30.266C77.0084 29.8647 77.4098 29.5567 77.9044 29.342C78.4084 29.1273 78.9404 29.02 79.5004 29.02C80.4431 29.02 81.1804 29.216 81.7124 29.608C81.8524 29.468 82.0671 29.3327 82.3564 29.202C82.6458 29.0713 82.9538 29.006 83.2804 29.006H83.7564V30.238H82.2164C82.4404 30.5833 82.5524 30.9847 82.5524 31.442C82.5524 31.9927 82.4124 32.4827 82.1324 32.912C81.8618 33.332 81.4791 33.6587 80.9844 33.892C80.4991 34.1253 79.9484 34.242 79.3324 34.242C78.9311 34.242 78.5718 34.2 78.2544 34.116C78.1238 34.2467 78.0164 34.3913 77.9324 34.55C77.8484 34.7087 77.8064 34.8627 77.8064 35.012C77.8064 35.348 77.9184 35.5813 78.1424 35.712C78.3664 35.8333 78.7678 35.894 79.3464 35.894H80.9284C81.8338 35.894 82.5058 36.0667 82.9444 36.412C83.3831 36.7573 83.6024 37.2473 83.6024 37.882C83.6024 38.414 83.4111 38.8993 83.0284 39.338C82.6458 39.786 82.1278 40.136 81.4744 40.388C80.8304 40.6493 80.1304 40.78 79.3744 40.78ZM79.4724 33.472C80.5364 33.472 81.0684 32.842 81.0684 31.582C81.0684 30.9567 80.9284 30.4993 80.6484 30.21C80.3778 29.9113 79.9671 29.762 79.4164 29.762C78.9031 29.762 78.4971 29.9067 78.1984 30.196C77.8998 30.476 77.7504 30.9287 77.7504 31.554C77.7504 32.142 77.8904 32.6087 78.1704 32.954C78.4598 33.2993 78.8938 33.472 79.4724 33.472ZM79.5004 39.968C79.9578 39.968 80.3871 39.898 80.7884 39.758C81.1991 39.6273 81.5304 39.4267 81.7824 39.156C82.0344 38.8947 82.1604 38.5867 82.1604 38.232C82.1604 37.812 82.0484 37.504 81.8244 37.308C81.6004 37.1213 81.1664 37.028 80.5224 37.028H78.8704C78.4971 37.028 78.2031 37.0047 77.9884 36.958C77.6058 37.378 77.4144 37.8493 77.4144 38.372C77.4144 38.8947 77.5731 39.2913 77.8904 39.562C78.2078 39.8327 78.7444 39.968 79.5004 39.968ZM85.5543 26.556L84.4203 26.402V25.8L86.6743 25.534H86.7023L87.0103 25.744V36.202L88.2003 36.314V37H84.4203V36.314L85.5543 36.188V26.556ZM92.6385 37.154C91.5091 37.154 90.6458 36.7853 90.0485 36.048C89.4605 35.3107 89.1665 34.326 89.1665 33.094C89.1665 32.282 89.3205 31.568 89.6285 30.952C89.9365 30.336 90.3658 29.86 90.9165 29.524C91.4765 29.188 92.1111 29.02 92.8205 29.02C93.6885 29.02 94.3605 29.2627 94.8365 29.748C95.3218 30.224 95.5785 30.91 95.6065 31.806C95.6065 32.3753 95.5738 32.8093 95.5085 33.108H90.6925C90.7111 34.032 90.9258 34.7787 91.3365 35.348C91.7471 35.908 92.3305 36.188 93.0865 36.188C93.4598 36.188 93.8471 36.1227 94.2485 35.992C94.6591 35.852 94.9765 35.6887 95.2005 35.502L95.4665 36.118C95.1958 36.398 94.7945 36.6407 94.2625 36.846C93.7305 37.0513 93.1891 37.154 92.6385 37.154ZM94.0665 32.366C94.0945 32.17 94.1085 31.9693 94.1085 31.764C94.0991 31.1573 93.9685 30.6813 93.7165 30.336C93.4738 29.9813 93.0865 29.804 92.5545 29.804C92.0131 29.804 91.5791 30 91.2525 30.392C90.9351 30.784 90.7531 31.442 90.7065 32.366H94.0665ZM107.706 32.842C107.706 33.6353 107.543 34.3633 107.216 35.026C106.889 35.6793 106.423 36.1973 105.816 36.58C105.209 36.9627 104.5 37.154 103.688 37.154C103.464 37.154 103.221 37.1353 102.96 37.098C102.699 37.0607 102.489 37.014 102.33 36.958L102.372 38.134V39.548L103.828 39.702V40.388H99.922V39.702L100.93 39.548V30.308L99.908 30.056V29.3L101.896 29.048H101.924L102.218 29.3V30.126C102.498 29.818 102.843 29.5567 103.254 29.342C103.674 29.1273 104.141 29.02 104.654 29.02C105.205 29.02 105.709 29.1553 106.166 29.426C106.633 29.6967 107.006 30.1167 107.286 30.686C107.566 31.2553 107.706 31.974 107.706 32.842ZM104.08 30C103.725 30 103.394 30.0747 103.086 30.224C102.778 30.3733 102.54 30.5367 102.372 30.714V35.992C102.437 36.104 102.601 36.2067 102.862 36.3C103.133 36.384 103.427 36.426 103.744 36.426C104.463 36.426 105.041 36.1413 105.48 35.572C105.928 35.0027 106.152 34.144 106.152 32.996C106.152 31.988 105.956 31.2367 105.564 30.742C105.181 30.2473 104.687 30 104.08 30ZM109.945 26.556L108.811 26.402V25.8L111.065 25.534H111.093L111.401 25.744V36.202L112.591 36.314V37H108.811V36.314L109.945 36.188V26.556ZM113.585 34.9C113.585 34.0227 114.024 33.3787 114.901 32.968C115.778 32.548 116.889 32.324 118.233 32.296V31.904C118.233 31.4653 118.186 31.12 118.093 30.868C118 30.616 117.836 30.434 117.603 30.322C117.379 30.2007 117.057 30.14 116.637 30.14C116.161 30.14 115.732 30.21 115.349 30.35C114.976 30.4807 114.602 30.644 114.229 30.84L113.879 30.112C114 30.0093 114.224 29.874 114.551 29.706C114.878 29.538 115.256 29.3887 115.685 29.258C116.114 29.1273 116.544 29.062 116.973 29.062C117.636 29.062 118.158 29.1553 118.541 29.342C118.933 29.5193 119.213 29.8087 119.381 30.21C119.549 30.6113 119.633 31.148 119.633 31.82V36.314H120.459V36.93C120.272 36.9767 120.034 37.0233 119.745 37.07C119.465 37.1167 119.218 37.14 119.003 37.14C118.742 37.14 118.564 37.098 118.471 37.014C118.378 36.9393 118.331 36.7667 118.331 36.496V36.034C118.051 36.314 117.706 36.5707 117.295 36.804C116.894 37.0373 116.436 37.154 115.923 37.154C115.251 37.154 114.691 36.9627 114.243 36.58C113.804 36.188 113.585 35.628 113.585 34.9ZM116.525 36.202C116.768 36.202 117.048 36.1273 117.365 35.978C117.682 35.8287 117.972 35.6513 118.233 35.446V33.038C117.216 33.038 116.446 33.1967 115.923 33.514C115.41 33.822 115.153 34.228 115.153 34.732C115.153 35.236 115.274 35.6093 115.517 35.852C115.769 36.0853 116.105 36.202 116.525 36.202ZM122.567 40.486C122.408 40.486 122.249 40.4767 122.091 40.458C121.941 40.4393 121.834 40.4113 121.769 40.374V39.156C121.825 39.1933 121.932 39.2213 122.091 39.24C122.259 39.2587 122.417 39.268 122.567 39.268C123.015 39.268 123.407 39.1093 123.743 38.792C124.088 38.484 124.419 37.8867 124.737 37H124.065L121.405 30.07L120.761 29.888V29.23H124.135V29.888L123.057 30.056L124.429 34.186L125.073 36.23L125.675 34.172L126.921 30.056L125.983 29.888V29.23H128.797V29.888L128.097 30.056C126.725 34.256 125.917 36.6407 125.675 37.21C125.357 38.0127 125.068 38.638 124.807 39.086C124.545 39.5433 124.237 39.8887 123.883 40.122C123.528 40.3647 123.089 40.486 122.567 40.486Z" fill="#6D7D8A"/>
<g clip-path="url(#clip0)">
<path d="M18.9819 12.3313C18.3121 11.9281 17.5138 11.8921 16.8176 12.2278L28.4908 23.9258L32.3075 20.0913L18.9819 12.3313ZM15.745 13.3104C15.5978 13.6222 15.5186 13.9691 15.5186 14.3261V35.7245C15.5186 36.083 15.5983 36.4247 15.7471 36.7299L27.4157 25.006L15.745 13.3104ZM28.4923 26.0846L16.8379 37.7943C17.1472 37.9375 17.4762 38 17.8048 38C18.2105 38 18.6153 37.903 18.9819 37.6826L32.3101 29.911L28.4923 26.0846ZM37.3827 23.0468C37.3781 23.0438 37.373 23.0407 37.3685 23.0382L33.6685 20.8835L29.5669 25.0044L33.671 29.1173C33.671 29.1173 37.3781 26.956 37.3827 26.9534C38.0708 26.5355 38.4816 25.8053 38.4816 24.9999C38.4816 24.1945 38.0708 23.4642 37.3827 23.0468Z" fill="#6D7D8A"/>
</g>
<defs>
<clipPath id="clip0">
<rect width="26" height="26" fill="white" transform="translate(14 12)"/>
</clipPath>
</defs>
</svg>
