<svg xmlns="http://www.w3.org/2000/svg" viewBox="0 0 18 18"><defs><style>.cls-1{fill:none;}.cls-2{fill:#afafaf;}</style></defs><title>Ресурс 1</title><g id="Слой_2" data-name="Слой 2"><g id="svg2"><path class="cls-1" d="M9,2.11A6.88,6.88,0,1,0,15.88,9,6.9,6.9,0,0,0,9,2.11ZM11,10H4V8H14v2Z"/><path class="cls-2" d="M9,0a9,9,0,1,0,9,9A9,9,0,0,0,9,0ZM9,15.88A6.88,6.88,0,1,1,15.88,9,6.9,6.9,0,0,1,9,15.88Z"/><polygon class="cls-2" points="11 8 10 8 4 8 4 10 10 10 11 10 14 10 14 8 11 8"/></g></g></svg>