<svg xmlns="http://www.w3.org/2000/svg" viewBox="0 0 18 18"><defs><style>.cls-1{fill:#afafaf;}</style></defs><title>Ресурс 1</title><g id="Слой_2" data-name="Слой 2"><g id="svg2"><g id="plus_badge"><path class="cls-1" d="M0,9A9,9,0,0,1,9,0H9a9,9,0,0,1,9,9h0a9,9,0,0,1-9,9H9A9,9,0,0,1,0,9ZM2.11,9A6.9,6.9,0,0,0,9,15.88H9A6.9,6.9,0,0,0,15.88,9h0A6.9,6.9,0,0,0,9,2.11H9A6.9,6.9,0,0,0,2.11,9Z"/><polygon class="cls-1" points="14 8 10 8 10 4 8 4 8 8 4 8 4 10 8 10 8 14 10 14 10 10 14 10 14 8"/></g></g></g></svg>