<?xml version="1.0" encoding="utf-8"?>
<!-- Generator: Adobe Illustrator 21.0.0, SVG Export Plug-In . SVG Version: 6.00 Build 0)  -->
<svg version="1.1" id="Слой_1" xmlns="http://www.w3.org/2000/svg" xmlns:xlink="http://www.w3.org/1999/xlink" x="0px" y="0px"
	 viewBox="0 0 19.219 18.304" style="enable-background:new 0 0 19.219 18.304;" xml:space="preserve">
<style type="text/css">
	.st0{fill:#FBC217;}
</style>
<path class="st0" d="M19.194,6.941c-0.059-0.181-0.215-0.313-0.404-0.34l-6.034-0.877l-2.699-5.468
	c-0.168-0.342-0.729-0.342-0.896,0L6.462,5.724L0.428,6.601C0.24,6.628,0.083,6.76,0.024,6.941c-0.059,0.181-0.01,0.379,0.126,0.512
	l4.367,4.256l-1.031,6.01c-0.032,0.188,0.045,0.377,0.199,0.489c0.154,0.112,0.359,0.127,0.526,0.038l5.397-2.837l5.397,2.837
	c0.073,0.039,0.153,0.058,0.232,0.058c0.104,0,0.207-0.032,0.294-0.096c0.154-0.112,0.231-0.301,0.199-0.489l-1.031-6.01
	l4.367-4.256C19.204,7.321,19.253,7.122,19.194,6.941z"/>
</svg>
