<?xml version="1.0" encoding="utf-8"?>
<!-- Generator: Adobe Illustrator 21.0.0, SVG Export Plug-In . SVG Version: 6.00 Build 0)  -->
<svg version="1.1" id="Слой_1" xmlns="http://www.w3.org/2000/svg" xmlns:xlink="http://www.w3.org/1999/xlink" x="0px" y="0px"
	 viewBox="0 0 147.188 29.913" style="enable-background:new 0 0 147.188 29.913;" xml:space="preserve">
<style type="text/css">
	.st0{fill:#FF0000;}
</style>
<path d="M89.526,1.815h-1.822l-3.63,14.089c-0.293,1.178-0.5,2.27-0.613,3.247c-0.045-0.473-0.108-0.965-0.187-1.466
	c-0.087-0.546-0.221-1.145-0.396-1.781L79.356,1.85l-0.009-0.035h-1.789l-1.023,22.916l-0.002,0.047h1.373L78.6,9.136
	c0.044-0.894,0.072-1.789,0.082-2.651c0.011-0.887,0.017-1.601,0.017-2.178h0.014c0.087,0.792,0.196,1.527,0.326,2.186
	c0.132,0.669,0.286,1.361,0.461,2.06l3.258,12.573l0.009,0.033h1.287l3.3-12.606c0.196-0.763,0.358-1.488,0.478-2.159
	c0.118-0.659,0.233-1.372,0.34-2.119h0.016v2.128c0,0.725,0.023,1.6,0.067,2.602l0.691,15.732l0.002,0.043h1.603l-1.022-22.92
	L89.526,1.815z"/>
<path d="M102.034,23.397c-0.066-0.574-0.099-1.154-0.099-1.723v-9.05c0-1.65-0.369-2.884-1.098-3.668
	c-0.729-0.786-1.793-1.182-3.159-1.182c-0.946,0-1.766,0.172-2.439,0.514c-0.673,0.342-1.182,0.739-1.513,1.182l-0.014,0.019
	l0.462,1.525l0.053-0.075c0.389-0.563,0.893-1.008,1.498-1.319c0.605-0.314,1.263-0.472,1.954-0.472
	c0.903,0,1.589,0.286,2.039,0.854c0.452,0.571,0.681,1.509,0.681,2.787v2.029h-1.766c-1.803,0-3.198,0.464-4.145,1.377
	c-0.948,0.915-1.429,2.282-1.429,4.064c0,1.517,0.358,2.719,1.064,3.567c0.708,0.852,1.638,1.283,2.767,1.283
	c0.839,0,1.569-0.236,2.167-0.7c0.559-0.435,1.036-1.024,1.421-1.751c0.041,0.522,0.099,0.938,0.169,1.248
	c0.076,0.338,0.148,0.622,0.214,0.842l0.01,0.032h1.446l-0.022-0.06C102.187,24.42,102.099,23.974,102.034,23.397 M100.398,15.958
	v4.674c-0.305,0.892-0.727,1.663-1.257,2.292c-0.527,0.626-1.174,0.943-1.924,0.943c-0.795,0-1.435-0.327-1.906-0.974
	c-0.475-0.649-0.716-1.574-0.716-2.748c0-1.457,0.338-2.531,1.006-3.19c0.669-0.662,1.699-0.996,3.063-0.996H100.398z"/>
<path d="M114.042,10.051c-0.376-0.715-0.845-1.281-1.397-1.677c-0.554-0.4-1.183-0.601-1.869-0.601c-0.93,0-1.715,0.319-2.335,0.95
	c-0.574,0.585-1.049,1.249-1.413,1.978l-0.123-2.557l-0.002-0.043h-1.371v21.812h1.57v-6.2c0.301,0.375,0.694,0.693,1.169,0.945
	c0.519,0.275,1.097,0.416,1.716,0.416c1.566,0,2.841-0.765,3.789-2.275c0.944-1.503,1.422-3.809,1.422-6.853
	c0-1.202-0.099-2.319-0.297-3.315C114.705,11.633,114.416,10.766,114.042,10.051 M110.118,23.834c-0.733,0-1.345-0.164-1.818-0.485
	c-0.472-0.323-0.875-0.824-1.198-1.488v-9.394c0.173-0.43,0.382-0.853,0.619-1.252c0.239-0.4,0.508-0.76,0.8-1.061
	c0.292-0.304,0.609-0.55,0.943-0.734c0.332-0.181,0.685-0.272,1.048-0.272c0.964,0,1.731,0.61,2.28,1.816
	c0.554,1.217,0.835,2.94,0.835,5.116c0,2.635-0.325,4.61-0.967,5.872C112.026,23.201,111.17,23.834,110.118,23.834"/>
<polygon points="126.677,8.172 126.726,8.102 125.169,8.102 119.674,15.807 119.674,8.102 118.105,8.102 118.105,24.779 
	119.674,24.779 119.674,16.291 125.352,24.759 125.365,24.779 127.118,24.779 121.23,15.848 "/>
<path d="M136.558,16.708c0.131-1.463,0.119-2.768-0.033-3.877c-0.154-1.107-0.422-2.048-0.795-2.795
	c-0.375-0.749-0.857-1.32-1.43-1.695c-0.576-0.376-1.226-0.566-1.934-0.566c-0.707,0-1.363,0.195-1.95,0.582
	c-0.585,0.386-1.098,0.962-1.529,1.712c-0.428,0.746-0.767,1.663-1.008,2.727c-0.241,1.062-0.363,2.288-0.363,3.647
	c0,2.737,0.417,4.887,1.24,6.389c0.827,1.511,2.141,2.278,3.906,2.278c0.638,0,1.214-0.096,1.711-0.283
	c0.495-0.186,0.903-0.405,1.211-0.647c0.376-0.265,0.7-0.579,0.965-0.931l0.015-0.02l-0.536-1.322l-0.046,0.073
	c-0.216,0.344-0.489,0.64-0.813,0.878c-0.28,0.236-0.631,0.445-1.042,0.618c-0.408,0.172-0.89,0.26-1.431,0.26
	c-1.205,0-2.11-0.602-2.691-1.784c-0.583-1.188-0.903-2.938-0.949-5.203h7.5L136.558,16.708z M132.366,9.014
	c0.406,0,0.796,0.127,1.16,0.374c0.365,0.251,0.68,0.647,0.939,1.18c0.261,0.536,0.447,1.225,0.555,2.048
	c0.108,0.815,0.131,1.786,0.069,2.892h-6.001c0.069-2.112,0.421-3.739,1.046-4.839C130.759,9.572,131.511,9.014,132.366,9.014"/>
<polygon points="137.884,8.102 137.884,9.343 141.768,9.343 141.768,24.779 143.337,24.779 143.337,9.343 147.188,9.343 
	147.188,8.102 "/>
<path d="M36.729,8.206h-7.207V9.62c0,1.009-0.016,2.071-0.049,3.186c-0.032,1.115-0.123,2.239-0.274,3.377
	c-0.15,1.138-0.369,2.264-0.659,3.379c-0.29,1.115-0.692,2.155-1.207,3.12h-0.997v5.34h2.284v-3.497h7.363v3.497h2.032v-5.34h-1.287
	V8.206z M34.187,22.683h-4.601c0.429-0.707,0.783-1.544,1.062-2.509c0.279-0.966,0.504-1.99,0.675-3.073
	c0.172-1.083,0.29-2.188,0.354-3.315c0.065-1.126,0.097-2.192,0.097-3.201v-0.322h2.413V22.683z"/>
<path d="M44.772,7.786c-0.901,0-1.673,0.263-2.317,0.789c-0.643,0.525-1.174,1.222-1.592,2.09c-0.419,0.87-0.73,1.866-0.933,2.993
	c-0.205,1.127-0.306,2.3-0.306,3.524c0,2.531,0.503,4.493,1.513,5.886c1.008,1.396,2.348,2.093,4.021,2.093
	c0.815,0,1.55-0.112,2.204-0.337c0.654-0.226,1.249-0.489,1.785-0.789l-0.29-1.834c-0.3,0.128-0.713,0.263-1.238,0.403
	c-0.526,0.138-1.035,0.209-1.528,0.209c-1.309,0-2.269-0.498-2.88-1.495c-0.611-0.997-0.917-2.386-0.917-4.167h6.918v-1.425
	c0-2.616-0.408-4.591-1.222-5.931C47.174,8.455,46.102,7.786,44.772,7.786 M46.574,14.961h-4.247
	c0.043-0.729,0.118-1.405,0.225-2.026c0.108-0.623,0.257-1.164,0.45-1.624c0.193-0.462,0.429-0.822,0.708-1.079
	c0.278-0.259,0.6-0.387,0.965-0.387c0.515,0,0.933,0.349,1.255,1.046c0.322,0.697,0.525,1.679,0.611,2.944
	c0,0.149,0.005,0.289,0.016,0.419c0.011,0.128,0.016,0.246,0.016,0.353V14.961z"/>
<path d="M69.454,22.603c-0.495,0.138-0.976,0.209-1.448,0.209c-1.245,0-2.167-0.558-2.767-1.674c-0.6-1.116-0.901-2.65-0.901-4.601
	c0-0.836,0.064-1.657,0.193-2.461c0.129-0.804,0.31-1.517,0.547-2.14c0.236-0.622,0.536-1.126,0.901-1.513
	c0.364-0.386,0.773-0.579,1.223-0.579c0.386,0,0.766,0.118,1.142,0.355c0.375,0.236,0.713,0.526,1.014,0.868l1.319-2.22
	c-0.451-0.322-0.96-0.579-1.529-0.773c-0.568-0.192-1.207-0.289-1.914-0.289c-0.793,0-1.534,0.225-2.219,0.676
	c-0.688,0.451-1.276,1.083-1.77,1.898c-0.493,0.815-0.884,1.802-1.174,2.961c-0.289,1.157-0.434,2.444-0.434,3.86
	c0,2.574,0.509,4.546,1.528,5.919c1.018,1.375,2.353,2.06,4.005,2.06c0.772,0,1.464-0.112,2.075-0.338
	c0.612-0.225,1.164-0.488,1.658-0.788L70.644,22.2C70.344,22.328,69.947,22.463,69.454,22.603"/>
<path class="st0" d="M5.547,0.516c-0.826,0.343-1.55,0.853-2.172,1.529C2.753,2.72,2.26,3.55,1.896,4.538
	C1.531,5.524,1.349,6.66,1.349,7.947c0,1.673,0.326,3.116,0.981,4.327c0.654,1.212,1.742,2.184,3.266,2.913L0,24.526h2.928
	l5.145-8.923h1.673v8.923h2.541V0H8.169C7.247,0,6.372,0.173,5.547,0.516 M9.746,13.513H8.394c-0.558,0-1.094-0.102-1.609-0.302
	c-0.514-0.205-0.975-0.528-1.383-0.977c-0.407-0.449-0.735-1.019-0.981-1.713c-0.247-0.692-0.37-1.539-0.37-2.542
	c0-1.023,0.113-1.904,0.338-2.641C4.614,4.605,4.914,4.002,5.29,3.531c0.375-0.468,0.804-0.809,1.287-1.022
	c0.483-0.214,0.982-0.321,1.497-0.321h1.673V13.513z"/>
<polygon points="22.033,14.736 18.372,14.736 18.372,8.206 15.797,8.206 15.797,24.526 18.372,24.526 18.372,16.924 22.033,16.924 
	22.033,24.526 24.574,24.526 24.574,8.206 22.033,8.206 "/>
<polygon points="60.445,8.206 57.711,8.206 54.204,15.412 53.915,15.734 53.915,8.206 51.341,8.206 51.341,24.774 53.915,24.774 
	53.915,16.249 54.204,16.602 58.161,24.774 61.025,24.774 56.392,15.668 "/>
</svg>
