<svg xmlns="http://www.w3.org/2000/svg" viewBox="0 0 84.15 59.15">
    <defs>
        <style>.cls-1{fill:#cc181e;}.cls-2{fill:#fff;}</style>
    </defs>
    <title>Ресурс 1</title>
    <g id="Слой_2" data-name="Слой 2">
        <g id="Слой_1-2" data-name="Слой 1">
            <path class="cls-1"
                  d="M84.15,26.4v6.35q0,4.25-.45,9.4-.2,2.55-.4,4.25l-.15,1q-.25,1.15-.6,2.25A11.76,11.76,0,0,1,80,54.75a11.27,11.27,0,0,1-4.8,3,9.72,9.72,0,0,1-2.05.4l-1.6.2q-7.35.55-19.15.75l-7.35.1H42Q36.6,59.1,30.3,59q-12.65-.25-16.85-.65-.1,0-1.8-.25-1.35-.2-2.35-.45a10.8,10.8,0,0,1-5.15-2.9,12.52,12.52,0,0,1-2.6-5.15A17,17,0,0,1,1,47.35L.8,46.4Q.6,44.7.4,42.15,0,37,0,32.75V26.4Q0,22.15.4,17L.8,12.8q.25-1.45.75-3.25a12.5,12.5,0,0,1,2.6-5.1,11,11,0,0,1,4.8-3A16.75,16.75,0,0,1,11,1q.6-.1,1.55-.2Q20,.35,31.75.15,37.6,0,42,0l3,.05q3.7,0,7.4.1,11.75.2,19.1.7l1.6.2a17.13,17.13,0,0,1,2.05.4,11,11,0,0,1,4.8,3,11.73,11.73,0,0,1,2.6,5.1,21.09,21.09,0,0,1,.75,3.25L83.7,17Q84.15,22.15,84.15,26.4ZM33.3,41.4,56,29.6,33.3,17.75Z"/>
            <polygon class="cls-2" points="33.3 41.4 33.3 17.75 56 29.6 33.3 41.4"/>
        </g>
    </g>
</svg>