<svg width="72" height="67" viewBox="0 0 72 67" fill="none" xmlns="http://www.w3.org/2000/svg">
<path d="M71.3965 22.49L62.9003 16.7028L70.4962 12.0646C70.9464 11.7809 71.2136 11.2702 71.1714 10.7454C71.1292 10.2206 70.7916 9.75253 70.2993 9.53977L47.5536 0.107268C47.1738 -0.0487582 46.7518 -0.034574 46.3861 0.149821L36.0049 5.44053L25.6238 0.149821C25.2581 -0.034574 24.8361 -0.0487582 24.4563 0.107268L1.71057 9.55395C1.21824 9.75253 0.880641 10.2206 0.838441 10.7596C0.796241 11.2986 1.06351 11.8092 1.51364 12.0787L9.1096 16.717L0.613375 22.49C0.177311 22.7878 -0.0477547 23.2985 0.00851164 23.8233C0.064778 24.3481 0.402376 24.7878 0.880641 24.9864L10.3053 28.7594V56.376C10.3053 56.9718 10.671 57.4966 11.2196 57.7093L35.4985 66.9149C35.5126 66.9149 35.7377 67 35.9909 67C36.2441 67 36.4691 66.9149 36.4832 66.9149L60.7762 57.7093C61.3248 57.4966 61.6905 56.9718 61.6905 56.376V28.7736L71.1152 25.0006C71.5934 24.802 71.9451 24.3623 71.9873 23.8375C72.0576 23.2985 71.8326 22.7878 71.3965 22.49ZM47.0753 2.97248L66.642 11.1142L60.1432 15.0858L39.4372 6.87314L47.0753 2.97248ZM56.4156 16.6319L36.0049 24.5608L15.5943 16.6319L36.0049 8.54687L56.4156 16.6319ZM5.35382 11.1L24.9345 2.97248L32.5727 6.87314L11.8526 15.0716L5.35382 11.1ZM4.39729 23.341L11.8948 18.2347L32.8822 26.3906L24.8361 31.5395L4.39729 23.341ZM37.4116 63.5391V27.341C37.4116 26.5608 36.7786 25.9225 36.0049 25.9225C35.2313 25.9225 34.5983 26.5608 34.5983 27.341V63.5391L13.1326 55.4115V29.8941L24.4844 34.4472C24.6532 34.5182 24.822 34.5465 25.0049 34.5465C25.2721 34.5465 25.5253 34.4756 25.7645 34.3196L36.019 27.7665L46.2736 34.3196C46.4986 34.4614 46.7659 34.5465 47.0331 34.5465C47.2019 34.5465 47.3848 34.5182 47.5536 34.4472L58.9054 29.8941V55.4115L37.4116 63.5391ZM47.1597 31.5395L39.1137 26.3906L60.101 18.2347L67.5985 23.341L47.1597 31.5395Z" fill="white"/>
</svg>
