<svg width="25" height="25" viewBox="0 0 25 25" fill="none" xmlns="http://www.w3.org/2000/svg">
<path d="M12.5 25C19.4036 25 25 19.4036 25 12.5C25 5.59644 19.4036 0 12.5 0C5.59644 0 0 5.59644 0 12.5C0 19.4036 5.59644 25 12.5 25Z" fill="#D80027"/>
<path d="M18.613 12.4988L16.1152 13.6737L17.4453 16.093L14.7328 15.574L14.3892 18.314L12.4998 16.2989L10.6106 18.314L10.2669 15.574L7.55454 16.0929L8.88462 13.6736L6.38672 12.4988L8.88462 11.324L7.55454 8.90464L10.2668 9.42368L10.6107 6.68359L12.4998 8.69878L14.3893 6.68359L14.7328 9.42368L17.4454 8.90464L16.1152 11.3241L18.613 12.4988Z" fill="#FFDA44"/>
<path d="M12.4997 16.304C14.6007 16.304 16.304 14.6007 16.304 12.4997C16.304 10.3986 14.6007 8.69531 12.4997 8.69531C10.3986 8.69531 8.69531 10.3986 8.69531 12.4997C8.69531 14.6007 10.3986 16.304 12.4997 16.304Z" fill="#D80027"/>
<path d="M10.5976 12.5C10.506 12.5 10.4155 12.5047 10.3262 12.5136C10.3294 13.0405 10.5201 13.5228 10.8349 13.8974C11.0029 13.4454 11.2537 13.0333 11.5699 12.6805C11.2679 12.5644 10.9402 12.5 10.5976 12.5Z" fill="#FFDA44"/>
<path d="M11.7695 14.5476C11.998 14.6292 12.2441 14.674 12.5007 14.674C12.7574 14.674 13.0034 14.6292 13.2319 14.5476C13.1074 14.0587 12.8502 13.6223 12.5007 13.2793C12.1513 13.6222 11.8941 14.0587 11.7695 14.5476Z" fill="#FFDA44"/>
<path d="M14.3823 11.4135C14.0064 10.7638 13.3044 10.3262 12.4998 10.3262C11.6951 10.3262 10.9931 10.7637 10.6172 11.4135C11.3024 11.4169 11.945 11.6033 12.4998 11.925C13.0545 11.6033 13.697 11.4169 14.3823 11.4135Z" fill="#FFDA44"/>
<path d="M13.4297 12.6805C13.7459 13.0332 13.9967 13.4454 14.1647 13.8974C14.4795 13.5228 14.6702 13.0405 14.6734 12.5136C14.5841 12.5046 14.4936 12.5 14.402 12.5C14.0595 12.5 13.7318 12.5643 13.4297 12.6805Z" fill="#FFDA44"/>
</svg>
