<svg width="25" height="25" viewBox="0 0 25 25" fill="none" xmlns="http://www.w3.org/2000/svg">
<g clip-path="url(#clip0)">
<path d="M12.5 25C19.4036 25 25 19.4036 25 12.5C25 5.59644 19.4036 0 12.5 0C5.59644 0 0 5.59644 0 12.5C0 19.4036 5.59644 25 12.5 25Z" fill="#F0F0F0"/>
<path d="M24.2225 16.8479C24.725 15.4938 25 14.0292 25 12.5001C25 10.9711 24.725 9.50649 24.2225 8.15234H0.77749C0.275049 9.50649 0 10.9711 0 12.5001C0 14.0292 0.275049 15.4938 0.77749 16.8479L12.5 17.9349L24.2225 16.8479Z" fill="#0052B4"/>
<path d="M12.4999 24.9999C17.8744 24.9999 22.4562 21.6077 24.2224 16.8477H0.777344C2.54351 21.6077 7.12529 24.9999 12.4999 24.9999Z" fill="#D80027"/>
</g>
<defs>
<clipPath id="clip0">
<rect width="25" height="25" fill="white"/>
</clipPath>
</defs>
</svg>
