<svg width="25" height="25" viewBox="0 0 25 25" fill="none" xmlns="http://www.w3.org/2000/svg">
<path d="M12.5 25C19.4036 25 25 19.4036 25 12.5C25 5.59644 19.4036 0 12.5 0C5.59644 0 0 5.59644 0 12.5C0 19.4036 5.59644 25 12.5 25Z" fill="#FCFCFC"/>
<path d="M5.16142 11.5944L3.80273 9.12944L5.16142 6.70312L6.52011 9.12944L5.16142 11.5944Z" fill="#A2001D"/>
<path d="M2.44463 11.5944L1.08594 9.12944L2.44463 6.70312L3.80332 9.12944L2.44463 11.5944Z" fill="#A2001D"/>
<path d="M5.16142 18.2976L3.80273 15.8326L5.16142 13.4062L6.52011 15.8326L5.16142 18.2976Z" fill="#A2001D"/>
<path d="M2.44463 18.2976L1.08594 15.8326L2.44463 13.4062L3.80332 15.8326L2.44463 18.2976Z" fill="#A2001D"/>
<path d="M6.52109 2.42715L6.13642 1.74023C5.44648 2.14902 4.79937 2.62231 4.20312 3.15181L5.1624 4.89209L6.52109 2.42715Z" fill="#A2001D"/>
<path d="M5.16279 20.1094L4.19336 21.8406C4.78906 22.3708 5.43574 22.8448 6.12539 23.2544L6.52153 22.5357L5.16279 20.1094Z" fill="#A2001D"/>
<path d="M7.60938 15.7617V24.007C9.11177 24.6465 10.7647 25.0008 12.5007 25.0008C17.8752 25.0008 22.457 21.6086 24.2232 16.8486L7.60938 15.7617Z" fill="#6DA544"/>
<path d="M24.2232 16.8478C24.7257 15.4937 25.0007 14.029 25.0007 12.5C25.0007 5.59648 19.4042 0 12.5007 0C10.7649 0 9.11177 0.35415 7.60938 0.993555V16.8479H24.2232V16.8478Z" fill="#A2001D"/>
</svg>
