<svg width="25" height="25" viewBox="0 0 25 25" fill="none" xmlns="http://www.w3.org/2000/svg">
<path d="M12.5 25C19.4036 25 25 19.4036 25 12.5C25 5.59644 19.4036 0 12.5 0C5.59644 0 0 5.59644 0 12.5C0 19.4036 5.59644 25 12.5 25Z" fill="#338AF3"/>
<path d="M19.5641 12.6367H5.43359C5.43359 13.6123 6.28325 14.403 7.25869 14.403H7.1999C7.1999 15.3786 7.99067 16.1693 8.96621 16.1693C8.96621 17.1449 9.75698 17.9356 10.7325 17.9356H14.2651C15.2407 17.9356 16.0314 17.1449 16.0314 16.1693C17.007 16.1693 17.7978 15.3786 17.7978 14.403H17.739C18.7143 14.403 19.5641 13.6123 19.5641 12.6367Z" fill="#FFDA44"/>
<path d="M17.392 10.3262C17.392 13.0275 15.202 15.2175 12.5007 15.2175C9.79926 15.2175 7.60938 13.0275 7.60938 10.3262" fill="#338AF3"/>
<path d="M16.2358 10.3255L14.7092 11.0436L15.5222 12.5222L13.8644 12.205L13.6544 13.8796L12.4998 12.6479L11.3451 13.8796L11.1351 12.205L9.47734 12.5221L10.2902 11.0436L8.76367 10.3255L10.2903 9.60747L9.47734 8.129L11.135 8.44609L11.3451 6.77148L12.4998 8.00317L13.6544 6.77148L13.8644 8.44609L15.5222 8.129L14.7093 9.60752L16.2358 10.3255Z" fill="#FFDA44"/>
</svg>
