<svg width="25" height="25" viewBox="0 0 25 25" fill="none" xmlns="http://www.w3.org/2000/svg">
<g clip-path="url(#clip0)">
<path d="M25 12.5007C25 10.9717 24.725 9.50698 24.2225 8.15288L12.5 7.60938L0.77749 8.15283C0.275049 9.50698 0 10.9717 0 12.5007C0 14.0297 0.275049 15.4944 0.77749 16.8485L12.5 17.392L24.2225 16.8485C24.725 15.4944 25 14.0297 25 12.5007Z" fill="#0052B4"/>
<path d="M12.4999 24.9999C17.8744 24.9999 22.4562 21.6077 24.2224 16.8477H0.777344C2.54351 21.6077 7.12529 24.9999 12.4999 24.9999Z" fill="#FF9811"/>
<path d="M0.777344 8.1522H24.2224C22.4562 3.39219 17.8744 0 12.4999 0C7.12529 0 2.54351 3.39219 0.777344 8.1522Z" fill="#D80027"/>
</g>
<defs>
<clipPath id="clip0">
<rect width="25" height="25" fill="white"/>
</clipPath>
</defs>
</svg>
