<svg width="52" height="32" viewBox="0 0 52 32" fill="none" xmlns="http://www.w3.org/2000/svg">
<path d="M12.8857 1H46.2C48.4092 1 50.2 2.79086 50.2 5V9.62857C50.2 11.8377 48.4092 13.6286 46.2 13.6286H12.8857V1Z" fill="#E4F1FF" stroke="#1C5CA6" stroke-width="2"/>
<path d="M5.57129 4.74219C5.57129 4.1899 6.019 3.74219 6.57129 3.74219H12.7141V10.885H6.57129C6.019 10.885 5.57129 10.4373 5.57129 9.88505V4.74219Z" fill="white" stroke="#1C5CA6" stroke-width="2"/>
<path d="M1 6.57226C1 6.01998 1.44771 5.57227 2 5.57227H5.4V9.05798H2C1.44772 9.05798 1 8.61026 1 8.05798V6.57226Z" fill="white" stroke="#1C5CA6" stroke-width="2"/>
<path d="M36.7399 31.0008L32.3717 13.8008H40.0605L44.4288 31.0008H36.7399Z" fill="#E4F1FF" stroke="#1C5CA6" stroke-width="2"/>
<path d="M25.5996 13.7148L27.1394 19.2006H33.9971" stroke="#1C5CA6" stroke-width="2"/>
<line x1="50.2861" y1="5.98633" x2="27.429" y2="5.98633" stroke="#1C5CA6"/>
<line x1="50.2861" y1="8.72852" x2="33.829" y2="8.72852" stroke="#1C5CA6"/>
</svg>
