<svg width="62" height="46" viewBox="0 0 62 46" fill="none" xmlns="http://www.w3.org/2000/svg">
<rect x="6.53809" y="16.6914" width="54.4615" height="20.3077" rx="10.1538" fill="#E4F1FF"/>
<path d="M40.6922 36.5534H15.4486C10.0178 36.5534 5.61523 32.1509 5.61523 26.7201V26.7201C5.61523 21.2893 10.0178 16.8867 15.4486 16.8867H50.2434C55.6742 16.8867 60.0768 21.2893 60.0768 26.7201V27.8952C60.0768 32.677 56.2004 36.5534 51.4186 36.5534V36.5534" stroke="#1C5CA6" stroke-width="2"/>
<line x1="47.6543" y1="16.8848" x2="47.6543" y2="34.2822" stroke="#1C5CA6"/>
<line x1="44.8848" y1="16.8848" x2="44.8848" y2="34.2822" stroke="#1C5CA6"/>
<line x1="19.0391" y1="16.8848" x2="19.0391" y2="36.5514" stroke="#1C5CA6"/>
<line x1="21.8086" y1="16.8848" x2="21.8086" y2="36.5514" stroke="#1C5CA6"/>
<path d="M12.0769 21.3092H9.75581L4.2478 14.8477L1 14.8481" stroke="#1C5CA6" stroke-width="2" stroke-linecap="round"/>
<path d="M27.7949 16.3059V11.7073L32.0898 7.87871L36.3847 11.7073V16.3059H27.7949Z" stroke="#1C5CA6" stroke-width="2"/>
<circle cx="44.5188" cy="11.2121" r="4.67308" stroke="#1C5CA6" stroke-width="2"/>
<circle cx="46.2311" cy="38.8483" r="5.46154" fill="white" stroke="#1C5CA6" stroke-width="2"/>
<line x1="24.4203" y1="3.77382" x2="29.3473" y2="9.27445" stroke="#1C5CA6"/>
<line x1="21.5795" y1="6.88537" x2="27.7677" y2="1.34246" stroke="#1C5CA6"/>
<line x1="24.1146" y1="8.33264" x2="28.9277" y2="4.02149" stroke="#1C5CA6"/>
<line x1="27.3373" y1="9.16272" x2="29.4" y2="7.31508" stroke="#1C5CA6"/>
<line x1="39.5277" y1="3.8163" x2="34.5677" y2="9.28727" stroke="#1C5CA6"/>
<line x1="36.1376" y1="1.31316" x2="42.2924" y2="6.8931" stroke="#1C5CA6"/>
<line x1="34.9618" y1="3.98504" x2="39.7489" y2="8.32499" stroke="#1C5CA6"/>
<line x1="34.4686" y1="7.27605" x2="36.5203" y2="9.13603" stroke="#1C5CA6"/>
<path d="M17.8673 37L17.8673 43.4615L20.3848 43.4615L14.8463 43.4615L15.3498 43.4615" stroke="#1C5CA6" stroke-width="2" stroke-linecap="round" stroke-linejoin="round"/>
</svg>
