<svg width="18" height="13" viewBox="0 0 18 13" fill="none" xmlns="http://www.w3.org/2000/svg">
<path d="M18 7.68298V2.63308C18 1.17886 16.9125 0 15.5711 0H2.42894C1.08746 0 0 1.17886 0 2.63308V7.68298C0 7.93587 0.18914 8.1409 0.422424 8.1409H17.5776C17.8109 8.1409 18 7.93587 18 7.68298ZM13.5059 4.47749H14.6323C15.0406 4.47749 15.3716 4.83628 15.3716 5.27886C15.3716 5.72145 15.0406 6.08024 14.6323 6.08024H13.5059C13.0976 6.08024 12.7666 5.72145 12.7666 5.27886C12.7666 4.83628 13.0976 4.47749 13.5059 4.47749Z" fill="#205EA4"/>
<path d="M0 10.2016V10.3669C0 11.8211 1.08746 13 2.42894 13H15.5711C16.9125 13 18 11.8211 18 10.3669V10.2016C18 9.94868 17.8109 9.74365 17.5776 9.74365H0.422424C0.18914 9.74365 0 9.94868 0 10.2016Z" fill="#205EA4"/>
</svg>
