<svg width="40" height="50" viewBox="0 0 40 50" fill="none" xmlns="http://www.w3.org/2000/svg">
<path d="M20.0939 0C9.01408 0 0 8.95522 0 19.9627C0 36.5672 20.0939 50 20.0939 50C20.0939 50 40 35.4478 40 19.9627C40 8.95522 30.9859 0 20.0939 0Z" fill="#005CA9"/>
<circle cx="20" cy="20" r="15" fill="white"/>
<path d="M31.6193 16.8008C32.0769 18.5978 32.1226 20.4771 31.7529 22.2947C31.3832 24.1124 30.6079 25.8202 29.4864 27.2874C28.3649 28.7545 26.9269 29.942 25.2826 30.759C23.6383 31.576 21.8313 32.0008 20 32.0008C18.1687 32.0008 16.3617 31.576 14.7174 30.759C13.0731 29.942 11.6351 28.7545 10.5136 27.2874C9.39205 25.8202 8.61676 24.1124 8.24706 22.2947C7.87737 20.4771 7.92309 18.5978 8.38072 16.8008H15.9105L20.0009 27.212L24.0912 16.8008H31.6193Z" fill="#005CA9"/>
<path d="M19.9962 8C22.4031 8.00495 24.754 8.73264 26.7491 10.0903C28.7443 11.448 30.2934 13.3741 31.1988 15.6232H23.0243L20.0014 27.2L16.9734 15.6232H8.79883C9.70357 13.3747 11.2517 11.4489 13.246 10.0912C15.2402 8.73352 17.5901 8.00552 19.9962 8Z" fill="#0090CE"/>
</svg>
