<svg width="50" height="50" viewBox="0 0 50 50" fill="none" xmlns="http://www.w3.org/2000/svg">
<rect width="50" height="50" rx="5" fill="#00AFF0"/>
<g clip-path="url(#clip0)">
<path d="M37.2514 27.7579C39.1343 19.297 31.7221 11.6108 23.0175 13.0863C18.292 10.1537 12 13.4676 12 19.0901C12 20.3977 12.3608 21.6219 12.988 22.677C11.2384 31.1574 18.7113 38.7331 27.4083 37.1569C33.5562 40.4079 40.3498 33.9242 37.2514 27.7579ZM28.9769 32.8604C26.6933 33.7996 22.9352 33.805 20.6613 32.6144C17.4188 30.8854 16.8425 26.993 19.6397 26.993C21.7478 26.993 21.0805 29.4511 23.2093 30.4532C24.1864 30.9049 26.287 30.9515 27.5079 30.1282C28.7137 29.3211 28.6032 28.0514 27.9478 27.4448C26.2112 25.8414 21.2419 26.4784 18.9702 23.6715C17.9833 22.4539 17.7969 20.3056 19.0103 18.7478C21.1249 16.0264 27.3303 15.8607 29.9985 17.9158C32.462 19.8224 31.7968 22.3531 29.8089 22.3531C27.418 22.3531 28.6747 19.2244 24.8148 19.2244C22.0165 19.2244 20.9158 21.2145 22.8864 22.183C25.5579 23.5101 32.3656 23.067 32.3656 28.2529C32.3602 30.4109 31.0374 32.0197 28.9769 32.8604Z" fill="white"/>
</g>
<defs>
<clipPath id="clip0">
<rect x="12" y="12" width="26" height="26" fill="white"/>
</clipPath>
</defs>
</svg>
