<svg width="50" height="50" viewBox="0 0 50 50" fill="none" xmlns="http://www.w3.org/2000/svg">
<rect width="50" height="50" rx="5" fill="#7D3DAF"/>
<path d="M36.6809 18.3107L36.6704 18.2791C36.0608 15.8095 33.297 13.1507 30.7643 12.5938L30.7328 12.5832C26.6343 11.8056 22.4832 11.8056 18.3847 12.5832L18.3532 12.5938C15.8205 13.1507 13.0567 15.799 12.4471 18.2791L12.4366 18.3107C11.68 21.7681 11.68 25.2676 12.4366 28.7251L12.4471 28.7566C13.0356 31.1211 15.5893 33.6538 18.0274 34.3579V37.1218C18.0274 38.1201 19.2465 38.614 19.94 37.8889L22.7354 34.9779C23.345 35.0094 23.9545 35.0305 24.5535 35.0305C26.6133 35.0305 28.6835 34.8308 30.7328 34.442L30.7643 34.4315C33.297 33.8745 36.0608 31.2262 36.6704 28.7461L36.6809 28.7146C37.4375 25.2676 37.4375 21.7681 36.6809 18.3107ZM34.4635 28.2311C34.0536 29.8495 31.9623 31.8567 30.2914 32.2246C28.116 32.6344 25.9197 32.8131 23.7233 32.7605C23.6812 32.7605 23.6392 32.771 23.6077 32.8026C23.2924 33.1178 21.5689 34.9044 21.5689 34.9044L19.3936 37.1323C19.2359 37.3004 18.9522 37.1848 18.9522 36.9536V32.3822C18.9522 32.3086 18.8997 32.2456 18.8261 32.2246C17.1657 31.8567 15.0639 29.8495 14.654 28.2311C13.9709 25.11 13.9709 21.9468 14.654 18.8151C15.0639 17.1967 17.1552 15.1895 18.8261 14.8217C22.6303 14.0965 26.4871 14.0965 30.2914 14.8217C31.9518 15.1895 34.0536 17.1967 34.4635 18.8151C35.1466 21.9363 35.1466 25.0995 34.4635 28.2311Z" fill="white"/>
<path d="M28.1791 30.3425C27.9268 30.269 27.6746 30.2164 27.4539 30.1218C25.1104 29.1445 22.9456 27.8939 21.2326 25.9708C20.2553 24.8778 19.4986 23.6378 18.8576 22.3347C18.5528 21.7146 18.2901 21.0736 18.0379 20.4325C17.7962 19.844 18.1535 19.245 18.5213 18.8036C18.8681 18.3938 19.32 18.0785 19.8034 17.8368C20.1817 17.6582 20.56 17.7632 20.8333 18.0785C21.4323 18.7721 21.9787 19.4972 22.4201 20.3064C22.6934 20.8003 22.6198 21.4099 22.1259 21.7462C22.0103 21.8302 21.8947 21.9248 21.7791 22.0194C21.6845 22.1035 21.5899 22.1875 21.5164 22.2926C21.3902 22.4923 21.3902 22.734 21.4638 22.9442C22.0733 24.6256 23.1032 25.9287 24.7952 26.6328C25.0684 26.7484 25.3416 26.8745 25.6464 26.843C26.1718 26.78 26.34 26.2125 26.7078 25.9077C27.0651 25.6135 27.517 25.6135 27.9058 25.8552C28.2947 26.0969 28.6625 26.3596 29.0303 26.6223C29.3981 26.8851 29.7554 27.1373 30.0917 27.4315C30.4175 27.7153 30.5226 28.0936 30.3439 28.4719C30.0076 29.176 29.5242 29.7645 28.8306 30.1428C28.6415 30.2374 28.4103 30.269 28.1791 30.3425C27.9268 30.2584 28.4103 30.269 28.1791 30.3425Z" fill="white"/>
<path d="M24.5738 17.0183C27.6425 17.1024 30.1646 19.1412 30.7006 22.1783C30.7952 22.6932 30.8267 23.2292 30.8687 23.7441C30.8897 23.9648 30.7636 24.175 30.5219 24.175C30.2802 24.175 30.1646 23.9753 30.1541 23.7546C30.1226 23.3132 30.1016 22.8824 30.0385 22.441C29.7232 20.15 27.8947 18.2584 25.6247 17.8591C25.2779 17.796 24.9311 17.7855 24.5844 17.7435C24.3637 17.7224 24.0799 17.7119 24.0274 17.4387C23.9853 17.2075 24.1745 17.0289 24.3952 17.0183C24.4477 17.0078 24.5108 17.0183 24.5738 17.0183C27.6425 17.1024 24.5108 17.0183 24.5738 17.0183Z" fill="white"/>
<path d="M29.2304 23.0596C29.2304 23.1017 29.2199 23.1857 29.1988 23.2698C29.1148 23.5746 28.6524 23.6166 28.5473 23.3013C28.5157 23.2067 28.5158 23.1017 28.5052 23.0071C28.5052 22.3555 28.3581 21.704 28.0323 21.1365C27.696 20.5585 27.1811 20.0646 26.5716 19.7703C26.2038 19.5917 25.8149 19.4761 25.4156 19.413C25.2369 19.3815 25.0688 19.371 24.8901 19.3394C24.68 19.3079 24.5644 19.1713 24.5749 18.9611C24.5854 18.7614 24.7325 18.6248 24.9427 18.6353C25.6468 18.6774 26.3299 18.8245 26.9499 19.1608C28.2215 19.8334 28.9466 20.9053 29.1673 22.324C29.1778 22.387 29.1883 22.4501 29.1988 22.5132C29.2199 22.6918 29.2199 22.8494 29.2304 23.0596C29.2304 23.1017 29.2199 22.8494 29.2304 23.0596Z" fill="white"/>
<path d="M27.329 22.9875C27.0768 22.9875 26.9297 22.8509 26.9087 22.6092C26.8877 22.441 26.8771 22.2834 26.8351 22.1153C26.7615 21.8 26.5934 21.5057 26.3307 21.3166C26.2046 21.222 26.068 21.1589 25.9208 21.1169C25.7317 21.0644 25.532 21.0749 25.3533 21.0328C25.1537 20.9803 25.0381 20.8227 25.0696 20.623C25.1011 20.4443 25.2693 20.3182 25.4584 20.3287C26.646 20.4128 27.4972 21.0328 27.6233 22.4305C27.6338 22.5251 27.6443 22.6302 27.6233 22.7248C27.5602 22.9034 27.4446 22.977 27.329 22.9875C27.0663 22.998 27.4446 22.977 27.329 22.9875Z" fill="white"/>
</svg>
