<svg width="50" height="50" viewBox="0 0 50 50" fill="none" xmlns="http://www.w3.org/2000/svg">
<rect width="50" height="50" rx="5" fill="#4C77A6"/>
<g clip-path="url(#clip0)">
<path fill-rule="evenodd" clip-rule="evenodd" d="M35.1018 27.1713C36.0332 28.0885 37.0106 28.9478 37.8385 29.9579C38.2065 30.4107 38.5515 30.8636 38.8159 31.3861C39.1954 32.1292 38.8504 32.9419 38.195 32.9768H34.1129C33.0549 33.0697 32.227 32.6401 31.5141 31.9086C30.9506 31.328 30.4217 30.7126 29.8812 30.1089C29.6627 29.865 29.4213 29.6328 29.1453 29.447C28.5933 29.0871 28.1104 29.1916 27.7884 29.7837C27.4664 30.3759 27.386 31.0377 27.363 31.7112C27.317 32.6865 27.0295 32.9303 26.0636 32.9768C24.0053 33.0697 22.0504 32.7562 20.2221 31.7112C18.6237 30.7823 17.3818 29.4819 16.2894 27.9956C14.1851 25.1161 12.5753 21.9463 11.1149 18.6952C10.7929 17.9637 11.0229 17.5689 11.8278 17.5573C13.1617 17.5341 14.4841 17.5341 15.818 17.5573C16.3584 17.5689 16.7149 17.8824 16.9219 18.3933C17.6463 20.1814 18.5202 21.8766 19.6241 23.4557C19.9231 23.8737 20.2221 24.2917 20.6476 24.5936C21.119 24.9187 21.4755 24.8142 21.7055 24.2801C21.8434 23.9434 21.9124 23.5835 21.9354 23.2235C22.0389 21.9811 22.0504 20.7388 21.8664 19.4964C21.7515 18.7184 21.326 18.2192 20.5556 18.0798C20.1646 18.0102 20.2221 17.8592 20.4176 17.6386C20.7855 17.2438 21.096 17 21.7055 17H26.3165C27.041 17.1393 27.202 17.4761 27.3055 18.2075V23.3745C27.294 23.6647 27.4434 24.5123 27.9609 24.6981C28.3634 24.8374 28.6393 24.5007 28.8808 24.2453C29.9847 23.061 30.7666 21.6676 31.4796 20.2163C31.7901 19.5776 32.066 18.9158 32.319 18.254C32.5145 17.7663 32.8135 17.5225 33.3654 17.5341H37.804C37.9305 17.5341 38.0685 17.5341 38.195 17.5573C38.9424 17.6851 39.1494 18.0102 38.9194 18.7533C38.5515 19.9144 37.85 20.8781 37.1601 21.8418C36.4241 22.8752 35.6307 23.8737 34.8948 24.9187C34.2048 25.8708 34.2623 26.3469 35.1018 27.1713Z" fill="white"/>
</g>
<defs>
<clipPath id="clip0">
<rect x="11" y="17" width="28" height="16" fill="white"/>
</clipPath>
</defs>
</svg>
