<svg width="50" height="50" viewBox="0 0 50 50" fill="none" xmlns="http://www.w3.org/2000/svg">
<rect width="50" height="50" rx="5" fill="#4CAF50"/>
<path d="M31.2365 26.9033L31.2271 26.9814C28.9365 25.8398 28.6969 25.6877 28.401 26.1314C28.1958 26.4387 27.5979 27.1356 27.4177 27.3418C27.2354 27.545 27.0542 27.5606 26.7448 27.42C26.4323 27.2637 25.4292 26.9356 24.2417 25.8731C23.3167 25.045 22.6958 24.0294 22.5125 23.7169C22.2073 23.1898 22.8458 23.1148 23.4271 22.0149C23.5313 21.7961 23.4781 21.6242 23.401 21.469C23.3229 21.3128 22.701 19.7816 22.4406 19.1712C22.1906 18.5628 21.9333 18.6399 21.7406 18.6399C21.1406 18.5878 20.7021 18.5962 20.3156 18.9982C18.6344 20.8461 19.0583 22.7523 20.4969 24.7794C23.324 28.4793 24.8302 29.1606 27.5844 30.1064C28.3281 30.3428 29.0063 30.3095 29.5427 30.2324C30.1406 30.1376 31.3833 29.4814 31.6427 28.747C31.9083 28.0127 31.9083 27.4033 31.8302 27.2627C31.7531 27.1221 31.549 27.0439 31.2365 26.9033Z" fill="white"/>
<path d="M34.375 15.5931C26.3656 7.85052 13.1104 13.466 13.1052 24.3888C13.1052 26.5721 13.6771 28.7012 14.7667 30.5814L13 37L19.599 35.2792C27.8333 39.727 37.9958 33.8209 38 24.395C38 21.0867 36.7083 17.9733 34.3594 15.6337L34.375 15.5931ZM35.9188 24.3606C35.9125 32.3115 27.1844 37.2771 20.2812 33.2188L19.9062 32.9959L16 34.0115L17.0469 30.2147L16.7979 29.8241C12.5021 22.9857 17.4375 14.0483 25.575 14.0483C28.3396 14.0483 30.9344 15.1264 32.8885 17.0795C34.8417 19.0159 35.9188 21.6107 35.9188 24.3606Z" fill="white"/>
</svg>
