<svg width="311" height="299" viewBox="0 0 311 299" fill="none" xmlns="http://www.w3.org/2000/svg">
<path d="M37.9486 220.745L10.9654 247.729C9.89056 248.803 9.89056 249.595 10.9654 250.67L48.1875 287.892C49.2623 288.967 50.0542 288.967 51.129 287.892L53.618 285.403C54.7494 284.272 54.7494 283.48 53.6746 282.405L20.0729 248.803L39.0799 229.796L72.6816 263.398C73.7564 264.473 74.5484 264.473 75.6232 263.398L78.1122 260.909C79.2436 259.778 79.2436 258.986 78.1688 257.911L40.9467 220.689C39.8719 219.614 39.0799 219.614 37.9486 220.745ZM66.9046 233.763L76.1252 242.984C82.8003 249.659 91.625 249.093 99.6012 241.117C107.747 232.971 108.2 224.26 101.525 217.585L92.3039 208.364C85.5722 201.632 76.8606 202.085 68.7148 210.231C60.7386 218.207 60.1729 227.032 66.9046 233.763ZM87.2127 213.342L96.4899 222.619C100.393 226.523 99.8275 231.727 95.0191 236.535C90.2674 241.287 85.0631 241.853 81.1598 237.949L71.8826 228.672C67.9794 224.769 68.5451 219.565 73.2968 214.813C78.1051 210.005 83.3095 209.439 87.2127 213.342ZM140.796 188.835L137.911 191.72L114.774 168.584C113.756 167.565 113.077 167.565 112.059 168.584L93.3915 187.251C92.3732 188.269 92.3732 188.948 93.3915 189.966L101.933 198.508C112.342 208.917 113.134 213.442 112.794 216.837L111.267 218.364C110.305 219.326 110.305 220.004 111.38 221.079L121.167 230.866C122.185 231.884 122.864 231.884 123.825 230.922L126.032 228.716C127.05 227.698 127.106 226.962 126.088 225.944L119.583 219.439L141.927 197.094L148.433 203.599C149.451 204.618 150.13 204.618 151.148 203.599L153.354 201.393C154.372 200.375 154.372 199.696 153.354 198.678L143.568 188.892C142.493 187.817 141.814 187.817 140.796 188.835ZM107.138 193.87L101.65 188.383L113.021 177.012L132.82 196.811L118.621 211.01C117.886 206.994 115.34 202.072 107.138 193.87ZM140.287 153.479C140.966 154.95 141.758 155.176 143.116 154.498L145.718 153.253C147.132 152.518 147.358 151.839 146.736 150.311C146.001 148.671 144.53 143.354 149.791 138.093C154.543 133.341 158.219 133.624 160.878 136.282C163.367 138.771 163.197 141.996 160.312 144.881L154.825 150.368C153.807 151.386 153.807 152.065 154.825 153.083L156.296 154.554C157.314 155.572 157.993 155.572 159.011 154.554L164.838 148.728C168.062 145.503 171.23 145.503 173.946 148.218C176.717 150.99 176.944 154.837 171.966 159.815C166.082 165.698 160.482 163.944 158.842 163.322C157.371 162.643 156.749 162.926 156.013 164.34L154.712 166.886C153.92 168.244 154.147 169.149 155.674 169.771C159.69 171.412 168.006 172.713 176.378 164.34C185.259 155.459 184.637 148.501 179.659 143.523C176.208 140.073 172.644 138.771 168.232 140.808L168.006 140.582C169.646 136.792 168.176 133.284 165.573 130.682C160.652 125.761 153.694 125.252 145.322 133.624C137.233 141.713 138.59 150.085 140.287 153.479ZM168.61 122.215C169.119 123.743 169.911 123.969 171.268 123.403L173.814 122.442C175.228 121.819 175.285 121.423 175.002 119.896C174.097 116.276 175.171 112.825 178.566 109.431C183.883 104.114 188.013 105.415 192.029 109.431L194.178 111.581C193.104 112.429 190.106 114.862 187.334 117.633C178.339 126.628 176.982 132.511 183.6 139.129C189.37 144.899 195.027 145.691 204.983 135.735C209.395 131.323 212.054 127.533 213.242 124.535C214.147 122.272 214.034 121.254 212.054 119.274L197.29 104.509C190.898 98.1173 183.317 95.6282 174.153 104.792C168.383 110.562 166.799 116.559 168.61 122.215ZM198.365 115.767L205.492 122.894C206.284 123.686 206.284 124.026 205.888 124.987C205.04 126.741 203.343 128.891 200.288 131.945C194.631 137.602 191.633 136.98 188.691 134.038C185.467 130.814 185.58 127.646 190.898 122.329C193.669 119.557 197.12 116.785 198.365 115.767ZM245.465 90.3886L230.418 85.2974C226.854 84.1095 223.969 83.9398 221.254 85.1843L218.991 64.8196C218.765 63.0094 217.916 62.7266 216.558 64.0842L214.409 66.2338C212.881 67.7612 212.485 68.1571 212.768 69.9108L215.257 89.2572L214.748 89.7663L210.279 94.2352L199.701 83.6569C198.683 82.6387 198.004 82.6387 196.929 83.7135L194.666 85.9762C193.592 87.051 193.592 87.7299 194.61 88.7481L221.027 115.166C222.102 116.24 222.781 116.24 223.856 115.166L226.119 112.903C227.193 111.828 227.193 111.149 226.119 110.074L214.975 98.9304L220.122 93.7827C222.781 91.124 225.044 90.6714 228.325 91.8028L240.43 96.102C242.014 96.6677 242.467 96.5545 243.994 95.0272L246.2 92.821C247.501 91.52 247.219 90.8977 245.465 90.3886ZM227.167 63.6582C227.676 65.1855 228.468 65.4118 229.826 64.8461L232.371 63.8844C233.785 63.2622 233.842 62.8662 233.559 61.3389C232.654 57.7185 233.729 54.2678 237.123 50.8737C242.44 45.5562 246.57 46.8573 250.586 50.8737L252.736 53.0233C251.661 53.8718 248.663 56.3043 245.891 59.0761C236.897 68.0705 235.539 73.9536 242.157 80.5722C247.927 86.3422 253.584 87.1341 263.54 77.1781C267.953 72.7657 270.611 68.9756 271.799 65.9775C272.704 63.7147 272.591 62.6965 270.611 60.7166L255.847 45.9522C249.455 39.56 241.875 37.071 232.711 46.2351C226.941 52.0051 225.357 58.0013 227.167 63.6582ZM256.922 57.2094L264.049 64.337C264.841 65.129 264.841 65.4684 264.445 66.43C263.597 68.1837 261.9 70.3333 258.845 73.388C253.188 79.0448 250.19 78.4226 247.249 75.481C244.024 72.2566 244.137 69.0888 249.455 63.7713C252.227 60.9995 255.677 58.2276 256.922 57.2094ZM257.07 36.6962C257.749 38.167 258.541 38.3933 259.899 37.7144L262.501 36.4699C263.915 35.7345 264.141 35.0557 263.519 33.5284C262.784 31.8879 261.313 26.5704 266.574 21.3095C271.326 16.5578 275.003 16.8406 277.661 19.4994C280.15 21.9884 279.981 25.2128 277.096 28.0978L271.608 33.5849C270.59 34.6032 270.59 35.282 271.608 36.3002L273.079 37.771C274.097 38.7892 274.776 38.7892 275.795 37.771L281.621 31.9444C284.845 28.72 288.013 28.72 290.729 31.4353C293.5 34.2072 293.727 38.0538 288.749 43.0319C282.866 48.915 277.265 47.1614 275.625 46.5391C274.154 45.8603 273.532 46.1431 272.796 47.5574L271.495 50.1029C270.703 51.4606 270.93 52.3657 272.457 52.9879C276.473 54.6284 284.789 55.9295 293.161 47.5574C302.042 38.6761 301.42 31.7182 296.442 26.7401C292.991 23.2894 289.428 21.9884 285.015 24.0248L284.789 23.7986C286.429 20.0085 284.959 16.5012 282.356 13.8991C277.435 8.97761 270.477 8.46849 262.105 16.8406C254.016 24.9299 255.373 33.3021 257.07 36.6962Z" fill="#205EA4"/>
<path d="M20.0729 248.803L13.0018 241.732L5.93076 248.803L13.0018 255.875L20.0729 248.803ZM39.0799 229.796L46.151 222.725L39.0799 215.654L32.0089 222.725L39.0799 229.796ZM30.8775 213.674L3.89429 240.658L18.0364 254.8L45.0196 227.817L30.8775 213.674ZM3.89429 240.658C2.79942 241.752 0.159253 244.667 0.159257 249.199C0.159262 253.732 2.79943 256.646 3.89429 257.741L18.0364 243.599C18.0565 243.619 20.1593 245.601 20.1593 249.199C20.1593 252.798 18.0565 254.78 18.0364 254.8L3.89429 240.658ZM3.89429 257.741L41.1164 294.963L55.2585 280.821L18.0364 243.599L3.89429 257.741ZM41.1164 294.963C42.2113 296.058 45.1262 298.698 49.6582 298.698C54.1903 298.698 57.1052 296.058 58.2001 294.963L44.058 280.821C44.078 280.801 46.0595 278.698 49.6582 278.698C53.2569 278.698 55.2385 280.801 55.2585 280.821L41.1164 294.963ZM58.2001 294.963L60.6891 292.474L46.547 278.332L44.058 280.821L58.2001 294.963ZM60.6891 292.474C61.7334 291.43 64.4052 288.544 64.4725 284.032C64.5417 279.4 61.8358 276.424 60.7457 275.334L46.6035 289.476C46.5882 289.461 44.4198 287.419 44.4748 283.734C44.5016 281.938 45.0654 280.539 45.5635 279.664C46.0199 278.862 46.4676 278.412 46.547 278.332L60.6891 292.474ZM60.7457 275.334L27.144 241.732L13.0018 255.875L46.6035 289.476L60.7457 275.334ZM27.144 255.875L46.151 236.868L32.0089 222.725L13.0018 241.732L27.144 255.875ZM32.0089 236.868L65.6106 270.469L79.7527 256.327L46.151 222.725L32.0089 236.868ZM65.6106 270.469C66.7054 271.564 69.6203 274.204 74.1524 274.204C78.6845 274.204 81.5994 271.564 82.6943 270.469L68.5521 256.327C68.5722 256.307 70.5537 254.204 74.1524 254.204C77.7511 254.204 79.7327 256.307 79.7527 256.327L65.6106 270.469ZM82.6943 270.469L85.1833 267.98L71.0412 253.838L68.5521 256.327L82.6943 270.469ZM85.1833 267.98C86.2276 266.936 88.8994 264.05 88.9667 259.538C89.0358 254.906 86.33 251.93 85.2399 250.84L71.0977 264.982C71.0824 264.967 68.9139 262.924 68.9689 259.24C68.9957 257.444 69.5595 256.045 70.0576 255.17C70.5141 254.367 70.9618 253.917 71.0412 253.838L85.1833 267.98ZM85.2399 250.84L48.0178 213.618L33.8756 227.76L71.0977 264.982L85.2399 250.84ZM48.0178 213.618C46.9276 212.528 43.9518 209.822 39.3196 209.891C34.808 209.958 31.9218 212.63 30.8775 213.674L45.0196 227.817C44.9403 227.896 44.4904 228.344 43.688 228.8C42.8125 229.298 41.4138 229.862 39.6181 229.889C35.9334 229.944 33.8909 227.775 33.8756 227.76L48.0178 213.618ZM59.8335 240.834L69.0542 250.055L83.1963 235.913L73.9756 226.692L59.8335 240.834ZM69.0542 250.055C74.1575 255.158 80.7922 258.069 88.1263 257.517C95.2139 256.983 101.532 253.329 106.672 248.188L92.5301 234.046C89.6944 236.882 87.6119 237.499 86.6244 237.573C85.8833 237.629 84.7681 237.485 83.1963 235.913L69.0542 250.055ZM106.672 248.188C111.865 242.996 115.569 236.66 116.094 229.534C116.637 222.154 113.648 215.566 108.596 210.514L94.4535 224.656C96.0764 226.279 96.1979 227.384 96.1478 228.065C96.0789 229 95.4837 231.093 92.5301 234.046L106.672 248.188ZM108.596 210.514L99.3749 201.293L85.2328 215.435L94.4535 224.656L108.596 210.514ZM99.3749 201.293C94.3123 196.23 87.7206 193.213 80.3235 193.744C73.1779 194.257 66.8356 197.968 61.6437 203.16L75.7858 217.302C78.7398 214.348 80.8262 213.759 81.7558 213.693C82.4338 213.644 83.5638 213.766 85.2328 215.435L99.3749 201.293ZM61.6437 203.16C56.5036 208.3 52.8429 214.624 52.3211 221.731C51.7813 229.083 54.7198 235.721 59.8335 240.834L73.9756 226.692C72.3577 225.074 72.2132 223.934 72.2674 223.196C72.3395 222.214 72.9498 220.138 75.7858 217.302L61.6437 203.16ZM80.1416 220.413L89.4189 229.69L103.561 215.548L94.2837 206.271L80.1416 220.413ZM89.4189 229.69C89.5163 229.788 89.3696 229.672 89.2301 229.303C89.0831 228.915 89.043 228.504 89.0776 228.179C89.1089 227.885 89.1795 227.85 89.0474 228.093C88.9107 228.343 88.5937 228.818 87.9481 229.464L102.09 243.606C105.535 240.162 108.394 235.657 108.965 230.297C109.573 224.585 107.413 219.401 103.561 215.548L89.4189 229.69ZM87.9481 229.464C87.3237 230.088 86.866 230.391 86.6295 230.52C86.4015 230.643 86.4433 230.572 86.7383 230.541C87.0633 230.508 87.4697 230.549 87.8517 230.694C88.2148 230.832 88.3282 230.976 88.2309 230.878L74.0888 245.02C77.9386 248.87 83.1129 251.025 88.8043 250.434C94.1554 249.879 98.6564 247.04 102.09 243.606L87.9481 229.464ZM88.2309 230.878L78.9537 221.601L64.8115 235.743L74.0888 245.02L88.2309 230.878ZM78.9537 221.601C78.8564 221.504 79.0004 221.617 79.1382 221.98C79.2831 222.362 79.3244 222.769 79.2906 223.094C79.26 223.389 79.1885 223.431 79.3122 223.203C79.4405 222.966 79.7435 222.508 80.3679 221.884L66.2258 207.742C62.7919 211.176 59.9534 215.677 59.3976 221.028C58.8065 226.719 60.9617 231.893 64.8115 235.743L78.9537 221.601ZM80.3679 221.884C81.0136 221.238 81.4887 220.921 81.7393 220.785C81.9815 220.652 81.9471 220.723 81.6533 220.754C81.3282 220.789 80.9173 220.749 80.5289 220.602C80.1603 220.462 80.0442 220.316 80.1416 220.413L94.2837 206.271C90.4314 202.419 85.247 200.259 79.5351 200.867C74.1755 201.438 69.6703 204.297 66.2258 207.742L80.3679 221.884ZM137.911 191.72L130.84 198.791L137.911 205.862L144.982 198.791L137.911 191.72ZM112.794 216.837L119.866 223.908L122.39 221.383L122.745 217.832L112.794 216.837ZM119.583 219.439L112.512 212.368L105.441 219.439L112.512 226.51L119.583 219.439ZM141.927 197.094L148.998 190.023L141.927 182.952L134.856 190.023L141.927 197.094ZM101.65 188.383L94.5794 181.311L87.5083 188.383L94.5794 195.454L101.65 188.383ZM113.021 177.012L120.092 169.941L113.021 162.87L105.95 169.941L113.021 177.012ZM132.82 196.811L139.891 203.882L146.962 196.811L139.891 189.74L132.82 196.811ZM118.621 211.01L108.785 212.811L112.217 231.556L125.692 218.081L118.621 211.01ZM133.725 181.764L130.84 184.649L144.982 198.791L147.867 195.906L133.725 181.764ZM144.982 184.649L121.845 161.512L107.703 175.655L130.84 198.791L144.982 184.649ZM121.845 161.512C120.945 160.612 118.035 157.82 113.417 157.82C108.798 157.82 105.889 160.612 104.988 161.512L119.13 175.655C119.05 175.735 118.572 176.213 117.731 176.693C116.802 177.224 115.317 177.82 113.417 177.82C111.517 177.82 110.031 177.224 109.102 176.693C108.261 176.213 107.784 175.735 107.703 175.655L121.845 161.512ZM104.988 161.512L86.3204 180.18L100.463 194.322L119.13 175.655L104.988 161.512ZM86.3204 180.18C85.4196 181.081 82.6278 183.991 82.6278 188.609C82.6278 193.227 85.4196 196.137 86.3204 197.038L100.463 182.895C100.543 182.976 101.021 183.453 101.501 184.294C102.032 185.223 102.628 186.709 102.628 188.609C102.628 190.509 102.032 191.994 101.501 192.923C101.021 193.764 100.543 194.242 100.463 194.322L86.3204 180.18ZM86.3204 197.038L94.8623 205.579L109.004 191.437L100.463 182.895L86.3204 197.038ZM94.8623 205.579C99.7542 210.471 101.719 213.342 102.486 214.845C102.661 215.189 102.755 215.426 102.803 215.566C102.827 215.636 102.841 215.684 102.849 215.713C102.853 215.728 102.855 215.738 102.857 215.745C102.858 215.751 102.859 215.754 102.859 215.755C102.859 215.755 102.858 215.753 102.858 215.749C102.857 215.745 102.857 215.74 102.856 215.734C102.855 215.721 102.854 215.71 102.854 215.704C102.854 215.689 102.856 215.722 102.844 215.841L122.745 217.832C123.091 214.368 122.693 210.447 120.303 205.76C118.156 201.55 114.521 196.954 109.004 191.437L94.8623 205.579ZM105.723 209.765L104.196 211.293L118.338 225.435L119.866 223.908L105.723 209.765ZM104.196 211.293C103.24 212.249 100.407 215.26 100.566 220.012C100.714 224.479 103.447 227.288 104.309 228.15L118.451 214.008C118.5 214.057 118.927 214.48 119.378 215.24C119.867 216.067 120.492 217.478 120.554 219.346C120.618 221.261 120.063 222.818 119.493 223.856C118.984 224.784 118.454 225.319 118.338 225.435L104.196 211.293ZM104.309 228.15L114.096 237.937L128.238 223.794L118.451 214.008L104.309 228.15ZM114.096 237.937C115.005 238.846 117.845 241.558 122.348 241.635C126.993 241.714 129.936 238.954 130.896 237.993L116.754 223.851C116.873 223.732 117.393 223.219 118.291 222.721C119.285 222.168 120.799 221.606 122.687 221.638C124.551 221.669 125.991 222.268 126.879 222.78C127.691 223.25 128.153 223.71 128.238 223.794L114.096 237.937ZM130.896 237.993L133.103 235.787L118.96 221.645L116.754 223.851L130.896 237.993ZM133.103 235.787C134.039 234.851 136.676 232.063 136.818 227.652C136.968 223.011 134.292 220.006 133.159 218.873L119.017 233.015C118.902 232.9 116.707 230.773 116.829 227.008C116.887 225.209 117.471 223.824 117.968 222.97C118.426 222.183 118.872 221.733 118.96 221.645L133.103 235.787ZM133.159 218.873L126.654 212.368L112.512 226.51L119.017 233.015L133.159 218.873ZM126.654 226.51L148.998 204.165L134.856 190.023L112.512 212.368L126.654 226.51ZM134.856 204.165L141.362 210.671L155.504 196.528L148.998 190.023L134.856 204.165ZM141.362 210.671C142.262 211.571 145.172 214.363 149.79 214.363C154.409 214.363 157.318 211.571 158.219 210.671L144.077 196.528C144.158 196.448 144.635 195.97 145.476 195.49C146.405 194.959 147.89 194.363 149.79 194.363C151.69 194.363 153.176 194.959 154.105 195.49C154.946 195.97 155.423 196.448 155.504 196.528L141.362 210.671ZM158.219 210.671L160.425 208.464L146.283 194.322L144.077 196.528L158.219 210.671ZM160.425 208.464C161.326 207.564 164.118 204.654 164.118 200.036C164.118 195.417 161.326 192.508 160.425 191.607L146.283 205.749C146.202 205.668 145.725 205.191 145.244 204.35C144.714 203.421 144.118 201.936 144.118 200.036C144.118 198.136 144.714 196.65 145.244 195.721C145.725 194.88 146.202 194.403 146.283 194.322L160.425 208.464ZM160.425 191.607L150.639 181.821L136.497 195.963L146.283 205.749L160.425 191.607ZM150.639 181.821C149.788 180.969 146.909 178.155 142.325 178.08C137.596 178.002 134.619 180.87 133.725 181.764L147.867 195.906C147.79 195.983 147.298 196.477 146.428 196.969C145.457 197.518 143.928 198.109 141.997 198.077C140.09 198.046 138.633 197.421 137.767 196.913C136.979 196.451 136.542 196.008 136.497 195.963L150.639 181.821ZM114.209 186.799L108.722 181.311L94.5794 195.454L100.067 200.941L114.209 186.799ZM108.722 195.454L120.092 184.083L105.95 169.941L94.5794 181.311L108.722 195.454ZM105.95 184.083L125.749 203.882L139.891 189.74L120.092 169.941L105.95 184.083ZM125.749 189.74L111.55 203.939L125.692 218.081L139.891 203.882L125.749 189.74ZM128.458 209.209C127.176 202.207 122.917 195.507 114.209 186.799L100.067 200.941C107.763 208.638 108.596 211.78 108.785 212.811L128.458 209.209ZM140.287 153.479L149.367 149.289L149.301 149.147L149.232 149.007L140.287 153.479ZM143.116 154.498L138.801 145.476L138.722 145.514L138.644 145.553L143.116 154.498ZM145.718 153.253L150.032 162.274L150.183 162.202L150.331 162.125L145.718 153.253ZM146.736 150.311L155.997 146.538L155.932 146.379L155.861 146.221L146.736 150.311ZM158.842 163.322L154.651 172.402L154.968 172.548L155.295 172.672L158.842 163.322ZM156.013 164.34L147.141 159.727L147.125 159.758L147.109 159.789L156.013 164.34ZM154.712 166.886L163.35 171.925L163.49 171.685L163.617 171.437L154.712 166.886ZM155.674 169.771L159.455 160.513L159.447 160.51L155.674 169.771ZM168.232 140.808L161.161 147.879L166.092 152.81L172.423 149.888L168.232 140.808ZM168.006 140.582L158.829 136.609L156.129 142.847L160.935 147.653L168.006 140.582ZM131.208 157.67C131.895 159.16 133.797 162.739 138.196 164.251C142.566 165.754 146.237 164.117 147.588 163.442L138.644 145.553C138.787 145.482 139.405 145.179 140.369 145C141.423 144.804 142.972 144.744 144.698 145.338C148.191 146.539 149.358 149.27 149.367 149.289L131.208 157.67ZM147.43 163.519L150.032 162.274L141.403 144.232L138.801 145.476L147.43 163.519ZM150.331 162.125C151.516 161.509 154.975 159.614 156.447 155.33C157.865 151.205 156.451 147.652 155.997 146.538L137.475 154.084C137.468 154.066 137.421 153.95 137.363 153.759C137.305 153.57 137.218 153.247 137.153 152.819C137.017 151.932 136.964 150.487 137.534 148.828C138.113 147.144 139.078 145.985 139.841 145.293C140.517 144.679 141.07 144.399 141.104 144.381L150.331 162.125ZM155.861 146.221C155.972 146.468 155.982 146.553 155.976 146.526C155.975 146.517 155.971 146.491 155.974 146.459C155.976 146.445 155.981 146.373 156.051 146.223C156.12 146.075 156.321 145.705 156.862 145.164L142.72 131.022C133.544 140.197 135.827 150.422 137.611 154.402L155.861 146.221ZM156.862 145.164C157.58 144.446 158.001 144.179 158.1 144.122C158.182 144.076 157.847 144.283 157.148 144.356C156.4 144.433 155.598 144.316 154.888 144.024C154.231 143.753 153.885 143.432 153.807 143.354L167.949 129.211C165.03 126.292 160.615 123.89 155.09 124.462C150.037 124.984 145.913 127.829 142.72 131.022L156.862 145.164ZM153.807 143.354C153.625 143.171 153.284 142.766 153.008 142.099C152.722 141.409 152.58 140.616 152.63 139.812C152.73 138.196 153.495 137.556 153.241 137.81L167.384 151.952C170.015 149.32 172.307 145.626 172.591 141.054C172.889 136.273 170.887 132.149 167.949 129.211L153.807 143.354ZM153.241 137.81L147.754 143.297L161.896 157.439L167.384 151.952L153.241 137.81ZM147.754 143.297C146.853 144.198 144.062 147.107 144.062 151.726C144.062 156.344 146.853 159.254 147.754 160.154L161.896 146.012C161.977 146.093 162.454 146.57 162.935 147.411C163.466 148.34 164.062 149.826 164.062 151.726C164.062 153.626 163.466 155.111 162.935 156.04C162.454 156.881 161.977 157.358 161.896 157.439L147.754 143.297ZM147.754 160.154L149.225 161.625L163.367 147.483L161.896 146.012L147.754 160.154ZM149.225 161.625C150.126 162.526 153.036 165.318 157.654 165.318C162.272 165.318 165.182 162.526 166.082 161.625L151.94 147.483C152.021 147.402 152.498 146.925 153.339 146.444C154.268 145.914 155.754 145.318 157.654 145.318C159.554 145.318 161.039 145.914 161.968 146.444C162.809 146.925 163.287 147.402 163.367 147.483L149.225 161.625ZM166.082 161.625L171.909 155.799L157.767 141.656L151.94 147.483L166.082 161.625ZM171.909 155.799C172.457 155.25 171.819 156.161 169.997 156.237C167.993 156.32 166.897 155.312 166.874 155.289L181.017 141.147C178.279 138.41 174.242 136.044 169.168 136.254C164.278 136.457 160.443 138.98 157.767 141.656L171.909 155.799ZM166.874 155.289C166.806 155.221 166.49 154.883 166.228 154.232C165.946 153.53 165.847 152.756 165.926 152.061C165.998 151.42 166.187 151.15 166.098 151.304C166.001 151.473 165.678 151.96 164.895 152.744L179.037 166.886C182.32 163.603 185.219 159.414 185.798 154.318C186.435 148.712 184.048 144.179 181.017 141.147L166.874 155.289ZM164.895 152.744C164.173 153.466 163.648 153.769 163.38 153.896C163.116 154.022 162.955 154.045 162.88 154.052C162.688 154.07 162.521 154.022 162.388 153.972L155.295 172.672C156.803 173.244 160.256 174.385 164.745 173.965C169.451 173.524 174.48 171.442 179.037 166.886L164.895 152.744ZM163.032 154.243C161.862 153.702 158.059 152.017 153.624 153.689C149.411 155.278 147.606 158.833 147.141 159.727L164.885 168.954C164.88 168.964 164.825 169.07 164.721 169.234C164.617 169.397 164.427 169.676 164.14 170.01C163.549 170.697 162.431 171.743 160.68 172.403C158.893 173.077 157.28 173.036 156.213 172.856C155.27 172.696 154.684 172.417 154.651 172.402L163.032 154.243ZM147.109 159.789L145.808 162.335L163.617 171.437L164.918 168.892L147.109 159.789ZM146.074 161.847C145.223 163.308 143.353 167.039 144.781 171.595C146.26 176.315 150.107 178.301 151.901 179.032L159.447 160.51C159.713 160.619 162.683 161.841 163.866 165.613C164.997 169.222 163.41 171.822 163.35 171.925L146.074 161.847ZM151.893 179.029C158.749 181.829 171.608 183.253 183.449 171.412L169.307 157.269C166.57 160.006 164.356 160.715 162.984 160.91C161.452 161.128 160.17 160.806 159.455 160.513L151.893 179.029ZM183.449 171.412C188.741 166.119 192.529 160.116 193.17 153.421C193.852 146.299 190.794 140.516 186.73 136.452L172.588 150.594C173.092 151.098 173.235 151.403 173.261 151.464C173.265 151.475 173.268 151.446 173.261 151.515C173.237 151.764 172.896 153.68 169.307 157.269L183.449 171.412ZM186.73 136.452C184.311 134.033 181.081 131.57 176.894 130.449C172.447 129.257 168.054 129.877 164.042 131.728L172.423 149.888C172.689 149.765 172.695 149.805 172.483 149.828C172.38 149.84 172.252 149.844 172.107 149.833C171.962 149.821 171.829 149.797 171.718 149.767C171.491 149.706 171.446 149.649 171.602 149.75C171.77 149.859 172.099 150.105 172.588 150.594L186.73 136.452ZM175.303 133.737L175.077 133.511L160.935 147.653L161.161 147.879L175.303 133.737ZM177.183 144.554C181.017 135.696 176.992 127.959 172.644 123.611L158.502 137.753C158.698 137.949 158.799 138.089 158.837 138.15C158.874 138.208 158.829 138.154 158.779 137.982C158.725 137.797 158.683 137.532 158.7 137.225C158.718 136.913 158.791 136.697 158.829 136.609L177.183 144.554ZM172.644 123.611C168.561 119.528 162.81 116.586 155.851 117.208C149.254 117.797 143.359 121.445 138.251 126.553L152.393 140.695C155.657 137.43 157.427 137.146 157.632 137.128C157.698 137.122 157.678 137.125 157.694 137.132C157.753 137.156 158.038 137.289 158.502 137.753L172.644 123.611ZM138.251 126.553C126.762 138.042 127.956 151.178 131.343 157.951L149.232 149.007C149.25 149.044 148.855 148.105 149.051 146.604C149.217 145.326 149.862 143.225 152.393 140.695L138.251 126.553ZM168.61 122.215L159.085 125.263L159.104 125.321L159.123 125.378L168.61 122.215ZM171.268 123.403L167.734 114.049L167.577 114.108L167.422 114.173L171.268 123.403ZM173.814 122.442L177.348 131.796L177.597 131.702L177.841 131.595L173.814 122.442ZM175.002 119.896L184.835 118.075L184.778 117.771L184.703 117.471L175.002 119.896ZM194.178 111.581L200.375 119.429L209.201 112.461L201.25 104.509L194.178 111.581ZM213.242 124.535L203.957 120.821L203.951 120.836L203.945 120.851L213.242 124.535ZM198.365 115.767L205.436 108.696L199.036 102.296L192.032 108.027L198.365 115.767ZM205.888 124.987L214.89 129.343L215.021 129.073L215.135 128.795L205.888 124.987ZM159.123 125.378C159.683 127.06 161.314 130.997 165.828 132.847C170.099 134.598 173.864 133.155 175.114 132.634L167.422 114.173C167.552 114.118 168.162 113.868 169.099 113.75C170.112 113.622 171.678 113.63 173.413 114.341C177.065 115.838 178.045 118.898 178.096 119.053L159.123 125.378ZM174.802 132.758L177.348 131.796L170.28 113.087L167.734 114.049L174.802 132.758ZM177.841 131.595C178.49 131.309 182.416 129.749 184.254 125.405C185.132 123.329 185.174 121.459 185.123 120.378C185.075 119.37 184.907 118.465 184.835 118.075L165.169 121.717C165.238 122.091 165.168 121.808 165.146 121.323C165.119 120.766 165.112 119.32 165.835 117.612C166.611 115.777 167.81 114.61 168.67 113.971C169.377 113.445 169.922 113.229 169.786 113.289L177.841 131.595ZM184.703 117.471C184.683 117.388 184.698 117.411 184.695 117.51C184.692 117.614 184.672 117.701 184.658 117.741C184.632 117.819 184.748 117.391 185.637 116.502L171.494 102.36C166.2 107.654 163.361 114.562 165.3 122.321L184.703 117.471ZM185.637 116.502C186.005 116.134 186.277 115.909 186.451 115.781C186.623 115.654 186.674 115.639 186.602 115.673C186.525 115.709 186.333 115.788 186.037 115.846C185.737 115.906 185.398 115.929 185.048 115.904C184.701 115.878 184.418 115.809 184.217 115.742C184.022 115.676 183.928 115.62 183.94 115.627C183.955 115.635 184.053 115.695 184.236 115.843C184.419 115.99 184.659 116.203 184.958 116.502L199.1 102.36C196.516 99.7758 192.322 96.3869 186.523 95.958C180.312 95.4987 175.264 98.59 171.494 102.36L185.637 116.502ZM184.958 116.502L187.107 118.652L201.25 104.509L199.1 102.36L184.958 116.502ZM187.982 103.732C186.783 104.678 183.437 107.388 180.263 110.562L194.405 124.704C196.774 122.335 199.424 120.18 200.375 119.429L187.982 103.732ZM180.263 110.562C175.567 115.258 171.011 120.827 169.781 127.444C168.322 135.288 171.892 141.564 176.529 146.201L190.671 132.058C190.16 131.547 189.835 131.151 189.634 130.87C189.437 130.593 189.383 130.458 189.384 130.462C189.44 130.6 189.479 130.909 189.444 131.101C189.437 131.133 189.53 130.618 190.328 129.429C191.126 128.241 192.413 126.696 194.405 124.704L180.263 110.562ZM176.529 146.201C180.261 149.933 185.916 154.031 193.68 153.284C200.663 152.612 206.68 148.181 212.054 142.806L197.912 128.664C195.764 130.812 194.164 132.057 193.036 132.746C191.932 133.421 191.559 133.395 191.764 133.376C192.768 133.279 192.709 134.096 190.671 132.058L176.529 146.201ZM212.054 142.806C216.915 137.946 220.635 133.024 222.539 128.218L203.945 120.851C203.474 122.042 201.876 124.7 197.912 128.664L212.054 142.806ZM222.527 128.249C223.09 126.841 224.323 123.633 223.522 119.769C222.735 115.972 220.392 113.469 219.125 112.203L204.983 126.345C205.254 126.616 205.133 126.535 204.901 126.189C204.624 125.777 204.175 124.971 203.938 123.827C203.463 121.533 204.299 119.966 203.957 120.821L222.527 128.249ZM219.125 112.203L204.361 97.4384L190.219 111.581L204.983 126.345L219.125 112.203ZM204.361 97.4384C200.419 93.4962 194.785 89.3679 187.477 88.843C179.796 88.2913 172.932 91.8715 167.082 97.7213L181.224 111.863C182.89 110.197 184.122 109.429 184.878 109.085C185.566 108.772 185.908 108.782 186.045 108.792C186.416 108.818 187.769 109.131 190.219 111.581L204.361 97.4384ZM167.082 97.7213C159.33 105.473 155.873 115.224 159.085 125.263L178.134 119.168C177.726 117.893 177.436 115.651 181.224 111.863L167.082 97.7213ZM191.294 122.838L198.421 129.965L212.563 115.823L205.436 108.696L191.294 122.838ZM198.421 129.965C198.401 129.945 198.31 129.853 198.181 129.705C198.053 129.556 197.847 129.304 197.616 128.956C197.123 128.214 196.519 127.039 196.266 125.484C196.017 123.958 196.215 122.721 196.384 122.02C196.529 121.42 196.7 121.039 196.641 121.18L215.135 128.795C215.256 128.502 216.566 125.709 216.006 122.27C215.409 118.608 213.125 116.385 212.563 115.823L198.421 129.965ZM196.887 120.632C196.889 120.626 196.725 120.96 196.111 121.726C195.505 122.482 194.589 123.502 193.217 124.874L207.359 139.016C210.562 135.813 213.273 132.683 214.89 129.343L196.887 120.632ZM193.217 124.874C192.139 125.952 191.503 126.408 191.26 126.557C191.036 126.695 191.481 126.366 192.469 126.267C192.968 126.216 193.509 126.236 194.053 126.341C194.59 126.444 195.028 126.61 195.348 126.767C195.927 127.051 196.079 127.284 195.762 126.967L181.62 141.109C183.897 143.386 188.205 146.798 194.474 146.166C199.89 145.62 204.156 142.22 207.359 139.016L193.217 124.874ZM195.762 126.967C195.51 126.715 195.808 126.935 196.109 127.633C196.27 128.005 196.414 128.474 196.485 129.016C196.557 129.561 196.54 130.07 196.472 130.509C196.34 131.355 196.059 131.679 196.254 131.377C196.452 131.071 196.94 130.428 197.969 129.4L183.826 115.258C180.861 118.223 177.515 122.266 176.711 127.428C175.736 133.677 178.811 138.3 181.62 141.109L195.762 126.967ZM197.969 129.4C200.314 127.054 203.336 124.62 204.697 123.506L192.032 108.027C190.905 108.95 187.024 112.06 183.826 115.258L197.969 129.4ZM245.465 90.3886L242.26 99.8611L242.467 99.9311L242.677 99.992L245.465 90.3886ZM230.418 85.2974L233.623 75.8249L233.601 75.8177L233.58 75.8106L230.418 85.2974ZM221.254 85.1843L211.315 86.2886L212.843 100.04L225.42 94.2749L221.254 85.1843ZM218.991 64.8196L228.93 63.7153L228.922 63.6472L228.914 63.5792L218.991 64.8196ZM212.768 69.9108L222.687 68.6347L222.666 68.4762L222.641 68.3184L212.768 69.9108ZM215.257 89.2572L222.328 96.3283L225.803 92.8541L225.176 87.9812L215.257 89.2572ZM210.279 94.2352L203.208 101.306L210.279 108.377L217.35 101.306L210.279 94.2352ZM214.975 98.9304L207.903 91.8594L200.832 98.9304L207.903 106.001L214.975 98.9304ZM228.325 91.8028L231.671 82.3794L231.628 82.364L231.585 82.3491L228.325 91.8028ZM240.43 96.102L243.794 86.6846L243.785 86.6816L243.777 86.6786L240.43 96.102ZM248.67 80.9161L233.623 75.8249L227.213 94.7699L242.26 99.8611L248.67 80.9161ZM233.58 75.8106C228.767 74.2063 223.016 73.3761 217.087 76.0936L225.42 94.2749C225.4 94.2843 225.345 94.305 225.277 94.3185C225.212 94.3313 225.204 94.3241 225.283 94.3259C225.477 94.3305 226.063 94.3867 227.255 94.7842L233.58 75.8106ZM231.192 84.08L228.93 63.7153L209.052 65.9239L211.315 86.2886L231.192 84.08ZM228.914 63.5792C228.783 62.5353 228.481 60.905 227.614 59.2054C226.709 57.4323 224.761 54.83 221.163 53.7133C217.649 52.6229 214.659 53.6071 213.03 54.416C211.412 55.2202 210.227 56.2732 209.487 57.0131L223.629 71.1553C223.568 71.2164 222.999 71.7956 221.928 72.3276C220.848 72.8643 218.338 73.7778 215.235 72.8146C212.047 71.8252 210.438 69.5482 209.799 68.2948C209.197 67.1149 209.085 66.1988 209.068 66.0599L228.914 63.5792ZM209.487 57.0131L207.338 59.1627L221.48 73.3049L223.629 71.1553L209.487 57.0131ZM207.338 59.1627C207.07 59.4304 205.119 61.2081 203.965 63.5153C202.321 66.8038 202.63 69.852 202.896 71.5031L222.641 68.3184C222.626 68.2285 222.72 68.7228 222.667 69.4992C222.602 70.4367 222.349 71.4703 221.854 72.4596C221.428 73.3121 220.978 73.8098 220.953 73.8379C220.928 73.8657 220.946 73.8446 221.047 73.7402C221.152 73.6334 221.278 73.5072 221.48 73.3049L207.338 59.1627ZM202.85 71.1868L205.339 90.5332L225.176 87.9812L222.687 68.6347L202.85 71.1868ZM208.186 82.1861L207.677 82.6952L221.819 96.8374L222.328 96.3283L208.186 82.1861ZM207.677 82.6952L203.208 87.1642L217.35 101.306L221.819 96.8374L207.677 82.6952ZM217.35 87.1642L206.772 76.5859L192.63 90.728L203.208 101.306L217.35 87.1642ZM206.772 76.5859C205.878 75.6918 202.901 72.8242 198.172 72.9017C193.588 72.9768 190.709 75.7913 189.858 76.6424L204 90.7846C203.955 90.8295 203.518 91.2729 202.73 91.735C201.864 92.2427 200.407 92.8677 198.5 92.899C196.569 92.9306 195.04 92.3395 194.069 91.7907C193.199 91.2991 192.707 90.8049 192.63 90.728L206.772 76.5859ZM189.858 76.6424L187.595 78.9052L201.737 93.0473L204 90.7846L189.858 76.6424ZM187.595 78.9052C186.744 79.7563 183.93 82.6352 183.855 87.2195C183.777 91.9477 186.645 94.9251 187.539 95.8192L201.681 81.677C201.758 81.7539 202.252 82.2463 202.744 83.116C203.292 84.087 203.884 85.6157 203.852 87.5473C203.821 89.4544 203.196 90.9107 202.688 91.7768C202.226 92.565 201.782 93.0023 201.737 93.0473L187.595 78.9052ZM187.539 95.8192L213.956 122.237L228.098 108.095L201.681 81.677L187.539 95.8192ZM213.956 122.237C214.798 123.079 217.745 125.972 222.442 125.972C227.138 125.972 230.085 123.079 230.927 122.237L216.785 108.095C216.826 108.053 217.278 107.594 218.093 107.12C219 106.594 220.5 105.972 222.442 105.972C224.383 105.972 225.883 106.594 226.79 107.12C227.605 107.594 228.057 108.053 228.098 108.095L213.956 122.237ZM230.927 122.237L233.19 119.974L219.047 105.832L216.785 108.095L230.927 122.237ZM233.19 119.974C234.032 119.132 236.925 116.185 236.925 111.489C236.925 106.792 234.032 103.845 233.19 103.003L219.047 117.145C219.006 117.104 218.546 116.652 218.073 115.837C217.547 114.93 216.925 113.431 216.925 111.489C216.925 109.547 217.547 108.047 218.073 107.14C218.546 106.325 219.006 105.873 219.047 105.832L233.19 119.974ZM233.19 103.003L222.046 91.8594L207.903 106.001L219.047 117.145L233.19 103.003ZM222.046 106.001L227.193 100.854L213.051 86.7116L207.903 91.8594L222.046 106.001ZM227.193 100.854C227.758 100.289 227.405 100.844 226.254 101.112C225.082 101.384 224.446 101.043 225.065 101.257L231.585 82.3491C228.923 81.4312 225.514 80.7506 221.726 81.6311C217.959 82.5068 215.145 84.6178 213.051 86.7116L227.193 100.854ZM224.978 101.226L237.084 105.525L243.777 86.6786L231.671 82.3794L224.978 101.226ZM237.067 105.519C237.856 105.801 241.164 107.094 245.07 105.939C248.367 104.964 250.54 102.624 251.065 102.098L236.923 87.9561C236.609 88.27 236.669 88.1841 236.925 87.9882C237.222 87.7599 238.073 87.1519 239.397 86.7602C240.836 86.3346 242.114 86.3717 242.982 86.507C243.66 86.6127 244.061 86.7799 243.794 86.6846L237.067 105.519ZM251.065 102.098L253.271 99.8921L239.129 85.75L236.923 87.9561L251.065 102.098ZM253.271 99.8921C253.889 99.275 254.942 98.1434 255.761 96.5613C256.636 94.8723 257.673 91.7684 256.465 88.1455C255.33 84.7398 252.883 82.9597 251.612 82.2044C250.295 81.4213 249.015 81.0063 248.253 80.7851L242.677 99.992C242.674 99.9912 242.648 99.9835 242.601 99.9681C242.556 99.9527 242.481 99.9265 242.383 99.8878C242.205 99.8176 241.845 99.6651 241.393 99.3965C240.628 98.9417 238.499 97.4939 237.491 94.4701C236.411 91.229 237.384 88.5565 238.001 87.366C238.31 86.7682 238.616 86.3548 238.788 86.1391C238.967 85.914 239.098 85.7815 239.129 85.75L253.271 99.8921ZM227.167 63.6582L217.643 66.7059L217.661 66.7633L217.68 66.8205L227.167 63.6582ZM229.826 64.8461L226.291 55.4914L226.134 55.5507L225.979 55.6153L229.826 64.8461ZM232.371 63.8845L235.905 73.2392L236.154 73.145L236.398 73.0376L232.371 63.8845ZM233.559 61.3389L243.392 59.518L243.336 59.2137L243.26 58.9135L233.559 61.3389ZM252.736 53.0233L258.932 60.8721L267.759 53.9039L259.807 45.9522L252.736 53.0233ZM271.799 65.9775L262.515 62.2636L262.509 62.2787L262.503 62.2938L271.799 65.9775ZM256.922 57.2094L263.993 50.1383L257.594 43.7391L250.589 49.4698L256.922 57.2094ZM264.445 66.43L273.447 70.7856L273.578 70.5153L273.692 70.2375L264.445 66.43ZM217.68 66.8205C218.241 68.5026 219.871 72.4397 224.386 74.2901C228.656 76.0403 232.421 74.598 233.672 74.0769L225.979 55.6153C226.109 55.5612 226.72 55.3109 227.657 55.1926C228.67 55.0648 230.236 55.0732 231.97 55.784C235.622 57.2808 236.602 60.3411 236.654 60.4959L217.68 66.8205ZM233.36 74.2008L235.905 73.2392L228.837 54.5297L226.291 55.4914L233.36 74.2008ZM236.398 73.0376C237.047 72.7521 240.973 71.1915 242.811 66.8475C243.689 64.7722 243.732 62.9015 243.68 61.821C243.633 60.8125 243.464 59.9074 243.392 59.518L223.726 63.1598C223.796 63.534 223.726 63.2511 223.703 62.7659C223.676 62.2087 223.669 60.7622 224.392 59.0547C225.168 57.2198 226.367 56.0528 227.227 55.4135C227.934 54.8879 228.479 54.6718 228.344 54.7313L236.398 73.0376ZM243.26 58.9135C243.24 58.8312 243.255 58.854 243.252 58.9529C243.249 59.0564 243.229 59.1435 243.216 59.1837C243.19 59.2618 243.305 58.8337 244.194 57.9448L230.052 43.8026C224.757 49.097 221.918 56.0051 223.858 63.7642L243.26 58.9135ZM244.194 57.9448C244.562 57.5769 244.834 57.3518 245.008 57.2236C245.18 57.0963 245.231 57.0818 245.159 57.1154C245.082 57.1518 244.89 57.2309 244.595 57.2891C244.294 57.3484 243.955 57.3722 243.605 57.3463C243.259 57.3207 242.975 57.2521 242.774 57.1844C242.579 57.1189 242.486 57.0625 242.498 57.0696C242.512 57.078 242.61 57.1375 242.794 57.2855C242.977 57.4331 243.216 57.646 243.515 57.9447L257.657 43.8026C255.073 41.2185 250.879 37.8296 245.08 37.4007C238.869 36.9414 233.822 40.0327 230.052 43.8026L244.194 57.9448ZM243.515 57.9447L245.665 60.0944L259.807 45.9522L257.657 43.8026L243.515 57.9447ZM246.539 45.1745C245.34 46.1209 241.994 48.8309 238.82 52.005L252.962 66.1472C255.332 63.7777 257.981 61.6227 258.932 60.8721L246.539 45.1745ZM238.82 52.005C234.124 56.7005 229.568 62.2694 228.338 68.8869C226.879 76.7306 230.45 83.0065 235.086 87.6432L249.229 73.5011C248.717 72.9897 248.392 72.5937 248.192 72.3126C247.994 72.0356 247.94 71.9011 247.941 71.9044C247.998 72.0425 248.036 72.352 248.001 72.5433C247.995 72.5759 248.087 72.0611 248.885 70.8721C249.683 69.6839 250.97 68.1389 252.962 66.1472L238.82 52.005ZM235.086 87.6432C238.818 91.3753 244.473 95.4735 252.237 94.7264C259.221 94.0543 265.237 89.6236 270.611 84.2491L256.469 70.107C254.321 72.2551 252.721 73.4992 251.593 74.1888C250.489 74.8641 250.116 74.8381 250.321 74.8184C251.325 74.7218 251.266 75.539 249.229 73.5011L235.086 87.6432ZM270.611 84.2491C275.472 79.3887 279.192 74.4668 281.096 69.6611L262.503 62.2938C262.031 63.4844 260.434 66.1427 256.469 70.107L270.611 84.2491ZM281.084 69.6914C281.647 68.2837 282.88 65.0761 282.079 61.212C281.292 57.4149 278.949 54.9119 277.682 53.6456L263.54 67.7877C263.811 68.0585 263.691 67.9773 263.458 67.6316C263.182 67.2197 262.732 66.4134 262.495 65.27C262.02 62.9757 262.857 61.4085 262.515 62.2636L281.084 69.6914ZM277.682 53.6456L262.918 38.8812L248.776 53.0233L263.54 67.7877L277.682 53.6456ZM262.918 38.8812C258.976 34.9389 253.342 30.8106 246.035 30.2857C238.353 29.734 231.489 33.3142 225.639 39.164L239.782 53.3061C241.448 51.6401 242.679 50.8717 243.435 50.5274C244.123 50.2145 244.465 50.2245 244.602 50.2343C244.973 50.261 246.326 50.5733 248.776 53.0233L262.918 38.8812ZM225.639 39.164C217.887 46.916 214.43 56.6672 217.643 66.7059L236.691 60.6104C236.283 59.3355 235.994 57.0941 239.782 53.3061L225.639 39.164ZM249.851 64.2804L256.978 71.4081L271.121 57.2659L263.993 50.1383L249.851 64.2804ZM256.978 71.4081C256.958 71.3878 256.867 71.2961 256.739 71.1473C256.611 70.999 256.404 70.7463 256.173 70.3992C255.68 69.6569 255.076 68.4815 254.823 66.9266C254.574 65.4006 254.772 64.1636 254.941 63.4623C255.086 62.8627 255.257 62.4812 255.199 62.6225L273.692 70.2375C273.813 69.9444 275.123 67.1522 274.563 63.7131C273.967 60.0505 271.682 57.8275 271.121 57.2659L256.978 71.4081ZM255.444 62.0744C255.447 62.0685 255.282 62.4029 254.669 63.1682C254.062 63.9251 253.146 64.9445 251.774 66.3169L265.916 80.459C269.119 77.2561 271.831 74.1262 273.447 70.7856L255.444 62.0744ZM251.774 66.3169C250.696 67.3948 250.06 67.8505 249.817 67.9999C249.594 68.1376 250.039 67.8088 251.026 67.7093C251.526 67.6589 252.066 67.6786 252.61 67.7835C253.148 67.8869 253.585 68.0531 253.905 68.21C254.484 68.4936 254.636 68.7263 254.32 68.4099L240.178 82.5521C242.454 84.8286 246.762 88.2403 253.031 87.6085C258.448 87.0627 262.713 83.6624 265.916 80.459L251.774 66.3169ZM254.32 68.4099C254.068 68.158 254.365 68.3781 254.667 69.0762C254.827 69.4481 254.971 69.9163 255.042 70.4587C255.114 71.0033 255.098 71.5126 255.029 71.9514C254.897 72.7977 254.616 73.1215 254.811 72.82C255.009 72.5138 255.497 71.871 256.526 70.8424L242.384 56.7002C239.418 59.6659 236.073 63.7082 235.268 68.8707C234.294 75.1202 237.368 79.7429 240.178 82.5521L254.32 68.4099ZM256.526 70.8424C258.872 68.4965 261.893 66.0627 263.254 64.9489L250.589 49.4698C249.462 50.3924 245.582 53.5024 242.384 56.7002L256.526 70.8424ZM257.07 36.6962L266.15 32.5056L266.084 32.3638L266.015 32.2241L257.07 36.6962ZM259.899 37.7144L255.584 28.6931L255.505 28.7309L255.427 28.7702L259.899 37.7144ZM262.501 36.4699L266.815 45.4913L266.966 45.4192L267.114 45.3421L262.501 36.4699ZM263.519 33.5283L272.78 29.7554L272.715 29.5954L272.644 29.4378L263.519 33.5283ZM275.625 46.5391L271.434 55.6187L271.752 55.7652L272.078 55.8891L275.625 46.5391ZM272.796 47.5574L263.924 42.9438L263.908 42.975L263.892 43.0062L272.796 47.5574ZM271.495 50.1029L280.133 55.1416L280.273 54.9015L280.4 54.654L271.495 50.1029ZM272.457 52.9879L276.238 43.7304L276.23 43.727L272.457 52.9879ZM285.015 24.0248L277.944 31.0959L282.875 36.0265L289.206 33.1044L285.015 24.0248ZM284.789 23.7986L275.612 19.8263L272.912 26.0637L277.718 30.8696L284.789 23.7986ZM247.991 40.8868C248.678 42.3768 250.58 45.9562 254.979 47.4683C259.349 48.9705 263.02 47.3342 264.371 46.6587L255.427 28.7702C255.57 28.6986 256.188 28.3961 257.152 28.217C258.206 28.021 259.755 27.9613 261.481 28.5546C264.974 29.7555 266.141 32.4864 266.15 32.5056L247.991 40.8868ZM264.213 46.7358L266.815 45.4913L258.186 27.4486L255.584 28.6931L264.213 46.7358ZM267.114 45.3421C268.299 44.7259 271.758 42.8308 273.231 38.5469C274.649 34.4218 273.234 30.8692 272.78 29.7554L254.258 37.3013C254.251 37.2827 254.204 37.1673 254.146 36.9762C254.088 36.7865 254.001 36.4637 253.936 36.0359C253.8 35.1487 253.747 33.7039 254.317 32.0453C254.896 30.3612 255.861 29.2018 256.624 28.5098C257.3 27.8956 257.853 27.6158 257.887 27.5977L267.114 45.3421ZM272.644 29.4378C272.755 29.6847 272.765 29.7698 272.76 29.7427C272.758 29.7338 272.754 29.7079 272.757 29.6762C272.759 29.6624 272.764 29.5894 272.834 29.4398C272.903 29.2915 273.104 28.9214 273.645 28.3806L259.503 14.2385C250.327 23.4142 252.61 33.6387 254.394 37.6189L272.644 29.4378ZM273.645 28.3806C274.363 27.6624 274.784 27.3958 274.884 27.3391C274.965 27.2928 274.63 27.5002 273.931 27.5724C273.183 27.6499 272.382 27.5327 271.671 27.2404C271.014 26.9701 270.668 26.6484 270.59 26.5704L284.732 12.4283C281.813 9.50869 277.398 7.10708 271.873 7.67861C266.82 8.20134 262.696 11.0456 259.503 14.2385L273.645 28.3806ZM270.59 26.5704C270.408 26.3882 270.067 25.9828 269.791 25.3159C269.505 24.6263 269.363 23.8324 269.413 23.0293C269.514 21.4129 270.278 20.7732 270.025 21.0267L284.167 35.1688C286.798 32.5373 289.09 28.8429 289.374 24.2709C289.672 19.49 287.67 15.3664 284.732 12.4283L270.59 26.5704ZM270.025 21.0267L264.537 26.5139L278.68 40.656L284.167 35.1688L270.025 21.0267ZM264.537 26.5139C263.637 27.4147 260.845 30.3243 260.845 34.9426C260.845 39.5609 263.637 42.4704 264.537 43.3713L278.68 29.2292C278.76 29.3098 279.237 29.7871 279.718 30.6282C280.249 31.557 280.845 33.0426 280.845 34.9426C280.845 36.8425 280.249 38.3281 279.718 39.257C279.237 40.0981 278.76 40.5753 278.68 40.656L264.537 26.5139ZM264.537 43.3713L266.008 44.8421L280.15 30.6999L278.68 29.2292L264.537 43.3713ZM266.008 44.8421C266.909 45.7429 269.819 48.5347 274.437 48.5347C279.055 48.5347 281.965 45.7429 282.866 44.8421L268.723 30.6999C268.804 30.6193 269.281 30.142 270.122 29.6613C271.051 29.1306 272.537 28.5347 274.437 28.5347C276.337 28.5347 277.822 29.1306 278.751 29.6613C279.592 30.142 280.07 30.6193 280.15 30.6999L266.008 44.8421ZM282.866 44.8421L288.692 39.0155L274.55 24.8734L268.723 30.6999L282.866 44.8421ZM288.692 39.0155C289.24 38.4672 288.602 39.3783 286.78 39.4539C284.776 39.537 283.68 38.5284 283.658 38.5064L297.8 24.3642C295.062 21.6269 291.025 19.2607 285.951 19.4711C281.061 19.6739 277.226 22.1973 274.55 24.8734L288.692 39.0155ZM283.658 38.5064C283.589 38.4376 283.273 38.0996 283.011 37.4493C282.729 36.7465 282.63 35.9728 282.709 35.278C282.782 34.6365 282.97 34.3673 282.881 34.5206C282.784 34.6895 282.461 35.1772 281.678 35.9608L295.82 50.1029C299.103 46.8198 302.002 42.6306 302.581 37.5346C303.218 31.9284 300.831 27.3958 297.8 24.3642L283.658 38.5064ZM281.678 35.9608C280.956 36.6827 280.431 36.9861 280.163 37.1131C279.899 37.2387 279.738 37.2616 279.663 37.2686C279.471 37.2866 279.304 37.2393 279.171 37.1891L272.078 55.8891C273.586 56.4612 277.039 57.6018 281.528 57.1814C286.234 56.7407 291.263 54.6592 295.82 50.1029L281.678 35.9608ZM279.815 37.4595C278.645 36.9194 274.842 35.2342 270.407 36.9064C266.194 38.4947 264.389 42.0497 263.924 42.9438L281.669 52.1709C281.663 52.1808 281.608 52.2865 281.504 52.451C281.4 52.6139 281.21 52.8932 280.923 53.2269C280.333 53.9138 279.214 54.9602 277.463 55.6203C275.676 56.294 274.063 56.2532 272.996 56.0726C272.053 55.9129 271.468 55.6341 271.434 55.6187L279.815 37.4595ZM263.892 43.0062L262.591 45.5518L280.4 54.654L281.701 52.1085L263.892 43.0062ZM262.858 45.0642C262.006 46.5246 260.136 50.2557 261.564 54.8121C263.043 59.5319 266.89 61.5181 268.684 62.2489L276.23 43.727C276.496 43.8355 279.466 45.058 280.649 48.8304C281.78 52.4392 280.193 55.0389 280.133 55.1416L262.858 45.0642ZM268.676 62.2455C275.532 65.0459 288.391 66.4699 300.232 54.6284L286.09 40.4863C283.354 43.2227 281.139 43.9319 279.767 44.1271C278.235 44.3451 276.953 44.0225 276.238 43.7304L268.676 62.2455ZM300.232 54.6284C305.525 49.336 309.312 43.3331 309.953 36.6379C310.635 29.5159 307.577 23.7332 303.513 19.6691L289.371 33.8112C289.875 34.3152 290.018 34.6199 290.044 34.6812C290.048 34.6917 290.051 34.6629 290.044 34.7322C290.021 34.9807 289.679 36.8974 286.09 40.4863L300.232 54.6284ZM303.513 19.6691C301.094 17.2498 297.864 14.7872 293.677 13.6655C289.23 12.474 284.837 13.0935 280.825 14.9452L289.206 33.1044C289.472 32.9815 289.478 33.022 289.266 33.0452C289.163 33.0565 289.035 33.0607 288.89 33.0495C288.745 33.0383 288.613 33.0139 288.501 32.9841C288.274 32.9233 288.229 32.8661 288.385 32.9667C288.553 33.0759 288.882 33.3223 289.371 33.8112L303.513 19.6691ZM292.086 16.9538L291.86 16.7275L277.718 30.8696L277.944 31.0959L292.086 16.9538ZM293.966 27.7708C297.8 18.9127 293.775 11.1758 289.428 6.82801L275.285 20.9701C275.481 21.1659 275.582 21.3059 275.62 21.3666C275.657 21.4251 275.612 21.3709 275.562 21.1987C275.509 21.014 275.466 20.7491 275.484 20.4419C275.502 20.1301 275.574 19.9135 275.612 19.8263L293.966 27.7708ZM289.428 6.82801C285.344 2.74484 279.593 -0.197579 272.634 0.42448C266.037 1.01426 260.142 4.66175 255.034 9.76957L269.176 23.9117C272.44 20.6474 274.21 20.3633 274.415 20.345C274.481 20.3391 274.462 20.3419 274.477 20.3485C274.536 20.3725 274.821 20.5055 275.285 20.9701L289.428 6.82801ZM255.034 9.76957C243.545 21.2588 244.739 34.395 248.126 41.1683L266.015 32.2241C266.033 32.2614 265.638 31.3224 265.834 29.8208C266 28.5433 266.645 26.4423 269.176 23.9117L255.034 9.76957Z" fill="white"/>
</svg>
