<svg width="34" height="33" viewBox="0 0 34 33" fill="none" xmlns="http://www.w3.org/2000/svg">
<path d="M31.8077 13.4136C31.4615 12.8382 30.6539 12.6224 30 12.982L25.6155 15.3555L24.5001 15.9668V21.6487L25.5385 22.2241C25.577 22.2241 25.577 22.26 25.6155 22.26L29.9231 24.5975C30.1154 24.7414 30.3846 24.8133 30.6539 24.8133C31.3846 24.8133 31.9615 24.2739 31.9615 23.5906V18.7718L32 14.0249C32 13.8091 31.9615 13.5934 31.8077 13.4136Z" fill="#205EA4"/>
<path d="M6.19262 11.5795C9.61566 11.5795 12.3849 8.99032 12.3849 5.78976C12.3849 2.58921 9.61566 0 6.19262 0C2.76959 0 0.000390499 2.58921 0.000390499 5.78976C-0.0380706 8.99032 2.76959 11.5795 6.19262 11.5795ZM6.19262 3.41632C7.61568 3.41632 8.73105 4.49516 8.73105 5.78976C8.73105 7.12033 7.57722 8.16321 6.19262 8.16321C4.80802 8.16321 3.65419 7.08437 3.65419 5.78976C3.61573 4.4592 4.76956 3.41632 6.19262 3.41632Z" fill="#205EA4"/>
<path d="M21.8847 11.9032C20.8848 12.3707 19.7694 12.6584 18.5771 12.6584C17.1156 12.6584 15.731 12.2628 14.5771 11.5436H10.1926C9.03874 12.2628 7.65414 12.6584 6.19262 12.6584C5.00033 12.6584 3.88496 12.4066 2.88497 11.9032C2.00037 12.3707 1.38499 13.3057 1.38499 14.3126V23.0871C1.38499 24.7054 2.80805 26 4.50034 26H20.3078C22.0386 26 23.4232 24.6694 23.4232 23.0871V14.3126C23.3847 13.3057 22.7693 12.3707 21.8847 11.9032Z" fill="#205EA4"/>
<path d="M18.5771 11.5795C22.0001 11.5795 24.7693 8.99032 24.7693 5.78976C24.7693 2.58921 22.0001 0 18.5771 0C15.1541 0 12.3849 2.58921 12.3849 5.78976C12.3849 8.99032 15.1541 11.5795 18.5771 11.5795ZM18.5771 3.41632C20.0001 3.41632 21.1155 4.49516 21.1155 5.78976C21.1155 7.12033 19.9617 8.16321 18.5771 8.16321C17.1925 8.16321 16.0387 7.08437 16.0387 5.78976C16.0387 4.4592 17.154 3.41632 18.5771 3.41632Z" fill="#205EA4"/>
<rect x="21" y="20" width="11" height="9" fill="white"/>
<path d="M26 33C21.5889 33 18 29.4111 18 25C18 20.5889 21.5889 17 26 17C30.4111 17 34 20.5889 34 25C34 29.4111 30.4111 33 26 33ZM30 24H27V21H25V24H22V26H25V29H27V26H30V24Z" fill="#FAC134"/>
</svg>
