<svg width="35" height="32" viewBox="0 0 35 32" fill="none" xmlns="http://www.w3.org/2000/svg">
<path d="M23.5849 14.6819C23.2911 13.3799 22.247 12.4195 20.9903 12.2765C18.0151 11.9375 15.0022 11.9359 12.0041 11.9375C9.0047 11.9359 5.99248 11.9375 3.0163 12.2765C1.76024 12.4198 0.716764 13.3802 0.423286 14.6819C0.0050167 16.5359 0 18.5597 0 20.4687C0 22.3777 3.73775e-08 24.4012 0.418269 26.2551C0.711748 27.5568 1.75523 28.5172 3.01192 28.6605C5.98746 28.9998 8.99969 29.0011 11.9987 28.9998C14.9981 29.0014 18.0097 28.9998 20.9862 28.6605C22.2423 28.5172 23.2864 27.5568 23.5799 26.2551C23.9978 24.4012 24 22.3777 24 20.4687C23.9997 18.5594 24.0028 16.5359 23.5849 14.6819ZM6.84563 16.1188H5.10859V25.5336H3.49509V16.1188H1.78972V14.5767H6.84563V16.1188ZM11.2281 25.534H9.77665V24.6433C9.20004 25.3174 8.65259 25.6462 8.11925 25.6462C7.65176 25.6462 7.33006 25.453 7.18489 25.0395C7.10587 24.7926 7.05696 24.4018 7.05696 23.8255V17.3696H8.50711V23.3806C8.50711 23.7273 8.50711 23.9074 8.52028 23.956C8.55508 24.1856 8.66514 24.302 8.85953 24.302C9.1505 24.302 9.45464 24.0733 9.77634 23.6093V17.3696H11.2277L11.2281 25.534ZM16.738 23.0835C16.738 23.8386 16.6881 24.3826 16.5912 24.7286C16.3975 25.336 16.0096 25.6462 15.4327 25.6462C14.9166 25.6462 14.4187 25.3539 13.9336 24.743V25.5343H12.4835V14.5767H13.9336V18.1551C14.4021 17.567 14.8994 17.2695 15.4327 17.2695C16.0096 17.2695 16.3978 17.5794 16.5912 18.1906C16.6888 18.5191 16.738 19.0589 16.738 19.8319V23.0835ZM19.3109 21.7214V23.1686C19.3109 23.9243 19.5533 24.3017 20.0518 24.3017C20.409 24.3017 20.6168 24.1037 20.6996 23.7084C20.7131 23.6282 20.7322 23.2994 20.7322 22.7061H22.2119V22.922C22.2119 23.3988 22.194 23.7273 22.1808 23.8751C22.1322 24.2025 22.0181 24.4997 21.8422 24.7613C21.4405 25.3542 20.8454 25.6465 20.0879 25.6465C19.3291 25.6465 18.7516 25.368 18.3324 24.8105C18.0248 24.4018 17.8667 23.7583 17.8667 22.8907V20.0312C17.8667 19.1584 18.0069 18.52 18.3151 18.1075C18.734 17.5487 19.3112 17.2705 20.0522 17.2705C20.7799 17.2705 21.3568 17.5487 21.7632 18.1075C22.067 18.52 22.2122 19.1584 22.2122 20.0312V21.7214H19.3109Z" fill="#205EA4"/>
<path d="M20.039 18.6016C19.5542 18.6016 19.3112 18.9793 19.3112 19.7341V20.4895H20.7614V19.7341C20.7611 18.9793 20.5187 18.6016 20.039 18.6016Z" fill="#205EA4"/>
<path d="M14.6567 18.6016C14.4177 18.6016 14.1757 18.7167 13.9333 18.9614V23.9374C14.1754 24.185 14.4177 24.302 14.6567 24.302C15.0749 24.302 15.2875 23.9374 15.2875 23.2002V19.7155C15.2875 18.9793 15.0749 18.6016 14.6567 18.6016Z" fill="#205EA4"/>
<path d="M15.4669 11.185C16.0015 11.185 16.5577 10.8537 17.1412 10.1718V11.0718H18.607V2.82079H17.1412V9.12697C16.8164 9.59518 16.5085 9.82673 16.2153 9.82673C16.019 9.82673 15.9036 9.7084 15.8717 9.47653C15.8538 9.4276 15.8538 9.24562 15.8538 8.89542V2.82079H14.3927V9.34508C14.3927 9.92779 14.4416 10.3221 14.5225 10.5719C14.6698 10.9899 14.995 11.185 15.4669 11.185Z" fill="#205EA4"/>
<path d="M5.26254 6.58761V11.0718H6.88796V6.58761L8.84323 0H7.19962L6.09062 4.34793L4.93677 0H3.22638C3.56908 1.0263 3.92559 2.05771 4.26829 3.08496C4.78972 4.62905 5.11518 5.79318 5.26254 6.58761Z" fill="#205EA4"/>
<path d="M11.0217 11.185C11.7561 11.185 12.3267 10.9032 12.7315 10.3404C13.0391 9.92747 13.1865 9.27696 13.1865 8.40002V5.51078C13.1865 4.62873 13.0394 3.98397 12.7315 3.56725C12.3267 3.00277 11.7564 2.72101 11.0217 2.72101C10.2912 2.72101 9.72084 3.00277 9.31511 3.56725C9.00376 3.98397 8.8564 4.62873 8.8564 5.51078V8.40002C8.8564 9.27696 9.00376 9.92747 9.31511 10.3404C9.72053 10.9032 10.2912 11.185 11.0217 11.185ZM10.3222 5.21111C10.3222 4.44771 10.5492 4.06713 11.0217 4.06713C11.4943 4.06713 11.7206 4.44739 11.7206 5.21111V8.68178C11.7206 9.44519 11.4943 9.82705 11.0217 9.82705C10.5492 9.82705 10.3222 9.44519 10.3222 8.68178V5.21111Z" fill="#205EA4"/>
<rect x="21" y="18" width="11" height="11" fill="white"/>
<path d="M27 32C22.5889 32 19 28.4111 19 24C19 19.5889 22.5889 16 27 16C31.4111 16 35 19.5889 35 24C35 28.4111 31.4111 32 27 32ZM31 23H28V20H26V23H23V25H26V28H28V25H31V23Z" fill="#FAC134"/>
</svg>
