<svg width="17" height="16" viewBox="0 0 17 16" fill="none" xmlns="http://www.w3.org/2000/svg">
<path d="M14.7125 10.4528L14.7126 10.4527C15.1036 10.4076 15.398 10.0799 15.398 9.69057C15.398 9.40316 15.2365 9.14126 14.9747 9.00818L14.9743 9.00799C14.8532 8.94518 14.7744 8.82249 14.7691 8.68528C14.7638 8.54825 14.8327 8.41937 14.9487 8.34804C15.2558 8.15851 15.4267 7.82005 15.3936 7.46429L15.3936 7.46424C15.3502 6.99209 14.9093 6.61558 14.3829 6.61558H9.85587C9.73149 6.61558 9.61489 6.55417 9.54379 6.45205L9.54355 6.4517C9.47317 6.34878 9.45803 6.21797 9.50175 6.10221M14.7125 10.4528L9.54865 6.11953M14.7125 10.4528C14.5665 10.4702 14.443 10.5693 14.396 10.7096L14.3959 10.7098C14.3497 10.8499 14.3884 11.0037 14.4959 11.1052L14.496 11.1053C14.6533 11.2533 14.7401 11.452 14.7401 11.6643C14.7401 12.0536 14.4457 12.3813 14.0554 12.4264L14.0553 12.4264C13.9093 12.4438 13.7858 12.543 13.7388 12.6832L13.7387 12.6835C13.6925 12.8236 13.7311 12.9774 13.8387 13.0789L13.8387 13.0789C14.0421 13.2706 14.1238 13.5387 14.0624 13.8166L14.0624 13.8167C13.9871 14.1579 13.6534 14.4103 13.2632 14.4103H7.2243C6.96355 14.4103 6.61108 14.3489 6.28474 14.2483C5.95655 14.1472 5.66503 14.0096 5.51891 13.8632L5.51874 13.863C5.41027 13.7553 5.24681 13.7236 5.10604 13.7811L5.10591 13.7812C4.96409 13.8396 4.87166 13.9783 4.87166 14.1314C4.87166 14.6478 4.45129 15.0682 3.93482 15.0682H1.96113C1.44466 15.0682 1.02429 14.6478 1.02429 14.1314V8.8682C1.02429 8.35172 1.44466 7.93135 1.96113 7.93135H4.87166L14.7125 10.4528ZM9.50175 6.10221C9.5018 6.10208 9.50185 6.10195 9.5019 6.10181L9.54865 6.11953M9.50175 6.10221C9.50168 6.10239 9.50163 6.10253 9.5016 6.10262L9.54865 6.11953M9.50175 6.10221C9.50196 6.10165 9.50233 6.10066 9.50286 6.09923C9.51835 6.05757 9.6699 5.6501 9.82082 5.11234C9.97887 4.54918 10.1348 3.84789 10.1348 3.2761C10.1348 2.75178 9.90213 2.26898 9.62292 1.91617C9.4835 1.74 9.33358 1.59767 9.19753 1.49986C9.05908 1.40031 8.94269 1.35242 8.86903 1.35242C8.61401 1.35242 8.39673 1.43917 8.26111 1.51053M9.54865 6.11953C9.54878 6.11918 9.54919 6.11807 9.54988 6.11623C9.58122 6.03197 10.1848 4.40927 10.1848 3.2761C10.1848 2.19847 9.22956 1.30242 8.86903 1.30242C8.5855 1.30242 8.34797 1.40505 8.21111 1.48069M8.26111 1.51053V1.48069H8.21111M8.26111 1.51053C8.25215 1.51525 8.24354 1.5199 8.2353 1.52446L8.21111 1.48069M8.26111 1.51053V3.60503C8.26111 3.65974 8.24898 3.71414 8.22638 3.76388L8.22626 3.76414L6.25257 8.04046L6.25249 8.04063C6.21626 8.11837 6.155 8.18209 6.07819 8.22016L6.07821 8.22015L6.05585 8.17543L6.07803 8.22024L8.21111 1.48069M13.873 13.0425C13.7796 12.9544 13.7461 12.8208 13.7862 12.6991L13.873 13.0425ZM13.873 13.0425C14.0895 13.2465 14.1763 13.5327 14.1112 13.8274L13.873 13.0425ZM16.1484 7.39459L16.1484 7.39454C16.0689 6.53051 15.292 5.85767 14.3829 5.85767H10.388C10.5901 5.23373 10.8927 4.15321 10.8927 3.2761C10.8927 2.54863 10.5839 1.87979 10.1798 1.39325C9.9776 1.14983 9.75062 0.950851 9.52467 0.812411C9.29932 0.674346 9.07171 0.594531 8.86903 0.594531C8.17547 0.594531 7.67826 0.980834 7.64709 1.00505L7.6463 1.00566L7.6463 1.00566L7.64573 1.00611C7.5555 1.07814 7.50323 1.18728 7.50323 1.30242V3.52234L5.62954 7.57996V7.55239C5.62954 7.3432 5.45978 7.17344 5.25059 7.17344H1.96113C1.0263 7.17347 0.266406 7.93336 0.266406 8.8682V14.1314C0.266406 15.0662 1.0263 15.8261 1.96113 15.8261H3.93482C4.64794 15.8261 5.26005 15.3832 5.50987 14.7581C6.05891 15.0273 6.77349 15.1682 7.2243 15.1682H13.2631C14.0013 15.1682 14.6499 14.6707 14.8027 13.9803L14.8027 13.9803C14.8771 13.6426 14.8394 13.3024 14.7015 13.0026C15.1793 12.7427 15.498 12.2369 15.498 11.6643C15.498 11.4405 15.4504 11.2254 15.36 11.0289C15.8378 10.7684 16.1559 10.2632 16.1559 9.69057C16.1559 9.29794 16.0059 8.93091 15.7458 8.6536C16.0417 8.3112 16.191 7.8616 16.1484 7.39459ZM15.448 9.69057C15.448 10.1057 15.1342 10.4544 14.7184 10.5024L14.9973 8.96361C15.2756 9.10507 15.448 9.38401 15.448 9.69057Z" fill="white" stroke="white" stroke-width="0.1"/>
<path d="M5.24693 7.83477C5.03773 7.83477 4.86797 8.00453 4.86797 8.21372V14.1348C4.86797 14.344 5.03773 14.5137 5.24693 14.5137C5.45612 14.5137 5.62589 14.344 5.62589 14.1348V8.21372C5.62589 8.00453 5.45612 7.83477 5.24693 7.83477Z" fill="white" stroke="white" stroke-width="0.1"/>
</svg>
