<svg width="18" height="15" viewBox="0 0 18 15" fill="none" xmlns="http://www.w3.org/2000/svg">
<path d="M17.8918 7.73859C17.6971 7.40664 17.2428 7.28216 16.875 7.48963L14.4087 8.85892L13.7813 9.21162V12.4896L14.3654 12.8216C14.3871 12.8216 14.3871 12.8423 14.4087 12.8423L16.8317 14.1909C16.9399 14.2739 17.0914 14.3154 17.2428 14.3154C17.6539 14.3154 17.9784 14.0041 17.9784 13.61V10.8299L18 8.09129C18 7.9668 17.9784 7.84232 17.8918 7.73859Z" fill="white"/>
<path d="M3.48335 6.6805C5.40881 6.6805 6.96648 5.18672 6.96648 3.34025C6.96648 1.49378 5.40881 0 3.48335 0C1.55789 0 0.000219656 1.49378 0.000219656 3.34025C-0.0214147 5.18672 1.55789 6.6805 3.48335 6.6805ZM3.48335 1.97095C4.28382 1.97095 4.91122 2.59336 4.91122 3.34025C4.91122 4.10788 4.26219 4.70954 3.48335 4.70954C2.70451 4.70954 2.05548 4.08714 2.05548 3.34025C2.03385 2.57261 2.68288 1.97095 3.48335 1.97095Z" fill="white"/>
<path d="M12.3102 6.86722C11.7477 7.13693 11.1203 7.3029 10.4496 7.3029C9.62751 7.3029 8.84867 7.07469 8.19964 6.65975H5.73332C5.08429 7.07469 4.30546 7.3029 3.48335 7.3029C2.81269 7.3029 2.18529 7.15768 1.6228 6.86722C1.12521 7.13693 0.779056 7.67635 0.779056 8.25726V13.3195C0.779056 14.2531 1.57953 15 2.53144 15H11.4232C12.3967 15 13.1755 14.2324 13.1755 13.3195V8.25726C13.1539 7.67635 12.8078 7.13693 12.3102 6.86722Z" fill="white"/>
<path d="M10.4496 6.6805C12.3751 6.6805 13.9327 5.18672 13.9327 3.34025C13.9327 1.49378 12.3751 0 10.4496 0C8.52415 0 6.96648 1.49378 6.96648 3.34025C6.96648 5.18672 8.52415 6.6805 10.4496 6.6805ZM10.4496 1.97095C11.2501 1.97095 11.8775 2.59336 11.8775 3.34025C11.8775 4.10788 11.2284 4.70954 10.4496 4.70954C9.67077 4.70954 9.02174 4.08714 9.02174 3.34025C9.02174 2.57261 9.64914 1.97095 10.4496 1.97095Z" fill="white"/>
</svg>
