<?xml version="1.0" standalone="no"?>
<!DOCTYPE svg PUBLIC "-//W3C//DTD SVG 20010904//EN"
 "http://www.w3.org/TR/2001/REC-SVG-20010904/DTD/svg10.dtd">
<svg version="1.0" xmlns="http://www.w3.org/2000/svg"
 width="168.000000pt" height="168.000000pt" viewBox="0 0 168.000000 168.000000"
 preserveAspectRatio="xMidYMid meet">
<metadata>
Created by potrace 1.11, written by Peter Selinger 2001-2013
</metadata>
<g transform="translate(0.000000,168.000000) scale(0.100000,-0.100000)"
fill="#000000" stroke="none">
<path d="M670 1609 c-41 -10 -84 -23 -95 -28 -106 -48 -161 -75 -165 -81 -3
-3 -22 -18 -44 -33 -59 -39 -132 -113 -182 -182 -24 -35 -44 -66 -44 -70 0 -4
-9 -20 -20 -35 -12 -17 -16 -31 -11 -35 6 -3 130 -6 275 -6 l266 0 11 -42 c7
-23 13 -49 14 -57 1 -8 5 -22 8 -30 10 -24 54 -190 63 -240 3 -13 9 -29 13
-35 7 -9 18 -52 23 -92 1 -7 4 -13 8 -13 5 0 9 -20 11 -62 0 -10 4 -18 9 -18
4 0 7 -8 5 -18 -1 -9 1 -21 5 -27 12 -15 20 -75 10 -75 -9 0 -46 90 -42 103 1
4 -3 7 -8 7 -6 0 -10 6 -10 13 0 8 -6 27 -14 43 -8 16 -40 92 -71 169 -31 77
-63 154 -70 170 -7 17 -20 46 -28 66 l-15 36 -253 -1 -253 -1 -8 -30 c-8 -28
-16 -94 -19 -160 -2 -45 10 -135 27 -196 8 -30 16 -58 17 -64 8 -31 73 -155
103 -194 59 -77 138 -155 190 -188 103 -66 212 -115 284 -128 14 -3 48 -9 75
-14 51 -10 188 -8 260 4 195 31 414 168 520 326 16 24 32 46 36 49 9 9 69 138
72 157 1 10 5 23 9 28 33 53 39 336 7 396 -12 23 -510 22 -517 -1 -2 -8 -12
-34 -23 -57 -10 -24 -19 -45 -19 -48 0 -3 -8 -24 -19 -48 -10 -23 -26 -62 -36
-87 -10 -25 -26 -63 -36 -85 -9 -22 -27 -65 -39 -95 -11 -30 -28 -68 -36 -83
-8 -16 -14 -35 -14 -42 0 -7 -7 -15 -15 -19 -8 -3 -15 -2 -15 1 0 8 30 123 38
143 3 8 4 21 3 28 -1 6 3 12 9 12 6 0 9 4 6 8 -3 5 4 38 14 73 11 35 20 65 20
67 0 2 2 9 5 20 1 4 5 26 10 50 4 23 11 42 15 42 5 0 7 8 5 18 -1 9 1 22 5 27
7 9 13 33 26 98 3 15 12 43 20 63 l14 34 213 0 c116 -1 238 -1 269 0 l56 0
-15 40 c-9 22 -20 40 -25 40 -4 0 -8 6 -8 13 0 7 -23 42 -51 77 -53 65 -119
135 -119 125 0 -3 -8 3 -18 13 -38 35 -60 50 -66 45 -3 -4 -6 -2 -6 4 0 14
-165 88 -230 103 -30 7 -65 16 -78 21 -41 16 -231 9 -312 -12z"/>
</g>
</svg>
