<?xml version="1.0" encoding="utf-8"?>
<!-- Generator: Adobe Illustrator 21.0.0, SVG Export Plug-In . SVG Version: 6.00 Build 0)  -->
<svg version="1.1" id="Слой_1" xmlns="http://www.w3.org/2000/svg" xmlns:xlink="http://www.w3.org/1999/xlink" x="0px" y="0px"
	 viewBox="0 0 170 49.428" enable-background="new 0 0 170 49.428" xml:space="preserve">
<g>
	<g>
		<polygon fill-rule="evenodd" clip-rule="evenodd" fill="#0057A4" points="59.86,15.25 59.86,18.746 66.838,18.746 66.838,32.83 
			71.043,32.83 71.043,18.746 78.018,18.746 78.018,15.25 		"/>
		<path fill-rule="evenodd" clip-rule="evenodd" fill="#0057A4" d="M84.413,25.154H77.55c0-1.216,0.481-2.28,2.128-2.28h2.38
			C83.856,22.875,84.413,23.939,84.413,25.154L84.413,25.154z M88.441,27.485v-2.128c0-2.508-1.242-5.091-5.37-5.091h-4.482
			c-3.749,0-5.243,2.407-5.243,4.61v3.166c0,2.735,1.647,4.788,5.167,4.788h4.659c4.231,0,5.269-1.9,5.269-4.104h-4.028
			c0,0.988-0.482,1.495-1.495,1.495h-3.368c-1.722,0-2.001-1.165-2.001-2.254v-0.481H88.441z"/>
		<polygon fill-rule="evenodd" clip-rule="evenodd" fill="#0057A4" points="103.77,20.316 99.189,20.316 96.323,24.116 
			93.359,20.316 88.777,20.316 93.653,26.295 88.288,32.83 92.82,32.83 96.274,28.397 99.728,32.83 104.26,32.83 98.896,26.295 		
			"/>
		<path fill-rule="evenodd" clip-rule="evenodd" fill="#0057A4" d="M105.995,15.25v17.58h4.205V18.746h0.557l4.533,14.084
			c0.968,0,1.935,0,2.903,0c3.383,0,3.842-0.918,4.747-4.084l2.861-10.001h0.557V32.83h4.205V15.25c-1.695,0-3.39,0-5.084,0
			c-0.775,0-2.656-0.213-3.74,2.409c-1.111,3.892-2.222,7.783-3.333,11.675c-0.085,0-0.169,0-0.253,0
			c-1.191-3.49-2.064-7.963-3.372-11.768c-1.028-2.485-3.132-2.316-3.518-2.316H105.995z"/>
		<path fill-rule="evenodd" clip-rule="evenodd" fill="#0057A4" d="M136.058,23.939v-0.405c0-0.481,0.279-0.608,1.621-0.608h2.962
			c1.596,0,2.305,0.254,2.305,1.52V24.8h-2.331h-3.595c-3.926,0-5.067,1.242-5.067,3.319v1.52c0,2.178,1.647,3.192,4.205,3.192
			c5.858,0,6.041,0,10.992,0v-8.106c0-2.432-1.368-4.407-5.319-4.407h-4.71c-3.951,0-5.066,1.571-5.066,3.622H136.058
			L136.058,23.939z M138.06,27.409h2.836h2.052v2.812h-2.052h-2.836c-1.52,0-2.001-0.38-2.001-1.393
			C136.058,27.738,136.59,27.409,138.06,27.409z"/>
		<path fill-rule="evenodd" clip-rule="evenodd" fill="#0057A4" d="M148.544,20.316V32.83c6.448,0,7.946,0,14.394,0
			c0.339,0,7.062,0.131,7.062-5.43v-7.084h-4.205c0,2.384,0,4.768,0,7.151c0,2.409-2.619,2.474-2.857,2.474h-1.553v-9.626h-4.205
			v9.626h-4.431v-9.626H148.544z"/>
	</g>
	<path fill-rule="evenodd" clip-rule="evenodd" fill="#1B5CA6" d="M48.643,18.535c0.512,1.976,0.785,4.047,0.785,6.179
		c0,13.612-11.102,24.714-24.714,24.714C11.102,49.428,0,38.326,0,24.714c0-2.132,0.273-4.203,0.785-6.179h15.505l8.424,21.158
		l8.424-21.158H48.643z"/>
	<path fill-rule="evenodd" clip-rule="evenodd" fill="#3290CC" d="M24.714,0c10.338,0,19.226,6.403,22.904,15.446H30.892
		l-6.179,23.485l-6.179-23.485H1.81C5.488,6.403,14.376,0,24.714,0z"/>
</g>
</svg>
