<?xml version="1.0" encoding="utf-8"?>
<!-- Generator: Adobe Illustrator 21.0.0, SVG Export Plug-In . SVG Version: 6.00 Build 0)  -->
<svg version="1.1" id="Слой_1" xmlns="http://www.w3.org/2000/svg" xmlns:xlink="http://www.w3.org/1999/xlink" x="0px" y="0px"
	 viewBox="0 0 17.78 20" enable-background="new 0 0 17.78 20" xml:space="preserve">
<g>
	<path d="M17.22,5.556h-2.066c0.263-0.52,0.425-1.099,0.425-1.721C15.579,1.717,13.862,0,11.744,0
		c-1.379,0-2.27,0.482-2.854,1.207C8.306,0.482,7.415,0,6.036,0C3.918,0,2.201,1.717,2.201,3.835c0,0.622,0.162,1.201,0.425,1.721
		H0.56C0.251,5.556,0,5.806,0,6.116v2.214c0,0.309,0.251,0.56,0.56,0.56H17.22c0.309,0,0.56-0.251,0.56-0.56V6.116
		C17.78,5.806,17.529,5.556,17.22,5.556z M10.586,2.461c0.082-0.085,0.331-0.345,1.158-0.345c0.948,0,1.719,0.771,1.719,1.719
		c0,0.948-0.771,1.719-1.719,1.719H9.963C9.953,4.392,10.045,3.026,10.586,2.461z M6.036,2.116c0.827,0,1.076,0.26,1.158,0.345
		c0.541,0.565,0.633,1.931,0.623,3.093H6.036c-0.948,0-1.719-0.771-1.719-1.719C4.317,2.887,5.088,2.116,6.036,2.116z"/>
	<path d="M7.212,10.001H1.674c-0.31,0-0.56,0.251-0.56,0.56v8.878c0,0.31,0.251,0.56,0.56,0.56h5.538
		c0.31,0,0.56-0.251,0.56-0.56v-8.878C7.772,10.252,7.521,10.001,7.212,10.001z"/>
	<path d="M16.112,10.001h-5.556c-0.304,0-0.551,0.247-0.551,0.551v8.896c0,0.304,0.247,0.551,0.551,0.551h5.556
		c0.304,0,0.551-0.247,0.551-0.551v-8.896C16.663,10.248,16.416,10.001,16.112,10.001z"/>
</g>
</svg>
