<?xml version="1.0" encoding="utf-8"?>
<!-- Generator: Adobe Illustrator 21.0.0, SVG Export Plug-In . SVG Version: 6.00 Build 0)  -->
<svg version="1.1" id="Слой_1" xmlns="http://www.w3.org/2000/svg" xmlns:xlink="http://www.w3.org/1999/xlink" x="0px" y="0px"
	 viewBox="0 0 20 20" enable-background="new 0 0 20 20" xml:space="preserve">
<g>
	<path d="M10,2c4.411,0,8,3.589,8,8s-3.589,8-8,8s-8-3.589-8-8S5.589,2,10,2 M10,0C4.477,0,0,4.477,0,10
		c0,5.523,4.477,10,10,10c5.523,0,10-4.477,10-10C20,4.477,15.523,0,10,0L10,0z"/>
</g>
<g>
	<path d="M6.656,7.344c0.568-1.448,1.723-2.172,3.464-2.172c1.017,0,1.818,0.252,2.404,0.756
		c0.586,0.504,0.879,1.144,0.879,1.919c0,0.31-0.039,0.599-0.116,0.866c-0.078,0.267-0.166,0.484-0.265,0.652
		c-0.099,0.168-0.241,0.334-0.427,0.498c-0.185,0.164-0.338,0.282-0.458,0.355c-0.121,0.073-0.291,0.172-0.511,0.297
		c-0.22,0.125-0.364,0.209-0.433,0.252c-0.414,0.25-0.62,0.525-0.62,0.827c0,0.189-0.037,0.321-0.11,0.394
		c-0.074,0.073-0.205,0.11-0.395,0.11H9.305c-0.181,0-0.31-0.037-0.388-0.11c-0.078-0.073-0.116-0.205-0.116-0.394
		c0-0.543,0.101-0.97,0.304-1.28S9.59,9.739,9.951,9.515c0.06-0.034,0.17-0.099,0.33-0.194c0.159-0.095,0.271-0.164,0.336-0.207
		c0.065-0.043,0.155-0.112,0.271-0.207s0.198-0.181,0.246-0.259s0.093-0.181,0.136-0.31s0.064-0.267,0.064-0.414
		c0-0.302-0.105-0.543-0.316-0.724c-0.211-0.181-0.52-0.271-0.924-0.271c-0.414,0-0.737,0.086-0.969,0.258
		C8.891,7.361,8.693,7.633,8.53,8.003C8.443,8.201,8.355,8.322,8.264,8.365C8.174,8.408,8.038,8.4,7.858,8.339L6.978,8.016
		C6.625,7.886,6.517,7.663,6.656,7.344z M9.835,12.656c0.37,0,0.627,0.069,0.769,0.207c0.142,0.138,0.213,0.392,0.213,0.763v0.232
		c0,0.371-0.071,0.625-0.213,0.763s-0.399,0.207-0.769,0.207H9.576c-0.371,0-0.627-0.069-0.769-0.207s-0.213-0.392-0.213-0.763
		v-0.232c0-0.371,0.071-0.625,0.213-0.763c0.142-0.138,0.398-0.207,0.769-0.207H9.835z"/>
</g>
</svg>
