<?xml version="1.0" encoding="utf-8"?>
<!-- Generator: Adobe Illustrator 21.0.0, SVG Export Plug-In . SVG Version: 6.00 Build 0)  -->
<svg version="1.1" id="Слой_1" xmlns="http://www.w3.org/2000/svg" xmlns:xlink="http://www.w3.org/1999/xlink" x="0px" y="0px"
	 viewBox="0 0 20 20" enable-background="new 0 0 20 20" xml:space="preserve">
<g>
	<path fill="#CACACA" d="M10,1c4.963,0,9,4.037,9,9c0,4.963-4.037,9-9,9s-9-4.037-9-9C1,5.037,5.037,1,10,1 M10,0
		C4.477,0,0,4.477,0,10c0,5.523,4.477,10,10,10c5.523,0,10-4.477,10-10C20,4.477,15.523,0,10,0L10,0z"/>
</g>
<g>
	<g>
		<g>
			<path fill="#9B9B9B" d="M6.797,7.311c0.545-1.426,1.651-2.139,3.318-2.139c0.968,0,1.732,0.253,2.294,0.758
				c0.562,0.505,0.842,1.143,0.842,1.912c0,0.225-0.022,0.441-0.065,0.648c-0.043,0.207-0.084,0.382-0.123,0.525
				c-0.039,0.142-0.119,0.294-0.24,0.454c-0.121,0.16-0.207,0.277-0.259,0.35c-0.052,0.073-0.165,0.177-0.337,0.311
				c-0.173,0.134-0.279,0.216-0.317,0.246c-0.039,0.03-0.16,0.105-0.363,0.227c-0.204,0.121-0.309,0.186-0.318,0.194
				c-0.32,0.208-0.566,0.417-0.738,0.629c-0.173,0.212-0.259,0.482-0.259,0.81c0,0.13-0.024,0.216-0.071,0.259
				s-0.132,0.065-0.253,0.065H9.506c-0.121,0-0.206-0.022-0.253-0.065c-0.048-0.043-0.072-0.13-0.072-0.259
				c0-0.57,0.117-1.015,0.35-1.335c0.233-0.32,0.566-0.622,0.998-0.907c0.527-0.345,0.864-0.605,1.011-0.778
				c0.32-0.363,0.48-0.804,0.48-1.322c0-0.475-0.169-0.864-0.506-1.167c-0.337-0.302-0.812-0.454-1.426-0.454
				c-0.579,0-1.037,0.121-1.374,0.363C8.379,6.879,8.111,7.233,7.912,7.7C7.86,7.821,7.806,7.896,7.75,7.927
				c-0.056,0.03-0.145,0.024-0.266-0.02L7.005,7.738c-0.13-0.043-0.21-0.095-0.24-0.156C6.734,7.523,6.745,7.432,6.797,7.311z
				 M9.753,13.416c0.251,0,0.423,0.047,0.518,0.142c0.095,0.095,0.142,0.268,0.142,0.518v0.104c0,0.251-0.047,0.421-0.142,0.512
				c-0.095,0.091-0.268,0.136-0.518,0.136H9.675c-0.251,0-0.423-0.045-0.518-0.136c-0.095-0.091-0.142-0.261-0.142-0.512v-0.104
				c0-0.251,0.047-0.423,0.142-0.518c0.095-0.095,0.268-0.142,0.518-0.142H9.753z"/>
		</g>
	</g>
</g>
</svg>
