<?xml version="1.0" encoding="utf-8"?>
<!-- Generator: Adobe Illustrator 21.0.0, SVG Export Plug-In . SVG Version: 6.00 Build 0)  -->
<svg version="1.1" id="Слой_1" xmlns="http://www.w3.org/2000/svg" xmlns:xlink="http://www.w3.org/1999/xlink" x="0px" y="0px"
	 viewBox="0 0 20 20" enable-background="new 0 0 20 20" xml:space="preserve">
<g>
	<path d="M10,2c1.852,0,3.359,1.507,3.359,3.359S11.852,8.718,10,8.718S6.641,7.211,6.641,5.359S8.148,2,10,2 M10,0
		C7.04,0,4.641,2.399,4.641,5.359S7.04,10.718,10,10.718s5.359-2.399,5.359-5.359S12.96,0,10,0L10,0z"/>
</g>
<path fill="none" d="M7.669,12.333H7.055C4.268,12.333,2,14.601,2,17.388V18h16v-0.612c0-2.787-2.268-5.055-5.055-5.055h-0.614
	c-0.734,0.246-1.516,0.385-2.331,0.385S8.402,12.579,7.669,12.333z"/>
<path d="M15.082,10.668c-0.775,0.742-1.711,1.316-2.751,1.665h0.614c2.787,0,5.055,2.268,5.055,5.055V18H2v-0.612
	c0-2.787,2.268-5.055,5.055-5.055h0.614c-1.04-0.349-1.975-0.922-2.751-1.665C2.074,11.579,0,14.252,0,17.388v1.26
	C0,19.391,0.608,20,1.352,20h17.296C19.391,20,20,19.391,20,18.648v-1.26C20,14.252,17.926,11.579,15.082,10.668z"/>
</svg>
