<?xml version="1.0" encoding="utf-8"?>
<!-- Generator: Adobe Illustrator 21.0.0, SVG Export Plug-In . SVG Version: 6.00 Build 0)  -->
<svg version="1.1" id="Слой_1" xmlns="http://www.w3.org/2000/svg" xmlns:xlink="http://www.w3.org/1999/xlink" x="0px" y="0px"
	 viewBox="0 0 18.697 20" enable-background="new 0 0 18.697 20" xml:space="preserve">
<g>
	<path d="M3.386,2.557l2.266,2.976c-0.936,1.129-1.368,2.993,0.146,4.97l0.056,0.073l0.063,0.068l2.753,2.98
		l0.04,0.043l0.042,0.041c0.829,0.798,1.911,1.238,3.046,1.238c0.685,0,1.339-0.166,1.873-0.467l2.499,2.374
		C14.793,17.846,14.087,18,13.538,18c-0.08,0-0.16-0.003-0.24-0.008C10.154,17.789,2.055,9.242,2,5.225
		C1.986,4.213,2.557,3.462,3.386,2.557 M3.448,0C3.136,0,2.855,0.143,2.665,0.368L2.601,0.445C1.761,1.456-0.032,2.873,0,5.253
		c0.067,4.892,8.884,14.458,13.169,14.735C13.292,19.996,13.415,20,13.538,20c1.212,0,2.495-0.431,4.74-2.241
		c0.237-0.175,0.401-0.45,0.417-0.771c0.017-0.303-0.099-0.584-0.302-0.779l-3.954-3.757c-0.165-0.151-0.383-0.25-0.625-0.263
		c-0.02-0.001-0.04-0.002-0.06-0.002c-0.251,0-0.482,0.091-0.66,0.242c-0.075,0.067-0.239,0.193-0.239,0.193
		c-0.212,0.191-0.604,0.326-1.057,0.326c-0.53,0-1.146-0.184-1.659-0.679l-2.753-2.98C6.629,8.299,6.634,7.434,7.233,6.762
		c0.246-0.218,0.156-0.184,0.4-0.404c0.195-0.172,0.314-0.42,0.33-0.694C7.979,5.391,7.885,5.142,7.722,4.95L4.269,0.415
		C4.094,0.182,3.818,0.019,3.504,0.002C3.485,0.001,3.467,0,3.448,0L3.448,0z"/>
</g>
<g>
	<path d="M17.433,7.752c-0.39,0.39-1.024,0.39-1.414,0l-3.786-3.786c-0.39-0.39-0.39-1.024,0-1.414
		c0.39-0.39,1.024-0.39,1.414,0l3.786,3.786C17.824,6.728,17.824,7.361,17.433,7.752z"/>
</g>
<g>
	<path d="M13.795,9.77c-0.39,0.39-1.024,0.39-1.414,0l-2.166-2.166c-0.39-0.39-0.39-1.024,0-1.414
		c0.39-0.39,1.024-0.39,1.414,0l2.166,2.166C14.185,8.746,14.185,9.379,13.795,9.77z"/>
</g>
</svg>
