<?xml version="1.0" encoding="utf-8"?>
<!-- Generator: Adobe Illustrator 21.0.0, SVG Export Plug-In . SVG Version: 6.00 Build 0)  -->
<svg version="1.1" id="Слой_1" xmlns="http://www.w3.org/2000/svg" xmlns:xlink="http://www.w3.org/1999/xlink" x="0px" y="0px"
	 viewBox="0 0 27.962 20" enable-background="new 0 0 27.962 20" xml:space="preserve">
<g>
	<path fill="#fbc217" d="M22.023,12.646c-0.141,0-0.284-0.03-0.42-0.093c-0.501-0.233-0.719-0.828-0.486-1.329l4.938-10.645
		c0.233-0.5,0.828-0.719,1.328-0.486c0.501,0.233,0.719,0.828,0.486,1.329l-4.938,10.645C22.761,12.431,22.401,12.646,22.023,12.646
		z"/>
</g>
<g>
	<path fill="#fbc217" d="M21.994,12.646h-12c-0.552,0-1-0.448-1-1s0.448-1,1-1h12c0.553,0,1,0.448,1,1S22.546,12.646,21.994,12.646z
		"/>
</g>
<path fill="#fbc217" d="M10.888,11.224L5.935,0.579C5.767,0.22,5.412,0.014,5.041,0.008C5.026,0.008,5.014,0,4.999,0H1
	C0.448,0,0,0.448,0,1s0.448,1,1,1h3.389l4.684,10.067c0.17,0.364,0.53,0.579,0.908,0.579c0.141,0,0.284-0.03,0.42-0.093
	C10.902,12.32,11.12,11.725,10.888,11.224z"/>
<g>
	<path fill="#fbc217" d="M11.483,15.813c0.603,0,1.094,0.491,1.094,1.094S12.086,18,11.483,18s-1.094-0.491-1.094-1.094
		S10.88,15.813,11.483,15.813 M11.483,13.813c-1.709,0-3.094,1.385-3.094,3.094c0,1.709,1.385,3.094,3.094,3.094
		s3.094-1.385,3.094-3.094C14.577,15.198,13.192,13.813,11.483,13.813L11.483,13.813z"/>
</g>
<g>
	<path fill="#fbc217" d="M20.484,15.813c0.603,0,1.094,0.491,1.094,1.094S21.087,18,20.484,18s-1.094-0.491-1.094-1.094
		S19.881,15.813,20.484,15.813 M20.484,13.813c-1.709,0-3.094,1.385-3.094,3.094c0,1.709,1.385,3.094,3.094,3.094
		c1.709,0,3.094-1.385,3.094-3.094C23.578,15.198,22.193,13.813,20.484,13.813L20.484,13.813z"/>
</g>
<rect fill="#fbc217" x="8.509" y="6.645" width="15.069" height="2"/>
<rect fill="#fbc217" x="6.618" y="2.645" width="19.297" height="2"/>
</svg>
