<?xml version="1.0" encoding="utf-8"?>
<!-- Generator: Adobe Illustrator 21.0.0, SVG Export Plug-In . SVG Version: 6.00 Build 0)  -->
<svg version="1.1" id="Слой_1" xmlns="http://www.w3.org/2000/svg" xmlns:xlink="http://www.w3.org/1999/xlink" x="0px" y="0px"
	 viewBox="0 0 19.984 20" enable-background="new 0 0 19.984 20" xml:space="preserve">
<path d="M12.306,0C8.065,0,4.627,3.438,4.627,7.679c0,1.764,0.601,3.383,1.601,4.68l-5.934,5.934
	c-0.391,0.391-0.391,1.023,0,1.414C0.488,19.902,0.744,20,1,20s0.512-0.098,0.707-0.293l5.937-5.937
	c1.293,0.991,2.906,1.587,4.662,1.587c4.241,0,7.679-3.438,7.679-7.679S16.546,0,12.306,0z M12.306,13.358
	c-3.131,0-5.679-2.547-5.679-5.679S9.174,2,12.306,2s5.679,2.547,5.679,5.679S15.437,13.358,12.306,13.358z"/>
</svg>
