<?xml version="1.0" encoding="utf-8"?>
<!-- Generator: Adobe Illustrator 21.0.0, SVG Export Plug-In . SVG Version: 6.00 Build 0)  -->
<svg version="1.1" id="Слой_1" xmlns="http://www.w3.org/2000/svg" xmlns:xlink="http://www.w3.org/1999/xlink" x="0px" y="0px"
	 viewBox="0 0 20 20" enable-background="new 0 0 20 20" xml:space="preserve">
<g>
	<g>
		<rect x="15.279" y="9.118" fill="#3290CC" width="2" height="2"/>
		<rect x="5.867" y="14.908" fill="#3290CC" width="8.266" height="2"/>
		<path fill="#3290CC" d="M18.91,6.367h-0.737V1.054C18.173,0.472,17.701,0,17.119,0H2.881C2.299,0,1.827,0.472,1.827,1.054v5.313
			H1.09C0.488,6.367,0,6.855,0,7.457v7.81c0,0.602,0.488,1.09,1.09,1.09h1.631v2.817C2.721,19.63,3.091,20,3.547,20h12.906
			c0.456,0,0.826-0.37,0.826-0.826v-2.817h1.631c0.602,0,1.09-0.488,1.09-1.09v-7.81C20,6.855,19.512,6.367,18.91,6.367z M3.827,2
			h12.346v4.347H3.827V2z M15.279,18H4.721v-4.184h10.558V18z M18,14.357h-0.721v-2.542H2.721v2.542H2v-5.99h16V14.357z"/>
	</g>
</g>
</svg>
