<?xml version="1.0" encoding="utf-8"?>
<!-- Generator: Adobe Illustrator 21.0.0, SVG Export Plug-In . SVG Version: 6.00 Build 0)  -->
<svg version="1.1" id="Слой_1" xmlns="http://www.w3.org/2000/svg" xmlns:xlink="http://www.w3.org/1999/xlink" x="0px" y="0px"
	 viewBox="0 0 20 20" enable-background="new 0 0 20 20" xml:space="preserve">
<g>
	<path d="M13.677,8c0,0.552-0.448,1-1,1H7.323c-0.552,0-1-0.448-1-1s0.448-1,1-1h5.354
		C13.229,7,13.677,7.448,13.677,8z"/>
</g>
<path d="M7.358,15c-0.052,0-0.097-0.022-0.147-0.03V18H2V2h5.212v3h2V1.708C9.212,0.765,8.447,0,7.503,0H1.708
	C0.765,0,0,0.765,0,1.708v16.583C0,19.235,0.765,20,1.708,20h5.795c0.944,0,1.708-0.765,1.708-1.708V15H7.365H7.358z"/>
<path d="M18.292,0h-5.795c-0.944,0-1.708,0.765-1.708,1.708V5h1.771c0.081,0,0.153,0.028,0.229,0.046V2H18v16h-5.212
	v-3.015C12.763,14.99,12.739,15,12.712,15h-1.771h-0.153v3.291c0,0.944,0.765,1.708,1.708,1.708h5.795
	C19.235,20,20,19.235,20,18.292V1.708C20,0.765,19.235,0,18.292,0z"/>
<g>
	<path d="M13.677,12c0,0.552-0.448,1-1,1H7.323c-0.552,0-1-0.448-1-1s0.448-1,1-1h5.354
		C13.229,11,13.677,11.448,13.677,12z"/>
</g>
</svg>
