<?xml version="1.0" encoding="utf-8"?>
<!-- Generator: Adobe Illustrator 21.0.0, SVG Export Plug-In . SVG Version: 6.00 Build 0)  -->
<svg version="1.1" id="Слой_1" xmlns="http://www.w3.org/2000/svg" xmlns:xlink="http://www.w3.org/1999/xlink" x="0px" y="0px"
	 viewBox="0 0 27.526 20" enable-background="new 0 0 27.526 20" xml:space="preserve">
<g>
	<path d="M20.423,12.804V9.26c0-2.67-1.63-4.976-3.942-5.977V2.72c0-1.496-1.224-2.72-2.72-2.72
		s-2.72,1.224-2.72,2.72v0.563C8.728,4.284,7.098,6.59,7.098,9.26v3.545c-0.466,0.448-0.759,1.073-0.759,1.766v0.222
		c0,1.352,1.106,2.457,2.457,2.457h1.61C10.721,18.813,12.108,20,13.76,20c1.652,0,3.039-1.187,3.354-2.75h1.61
		c1.352,0,2.457-1.106,2.457-2.457v-0.222C21.182,13.878,20.888,13.252,20.423,12.804z M13.041,2.72c0-0.39,0.33-0.72,0.72-0.72
		s0.72,0.33,0.72,0.72v0.059c-0.187-0.016-0.376-0.029-0.567-0.029h-0.305c-0.191,0-0.38,0.012-0.567,0.029V2.72z M13.608,4.75
		h0.305c2.487,0,4.51,2.023,4.51,4.51v2.854H9.098V9.26C9.098,6.773,11.121,4.75,13.608,4.75z M13.76,18
		c-0.54,0-1.005-0.306-1.245-0.75h2.491C14.765,17.694,14.3,18,13.76,18z M19.182,14.793c0,0.248-0.209,0.457-0.457,0.457H8.796
		c-0.248,0-0.457-0.209-0.457-0.457v-0.222c0-0.245,0.206-0.452,0.45-0.456h9.943c0.245,0.004,0.45,0.211,0.45,0.456V14.793z"/>
</g>
<path d="M3.681,13.741l1.415-1.415c-0.419-0.429-0.68-1.015-0.68-1.661s0.261-1.232,0.68-1.661L3.681,7.588
	C2.9,8.38,2.416,9.465,2.416,10.665S2.9,12.95,3.681,13.741z"/>
<path d="M2,10.665c0-1.312,0.532-2.502,1.389-3.369L1.972,5.879C0.754,7.108,0,8.798,0,10.665
	c0,1.867,0.754,3.557,1.972,4.785l1.417-1.417C2.532,13.166,2,11.977,2,10.665z"/>
<g>
	<path fill="none" d="M24.137,14.033l-0.292-0.292c0.781-0.791,1.265-1.876,1.265-3.076s-0.484-2.285-1.265-3.076l0.292-0.292
		c0.857,0.867,1.389,2.056,1.389,3.369C25.526,11.977,24.994,13.166,24.137,14.033z"/>
	<path d="M23.845,13.741l-1.415-1.415c0.419-0.429,0.68-1.015,0.68-1.661s-0.261-1.232-0.68-1.661l1.415-1.415
		c0.781,0.791,1.265,1.876,1.265,3.076S24.626,12.95,23.845,13.741z"/>
	<path d="M25.526,10.665c0-1.312-0.532-2.502-1.389-3.369l1.417-1.417c1.218,1.228,1.972,2.919,1.972,4.785
		c0,1.867-0.754,3.557-1.972,4.785l-1.417-1.417C24.994,13.166,25.526,11.977,25.526,10.665z"/>
</g>
</svg>
