<?xml version="1.0" encoding="utf-8"?>
<!-- Generator: Adobe Illustrator 21.0.0, SVG Export Plug-In . SVG Version: 6.00 Build 0)  -->
<svg version="1.1" id="Слой_1" xmlns="http://www.w3.org/2000/svg" xmlns:xlink="http://www.w3.org/1999/xlink" x="0px" y="0px"
	 viewBox="0 0 20 20" enable-background="new 0 0 20 20" xml:space="preserve">
<path fill="#D78F00" d="M17.066,2.934C15.257,1.124,12.762,0,10,0C4.477,0,0,4.477,0,10c0,0.663,0.068,1.31,0.191,1.937h1.745h0.311
	C2.092,11.315,2,10.669,2,10c0-4.411,3.589-8,8-8c2.206,0,4.2,0.903,5.648,2.352l-1.705,1.705h3.011h2.237h0.002v-5.25L17.066,2.934
	z"/>
<path fill="#D78F00" d="M19.808,8.058h-2.056C17.908,8.681,18,9.329,18,10c0,4.411-3.589,8-8,8c-2.206,0-4.2-0.903-5.647-2.352
	l1.711-1.711H3.044H2.735H0.813H0.807c0.002,0.004,0.004,0.008,0.006,0.012v5.238l2.121-2.121C4.743,18.876,7.238,20,10,20
	c5.523,0,10-4.477,10-10C20,9.335,19.932,8.686,19.808,8.058z"/>
</svg>
