<?xml version="1.0" encoding="utf-8"?>
<!-- Generator: Adobe Illustrator 21.0.0, SVG Export Plug-In . SVG Version: 6.00 Build 0)  -->
<svg version="1.1" id="Слой_1" xmlns="http://www.w3.org/2000/svg" xmlns:xlink="http://www.w3.org/1999/xlink" x="0px" y="0px"
	 viewBox="0 0 16 16" enable-background="new 0 0 16 16" xml:space="preserve">
<path fill="#3291CD" d="M6.916,3.269l-3.17-3.17c-0.132-0.132-0.345-0.132-0.477,0l-3.17,3.17C0.002,3.366-0.027,3.51,0.026,3.637
	c0.052,0.126,0.175,0.208,0.312,0.208l2.209-0.008V16h1.922V3.845h2.209c0.136,0,0.259-0.082,0.312-0.208
	C7.042,3.51,7.013,3.366,6.916,3.269z"/>
<path fill="#3291CD" d="M15.974,12.363c-0.052-0.126-0.175-0.208-0.312-0.208l-2.209,0.008l0-12.163h-1.922l0,12.155H9.322
	c-0.136,0-0.26,0.082-0.312,0.208c-0.052,0.126-0.023,0.271,0.073,0.367l3.17,3.17c0.132,0.132,0.345,0.132,0.477,0l3.17-3.17
	C15.998,12.634,16.027,12.49,15.974,12.363z"/>
</svg>
