<?xml version="1.0" encoding="utf-8"?>
<!-- Generator: Adobe Illustrator 21.0.0, SVG Export Plug-In . SVG Version: 6.00 Build 0)  -->
<svg version="1.1" id="Слой_1" xmlns="http://www.w3.org/2000/svg" xmlns:xlink="http://www.w3.org/1999/xlink" x="0px" y="0px"
	 viewBox="0 0 20 20" enable-background="new 0 0 20 20" xml:space="preserve">
<rect fill="#0059A9" width="20" height="20"/>
<path fill="#6CCFF6" d="M10.246,8.686C10.048,8.806,9.754,8.921,9.6,9.117c-0.578,0.735-0.848,1.824-0.559,2.758
	c0.046,0.153,0.206,0.253,0.301,0.388c0.02-0.04,0.117,0,0.13-0.043c0.319-1.175,0.709-2.341,0.948-3.534
	C10.401,8.686,10.251,8.697,10.246,8.686z"/>
<path fill="#6CCFF6" d="M8.781,10.41c0.195-0.828,0.506-1.335,1.206-1.896c-0.111,0-0.232-0.011-0.344,0
	C8.56,8.631,7.801,9.976,8.05,10.97c0.127,0.509,0.457,0.885,0.86,1.25c-0.087-0.294-0.221-0.594-0.257-0.906
	C8.611,10.977,8.714,10.698,8.781,10.41z"/>
<path fill="#6CCFF6" d="M11.151,9.462c-0.026-0.185-0.182-0.39-0.257-0.56c-0.044-0.096-0.163-0.076-0.217-0.128
	c-0.352,1.177-0.749,2.366-0.991,3.576c0.06-0.018,0.162,0.029,0.216,0C10.886,11.811,11.31,10.573,11.151,9.462z"/>
<path fill="#6CCFF6" d="M12.014,9.935c-0.123-0.462-0.473-0.768-0.819-1.076c0.526,1.317,0.092,2.842-1.078,3.662
	c0.241-0.024,0.481,0.011,0.689-0.087C11.754,11.994,12.282,10.955,12.014,9.935z"/>
<path fill="#6CCFF6" d="M17.367,4.1c-0.055-0.108-0.113-0.347-0.21-0.42c-0.361-0.271-0.761-0.273-1.213-0.317
	c-0.714-0.071-1.477-0.158-2.215-0.158c-0.969,0-1.947,0.214-2.9,0.263c-0.182,0.01-0.29,0.114-0.474,0.053
	c0.17-0.283,0.432-0.613,0.474-0.949c0.012-0.084-0.169-0.242-0.211-0.316c-0.06-0.109-0.318-0.022-0.421-0.053
	C9.841,2.602,9.497,2.981,9.141,3.415C8.995,3.594,8.936,3.84,8.72,3.996C8.55,4.118,8.19,4.097,7.982,4.154
	C7.616,4.255,7.179,4.431,6.821,4.576c-1.063,0.424-2.08,1-3.057,1.633c-0.442,0.288-0.978,0.557-1.37,0.95
	C2.275,7.279,2.316,7.469,2.287,7.634C2.271,7.736,2.508,7.863,2.551,7.951C2.607,7.945,2.67,7.963,2.709,8.003
	c0.637-0.255,1.188-0.667,1.793-1.002c0.918-0.505,2.085-1.018,3.058-1.213C7.016,6.877,6.425,7.949,5.926,9.057
	c-0.876,1.948-1.535,4.081-2.057,6.169c-0.114,0.459-0.155,0.904-0.262,1.37c-0.061,0.257-0.212,0.572-0.212,0.845
	c0,0.453,0.455,0.935,0.896,1.001c0.39,0.059,0.883-0.18,1.055-0.526c0.089-0.179,0.073-0.374,0.106-0.581
	c0.086-0.561,0.201-1.163,0.317-1.739c0.364-1.826,0.869-3.646,1.475-5.378C7.35,9.911,7.389,9.543,7.561,9.269
	c0.392-0.63,1.038-1.25,1.739-1.425c1.739-0.434,3.431,0.743,3.691,2.478c0.068,0.464-0.07,0.981-0.211,1.37
	c-0.066,0.182-0.262,0.345-0.316,0.527c-0.257,0.856,0.656,1.749,1.477,1.319c0.567-0.3,0.736-1.048,0.894-1.583
	c0.455-1.516,0.017-3.201-1.106-4.323c-0.942-0.943-2.295-1.36-3.69-1.212C9.575,6.47,9.145,6.702,8.72,6.843
	C8.667,6.86,8.616,6.779,8.561,6.79C8.82,6.274,9.096,5.777,9.353,5.26c1.668-0.333,3.575-0.605,5.43-0.421
	c0.601,0.06,1.242,0.263,1.846,0.263c0.085,0,0.209-0.093,0.315-0.105c0.109-0.139,0.34-0.226,0.37-0.422
	C17.332,4.461,17.431,4.233,17.367,4.1z"/>
</svg>
