<?xml version="1.0" encoding="utf-8"?>
<!-- Generator: Adobe Illustrator 21.0.0, SVG Export Plug-In . SVG Version: 6.00 Build 0)  -->
<svg version="1.1" id="Слой_1" xmlns="http://www.w3.org/2000/svg" xmlns:xlink="http://www.w3.org/1999/xlink" x="0px" y="0px"
	 viewBox="0 0 20 18.049" enable-background="new 0 0 20 18.049" xml:space="preserve">
<rect x="3.966" fill="#CACACA" width="2.044" height="4.027"/>
<rect x="13.991" fill="#CACACA" width="2.044" height="4.027"/>
<path fill="#CACACA" d="M17.032,2.054v3.037h-4.04V2.054H7.008v3.037h-4.04V2.054H0v15.995h20V2.054H17.032z M5.014,15.066H2.969
	V13.02h2.045V15.066z M5.014,12.061H2.969v-2.045h2.045V12.061z M5.014,9.056H2.969V7.011h2.045V9.056z M8.018,15.066H5.973V13.02
	h2.045V15.066z M8.018,12.061H5.973v-2.045h2.045V12.061z M8.018,9.056H5.973V7.011h2.045V9.056z M11.023,15.066H8.978V13.02h2.045
	V15.066z M11.023,12.061H8.978v-2.045h2.045V12.061z M11.023,9.056H8.978V7.011h2.045V9.056z M14.028,15.066h-2.045V13.02h2.045
	V15.066z M14.028,12.061h-2.045v-2.045h2.045V12.061z M14.028,9.056h-2.045V7.011h2.045V9.056z M17.032,15.066h-2.045V13.02h2.045
	V15.066z M17.032,12.061h-2.045v-2.045h2.045V12.061z M17.032,9.056h-2.045V7.011h2.045V9.056z"/>
</svg>
