<?xml version="1.0" encoding="utf-8"?>
<!-- Generator: Adobe Illustrator 21.0.0, SVG Export Plug-In . SVG Version: 6.00 Build 0)  -->
<svg version="1.1" id="Слой_1" xmlns="http://www.w3.org/2000/svg" xmlns:xlink="http://www.w3.org/1999/xlink" x="0px" y="0px"
	 viewBox="0 0 16 13.125" enable-background="new 0 0 16 13.125" xml:space="preserve">
<g>
	<path fill="#CACACA" d="M11.038,8.157c0.12-0.12,0.278-0.18,0.435-0.18c0.157,0,0.315,0.06,0.435,0.18l4.032,4.032
		c0.025-0.097,0.06-0.19,0.06-0.295V8.613v-4.1V1.231c0-0.223-0.076-0.421-0.181-0.602l-5.753,5.753
		c-0.12,0.12-0.278,0.18-0.435,0.18c-0.001,0-0.002,0-0.002,0c-0.002,0-0.002,0-0.002,0H6.302c-0.019,0-0.036-0.009-0.055-0.011
		C6.187,6.546,6.127,6.539,6.07,6.516c-0.079-0.032-0.149-0.08-0.208-0.14L0.155,0.668C0.064,0.839,0,1.025,0,1.231v3.282v4.1v3.282
		c0,0.104,0.035,0.198,0.06,0.295l4.032-4.032c0.12-0.12,0.278-0.18,0.435-0.18s0.315,0.06,0.435,0.18c0.24,0.24,0.24,0.63,0,0.87
		l-4.035,4.035c0.1,0.026,0.197,0.062,0.305,0.062h13.538c0.108,0,0.205-0.036,0.305-0.062l-4.035-4.035
		C10.798,8.787,10.798,8.398,11.038,8.157z"/>
	<polygon fill="#CACACA" points="9.375,5.332 14.707,0 1.231,0 1.229,0.001 6.559,5.332 	"/>
</g>
</svg>
