<?xml version="1.0" encoding="utf-8"?>
<!-- Generator: Adobe Illustrator 21.0.0, SVG Export Plug-In . SVG Version: 6.00 Build 0)  -->
<svg version="1.1" id="Слой_1" xmlns="http://www.w3.org/2000/svg" xmlns:xlink="http://www.w3.org/1999/xlink" x="0px" y="0px"
	 viewBox="0 0 20 13" enable-background="new 0 0 20 13" xml:space="preserve">
<path fill="#CACACA" d="M15.755,9.118c-1.071,0-1.941,0.871-1.941,1.941S14.684,13,15.755,13c1.07,0,1.941-0.871,1.941-1.941
	S16.825,9.118,15.755,9.118z M15.755,11.907c-0.468,0-0.848-0.38-0.848-0.848c0-0.468,0.38-0.848,0.848-0.848
	c0.468,0,0.848,0.38,0.848,0.848C16.603,11.527,16.223,11.907,15.755,11.907z"/>
<path fill="#CACACA" d="M3.134,9.118c-1.071,0-1.941,0.871-1.941,1.941S2.064,13,3.134,13s1.941-0.871,1.941-1.941
	S4.205,9.118,3.134,9.118z M3.134,11.907c-0.468,0-0.848-0.38-0.848-0.848c0-0.468,0.38-0.848,0.848-0.848
	c0.468,0,0.848,0.38,0.848,0.848C3.982,11.527,3.603,11.907,3.134,11.907z"/>
<path fill="#CACACA" d="M19.637,8.673V6.768c0-0.243-0.197-0.44-0.44-0.44h-0.205c-0.161-0.565-0.458-1.292-1.036-2.043
	c-1.118-1.451-2.926-1.848-3.752-1.956c0,0-1.084-2.33-1.328-2.33H2.225H1.625H0.431C0.194,0,0,0.194,0,0.431v2.094v0.287v0.514
	v2.786v4.466c0,0.232,0.181,0.417,0.409,0.434c0.026-1.476,1.231-2.67,2.713-2.67c1.484,0,2.691,1.197,2.713,2.677l7.206,0
	c0,0,0,0,0,0c0.023-1.479,1.229-2.676,2.713-2.676c1.485,0,2.691,1.197,2.714,2.677h1.092c0.243,0,0.44-0.197,0.44-0.44V9.097
	C20,8.882,19.841,8.711,19.637,8.673z M14.202,6.328V3.9c0.659,0.112,1.828,0.432,2.522,1.333c0.298,0.387,0.491,0.761,0.626,1.095
	H14.202z"/>
</svg>
