<?xml version="1.0" encoding="utf-8"?>
<!-- Generator: Adobe Illustrator 21.0.0, SVG Export Plug-In . SVG Version: 6.00 Build 0)  -->
<svg version="1.1" id="Слой_1" xmlns="http://www.w3.org/2000/svg" xmlns:xlink="http://www.w3.org/1999/xlink" x="0px" y="0px"
	 viewBox="0 0 15.77 17.006" enable-background="new 0 0 15.77 17.006" xml:space="preserve">
<g>
	<path fill="#7D529E" d="M3.743,15.239c0.005-0.502,0.015-1.003,0.019-1.505c0-0.116,0.016-0.102-0.097-0.151
		c-0.623-0.248-1.202-0.56-1.714-0.998c-0.54-0.463-0.963-1.009-1.276-1.646c-0.296-0.613-0.462-1.266-0.555-1.938
		C0.087,8.739,0.067,8.476,0.067,8.213c0-0.248-0.039-0.495-0.044-0.745c-0.005-0.175-0.011-0.355-0.005-0.53
		c0.005-0.36-0.03-0.72-0.016-1.081c0.03-0.818,0.176-1.616,0.498-2.376c0.458-1.081,1.207-1.898,2.23-2.473
		C3.5,0.578,4.317,0.305,5.185,0.164C5.72,0.077,6.256,0.028,6.797,0.013c0.642-0.019,1.285-0.013,1.932-0.004
		c0.828,0.01,1.646,0.088,2.449,0.283c0.765,0.18,1.486,0.467,2.148,0.89c0.803,0.512,1.417,1.189,1.831,2.051
		c0.257,0.53,0.413,1.091,0.516,1.67c0.072,0.428,0.102,0.857,0.097,1.291c-0.005,0.457-0.014,0.914-0.044,1.367
		c-0.02,0.312-0.02,0.623-0.034,0.936c-0.054,0.861-0.229,1.694-0.609,2.473c-0.467,0.954-1.173,1.676-2.098,2.196
		c-0.764,0.429-1.582,0.697-2.439,0.843c-0.672,0.112-1.353,0.165-2.036,0.165c-0.418,0-0.837-0.005-1.256,0
		c-0.213,0-0.427,0.005-0.642-0.02c-0.069-0.005-0.116,0.015-0.16,0.069c-0.336,0.39-0.673,0.779-1.013,1.169
		c-0.42,0.481-0.838,0.964-1.252,1.441c-0.044,0.048-0.091,0.098-0.146,0.131c-0.131,0.088-0.268,0.04-0.301-0.116
		c-0.011-0.034-0.005-0.077-0.005-0.112C3.728,16.237,3.739,15.735,3.743,15.239L3.743,15.239z"/>
	<path fill="#FFFFFF" d="M3.077,4.459c0.014-0.595,0.287-1.043,0.779-1.364C4.06,2.959,4.285,2.852,4.528,2.804
		c0.253-0.054,0.497-0.02,0.711,0.141C5.379,3.047,5.496,3.173,5.613,3.3c0.39,0.428,0.721,0.891,0.988,1.407
		c0.044,0.087,0.084,0.18,0.112,0.277c0.084,0.278,0.02,0.522-0.166,0.735C6.48,5.798,6.402,5.866,6.319,5.929
		C6.241,5.984,6.164,6.041,6.09,6.109C5.919,6.27,5.871,6.465,5.925,6.689c0.019,0.092,0.052,0.18,0.088,0.262
		C6.212,7.391,6.48,7.785,6.826,8.125C7.03,8.325,7.249,8.5,7.492,8.652c0.234,0.145,0.468,0.282,0.73,0.374
		c0.244,0.088,0.429,0.034,0.589-0.17C8.88,8.768,8.939,8.677,9.017,8.593C9.163,8.437,9.328,8.32,9.538,8.272
		c0.228-0.054,0.448-0.015,0.657,0.078c0.2,0.081,0.375,0.209,0.55,0.33c0.351,0.244,0.692,0.502,1.023,0.77
		c0.088,0.073,0.166,0.156,0.239,0.248c0.17,0.224,0.205,0.473,0.131,0.735c-0.068,0.254-0.195,0.473-0.361,0.673
		c-0.288,0.35-0.637,0.613-1.07,0.755c-0.118,0.038-0.234,0.062-0.355,0.073c-0.156,0.015-0.302-0.039-0.448-0.082
		c-0.141-0.04-0.273-0.107-0.404-0.166c-0.657-0.293-1.291-0.638-1.89-1.038c-0.9-0.599-1.703-1.3-2.404-2.123
		C4.683,7.911,4.23,7.249,3.846,6.538c-0.248-0.453-0.467-0.92-0.652-1.402C3.12,4.927,3.077,4.659,3.077,4.459z"/>
	<path fill="#FFFFFF" d="M12.455,6.441c-0.006,0.16,0.013,0.278,0,0.389c-0.034,0.277-0.278,0.423-0.536,0.317
		c-0.155-0.063-0.205-0.2-0.22-0.35c-0.013-0.186-0.029-0.371-0.057-0.556c-0.098-0.57-0.254-1.12-0.56-1.616
		c-0.229-0.37-0.527-0.672-0.896-0.91C9.757,3.437,9.28,3.276,8.783,3.164C8.569,3.116,8.35,3.077,8.13,3.057
		C8.076,3.052,8.028,3.042,7.979,3.023C7.828,2.969,7.751,2.857,7.76,2.696c0.02-0.282,0.18-0.394,0.399-0.394
		c0.833-0.016,1.592,0.204,2.288,0.657c0.409,0.267,0.774,0.584,1.077,0.969C12.109,4.673,12.449,5.52,12.455,6.441z"/>
	<path fill="#FFFFFF" d="M11.193,6.352c-0.005,0.084,0.009,0.19-0.015,0.298c-0.034,0.18-0.16,0.282-0.351,0.287
		c-0.199,0.005-0.327-0.083-0.37-0.263c-0.02-0.067-0.02-0.141-0.029-0.213c-0.034-0.327-0.112-0.648-0.239-0.955
		C10.014,5.067,9.698,4.77,9.264,4.585C8.964,4.459,8.652,4.366,8.331,4.317C8.242,4.304,8.16,4.284,8.082,4.245
		c-0.04-0.02-0.074-0.044-0.098-0.078c-0.108-0.13-0.102-0.273-0.044-0.418c0.048-0.132,0.151-0.205,0.291-0.22
		C8.35,3.514,8.467,3.534,8.583,3.553c0.326,0.049,0.643,0.131,0.945,0.273c0.384,0.184,0.715,0.442,0.998,0.764
		c0.239,0.277,0.418,0.584,0.536,0.93C11.144,5.788,11.188,6.055,11.193,6.352z"/>
	<path fill="#FFFFFF" d="M9.981,6.261c0,0.097,0,0.194-0.034,0.288C9.897,6.689,9.796,6.772,9.649,6.791
		C9.499,6.81,9.377,6.757,9.294,6.63c-0.043-0.063-0.062-0.13-0.073-0.204c-0.02-0.122-0.034-0.248-0.083-0.36
		C9.036,5.818,8.842,5.671,8.588,5.603C8.54,5.589,8.486,5.579,8.437,5.57C8.398,5.56,8.354,5.55,8.315,5.541
		c-0.18-0.055-0.273-0.167-0.273-0.323c0-0.184,0.102-0.335,0.273-0.384c0.166-0.048,0.337-0.039,0.502,0.005
		C9.211,4.95,9.503,5.199,9.732,5.53C9.884,5.745,9.981,5.987,9.981,6.261z"/>
</g>
</svg>
