<?xml version="1.0" encoding="utf-8"?>
<!-- Generator: Adobe Illustrator 21.0.0, SVG Export Plug-In . SVG Version: 6.00 Build 0)  -->
<svg version="1.1" id="Слой_1" xmlns="http://www.w3.org/2000/svg" xmlns:xlink="http://www.w3.org/1999/xlink" x="0px" y="0px"
	 viewBox="0 0 16 16" enable-background="new 0 0 16 16" xml:space="preserve">
<g>
	<circle id="ellipse" fill="#0088CC" cx="8" cy="8" r="8"/>
	<path id="logo" fill="#FFFFFF" d="M7.7,10.378c-0.384,0.372-0.762,0.741-1.141,1.109c-0.131,0.128-0.278,0.2-0.469,0.191
		c-0.128-0.006-0.2-0.063-0.241-0.184C5.563,10.6,5.269,9.706,4.981,8.809C4.953,8.722,4.912,8.681,4.825,8.653
		C4.147,8.447,3.466,8.234,2.791,8.019c-0.103-0.034-0.209-0.075-0.3-0.137C2.35,7.788,2.331,7.634,2.456,7.522
		c0.116-0.103,0.253-0.191,0.397-0.247c0.831-0.328,1.666-0.647,2.5-0.969c2.116-0.816,4.231-1.634,6.347-2.45
		c0.403-0.156,0.712,0.063,0.669,0.5c-0.028,0.278-0.1,0.553-0.156,0.828c-0.459,2.169-0.919,4.341-1.381,6.509
		c-0.109,0.516-0.472,0.65-0.894,0.337c-0.709-0.522-1.419-1.047-2.128-1.572C7.775,10.431,7.741,10.406,7.7,10.378z M6.106,11.038
		c0.009-0.003,0.016-0.003,0.025-0.006c0.003-0.022,0.009-0.041,0.012-0.059c0.047-0.491,0.094-0.984,0.134-1.475
		c0.009-0.109,0.047-0.188,0.128-0.262C7.059,8.65,7.713,8.059,8.363,7.472c0.722-0.65,1.444-1.3,2.162-1.953
		c0.044-0.041,0.063-0.109,0.094-0.166c-0.069-0.006-0.141-0.034-0.203-0.019c-0.084,0.022-0.163,0.072-0.238,0.119
		C8.587,6.456,6.994,7.459,5.403,8.462C5.312,8.519,5.297,8.566,5.331,8.666C5.45,9.003,5.556,9.344,5.666,9.684
		C5.813,10.134,5.959,10.587,6.106,11.038z"/>
</g>
</svg>
