<?xml version="1.0" encoding="utf-8"?>
<!-- Generator: Adobe Illustrator 21.0.0, SVG Export Plug-In . SVG Version: 6.00 Build 0)  -->
<svg version="1.1" id="Слой_1" xmlns="http://www.w3.org/2000/svg" xmlns:xlink="http://www.w3.org/1999/xlink" x="0px" y="0px"
	 viewBox="0 0 16.595 16.595" enable-background="new 0 0 16.595 16.595" xml:space="preserve">
<path fill="#00DD69" d="M8.448,0c-4.5,0-8.147,3.619-8.147,8.084c0,1.527,0.427,2.956,1.169,4.174L0,16.595l4.51-1.433
	c1.168,0.641,2.51,1.006,3.938,1.006c4.499,0,8.147-3.619,8.147-8.084S12.948,0,8.448,0z"/>
<path fill="#FFFFFF" d="M12.79,9.851c-0.226-0.112-1.339-0.655-1.546-0.73c-0.208-0.075-0.359-0.113-0.509,0.112
	c-0.151,0.225-0.584,0.73-0.716,0.88c-0.132,0.15-0.264,0.169-0.49,0.056C9.302,10.057,8.573,9.82,7.709,9.055
	C7.037,8.46,6.582,7.726,6.451,7.501C6.319,7.276,6.437,7.155,6.55,7.043C6.652,6.943,6.776,6.781,6.889,6.65
	C7.002,6.519,7.04,6.426,7.115,6.276c0.076-0.15,0.038-0.281-0.019-0.393C7.04,5.77,6.587,4.666,6.399,4.216
	C6.21,3.767,6.005,3.823,5.873,3.823c-0.132,0-0.265,0-0.416,0c-0.151,0-0.396,0.056-0.603,0.281
	C4.646,4.329,4.062,4.872,4.062,5.976c0,1.104,0.81,2.172,0.924,2.321c0.113,0.149,1.564,2.49,3.864,3.388
	c2.3,0.899,2.3,0.599,2.715,0.561c0.414-0.037,1.338-0.543,1.527-1.067c0.188-0.524,0.188-0.974,0.132-1.067
	C13.166,10.019,13.015,9.963,12.79,9.851z"/>
</svg>
