<?xml version="1.0" encoding="utf-8"?>
<!-- Generator: Adobe Illustrator 21.0.0, SVG Export Plug-In . SVG Version: 6.00 Build 0)  -->
<svg version="1.1" id="Слой_1" xmlns="http://www.w3.org/2000/svg" xmlns:xlink="http://www.w3.org/1999/xlink" x="0px" y="0px"
	 viewBox="0 0 12.616 13.1" enable-background="new 0 0 12.616 13.1" xml:space="preserve">
<path id="PATH1" fill="#63C068" d="M8.211,0.126c0.728,0.582,0.583,1.415,0.508,1.997C8.536,2.922,8.168,3.345,7.932,4.113
	c-0.11,0.195-0.118,0.46,0,0.554c0.951,0.096,2.059,0.056,3.01,0.124c0.294,0.022,0.622-0.028,0.861,0.124
	c0.452,0.288,0.872,0.636,0.807,1.413c-0.012,0.296-0.347,0.472-0.438,0.618c-0.04,0.084-0.1,0.215,0,0.306
	c0.161,0.27,0.52,0.62,0.43,0.985c-0.035,0.547-0.628,0.598-0.554,1.047c0.087,0.309,0.339,0.428,0.245,0.922
	c-0.048,0.486-0.582,0.532-0.737,0.863c-0.145,0.31,0.084,0.635-0.062,0.923c-0.158,0.316-0.616,0.709-0.922,0.864
	c-0.607,0.303-1.601,0.266-2.273,0.185c-1.616-0.316-2.45-0.461-3.939-0.714c-0.328-0.071-1.322,0.105-1.651,0.039
	c0-1.889,0-3.778,0-5.666C2.814,6.68,3.045,6.665,3.132,6.606c0.907-0.607,1.46-1.554,1.85-2.493c0.053-0.13,0.056-0.31,0.124-0.43
	c0.347-0.631,1.016-0.942,1.412-1.539C7.019,1.392,7.01,1.035,7.084,0.126C7.084,0.017,7.92-0.092,8.211,0.126z"/>
<path fill="#63C068" d="M1.727,12.168c0,0.093-0.075,0.168-0.168,0.168h-1.39C0.075,12.336,0,12.261,0,12.168v-5.27
	c0-0.093,0.075-0.168,0.168-0.168h1.39c0.093,0,0.168,0.075,0.168,0.168V12.168z"/>
</svg>
