<?xml version="1.0" encoding="utf-8"?>
<!-- Generator: Adobe Illustrator 21.0.0, SVG Export Plug-In . SVG Version: 6.00 Build 0)  -->
<svg version="1.1" id="Слой_1" xmlns="http://www.w3.org/2000/svg" xmlns:xlink="http://www.w3.org/1999/xlink" x="0px" y="0px"
	 viewBox="0 0 12.616 13.1" enable-background="new 0 0 12.616 13.1" xml:space="preserve">
<path id="PATH1_1_" fill="#F1484B" d="M8.211,12.975c0.728-0.582,0.583-1.415,0.508-1.997c-0.182-0.799-0.551-1.223-0.786-1.991
	c-0.11-0.195-0.118-0.46,0-0.554c0.951-0.096,2.059-0.056,3.01-0.124c0.294-0.022,0.622,0.028,0.861-0.124
	c0.452-0.288,0.872-0.636,0.807-1.413c-0.012-0.296-0.347-0.472-0.438-0.618c-0.04-0.084-0.1-0.215,0-0.306
	c0.161-0.27,0.52-0.62,0.43-0.985c-0.035-0.547-0.628-0.598-0.554-1.047c0.087-0.309,0.339-0.428,0.245-0.922
	c-0.048-0.486-0.582-0.532-0.737-0.863c-0.145-0.31,0.084-0.635-0.062-0.923c-0.158-0.316-0.616-0.709-0.922-0.864
	C9.964-0.061,8.969-0.024,8.298,0.057c-1.616,0.316-2.45,0.461-3.939,0.714C4.031,0.843,3.037,0.667,2.708,0.732
	c0,1.889,0,3.778,0,5.666C2.814,6.42,3.045,6.435,3.132,6.495c0.907,0.607,1.46,1.554,1.85,2.493c0.053,0.13,0.056,0.31,0.124,0.43
	c0.347,0.631,1.016,0.942,1.412,1.539c0.502,0.752,0.492,1.108,0.567,2.018C7.084,13.083,7.92,13.192,8.211,12.975z"/>
<path fill="#F1484B" d="M1.727,0.932c0-0.093-0.075-0.168-0.168-0.168h-1.39C0.075,0.764,0,0.839,0,0.932l0,5.27
	c0,0.093,0.075,0.168,0.168,0.168h1.39c0.093,0,0.168-0.075,0.168-0.168V0.932z"/>
</svg>
