<?xml version="1.0" encoding="utf-8"?>
<!-- Generator: Adobe Illustrator 21.0.0, SVG Export Plug-In . SVG Version: 6.00 Build 0)  -->
<svg version="1.1" id="Слой_1" xmlns="http://www.w3.org/2000/svg" xmlns:xlink="http://www.w3.org/1999/xlink" x="0px" y="0px"
	 viewBox="0 0 44.994 36.995" enable-background="new 0 0 44.994 36.995" xml:space="preserve">
<rect fill="#6A96C7" width="44.994" height="36.995"/>
<path id="VK" fill="#FFFFFF" d="M23.335,25.884c0.821,0,0.821-1.183,0.821-1.644c0-0.821,0.821-1.641,1.644-1.641
	c0.821,0,2.23,1.407,3.285,2.467c0.821,0.818,0.821,0.818,1.641,0.818c0.821,0,2.464,0,2.464,0s1.641-0.066,1.641-1.644
	c0-0.514-0.561-1.383-2.464-3.282c-1.641-1.644-2.481-0.795,0-4.104c1.515-2.02,2.616-3.846,2.426-4.372
	c-0.179-0.502-4.39-1.305-4.888-0.556c-1.641,2.463-1.943,3.067-2.462,4.107c-0.823,1.641-0.906,2.463-1.644,2.463
	c-0.748,0-0.823-1.595-0.823-2.463c0-2.717,0.394-4.635-0.821-4.929c0,0-1.641,0-2.462,0c-1.322,0-2.464,0.822-2.464,0.822
	s-1.02,0.795-0.821,0.819c0.244,0.034,1.642-0.341,1.642,0.822c0,0.822,0,1.642,0,1.642s0.007,3.286-0.822,3.286
	c-0.821,0-2.464-3.286-4.105-5.75c-0.645-0.964-0.821-0.819-1.642-0.819c-0.88,0-1.64,0.033-2.463,0.033
	c-0.821,0-0.925,0.526-0.821,0.786c1.641,4.109,2.822,6.687,5.94,9.933c2.862,2.978,4.774,3.139,6.376,3.207
	C22.923,25.901,22.514,25.884,23.335,25.884z"/>
</svg>
