<?xml version="1.0" encoding="utf-8"?>
<!-- Generator: Adobe Illustrator 21.0.0, SVG Export Plug-In . SVG Version: 6.00 Build 0)  -->
<svg version="1.1" id="Слой_1" xmlns="http://www.w3.org/2000/svg" xmlns:xlink="http://www.w3.org/1999/xlink" x="0px" y="0px"
	 viewBox="0 0 44.994 36.995" enable-background="new 0 0 44.994 36.995" xml:space="preserve">
<rect fill="#CF2200" width="44.994" height="36.995"/>
<g>
	<g>
		<path fill="#FFFFFF" d="M22.653,27.076c-2.744-0.086-5.352-0.153-7.961-0.255c-0.562-0.024-1.135-0.11-1.683-0.239
			c-1.028-0.241-1.738-0.86-2.104-1.874c-0.292-0.818-0.399-1.657-0.476-2.512c-0.168-2.01-0.168-4.017-0.086-6.026
			c0.048-1.134,0.077-2.275,0.38-3.377c0.182-0.658,0.403-1.302,0.935-1.777c0.563-0.505,1.22-0.808,1.97-0.841
			c2.056-0.101,4.108-0.227,6.164-0.245c2.767-0.029,5.539,0.009,8.307,0.062c1.197,0.024,2.402,0.086,3.588,0.24
			c1.086,0.143,1.898,0.75,2.331,1.806c0.331,0.813,0.456,1.662,0.528,2.528c0.186,2.166,0.192,4.333,0.086,6.499
			c-0.051,1.101-0.105,2.205-0.417,3.277c-0.355,1.231-1.11,2.042-2.368,2.32c-0.491,0.106-0.999,0.144-1.5,0.164
			C27.736,26.918,25.126,27,22.653,27.076z M19.996,21.614c2.191-1.135,4.357-2.259,6.568-3.406
			c-2.205-1.154-4.373-2.284-6.568-3.431C19.996,17.068,19.996,19.322,19.996,21.614z"/>
	</g>
</g>
</svg>
