<?xml version="1.0" encoding="utf-8"?>
<!-- Generator: Adobe Illustrator 21.0.0, SVG Export Plug-In . SVG Version: 6.00 Build 0)  -->
<svg version="1.1" id="Слой_1" xmlns="http://www.w3.org/2000/svg" xmlns:xlink="http://www.w3.org/1999/xlink" x="0px" y="0px"
	 viewBox="0 0 47.382 59.857" enable-background="new 0 0 47.382 59.857" xml:space="preserve">
<g>
	<path fill="#FFD7AF" d="M35.105,44.227c-3.175-1.861-4.493-7.317-4.573-7.647v-3.785l-15.017,0.402v3.324
		c0,0-1.306,5.758-4.581,7.678c-1.746,1.023,1.766,4.383,5.423,7.295l1.401,3.217l5.268,5.146l4.066-5.223l1.373-2.162
		C32.494,49.384,37.046,45.364,35.105,44.227z"/>
</g>
<g>
	<path fill="#FFD7AF" d="M11.908,26.384c0,0-1.863,1.979-2.764-2.746c-0.969-5.048-0.934-7.787,0.801-8.361
		c1.105-0.368,1.426,0.574,1.426,0.574L11.908,26.384z"/>
</g>
<g>
	<path fill="#FFD7AF" d="M15.709,33.497v3.569c0,1.3,0.584,2.53,1.591,3.353l3.112,2.542c1.587,1.296,3.865,1.301,5.458,0.014
		l3.161-2.556c1.017-0.821,1.608-2.059,1.608-3.365v-3.898L15.709,33.497z"/>
</g>
<g>
	<path fill="#EABE96" d="M15.709,36.122c2.006,2.225,4.522,3.436,7.314,3.436c2.924,0,5.553-1.32,7.607-3.76v-2.641l-14.922,0.34
		V36.122z"/>
</g>
<g>
	<path fill="#FED9AE" d="M23.024,37.775c6.815,0,12.041-7.139,12.041-18.963c0-14.751-4.326-18.17-12.041-18.17
		c-7.72,0-12.049,3.419-12.049,18.17C10.975,30.636,16.203,37.775,23.024,37.775z"/>
</g>
<g>
	<path fill="#FFD7AF" d="M34.303,26.384c0,0,1.863,1.979,2.769-2.746c0.964-5.048,0.931-7.787-0.8-8.361
		c-1.109-0.368-1.429,0.574-1.429,0.574L34.303,26.384z"/>
</g>
<g>
	<path fill="#FED9AE" d="M23.17,0.642v37.125c6.74-0.103,11.894-7.217,11.894-18.955C35.065,4.158,30.791,0.683,23.17,0.642z"/>
</g>
<g>
	<g>
		<path fill="#1B5CA6" d="M47.382,59.857l-3.13-11.947c-0.281-1.08-0.971-2.008-1.92-2.591l-11.035-6.772l-8.277,9.439l-8.277-9.439
			L3.708,45.319c-0.95,0.583-0.852,14.538-0.852,14.538h20.158h0.012H47.382z"/>
	</g>
</g>
<g>
	<g>
		<polygon fill="#FCC02E" points="23.02,52.049 12.394,40.221 13.09,39.595 23.02,50.65 33.002,39.543 33.699,40.169 		"/>
	</g>
</g>
<g>
	<path fill="#FFE1B9" d="M15.983,18.825c0,0-3.094,0-3.754,0s-3.789,2.002-4.104,2.637c-0.315,0.633-3.518,7.578-3.761,8.4
		c-0.211,0.725-0.543,3.094-0.484,4.174c0.06,1.082,5.592,3.061,5.592,3.061L15.983,18.825z"/>
</g>
<g>
	<path fill="#646464" d="M21.371,37.657c0,0.409-0.332,0.741-0.741,0.741h-9.293c-0.409,0-0.741-0.332-0.741-0.741V23.209
		c0-0.251,0.128-0.485,0.339-0.622l5.498-3.547h4.938V37.657z"/>
</g>
<g>
	<path fill="#787878" d="M15.196,22.128v6.593h-0.863v1.651h0.863v8.028h5.434c0.409,0,0.741-0.332,0.741-0.741V22.128H15.196z"/>
</g>
<g>
	<circle fill="#A0A0A0" cx="17.82" cy="20.461" r="4.415"/>
</g>
<g>
	<circle fill="#464646" cx="17.821" cy="20.46" r="4.106"/>
</g>
<g>
	<circle fill="#323232" cx="17.821" cy="20.46" r="2.162"/>
</g>
<g>
	<circle fill="#1E1E1E" cx="17.821" cy="20.461" r="1.296"/>
</g>
<g opacity="0.4">
	<circle fill="#FFFFFF" cx="19.456" cy="18.825" r="0.988"/>
</g>
<g>
	<rect x="21.371" y="26.419" fill="#A0A0A0" width="1.02" height="7.78"/>
</g>
<g>
	<path fill="#646464" d="M22.389,25.031v10.56c0,0.611,0.5,1.111,1.111,1.111h14.635c0.311,0,0.596-0.13,0.8-0.342
		c0.193-0.2,0.312-0.475,0.312-0.77v-10.56c0-0.612-0.5-1.112-1.111-1.112H23.5C22.889,23.919,22.389,24.419,22.389,25.031z"/>
</g>
<g opacity="0.1">
	<path fill="#FFFFFF" d="M21.928,20.46c0-2.267-1.84-4.105-4.107-4.105v8.212C20.088,24.567,21.928,22.73,21.928,20.46z"/>
</g>
<g>
	<path fill="#F5CDA5" d="M10.752,22.764c-1.34,1.964-1.198,5.806-1.198,5.806l1.042,5.795L10.752,22.764z"/>
</g>
<g>
	<ellipse fill="#FFE1B9" cx="7.301" cy="34.659" rx="3.428" ry="4.883"/>
</g>
<g>
	<polygon fill="#FFE1B9" points="4.025,36.103 3.873,41.05 10.151,41.946 10.207,37.243 	"/>
</g>
<path fill="#A57555" d="M9.805,20.461c3.07-6.818,9.887-6.004,11.479-6.382c4.709-1.12,9.298-4.067,11.774-11.198
	C30.868,1.128,27.769,0,23.676,0h0l-0.172,0.001L23.347,0c-4.486,0-8.118,1.342-10.504,3.882c-0.917,0.976-1.549,2.013-1.997,3.022
	c-0.488,1.173-0.761,2.327-0.911,3.374C9.588,12.697,9.66,13.532,9.805,20.461z"/>
<path fill="#A57555" d="M35.795,13.899l0.082-0.56c0.835-5.392-0.587-8.598-2.518-11.23c-1.921,3.387-2.752,3.337-5.44,4.589
	c0.015,0.026,0.115,0.948,0.117,0.977c0.437,5.119,4.959,3.916,6.897,8.563c0.378,0.906,0.346,1.194,0.346,1.194
	S35.716,14.466,35.795,13.899z"/>
<path fill="#E2B38D" d="M29.462,21.077h-1.663c-0.354,0-0.644-0.29-0.644-0.644v-0.054c0-0.354,0.29-0.644,0.644-0.644h1.663
	c0.354,0,0.644,0.29,0.644,0.644v0.054C30.106,20.787,29.816,21.077,29.462,21.077z"/>
<path fill="#00467F" d="M10.529,41.593L8.63,59.857h2.068l1.876-18.045c0.037-0.357-0.222-0.676-0.579-0.714l-2.016-0.21
	C10.32,40.941,10.565,41.246,10.529,41.593z"/>
<path fill="#1B5CA6" d="M8.63,59.857l1.899-18.264c0.036-0.346-0.209-0.652-0.55-0.704c-0.01-0.002-0.019-0.008-0.029-0.009
	l-7.245-0.753c-0.357-0.037-0.676,0.222-0.714,0.579L0,59.857H8.63z"/>
<path fill="none" stroke="#9D9D9C" stroke-width="0.5" stroke-miterlimit="10" d="M36.914,35.165H24.721
	c-0.42,0-0.76-0.34-0.76-0.76v-8.188c0-0.42,0.34-0.76,0.76-0.76h12.193c0.42,0,0.76,0.34,0.76,0.76v8.188
	C37.674,34.824,37.334,35.165,36.914,35.165z"/>
</svg>
