<?xml version="1.0" encoding="utf-8"?>
<!-- Generator: Adobe Illustrator 21.0.0, SVG Export Plug-In . SVG Version: 6.00 Build 0)  -->
<svg version="1.1" id="Слой_1" xmlns="http://www.w3.org/2000/svg" xmlns:xlink="http://www.w3.org/1999/xlink" x="0px" y="0px"
	 viewBox="0 0 43.326 41.868" enable-background="new 0 0 43.326 41.868" xml:space="preserve">
<circle fill="#E41D37" cx="20.934" cy="20.934" r="20.934"/>
<g>
	<path fill="#FFFFFF" d="M27.918,22.723c0,2.858-0.591,5.044-1.775,6.558c-1.183,1.514-2.915,2.271-5.196,2.271
		c-2.252,0-3.975-0.743-5.167-2.229c-1.192-1.486-1.803-3.615-1.831-6.388v-3.804c0-2.886,0.599-5.077,1.796-6.572
		s2.922-2.243,5.174-2.243s3.975,0.741,5.167,2.222c1.193,1.481,1.803,3.608,1.832,6.381V22.723z M23.815,18.54
		c0-1.714-0.234-2.963-0.703-3.744c-0.468-0.781-1.2-1.172-2.193-1.172c-0.965,0-1.677,0.372-2.136,1.115
		c-0.459,0.744-0.703,1.906-0.731,3.488v5.03c0,1.686,0.229,2.939,0.688,3.758c0.459,0.819,1.195,1.229,2.207,1.229
		c1.003,0,1.727-0.393,2.172-1.179c0.445-0.786,0.677-1.989,0.696-3.609V18.54z"/>
</g>
<g>
	<g>
		<path fill="#FFFFFF" d="M37.701,20.82c-1.365,0-2.491-0.414-3.348-1.231c-0.869-0.83-1.31-1.925-1.31-3.255v-0.44l-1.857,2.973
			c-0.188,0.302-0.514,0.47-0.849,0.47c-0.16,0-0.323-0.039-0.474-0.12l-1.622-0.875c-0.243-0.131-0.421-0.356-0.492-0.624
			c-0.07-0.267-0.027-0.552,0.119-0.786l3.656-5.853c-0.555,0.205-1.17,0.308-1.843,0.308c-1.348,0-2.466-0.411-3.326-1.222
			c-0.875-0.826-1.319-1.932-1.319-3.287V6.06c0-1.306,0.439-2.391,1.308-3.224c0.856-0.822,1.972-1.239,3.315-1.239
			c1.355,0,2.478,0.412,3.334,1.223c0.871,0.826,1.313,1.936,1.313,3.297v0.509l1.742-2.788c0.188-0.302,0.514-0.47,0.849-0.47
			c0.16,0,0.323,0.039,0.474,0.12l1.622,0.874c0.243,0.131,0.421,0.357,0.492,0.624c0.07,0.267,0.027,0.552-0.119,0.786
			l-3.464,5.545c0.538-0.191,1.132-0.287,1.777-0.287c1.344,0,2.461,0.406,3.32,1.205c0.88,0.82,1.326,1.936,1.326,3.315v0.828
			c0,1.306-0.437,2.387-1.297,3.213C40.18,20.407,39.06,20.82,37.701,20.82z M37.68,14.952c-0.21,0-0.271,0.066-0.306,0.103
			c-0.08,0.087-0.122,0.243-0.122,0.463v0.862c0,0.171,0.043,0.287,0.149,0.402c0.087,0.095,0.165,0.128,0.3,0.128
			c0.311,0,0.404,0,0.404-0.553v-0.875c0-0.296-0.09-0.393-0.124-0.43C37.949,15.019,37.888,14.952,37.68,14.952z M29.66,5.519
			c-0.182,0-0.244,0.05-0.291,0.101c-0.103,0.11-0.124,0.325-0.124,0.487v0.84c0,0.292,0.09,0.387,0.124,0.423
			c0.036,0.038,0.101,0.107,0.313,0.107c0.196,0,0.248-0.058,0.278-0.092c0.083-0.092,0.125-0.251,0.125-0.473V6.06
			c0-0.31-0.095-0.416-0.125-0.451C29.936,5.581,29.879,5.519,29.66,5.519z"/>
		<path fill="#E41D37" d="M29.66,2.597c1.097,0,1.979,0.316,2.647,0.949c0.667,0.633,1,1.49,1,2.571v0.829
			c0,1.035-0.333,1.868-1,2.496c-0.667,0.629-1.542,0.944-2.623,0.944c-1.088,0-1.969-0.316-2.64-0.949
			c-0.671-0.633-1.006-1.486-1.006-2.56V6.06c0-1.028,0.333-1.862,1-2.503C27.704,2.918,28.579,2.597,29.66,2.597 M29.683,8.476
			c0.43,0,0.77-0.142,1.024-0.426c0.253-0.284,0.38-0.663,0.38-1.139V6.06c0-0.46-0.127-0.833-0.38-1.116s-0.602-0.426-1.047-0.426
			c-0.421,0-0.762,0.14-1.023,0.42c-0.261,0.28-0.392,0.669-0.392,1.168v0.84c0,0.46,0.133,0.83,0.397,1.11
			C28.907,8.336,29.254,8.476,29.683,8.476 M36.897,4.369l1.622,0.874l-8.179,13.093l-1.622-0.875L36.897,4.369 M37.679,12.031
			c1.089,0,1.968,0.313,2.64,0.938c0.672,0.626,1.007,1.486,1.007,2.583v0.828c0,1.028-0.33,1.858-0.989,2.491
			c-0.661,0.633-1.539,0.949-2.635,0.949c-1.105,0-1.99-0.319-2.658-0.955c-0.667-0.637-1-1.48-1-2.531v-0.851
			c0-1.035,0.337-1.869,1.012-2.502S36.605,12.031,37.679,12.031 M37.701,17.91c0.936,0,1.404-0.518,1.404-1.553v-0.875
			c0-0.46-0.131-0.83-0.392-1.11c-0.261-0.28-0.606-0.42-1.035-0.42c-0.43,0-0.775,0.14-1.036,0.42
			c-0.261,0.28-0.392,0.662-0.392,1.145v0.863c0,0.422,0.139,0.783,0.415,1.081C36.942,17.76,37.287,17.91,37.701,17.91
			 M29.66,0.597c-1.587,0-2.973,0.525-4.007,1.517c-1.057,1.015-1.616,2.379-1.616,3.946v0.816c0,1.618,0.565,3.006,1.633,4.014
			c1.02,0.961,2.317,1.462,3.86,1.493l-2.51,4.017c-0.293,0.469-0.379,1.038-0.237,1.572c0.141,0.534,0.498,0.986,0.984,1.248
			l1.622,0.875c0.301,0.162,0.626,0.24,0.948,0.24c0.669,0,1.32-0.336,1.698-0.941l0.466-0.746c0.271,0.625,0.66,1.185,1.161,1.663
			c1.049,1.001,2.408,1.508,4.038,1.508c1.624,0,2.977-0.506,4.019-1.505c1.051-1.008,1.606-2.369,1.606-3.935v-0.828
			c0-2.079-0.894-3.348-1.644-4.047c-1.006-0.936-2.283-1.431-3.798-1.471l2.331-3.731c0.293-0.469,0.379-1.038,0.237-1.572
			s-0.498-0.986-0.984-1.248l-1.622-0.874c-0.301-0.162-0.626-0.24-0.947-0.24c-0.669,0-1.32,0.336-1.698,0.941l-0.326,0.521
			c-0.273-0.658-0.673-1.243-1.192-1.735C32.634,1.101,31.281,0.597,29.66,0.597L29.66,0.597z"/>
	</g>
</g>
</svg>
