<?xml version="1.0" encoding="utf-8"?>
<!-- Generator: Adobe Illustrator 21.0.0, SVG Export Plug-In . SVG Version: 6.00 Build 0)  -->
<svg version="1.1" id="Слой_1" xmlns="http://www.w3.org/2000/svg" xmlns:xlink="http://www.w3.org/1999/xlink" x="0px" y="0px"
	 viewBox="0 0 24 24" enable-background="new 0 0 24 24" xml:space="preserve">
<g>
	<path fill="#B3848A" d="M22,2v20H2V2H22 M24,0H0v24h24V0L24,0z"/>
</g>
<g>
	<g>
		<circle fill="#B3848A" cx="12" cy="12.969" r="2.016"/>
	</g>
	<g>
		<path fill="#B3848A" d="M16.795,8.016h-1.093c0.002-0.029,0.017-0.054,0.017-0.083V7.3c0-0.675-0.547-1.222-1.222-1.222H9.503
			c-0.675,0-1.222,0.547-1.222,1.222v0.633c0,0.029,0.015,0.054,0.017,0.083H7.205C6.263,8.016,5.5,8.779,5.5,9.72v6.497
			c0,0.941,0.763,1.705,1.705,1.705h9.591c0.941,0,1.705-0.763,1.705-1.705V9.72C18.5,8.779,17.737,8.016,16.795,8.016z M12,16.484
			c-1.938,0-3.516-1.577-3.516-3.516S10.062,9.453,12,9.453s3.516,1.577,3.516,3.516S13.938,16.484,12,16.484z"/>
	</g>
</g>
</svg>
