<?xml version="1.0" encoding="utf-8"?>
<!-- Generator: Adobe Illustrator 21.0.0, SVG Export Plug-In . SVG Version: 6.00 Build 0)  -->
<svg version="1.1" id="Слой_1" xmlns="http://www.w3.org/2000/svg" xmlns:xlink="http://www.w3.org/1999/xlink" x="0px" y="0px"
	 viewBox="0 0 24 24" enable-background="new 0 0 24 24" xml:space="preserve">
<g>
	<path fill="#EA4C3A" d="M22,2v20H2V2H22 M24,0H0v24h24V0L24,0z"/>
</g>
<g>
	<path fill="#EA4C3A" d="M4.099,20.579c-0.5,0-0.756-0.262-0.884-0.503c-0.161-0.301-0.196-0.701-0.097-1.126
		c0.109-0.484,0.376-0.923,0.84-1.377c0.567-0.552,1.406-1.112,2.362-1.579c0.472-0.229,1.029-0.463,1.63-0.687
		c0.701-1.096,1.694-2.804,2.406-4.677c0.078-0.206,0.152-0.412,0.223-0.619c-0.22-0.511-0.356-0.949-0.463-1.327
		C9.92,7.989,9.794,7.364,9.742,6.825c-0.05-0.529-0.04-1.053,0.029-1.559c0.069-0.517,0.183-0.869,0.365-1.142
		c0.177-0.265,0.439-0.468,0.758-0.584c0.175-0.067,0.311-0.082,0.393-0.091c0.134-0.023,0.328-0.057,0.577,0.019
		c0.168,0.049,0.333,0.144,0.48,0.228l-0.002,0.002c0.726,0.325,0.654,0.955,0.564,1.75l-0.039,0.357
		c-0.107,1.005-0.395,2.528-0.901,4.126c0.035,0.071,0.073,0.144,0.112,0.218c0.385,0.723,0.941,1.552,1.608,2.397
		c0.307,0.389,0.659,0.806,1.024,1.216c0.591-0.039,1.176-0.035,1.743,0.012c0.582,0.047,1.189,0.143,1.753,0.278
		c0.628,0.154,1.082,0.332,1.472,0.578c0.498,0.311,0.882,0.729,1.081,1.176c0.23,0.509,0.239,1.092,0.02,1.552
		c-0.195,0.414-0.569,0.719-1.081,0.881c-0.455,0.147-0.935,0.148-1.422,0.003c-0.451-0.134-0.976-0.413-1.561-0.829
		c-0.579-0.407-1.127-0.878-1.777-1.525c-0.245-0.245-0.499-0.508-0.752-0.781c-0.404,0.047-0.86,0.118-1.442,0.224
		c-0.713,0.128-1.517,0.29-2.569,0.598c-0.463,0.135-0.93,0.286-1.379,0.445c-0.056,0.084-0.108,0.163-0.158,0.237
		c-0.908,1.344-1.796,2.402-2.568,3.059C5.48,20.172,4.93,20.46,4.388,20.552C4.284,20.571,4.188,20.579,4.099,20.579z
		 M6.483,17.363c-0.876,0.472-1.383,0.904-1.621,1.135c-0.345,0.337-0.439,0.56-0.478,0.719c0.2-0.07,0.475-0.214,0.85-0.532
		C5.53,18.432,5.95,18.02,6.483,17.363z M15.916,15.037c0.567,0.56,1.047,0.97,1.547,1.321c0.587,0.417,0.966,0.581,1.182,0.645
		c0.239,0.07,0.449,0.072,0.66,0.004c0.095-0.03,0.254-0.094,0.305-0.201c0.045-0.095,0.054-0.282-0.031-0.47
		c-0.096-0.215-0.309-0.436-0.587-0.61c-0.27-0.17-0.605-0.298-1.089-0.416c-0.497-0.119-1.036-0.204-1.556-0.247
		C16.204,15.052,16.06,15.043,15.916,15.037z M11.388,11.537c-0.472,1.158-1.029,2.239-1.548,3.145
		c1.098-0.321,1.967-0.494,2.674-0.622c0.232-0.042,0.446-0.079,0.646-0.112c-0.172-0.204-0.336-0.406-0.49-0.6
		C12.182,12.73,11.748,12.116,11.388,11.537z M11.404,4.087l0.087,0.641c-0.002,0.001-0.148,0.025-0.15,0.026
		c-0.042,0.015-0.098,0.043-0.13,0.091c-0.037,0.055-0.105,0.203-0.158,0.595c-0.056,0.403-0.063,0.839-0.023,1.261
		c0.031,0.315,0.093,0.672,0.184,1.065c0.19-0.828,0.311-1.563,0.368-2.099l0.04-0.365c0.021-0.185,0.043-0.375,0.05-0.501
		c-0.061-0.036-0.126-0.075-0.18-0.095c0.031,0.009,0.068,0.009,0.086,0.007L11.404,4.087z"/>
</g>
</svg>
