<svg width="21" height="15" viewBox="0 0 21 15" fill="none" xmlns="http://www.w3.org/2000/svg">
<path d="M15.8603 9.54544C14.4007 9.54544 13.2132 10.7689 13.2132 12.2727C13.2132 13.7766 14.4007 15 15.8603 15C17.3202 15 18.5074 13.7766 18.5074 12.2727C18.5074 10.7689 17.3199 9.54544 15.8603 9.54544ZM15.8603 13.6364C15.1304 13.6364 14.5368 13.0248 14.5368 12.2727C14.5368 11.5207 15.1304 10.9091 15.8603 10.9091C16.5902 10.9091 17.1838 11.5207 17.1838 12.2727C17.1838 13.0248 16.5902 13.6364 15.8603 13.6364Z" />
<path d="M6.81618 9.54544C5.35656 9.54544 4.16912 10.7689 4.16912 12.2727C4.16912 13.7766 5.35656 15 6.81618 15C8.2758 15 9.46325 13.7766 9.46325 12.2727C9.46325 10.7689 8.2758 9.54544 6.81618 9.54544ZM6.81618 13.6364C6.08627 13.6364 5.49265 13.0248 5.49265 12.2727C5.49265 11.5207 6.08627 10.9091 6.81618 10.9091C7.54589 10.9091 8.13971 11.5207 8.13971 12.2727C8.13971 13.0248 7.5461 13.6364 6.81618 13.6364Z" />
<path d="M17.6429 1.73911C17.5304 1.50888 17.3016 1.36364 17.0515 1.36364H13.5662V2.72728H16.6434L18.4453 6.42L19.6282 5.80725L17.6429 1.73911Z" />
<path d="M13.875 11.6137H8.86766V12.9773H13.875V11.6137Z" />
<path d="M4.83086 11.6137H2.53678C2.17124 11.6137 1.87503 11.9189 1.87503 12.2955C1.87503 12.6721 2.17129 12.9773 2.53678 12.9773H4.8309C5.19643 12.9773 5.49265 12.672 5.49265 12.2955C5.49265 11.9188 5.19639 11.6137 4.83086 11.6137Z" />
<path d="M20.861 7.44544L19.5594 5.71817C19.4343 5.5518 19.2413 5.45452 19.0368 5.45452H14.228V0.681799C14.228 0.305191 13.9317 0 13.5662 0H2.53678C2.17124 0 1.87503 0.305233 1.87503 0.681799C1.87503 1.05836 2.17129 1.3636 2.53678 1.3636H12.9044V6.13632C12.9044 6.51292 13.2007 6.81812 13.5662 6.81812H18.7127L19.6765 8.0972V11.6136H17.8456C17.48 11.6136 17.1838 11.9188 17.1838 12.2954C17.1838 12.672 17.4801 12.9772 17.8456 12.9772H20.3382C20.7037 12.9772 21 12.6719 21 12.2954V7.86364C21 7.71227 20.951 7.56499 20.861 7.44544Z" />
<path d="M4.78677 8.15911H1.74263C1.3771 8.15911 1.08088 8.46434 1.08088 8.8409C1.08088 9.21751 1.37714 9.5227 1.74263 9.5227H4.78673C5.15226 9.5227 5.44847 9.21747 5.44847 8.8409C5.44852 8.46434 5.15226 8.15911 4.78677 8.15911Z" />
<path d="M6.30882 5.47725H0.661746C0.296256 5.47725 0 5.78249 0 6.15909C0 6.5357 0.296256 6.84089 0.661746 6.84089H6.30882C6.67435 6.84089 6.97056 6.53566 6.97056 6.15909C6.97056 5.78253 6.67435 5.47725 6.30882 5.47725Z" />
<path d="M7.3897 2.79544H1.74263C1.3771 2.79544 1.08088 3.10068 1.08088 3.47724C1.08088 3.85385 1.37714 4.15904 1.74263 4.15904H7.3897C7.75523 4.15904 8.05145 3.85381 8.05145 3.47724C8.05149 3.10068 7.75523 2.79544 7.3897 2.79544Z" />
</svg>
