<svg width="12" height="22" viewBox="0 0 12 22" fill="none" xmlns="http://www.w3.org/2000/svg">
<path d="M10.6506 0H1.34938C0.605316 0 0 0.645636 0 1.4393V20.5607C0 21.3543 0.605316 22 1.34938 22H10.6506C11.3946 22 12 21.3544 12 20.5607V1.4393C12 0.645636 11.3946 0 10.6506 0ZM1.28308 3.82159H10.7169V17.298H1.28308V3.82159ZM1.34938 1.36855H10.6506C10.6871 1.36855 10.7169 1.40026 10.7169 1.4393V2.45304H1.28308V1.4393C1.28308 1.40026 1.31281 1.36855 1.34938 1.36855ZM10.6506 20.6314H1.34938C1.31285 20.6314 1.28308 20.5997 1.28308 20.5607V18.6665H10.7169V20.5607C10.7169 20.5997 10.6871 20.6314 10.6506 20.6314Z" />
<path d="M6 20.4378C6.39643 20.4378 6.7178 20.095 6.7178 19.6721C6.7178 19.2491 6.39643 18.9063 6 18.9063C5.60357 18.9063 5.2822 19.2491 5.2822 19.6721C5.2822 20.095 5.60357 20.4378 6 20.4378Z" />
</svg>
