<svg width="19" height="19" viewBox="0 0 19 19" fill="none" xmlns="http://www.w3.org/2000/svg">
<path d="M18.93 14.3467C18.6187 12.7049 17.1693 11.306 15.3006 11.2123C14.6915 11.1822 13.9971 10.8475 13.4883 10.3387L12.2305 9.0814L15.6825 5.67131L16.0788 6.06727C16.3523 6.34161 16.8176 6.25897 16.9792 5.90398L18.9474 1.57429C19.0435 1.36314 18.9982 1.11447 18.8342 0.950446L18.047 0.162949C17.883 -0.00107457 17.6343 -0.0459768 17.4231 0.0497652L13.0926 2.01812C12.7415 2.17724 12.6534 2.6417 12.9293 2.91843L13.3205 3.30956L9.86854 6.71965L8.62076 5.47237C8.10449 4.95614 7.80981 4.35126 7.79088 3.76972C7.75897 2.777 7.35406 1.84367 6.65185 1.14115C5.49426 -0.0162894 3.71611 -0.318359 2.22707 0.389687C2.06377 0.467245 1.94835 0.619393 1.91755 0.797889C1.88674 0.976014 1.94464 1.15785 2.07231 1.28588L3.33938 2.55283V3.33995H2.55222L1.28514 2.07304C1.15748 1.94538 0.975252 1.88749 0.797073 1.91829C0.61856 1.94909 0.466398 2.0645 0.388832 2.22779C-0.446987 3.98499 0.12199 6.05353 1.74089 7.14607C2.32583 7.54091 3.01835 7.76435 3.7432 7.79181C4.25948 7.81185 4.77535 8.023 5.22182 8.39153C5.05659 8.81484 5.06895 9.30064 5.27192 9.72268L0.48681 14.5771C-0.162703 15.2284 -0.162331 16.2865 0.488294 16.937L2.06307 18.5116C2.71321 19.1617 3.77193 19.1639 4.425 18.5116C4.42575 18.5105 4.42686 18.5098 4.4276 18.5086L9.21015 13.6572C9.62641 13.8555 10.1108 13.8703 10.5351 13.7039C10.9326 14.183 11.1865 14.7734 11.2125 15.3001C11.3068 17.1702 12.7062 18.618 14.3471 18.9291C15.6505 19.1742 16.9565 18.7634 17.8604 17.8596C18.7737 16.9459 19.1734 15.6329 18.93 14.3467ZM17.5326 1.2232L17.7742 1.46478L16.2979 4.71196L14.2848 2.69907L17.5326 1.2232ZM3.78588 6.67924C3.26849 6.65957 2.77675 6.50185 2.36368 6.22316C1.44659 5.60414 0.999747 4.54834 1.14968 3.51221L1.92798 4.29043C2.03226 4.39471 2.17404 4.45334 2.32137 4.45334H3.89615C4.20344 4.45334 4.45288 4.20397 4.45288 3.89667V2.32204C4.45288 2.17472 4.39424 2.03296 4.28995 1.92868L3.51273 1.15158C4.3634 1.03023 5.24078 1.30484 5.86428 1.92868C6.36608 2.43044 6.65519 3.09692 6.6782 3.80575C6.70641 4.67118 7.11651 5.54254 7.83356 6.25949L9.07614 7.50195L8.355 8.21449L7.959 7.81853C7.40558 7.26515 6.57662 7.18975 5.95001 7.54874C5.3113 7.0147 4.5549 6.70892 3.78588 6.67924ZM3.63632 17.7256C3.41921 17.9416 3.06697 17.9408 2.85023 17.7245L1.27546 16.1499C1.05835 15.9328 1.05835 15.5798 1.27546 15.3627L1.27843 15.3598L5.99343 10.5766L8.35537 12.9383L3.63632 17.7256ZM10.321 12.542C10.104 12.759 9.75156 12.7597 9.53378 12.542L6.38427 9.39278C6.16593 9.17447 6.16775 8.82211 6.38427 8.60565C6.60138 8.38853 6.95447 8.3883 7.17184 8.60565L10.321 11.7545C10.5381 11.9716 10.5381 12.3249 10.321 12.542ZM9.92977 9.78874L9.14257 9.00161L14.1081 4.09669L14.8953 4.88418C14.6204 5.15567 10.1978 9.524 9.92977 9.78874ZM17.0728 17.0721C16.4103 17.7349 15.4924 18.0128 14.5546 17.8351C13.394 17.615 12.3931 16.5924 12.3244 15.2455C12.2865 14.4691 11.9384 13.6434 11.3783 12.9758C11.5208 12.7264 11.5973 12.4432 11.5973 12.1482C11.5973 11.7022 11.4236 11.2828 11.1081 10.9674L10.717 10.5762L11.4385 9.8637L12.7007 11.1262C13.4078 11.8328 14.359 12.2807 15.246 12.3241C16.5899 12.3928 17.6156 13.3911 17.8359 14.5541C18.0136 15.4919 17.7356 16.4096 17.0728 17.0721Z" />
<path d="M15.1046 13.4341C14.1838 13.4341 13.4345 14.1834 13.4345 15.1041C13.4345 16.0248 14.1838 16.7741 15.1046 16.7741C16.0254 16.7741 16.7748 16.0248 16.7748 15.1041C16.7748 14.1834 16.0254 13.4341 15.1046 13.4341ZM15.1046 15.6608C14.7977 15.6608 14.5479 15.411 14.5479 15.1041C14.5479 14.7972 14.7976 14.5474 15.1046 14.5474C15.4116 14.5474 15.6613 14.7972 15.6613 15.1041C15.6613 15.411 15.4116 15.6608 15.1046 15.6608Z" />
</svg>
