<svg width="8" height="16" viewBox="0 0 8 16" fill="none" xmlns="http://www.w3.org/2000/svg">
<path d="M7.69231 0H5.76923C3.61539 0 2.23077 1.53966 2.23077 3.93238V5.74252H0.307692C0.134615 5.74252 0 5.88817 0 6.07542V8.69701C0 8.88427 0.134615 9.02991 0.307692 9.02991H2.23077V15.6671C2.23077 15.8544 2.36538 16 2.53846 16H5.05769C5.23077 16 5.36539 15.8544 5.36539 15.6671V9.02991H7.61539C7.78846 9.02991 7.92308 8.88427 7.92308 8.69701V6.07542C7.92308 5.9922 7.88462 5.90897 7.82692 5.84655C7.76923 5.78414 7.69231 5.74252 7.61539 5.74252H5.34615V4.20286C5.34615 3.45384 5.5 3.07932 6.40385 3.07932H7.69231C7.86539 3.07932 8 2.93368 8 2.74642V0.3329C8 0.145644 7.86539 0 7.69231 0Z" />
</svg>
