<svg width="19" height="12" viewBox="0 0 19 12" fill="none" xmlns="http://www.w3.org/2000/svg">
<path d="M15.9854 1.79296C15.728 1.35051 15.2258 1.07473 14.6798 1.07584H12.6066V3.62361C12.6066 3.90738 12.8778 4.13692 13.1867 4.13692H17.351L15.9854 1.79296Z" fill="#205EA4"/>
<path d="M4.00035 11.9998C4.97956 11.9998 5.77337 11.2704 5.77337 10.3708C5.77337 9.4711 4.97956 8.74177 4.00035 8.74177C3.02113 8.74177 2.22732 9.4711 2.22732 10.3708C2.22732 11.2704 3.02113 11.9998 4.00035 11.9998Z" fill="#205EA4"/>
<path d="M14.0246 8.74177C13.0453 8.74177 12.2514 9.47114 12.2514 10.3709C12.2514 11.2706 13.0453 12 14.0246 12C15.0039 12 15.7977 11.2706 15.7977 10.3709V10.3708C15.7966 9.47151 15.0033 8.74281 14.0246 8.74177Z" fill="#205EA4"/>
<path d="M18.6803 5.87206L17.7637 4.79878H13.1867C12.4805 4.79878 11.8862 4.27235 11.8862 3.62361V0.490144C11.8928 0.225527 11.6646 0.00616329 11.3767 0.000123871C11.3664 -8.29584e-05 11.3562 -4.17061e-05 11.3459 0.000330587H0.574141C0.265234 0.000330587 0 0.206333 0 0.490144V9.5468C0 9.83061 0.265234 10.0522 0.574141 10.0522H1.53013C1.71576 8.79886 2.97214 7.92103 4.33636 8.09154C5.44641 8.23033 6.31938 9.03237 6.47043 10.0522H11.5544C11.7401 8.79882 12.9966 7.92107 14.3608 8.09167C15.4708 8.23049 16.3437 9.03245 16.4948 10.0522H18.4259C18.7348 10.0522 19 9.83061 19 9.5468V6.70889C18.9969 6.40514 18.8846 6.1109 18.6803 5.87206Z" fill="#205EA4"/>
</svg>
