<svg width="18" height="18" viewBox="0 0 18 18" fill="none" xmlns="http://www.w3.org/2000/svg">
<path d="M15.1097 1.21094H2.87469C1.59547 1.21094 0.554688 2.25151 0.554688 3.53094V11.0185C0.554688 12.295 1.59094 13.334 2.86645 13.3385V16.7363L7.74943 13.3385H15.1097C16.3889 13.3385 17.4297 12.2977 17.4297 11.0185V3.53094C17.4297 2.25151 16.3889 1.21094 15.1097 1.21094ZM16.4409 11.0185C16.4409 11.7525 15.8437 12.3497 15.1097 12.3497H7.4392L3.85522 14.8437V12.3497H2.87469C2.14063 12.3497 1.54346 11.7525 1.54346 11.0185V3.53094C1.54346 2.79678 2.14063 2.19971 2.87469 2.19971H15.1097C15.8437 2.19971 16.4409 2.79678 16.4409 3.53094V11.0185Z" fill="black"/>
<path d="M5.07031 4.70703H12.9123V5.6958H5.07031V4.70703Z" fill="black"/>
<path d="M5.07031 6.81641H12.9123V7.80517H5.07031V6.81641Z" fill="black"/>
<path d="M5.07031 8.92578H12.9123V9.91455H5.07031V8.92578Z" fill="black"/>
</svg>
