<svg width="21" height="21" viewBox="0 0 21 21" fill="none" xmlns="http://www.w3.org/2000/svg">
<path d="M9.25154 20.9998C10.927 20.9998 12.3285 19.8701 12.6504 18.3748H5.8527C6.17472 19.8701 7.57626 20.9998 9.25154 20.9998Z" />
<path d="M15.7384 10.4991C15.7346 10.4991 15.7309 10.4999 15.7272 10.4999C12.1573 10.4999 9.25154 7.75233 9.25154 4.37498C9.25154 3.44653 9.47734 2.56886 9.87049 1.77964C9.66689 1.76138 9.46057 1.75 9.25154 1.75C5.67518 1.75 2.77588 4.4921 2.77588 7.8749V10.3143C2.77588 12.046 1.97381 13.6805 0.566681 14.8057C0.0976372 15.1846 -0.110545 15.7883 0.0578303 16.3772C0.253985 17.0623 0.970002 17.4999 1.72125 17.4999H16.7772C17.5654 17.4999 18.3084 17.0168 18.4683 16.2862C18.5923 15.721 18.3795 15.1566 17.9161 14.7882C16.5709 13.7217 15.7929 12.1544 15.7384 10.4991Z" />
<path d="M20.3525 4.37502C20.3525 6.79124 18.2817 8.74988 15.727 8.74988C13.1724 8.74988 11.1016 6.79124 11.1016 4.37502C11.1016 1.9588 13.1724 0 15.727 0C18.2817 0 20.3525 1.9588 20.3525 4.37502Z" fill="#E2263D"/>
</svg>
