<svg width="16" height="19" viewBox="0 0 16 19" fill="none" xmlns="http://www.w3.org/2000/svg">
<path d="M15.9799 4.89058C15.9572 4.39073 15.9572 3.9136 15.9572 3.43647C15.9572 3.05022 15.6617 2.75486 15.2752 2.75486C12.4335 2.75486 10.2737 1.93692 8.47778 0.187444C8.20497 -0.0624813 7.79576 -0.0624813 7.52296 0.187444C5.72699 1.93692 3.56727 2.75486 0.725549 2.75486C0.339074 2.75486 0.0435343 3.05022 0.0435343 3.43647C0.0435343 3.9136 0.0435342 4.39073 0.0208004 4.89058C-0.0701348 9.66188 -0.206538 16.2054 7.77303 18.9546L8.00037 19L8.22771 18.9546C16.1845 16.2054 16.0709 9.6846 15.9799 4.89058ZM7.45476 11.5022C7.31835 11.6158 7.15922 11.684 6.97735 11.684H6.95461C6.77274 11.684 6.59087 11.5931 6.4772 11.4568L4.36296 9.11659L5.38598 8.20777L7.04555 10.0481L10.7284 6.54918L11.6605 7.54888L7.45476 11.5022Z" fill="#205EA4"/>
</svg>
