<svg width="14" height="14" viewBox="0 0 14 14" fill="none" xmlns="http://www.w3.org/2000/svg">
<g opacity="0.5">
<path d="M13.3636 0H8.2727C7.92125 0 7.63633 0.284922 7.63633 0.636371C7.63633 0.98782 7.92125 1.27274 8.2727 1.27274H11.8273L5.27731 7.82277C5.02878 8.0713 5.02878 8.47418 5.27731 8.72271C5.40153 8.84696 5.56439 8.90909 5.72725 8.90909C5.89011 8.90909 6.05299 8.84699 6.17724 8.72268L12.7273 2.17268V5.72729C12.7273 6.07873 13.0122 6.36366 13.3636 6.36366C13.7151 6.36366 14 6.07873 14 5.72729V0.636371C14 0.284922 13.7151 0 13.3636 0Z" fill="#205EA4"/>
<path d="M10.8182 6.36363C10.4667 6.36363 10.1818 6.64855 10.1818 7V12.7273H1.27271V3.81817H6.99999C7.35144 3.81817 7.63636 3.53325 7.63636 3.1818C7.63636 2.83035 7.35144 2.54546 6.99999 2.54546H0.63637C0.284921 2.54546 0 2.83038 0 3.18183V13.3637C0 13.7151 0.284921 14 0.63637 14H10.8182C11.1696 14 11.4545 13.7151 11.4545 13.3636V7C11.4545 6.64855 11.1696 6.36363 10.8182 6.36363Z" fill="#205EA4"/>
</g>
</svg>
