<svg width="31" height="27" viewBox="0 0 31 27" fill="none" xmlns="http://www.w3.org/2000/svg">
<path d="M30.0975 3.60023C30.0956 3.60023 30.0937 3.6 30.0918 3.6H21.8574V2.7C21.8574 1.21125 20.6351 0 19.1328 0H11.8672C10.3649 0 9.14258 1.21125 9.14258 2.7V3.6H0.908203C0.402542 3.6 0 4.01062 0 4.5V24.3C0 25.7887 1.22229 27 2.72461 27H28.2754C29.7777 27 31 25.7887 31 24.3V4.51898C31 4.51781 31 4.51664 31 4.51547C30.9652 3.92438 30.5984 3.60352 30.0975 3.60023ZM10.959 2.7C10.959 2.20383 11.3665 1.8 11.8672 1.8H19.1328C19.6335 1.8 20.041 2.20383 20.041 2.7V3.6H10.959V2.7ZM28.8317 5.4L26.0113 13.7845C25.8876 14.1527 25.5413 14.4 25.1499 14.4H20.041V13.5C20.041 13.0029 19.6345 12.6 19.1328 12.6H11.8672C11.3655 12.6 10.959 13.0029 10.959 13.5V14.4H5.85011C5.45868 14.4 5.11243 14.1527 4.98873 13.7845L2.16833 5.4H28.8317ZM18.2246 14.4V16.2H12.7754V14.4H18.2246ZM29.1836 24.3C29.1836 24.7962 28.7761 25.2 28.2754 25.2H2.72461C2.22392 25.2 1.81641 24.7962 1.81641 24.3V10.046L3.26551 14.3538C3.63683 15.4582 4.67559 16.2 5.85011 16.2H10.959V17.1C10.959 17.5971 11.3655 18 11.8672 18H19.1328C19.6345 18 20.041 17.5971 20.041 17.1V16.2H25.1499C26.3244 16.2 27.3632 15.4582 27.7345 14.3538L29.1836 10.046V24.3Z"/>
</svg>
