<svg width="19" height="18" viewBox="0 0 19 18" fill="none" xmlns="http://www.w3.org/2000/svg">
<path d="M13.7581 0H5.24186C2.34689 0 0 2.22337 0 4.96598V13.034C0 15.7766 2.34689 18 5.24186 18H13.7581C16.6531 18 19 15.7766 19 13.034V4.96598C19 2.22337 16.6531 0 13.7581 0ZM17.3136 13.034C17.3136 14.8979 15.7115 16.4024 13.7581 16.4024H5.24186C3.27441 16.4024 1.68639 14.8846 1.68639 13.034V4.96598C1.68639 3.11539 3.28846 1.59763 5.24186 1.59763H13.7581C15.7256 1.59763 17.3136 3.11539 17.3136 4.96598V13.034Z" />
<path d="M9.5 4.36684C6.80177 4.36684 4.59541 6.44376 4.59541 8.99998C4.59541 11.5562 6.78772 13.6464 9.5 13.6464C12.1982 13.6464 14.4046 11.5695 14.4046 8.99998C14.4046 6.44376 12.1982 4.36684 9.5 4.36684ZM9.5 12.0488C7.72929 12.0488 6.2818 10.6908 6.2818 9.01329C6.29586 7.32246 7.72929 5.96447 9.5 5.96447C11.2707 5.96447 12.7182 7.32246 12.7182 8.99998C12.7182 10.6775 11.2707 12.0488 9.5 12.0488Z" />
<path d="M14.6013 3.00883C14.2781 3.00883 13.9549 3.12866 13.73 3.35499C13.5052 3.56801 13.3646 3.87422 13.3646 4.18043C13.3646 4.48664 13.4911 4.79286 13.73 5.00587C13.9549 5.21889 14.2781 5.35203 14.6013 5.35203C14.9246 5.35203 15.2478 5.23221 15.4726 5.00587C15.6975 4.79286 15.838 4.48664 15.838 4.18043C15.838 3.87422 15.7115 3.56801 15.4726 3.35499C15.2478 3.12866 14.9386 3.00883 14.6013 3.00883Z" />
</svg>
