<svg width="50" height="50" viewBox="0 0 50 50" fill="none" xmlns="http://www.w3.org/2000/svg">
<rect width="50" height="50" rx="5" fill="#25A3FF"/>
<path d="M11.4374 24.0679L17.1971 26.1385L19.426 33.0538C19.5718 33.496 20.1342 33.6569 20.4988 33.3654L23.7067 30.8425C24.04 30.5812 24.5191 30.5611 24.8732 30.8124L30.6641 34.8731C31.0599 35.1545 31.6223 34.9434 31.7265 34.4811L35.9864 14.7906C36.0905 14.278 35.5802 13.8558 35.0802 14.0468L11.4374 22.8417C10.8542 23.0628 10.8542 23.8569 11.4374 24.0679ZM19.0719 25.0329L30.3308 18.3387C30.5287 18.2181 30.737 18.4794 30.5704 18.6403L21.2799 26.9728C20.957 27.2642 20.7383 27.6562 20.6862 28.0885L20.3738 30.35C20.3321 30.6515 19.8947 30.6817 19.8009 30.3902L18.5824 26.2591C18.4365 25.7968 18.6448 25.2942 19.0719 25.0329Z" fill="white"/>
</svg>
