<svg width="50" height="50" viewBox="0 0 50 50" fill="none" xmlns="http://www.w3.org/2000/svg">
<rect width="50" height="50" rx="5" fill="#DF2D70"/>
<path d="M30.8269 12H19.1731C15.2115 12 12 15.2115 12 19.1731V30.8269C12 34.7885 15.2115 38 19.1731 38H30.8269C34.7885 38 38 34.7885 38 30.8269V19.1731C38 15.2115 34.7885 12 30.8269 12ZM35.6923 30.8269C35.6923 33.5192 33.5 35.6923 30.8269 35.6923H19.1731C16.4808 35.6923 14.3077 33.5 14.3077 30.8269V19.1731C14.3077 16.5 16.5 14.3077 19.1731 14.3077H30.8269C33.5192 14.3077 35.6923 16.5 35.6923 19.1731V30.8269Z" fill="white"/>
<path d="M24.9998 18.3077C21.3075 18.3077 18.2882 21.3077 18.2882 25.0001C18.2882 28.6924 21.2882 31.7116 24.9998 31.7116C28.6921 31.7116 31.7113 28.7116 31.7113 25.0001C31.7113 21.3077 28.6921 18.3077 24.9998 18.3077ZM24.9998 29.4039C22.5767 29.4039 20.5959 27.4424 20.5959 25.0193C20.6152 22.577 22.5767 20.6154 24.9998 20.6154C27.4228 20.6154 29.4036 22.577 29.4036 25.0001C29.4036 27.4231 27.4228 29.4039 24.9998 29.4039Z" fill="white"/>
<path d="M31.9809 16.3463C31.5385 16.3463 31.0962 16.5194 30.7885 16.8463C30.4809 17.154 30.2885 17.5963 30.2885 18.0386C30.2885 18.4809 30.4616 18.9232 30.7885 19.2309C31.0962 19.5386 31.5385 19.7309 31.9809 19.7309C32.4232 19.7309 32.8655 19.5578 33.1732 19.2309C33.4809 18.9232 33.6732 18.4809 33.6732 18.0386C33.6732 17.5963 33.5001 17.154 33.1732 16.8463C32.8655 16.5194 32.4424 16.3463 31.9809 16.3463Z" fill="white"/>
</svg>
