<svg width="25" height="21" viewBox="0 0 25 21" fill="none" xmlns="http://www.w3.org/2000/svg">
<path d="M0.437443 10.0679L6.19712 12.1385L8.42599 19.0538C8.57181 19.496 9.13424 19.6569 9.49877 19.3654L12.7067 16.8425C13.04 16.5812 13.5191 16.5611 13.8732 16.8124L19.6641 20.8731C20.0599 21.1545 20.6223 20.9434 20.7265 20.4811L24.9864 0.790609C25.0905 0.277994 24.5802 -0.14416 24.0802 0.0468147L0.437443 8.84169C-0.145814 9.06281 -0.145814 9.85686 0.437443 10.0679ZM8.07187 11.0329L19.3308 4.33871C19.5287 4.2181 19.737 4.47943 19.5704 4.64025L10.2799 12.9728C9.95705 13.2642 9.73832 13.6562 9.68625 14.0885L9.37379 16.35C9.33213 16.6515 8.89468 16.6817 8.80095 16.3902L7.58235 12.2591C7.43654 11.7968 7.64485 11.2942 8.07187 11.0329Z"/>
</svg>
