<svg width="50" height="30" viewBox="0 0 50 30" fill="none" xmlns="http://www.w3.org/2000/svg">
<rect x="0.5" y="0.5" width="49" height="29" rx="1.5" fill="white"/>
<rect x="0.5" y="0.5" width="49" height="29" rx="1.5" stroke="#C1C1C1"/>
<rect x="0.5" y="0.5" width="49" height="29" rx="1.5" stroke="url(#paint0_linear)"/>
<rect x="2" y="2" width="46" height="26" rx="1" fill="#F3F3F4"/>
<rect x="2" y="2" width="46" height="26" rx="1" fill="url(#paint1_linear)" fill-opacity="0.3"/>
<path d="M39 15C39 19.9524 35 24 30 24C25.0476 24 21 19.9524 21 15C21 10.0476 25 6 29.9524 6C35 6 39 10.0476 39 15Z" fill="#FFB600"/>
<path d="M30 6C34.9524 6 39 10.0476 39 15C39 19.9524 35 24 30 24C25.0476 24 21 19.9524 21 15" fill="#F7981D"/>
<path d="M30 6C34.9524 6 39 10.0476 39 15C39 19.9524 35 24 30 24" fill="#FF8500"/>
<path d="M17.9048 6C13 6.04762 9 10.0476 9 15C9 19.9524 13 24 18 24C20.3333 24 22.4286 23.0952 24.0476 21.6667C24.381 21.381 24.6667 21.0476 24.9524 20.7143H23.0952C22.8571 20.4286 22.619 20.0952 22.4286 19.8095H25.619C25.8095 19.5238 26 19.1905 26.1429 18.8571H21.9048C21.7619 18.5714 21.619 18.2381 21.5238 17.9048H26.4762C26.7619 17 26.9524 16.0476 26.9524 15.0476C26.9524 14.381 26.8571 13.7619 26.7619 13.1429H21.2381C21.2857 12.8095 21.381 12.5238 21.4762 12.1905H26.4286C26.3333 11.8571 26.1905 11.5238 26.0476 11.2381H21.8571C22 10.9048 22.1905 10.619 22.381 10.2857H25.5714C25.381 9.95238 25.1429 9.61905 24.8571 9.33333H23.0952C23.381 9 23.6667 8.71429 24 8.42857C22.4286 6.95238 20.2857 6.09524 17.9524 6.09524C17.9524 6 17.9524 6 17.9048 6Z" fill="#FF5050"/>
<path d="M9 15C9 19.9524 13 24 18 24C20.3333 24 22.4286 23.0952 24.0476 21.6667C24.381 21.3809 24.6667 21.0476 24.9524 20.7143H23.0952C22.8571 20.4286 22.619 20.0952 22.4286 19.8095H25.619C25.8095 19.5238 26 19.1905 26.1429 18.8571H21.9048C21.7619 18.5714 21.619 18.2381 21.5238 17.9048H26.4762C26.7619 17 26.9524 16.0476 26.9524 15.0476C26.9524 14.3809 26.8571 13.7619 26.7619 13.1428H21.2381C21.2857 12.8095 21.381 12.5238 21.4762 12.1905H26.4286C26.3333 11.8571 26.1905 11.5238 26.0476 11.2381H21.8571C22 10.9048 22.1905 10.619 22.381 10.2857H25.5714C25.381 9.95237 25.1429 9.61904 24.8571 9.33333H23.0952C23.381 8.99999 23.6667 8.71428 24 8.42856C22.4286 6.95237 20.2857 6.09523 17.9524 6.09523H17.9048" fill="#E52836"/>
<path d="M18 24C20.3334 24 22.4286 23.0952 24.0476 21.6667C24.381 21.3809 24.6667 21.0476 24.9524 20.7143H23.0953C22.8572 20.4286 22.6191 20.0952 22.4286 19.8095H25.6191C25.8095 19.5238 26 19.1905 26.1429 18.8571H21.9048C21.7619 18.5714 21.6191 18.2381 21.5238 17.9048H26.4762C26.7619 17 26.9524 16.0476 26.9524 15.0476C26.9524 14.3809 26.8572 13.7619 26.7619 13.1428H21.2381C21.2857 12.8095 21.381 12.5238 21.4762 12.1905H26.4286C26.3334 11.8571 26.1905 11.5238 26.0476 11.2381H21.8572C22 10.9048 22.1905 10.619 22.381 10.2857H25.5715C25.381 9.95237 25.1429 9.61904 24.8572 9.33333H23.0953C23.381 8.99999 23.6667 8.71428 24 8.42856C22.4286 6.95237 20.2857 6.09523 17.9524 6.09523H17.9048" fill="#CB2026"/>
<path d="M21.1904 17.2857L21.3333 16.4762C21.2856 16.4762 21.1904 16.5238 21.0952 16.5238C20.7618 16.5238 20.7142 16.3333 20.7618 16.2381L21.0475 14.5714H21.5714L21.7142 13.6667H21.238L21.3333 13.0952H20.3809C20.3809 13.0952 19.8094 16.2381 19.8094 16.6191C19.8094 17.1905 20.1428 17.4286 20.5714 17.4286C20.8571 17.4286 21.0952 17.3333 21.1904 17.2857Z" fill="white"/>
<path d="M21.5237 15.7619C21.5237 17.0952 22.4284 17.4286 23.1903 17.4286C23.9046 17.4286 24.1903 17.2857 24.1903 17.2857L24.3808 16.381C24.3808 16.381 23.857 16.619 23.3808 16.619C22.3332 16.619 22.5237 15.8571 22.5237 15.8571H24.4761C24.4761 15.8571 24.6189 15.2381 24.6189 15C24.6189 14.381 24.2856 13.619 23.238 13.619C22.238 13.5238 21.5237 14.5714 21.5237 15.7619ZM23.1903 14.381C23.7142 14.381 23.6189 15 23.6189 15.0476H22.5713C22.5713 15 22.6665 14.381 23.1903 14.381Z" fill="white"/>
<path d="M29.2381 17.2857L29.4285 16.2381C29.4285 16.2381 28.9524 16.4762 28.619 16.4762C27.9524 16.4762 27.6666 15.9524 27.6666 15.381C27.6666 14.2381 28.2381 13.6191 28.9047 13.6191C29.3809 13.6191 29.7619 13.9048 29.7619 13.9048L29.9047 12.9048C29.9047 12.9048 29.3333 12.6667 28.8095 12.6667C27.7143 12.6667 26.619 13.6191 26.619 15.4286C26.619 16.6191 27.1904 17.4286 28.3333 17.4286C28.7143 17.4286 29.2381 17.2857 29.2381 17.2857Z" fill="white"/>
<path d="M15.9522 13.5238C15.2856 13.5238 14.8094 13.7143 14.8094 13.7143L14.6665 14.5238C14.6665 14.5238 15.0951 14.3333 15.7141 14.3333C16.0475 14.3333 16.3332 14.381 16.3332 14.6667C16.3332 14.8572 16.2856 14.9048 16.2856 14.9048C16.2856 14.9048 15.9998 14.9048 15.857 14.9048C15.0475 14.9048 14.1427 15.2381 14.1427 16.3333C14.1427 17.1905 14.7141 17.381 15.0475 17.381C15.7141 17.381 15.9998 16.9524 16.0475 16.9524L15.9998 17.3333H16.857L17.2379 14.7143C17.2379 13.5714 16.2856 13.5238 15.9522 13.5238ZM16.1427 15.6667C16.1427 15.8095 16.0475 16.5714 15.476 16.5714C15.1903 16.5714 15.0951 16.3333 15.0951 16.1905C15.0951 15.9524 15.2379 15.6191 15.9522 15.6191C16.0951 15.6667 16.1427 15.6667 16.1427 15.6667Z" fill="white"/>
<path d="M18.1427 17.381C18.3808 17.381 19.5713 17.4286 19.5713 16.1429C19.5713 14.9524 18.4284 15.1905 18.4284 14.7143C18.4284 14.4762 18.6189 14.381 18.9522 14.381C19.0951 14.381 19.6189 14.4286 19.6189 14.4286L19.7618 13.5714C19.7618 13.5714 19.4284 13.4762 18.857 13.4762C18.1427 13.4762 17.4284 13.7619 17.4284 14.7143C17.4284 15.8095 18.6189 15.7143 18.6189 16.1429C18.6189 16.4286 18.2856 16.4762 18.0475 16.4762C17.6189 16.4762 17.1903 16.3333 17.1903 16.3333L17.0475 17.1905C17.0951 17.2857 17.3332 17.381 18.1427 17.381Z" fill="white"/>
<path d="M37.1428 12.7619L36.9523 14.0476C36.9523 14.0476 36.5713 13.5714 36.0475 13.5714C35.1904 13.5714 34.4285 14.619 34.4285 15.8571C34.4285 16.619 34.8094 17.4286 35.6189 17.4286C36.1904 17.4286 36.5237 17.0476 36.5237 17.0476L36.4761 17.3809H37.4285L38.1428 12.8095L37.1428 12.7619ZM36.7142 15.2857C36.7142 15.8095 36.4761 16.4762 35.9523 16.4762C35.6189 16.4762 35.4285 16.1905 35.4285 15.7143C35.4285 14.9524 35.7618 14.4762 36.1904 14.4762C36.5237 14.4762 36.7142 14.7143 36.7142 15.2857Z" fill="white"/>
<path d="M10.7618 17.3333L11.3332 13.9048L11.4285 17.3333H12.0952L13.3332 13.9048L12.8094 17.3333H13.8094L14.5713 12.7619H12.9999L12.0475 15.5714L11.9999 12.7619H10.619L9.85706 17.3333H10.7618Z" fill="white"/>
<path d="M25.5237 17.3333C25.8094 15.7619 25.857 14.4762 26.5237 14.7143C26.6189 14.0952 26.7618 13.8571 26.857 13.619C26.857 13.619 26.8094 13.619 26.6665 13.619C26.238 13.619 25.9046 14.1905 25.9046 14.1905L25.9999 13.6667H25.0951L24.4761 17.381H25.5237V17.3333Z" fill="white"/>
<path d="M31.4284 13.5238C30.7618 13.5238 30.2856 13.7143 30.2856 13.7143L30.1427 14.5238C30.1427 14.5238 30.5713 14.3333 31.1903 14.3333C31.5237 14.3333 31.8094 14.381 31.8094 14.6667C31.8094 14.8572 31.7618 14.9048 31.7618 14.9048C31.7618 14.9048 31.476 14.9048 31.3332 14.9048C30.5237 14.9048 29.6189 15.2381 29.6189 16.3333C29.6189 17.1905 30.1903 17.381 30.5237 17.381C31.1903 17.381 31.476 16.9524 31.5237 16.9524L31.476 17.3333H32.3332L32.7141 14.7143C32.7618 13.5714 31.7618 13.5238 31.4284 13.5238ZM31.6665 15.6667C31.6665 15.8095 31.5713 16.5714 30.9998 16.5714C30.7141 16.5714 30.6189 16.3333 30.6189 16.1905C30.6189 15.9524 30.7618 15.6191 31.476 15.6191C31.6189 15.6667 31.6189 15.6667 31.6665 15.6667Z" fill="white"/>
<path d="M33.5237 17.3333C33.8094 15.7619 33.857 14.4762 34.5237 14.7143C34.6189 14.0952 34.7618 13.8571 34.857 13.619C34.857 13.619 34.8094 13.619 34.6666 13.619C34.238 13.619 33.9046 14.1905 33.9046 14.1905L33.9999 13.6667H33.0951L32.4761 17.381H33.5237V17.3333Z" fill="white"/>
<path d="M19.7142 16.6191C19.7142 17.1905 20.0476 17.4286 20.4761 17.4286C20.8095 17.4286 21.0952 17.3333 21.1904 17.2857L21.3333 16.4762C21.2857 16.4762 21.1904 16.5238 21.0952 16.5238C20.7619 16.5238 20.7142 16.3333 20.7619 16.2381L21.0476 14.5714H21.5714L21.7142 13.6667H21.238L21.3333 13.0952" fill="#DCE5E5"/>
<path d="M21.9999 15.7619C21.9999 17.0952 22.4284 17.4286 23.1904 17.4286C23.9046 17.4286 24.1904 17.2857 24.1904 17.2857L24.3808 16.381C24.3808 16.381 23.857 16.619 23.3808 16.619C22.3332 16.619 22.5237 15.8571 22.5237 15.8571H24.4761C24.4761 15.8571 24.6189 15.2381 24.6189 15C24.6189 14.381 24.2856 13.619 23.238 13.619C22.238 13.5238 21.9999 14.5714 21.9999 15.7619ZM23.1904 14.381C23.7142 14.381 23.8094 15 23.8094 15.0476H22.5713C22.5713 15 22.6665 14.381 23.1904 14.381Z" fill="#DCE5E5"/>
<path d="M29.2381 17.2857L29.4285 16.2381C29.4285 16.2381 28.9524 16.4762 28.619 16.4762C27.9524 16.4762 27.6666 15.9524 27.6666 15.381C27.6666 14.2381 28.2381 13.6191 28.9047 13.6191C29.3809 13.6191 29.7619 13.9048 29.7619 13.9048L29.9047 12.9048C29.9047 12.9048 29.3333 12.6667 28.8095 12.6667C27.7143 12.6667 27.0952 13.6191 27.0952 15.4286C27.0952 16.6191 27.1905 17.4286 28.3333 17.4286C28.7143 17.4286 29.2381 17.2857 29.2381 17.2857Z" fill="#DCE5E5"/>
<path d="M14.6665 14.5714C14.6665 14.5714 15.0951 14.381 15.7141 14.381C16.0475 14.381 16.3332 14.4286 16.3332 14.7143C16.3332 14.9048 16.2856 14.9524 16.2856 14.9524C16.2856 14.9524 15.9998 14.9524 15.857 14.9524C15.0475 14.9524 14.1427 15.2857 14.1427 16.381C14.1427 17.2381 14.7141 17.4286 15.0475 17.4286C15.7141 17.4286 15.9998 17 16.0475 17L15.9998 17.381H16.857L17.2379 14.7619C17.2379 13.6667 16.2856 13.619 15.9046 13.619L14.6665 14.5714ZM16.6189 15.6667C16.6189 15.8095 16.0475 16.5714 15.476 16.5714C15.1903 16.5714 15.0951 16.3333 15.0951 16.1905C15.0951 15.9524 15.2379 15.619 15.9522 15.619C16.0951 15.6667 16.6189 15.6667 16.6189 15.6667Z" fill="#DCE5E5"/>
<path d="M17.0951 17.2857C17.0951 17.2857 17.3808 17.381 18.1903 17.381C18.4284 17.381 19.6189 17.4286 19.6189 16.1429C19.6189 14.9524 18.476 15.1905 18.476 14.7143C18.476 14.4762 18.6665 14.381 18.9999 14.381C19.1427 14.381 19.6665 14.4286 19.6665 14.4286L19.8094 13.5714C19.8094 13.5714 19.476 13.4762 18.9046 13.4762C18.1903 13.4762 17.9522 13.7619 17.9522 14.7143C17.9522 15.8095 18.6665 15.7143 18.6665 16.1429C18.6665 16.4286 18.3332 16.4762 18.0951 16.4762" fill="#DCE5E5"/>
<path d="M36.9523 14.0476C36.9523 14.0476 36.5714 13.5714 36.0476 13.5714C35.1904 13.5714 34.9047 14.619 34.9047 15.8571C34.9047 16.619 34.8095 17.4286 35.619 17.4286C36.1904 17.4286 36.5237 17.0476 36.5237 17.0476L36.4761 17.381H37.4285L38.1428 12.8095L36.9523 14.0476ZM36.9047 15.2857C36.9047 15.8095 36.4761 16.4762 35.9523 16.4762C35.619 16.4762 35.4285 16.1905 35.4285 15.7143C35.4285 14.9524 35.7618 14.4762 36.1904 14.4762C36.5237 14.4762 36.9047 14.7143 36.9047 15.2857Z" fill="#DCE5E5"/>
<path d="M10.7618 17.3333L11.3332 13.9048L11.4285 17.3333H12.0952L13.3332 13.9048L12.8094 17.3333H13.8094L14.5713 12.7619H13.3809L12.0475 15.5714L11.9999 12.7619H11.4761L9.85706 17.3333H10.7618Z" fill="#DCE5E5"/>
<path d="M24.5237 17.3333H25.5237C25.8094 15.7619 25.857 14.4762 26.5237 14.7143C26.6189 14.0952 26.7618 13.8571 26.857 13.619C26.857 13.619 26.8094 13.619 26.6665 13.619C26.238 13.619 25.9046 14.1905 25.9046 14.1905L25.9999 13.6667" fill="#DCE5E5"/>
<path d="M30.1427 14.5714C30.1427 14.5714 30.5713 14.381 31.1903 14.381C31.5237 14.381 31.8094 14.4286 31.8094 14.7143C31.8094 14.9048 31.7618 14.9524 31.7618 14.9524C31.7618 14.9524 31.476 14.9524 31.3332 14.9524C30.5237 14.9524 29.6189 15.2857 29.6189 16.381C29.6189 17.2381 30.1903 17.4286 30.5237 17.4286C31.1903 17.4286 31.476 17 31.5237 17L31.476 17.381H32.3332L32.7141 14.7619C32.7141 13.6667 31.7618 13.619 31.3808 13.619L30.1427 14.5714ZM32.0951 15.6667C32.0951 15.8095 31.5237 16.5714 30.9522 16.5714C30.6665 16.5714 30.5713 16.3333 30.5713 16.1905C30.5713 15.9524 30.7141 15.619 31.4284 15.619C31.6189 15.6667 32.0951 15.6667 32.0951 15.6667Z" fill="#DCE5E5"/>
<path d="M32.5237 17.3333H33.5237C33.8094 15.7619 33.857 14.4762 34.5237 14.7143C34.6189 14.0952 34.7618 13.8571 34.857 13.619C34.857 13.619 34.8094 13.619 34.6665 13.619C34.238 13.619 33.9046 14.1905 33.9046 14.1905L33.9999 13.6667" fill="#DCE5E5"/>
<defs>
<linearGradient id="paint0_linear" x1="25" y1="1" x2="25" y2="29" gradientUnits="userSpaceOnUse">
<stop stop-color="#E0E0E0"/>
<stop offset="1" stop-color="white" stop-opacity="0"/>
</linearGradient>
<linearGradient id="paint1_linear" x1="25" y1="2" x2="25" y2="28" gradientUnits="userSpaceOnUse">
<stop stop-color="white"/>
<stop offset="1" stop-color="white" stop-opacity="0"/>
</linearGradient>
</defs>
</svg>
