<svg width="50" height="30" viewBox="0 0 50 30" fill="none" xmlns="http://www.w3.org/2000/svg">
<rect x="0.5" y="0.5" width="49" height="29" rx="1.5" fill="white"/>
<rect x="0.5" y="0.5" width="49" height="29" rx="1.5" stroke="#C1C1C1"/>
<rect x="0.5" y="0.5" width="49" height="29" rx="1.5" stroke="url(#paint0_linear)"/>
<rect x="2" y="2" width="46" height="26" rx="1" fill="#F3F3F4"/>
<rect x="2" y="2" width="46" height="26" rx="1" fill="url(#paint1_linear)" fill-opacity="0.3"/>
<path d="M25.0012 6C26.0613 6 26.3944 6.82978 26.6738 7.65825C26.7912 8.01006 29.5459 16.2428 29.6288 16.4899C29.6508 16.5588 29.6359 16.672 29.5388 16.713C29.4411 16.7533 28.0098 17.3606 27.9305 17.3932C27.8513 17.4263 27.7625 17.3782 27.7339 17.2917C27.7041 17.2065 27.11 15.4117 27.0433 15.2114H22.9603C22.896 15.4117 22.2947 17.2104 22.2679 17.2917C22.2405 17.3743 22.1553 17.4302 22.0707 17.3932C21.9861 17.3567 20.5494 16.7494 20.4636 16.713C20.3814 16.6778 20.3438 16.5757 20.3724 16.4899C20.4737 16.1817 23.1867 8.08094 23.325 7.65825C23.5943 6.84213 23.9387 6 25.0012 6ZM20.1543 20.7311C20.0685 20.7311 20 20.8092 20 20.9041V22.8283C20 22.9233 20.0685 23 20.1543 23H29.8439C29.9315 23 30 22.9233 30 22.8283V20.9041C30 20.8092 29.9315 20.7311 29.8439 20.7311H20.1543ZM24.9917 8.68832L23.6116 13.2111H26.3944L25.0095 8.68832H24.9917Z" fill="#EE2A23"/>
<defs>
<linearGradient id="paint0_linear" x1="25" y1="1" x2="25" y2="29" gradientUnits="userSpaceOnUse">
<stop stop-color="#E0E0E0"/>
<stop offset="1" stop-color="white" stop-opacity="0"/>
</linearGradient>
<linearGradient id="paint1_linear" x1="25" y1="2" x2="25" y2="28" gradientUnits="userSpaceOnUse">
<stop stop-color="white"/>
<stop offset="1" stop-color="white" stop-opacity="0"/>
</linearGradient>
</defs>
</svg>
