<svg width="50" height="30" viewBox="0 0 50 30" fill="none" xmlns="http://www.w3.org/2000/svg">
<path d="M22.8734 20.9857L20.1026 18.1504L19.587 20.9857H22.8734Z" fill="#051244"/>
<path d="M30.2841 16.9905C30.5418 17.2483 30.6707 17.4416 30.6063 17.6993C30.6063 18.4726 29.5753 18.8592 28.6731 18.8592C27.3843 18.8592 26.6755 18.6659 25.58 18.2148L25.1289 18.0215L24.6779 20.6635C25.4511 20.9857 26.8688 21.3079 28.3509 21.3079C30.413 21.3079 32.0884 20.728 33.055 19.697L30.2841 16.9905Z" fill="#051244"/>
<rect x="0.5" y="0.5" width="49" height="29" rx="1.5" fill="white"/>
<rect x="0.5" y="0.5" width="49" height="29" rx="1.5" stroke="#C1C1C1"/>
<rect x="0.5" y="0.5" width="49" height="29" rx="1.5" stroke="url(#paint0_linear)"/>
<rect x="2" y="2" width="46" height="26" rx="1" fill="#F3F3F4"/>
<rect x="2" y="2" width="46" height="26" rx="1" fill="url(#paint1_linear)" fill-opacity="0.3"/>
<path d="M19.587 20.9857L21.6491 9.38664H24.8711L22.8734 20.9857H19.587Z" fill="#3C58BF"/>
<path d="M19.587 20.9857L22.2291 9.38664H24.8711L22.8734 20.9857H19.587Z" fill="#293688"/>
<path d="M34.537 9.51552C33.8926 9.25776 32.8615 9 31.5728 9C28.3508 9 26.031 10.611 26.031 12.9308C26.031 14.6707 27.6419 15.5728 28.9307 16.1528C30.2195 16.7327 30.6062 17.1194 30.6062 17.6349C30.6062 18.4082 29.5751 18.7948 28.673 18.7948C27.3842 18.7948 26.6754 18.6015 25.5799 18.1504L25.1288 17.9571L24.6777 20.5991C25.451 20.9213 26.8687 21.2435 28.3508 21.2435C31.7661 21.2435 34.0215 19.6325 34.0215 17.1838C34.0215 15.8306 33.1837 14.7996 31.2506 13.9618C30.0906 13.3819 29.3818 13.0597 29.3818 12.4797C29.3818 11.9642 29.9618 11.4487 31.2506 11.4487C32.346 11.4487 33.1193 11.642 33.6993 11.8998L34.0215 12.0287L34.537 9.51552Z" fill="#3C58BF"/>
<path d="M34.537 9.51552C33.8926 9.25776 32.8615 9 31.5728 9C28.3508 9 26.6109 10.611 26.6109 12.9308C26.6109 14.6707 27.6419 15.5728 28.9307 16.1528C30.2195 16.7327 30.6062 17.1194 30.6062 17.6349C30.6062 18.4082 29.5751 18.7948 28.673 18.7948C27.3842 18.7948 26.6754 18.6015 25.5799 18.1504L25.1288 17.9571L24.6777 20.5991C25.451 20.9213 26.8687 21.2435 28.3508 21.2435C31.7661 21.2435 34.0215 19.6325 34.0215 17.1838C34.0215 15.8306 33.1837 14.7996 31.2506 13.9618C30.0906 13.3819 29.3818 13.0597 29.3818 12.4797C29.3818 11.9642 29.9618 11.4487 31.2506 11.4487C32.346 11.4487 33.1193 11.642 33.6993 11.8998L34.0215 12.0287L34.537 9.51552Z" fill="#293688"/>
<path d="M40.0788 9.38664C39.3055 9.38664 38.7256 9.45108 38.4034 10.2244L33.5704 20.9857H37.0502L37.6946 19.0526H41.8187L42.2053 20.9857H45.2984L42.592 9.38664H40.0788ZM38.5967 17.1194C38.79 16.5394 39.8855 13.7041 39.8855 13.7041C39.8855 13.7041 40.1433 12.9953 40.3366 12.5442L40.5299 13.6396C40.5299 13.6396 41.1743 16.5394 41.3032 17.1838H38.5967V17.1194Z" fill="#3C58BF"/>
<path d="M40.8521 9.38664C40.0788 9.38664 39.4989 9.45108 39.1767 10.2244L33.5704 20.9857H37.0502L37.6946 19.0526H41.8187L42.2053 20.9857H45.2984L42.592 9.38664H40.8521ZM38.5967 17.1194C38.8545 16.475 39.8855 13.7041 39.8855 13.7041C39.8855 13.7041 40.1433 12.9953 40.3366 12.5442L40.5299 13.6396C40.5299 13.6396 41.1743 16.5394 41.3032 17.1838H38.5967V17.1194Z" fill="#293688"/>
<path d="M13.6586 17.506L13.3364 15.8306C12.7565 13.8974 10.8877 11.7709 8.82568 10.7399L11.7255 21.0502H15.2052L20.4248 9.45108H16.9451L13.6586 17.506Z" fill="#3C58BF"/>
<path d="M13.6586 17.506L13.3364 15.8306C12.7565 13.8974 10.8877 11.7709 8.82568 10.7399L11.7255 21.0502H15.2052L20.4248 9.45108H17.5894L13.6586 17.506Z" fill="#293688"/>
<path d="M4.70154 9.38664L5.28149 9.51552C9.40562 10.4821 12.241 12.9308 13.3364 15.8306L12.1765 10.3532C11.9832 9.57996 11.4032 9.38664 10.6944 9.38664H4.70154Z" fill="#FFBC00"/>
<path d="M4.70154 9.38664C8.82566 10.3532 12.241 12.8664 13.3364 15.7661L12.241 11.1909C12.0476 10.4177 11.4032 9.9666 10.6944 9.9666L4.70154 9.38664Z" fill="#F7981D"/>
<path d="M4.70154 9.38664C8.82566 10.3532 12.241 12.8664 13.3364 15.7661L12.5632 13.253C12.3698 12.4797 12.1121 11.7065 11.2099 11.3843L4.70154 9.38664Z" fill="#ED7C00"/>
<path d="M16.8806 17.1194L14.6897 14.9284L13.6587 17.3771L13.4009 15.7661C12.8209 13.833 10.9522 11.7065 8.89014 10.6754L11.7899 20.9857H15.2696L16.8806 17.1194Z" fill="#051244"/>
<path d="M34.0215 20.9857H37.0501L37.6945 19.0526H41.8187L42.2053 20.9857H45.2984L44.2029 16.2817L40.3366 12.5442L40.5299 13.5752C40.5299 13.5752 41.1743 16.475 41.3031 17.1194H38.5967C38.8544 16.475 39.8855 13.7041 39.8855 13.7041C39.8855 13.7041 40.1432 12.9953 40.3366 12.5442" fill="#051244"/>
<defs>
<linearGradient id="paint0_linear" x1="25" y1="1" x2="25" y2="29" gradientUnits="userSpaceOnUse">
<stop stop-color="#E0E0E0"/>
<stop offset="1" stop-color="white" stop-opacity="0"/>
</linearGradient>
<linearGradient id="paint1_linear" x1="25" y1="2" x2="25" y2="28" gradientUnits="userSpaceOnUse">
<stop stop-color="white"/>
<stop offset="1" stop-color="white" stop-opacity="0"/>
</linearGradient>
</defs>
</svg>
