<svg width="50" height="30" viewBox="0 0 50 30" fill="none" xmlns="http://www.w3.org/2000/svg">
<rect x="0.5" y="0.5" width="49" height="29" rx="1.5" fill="white"/>
<rect x="0.5" y="0.5" width="49" height="29" rx="1.5" stroke="#C1C1C1"/>
<rect x="0.5" y="0.5" width="49" height="29" rx="1.5" stroke="url(#paint0_linear)"/>
<rect x="2" y="2" width="46" height="26" rx="1" fill="#F3F3F4"/>
<rect x="2" y="2" width="46" height="26" rx="1" fill="url(#paint1_linear)" fill-opacity="0.3"/>
<path d="M13 24.4387L13.7253 20.6373C13.8014 20.191 13.9028 19.4734 13.9484 19.0803H15.12L15.0668 19.6052H15.082C15.3736 19.2274 15.7971 19.0346 16.2308 19.0346C17.0549 19.0346 17.4784 19.6889 17.4784 20.4979C17.4784 21.8089 16.6314 22.9957 15.2899 22.9957C15.0287 22.9957 14.7574 22.9273 14.6357 22.8411H14.6205L14.3111 24.4362H13V24.4387ZM14.8183 21.8394C14.9197 21.9408 15.049 22.0093 15.2341 22.0093C15.7287 22.0093 16.0964 21.2384 16.0964 20.5993C16.0964 20.3457 15.9797 20.0972 15.7033 20.0972C15.3254 20.0972 15.0262 20.5055 14.9324 21.1217L14.8183 21.8394Z" fill="#21421D"/>
<path d="M20.0424 22.9121C20.0576 22.6965 20.0728 22.4734 20.0804 22.2578H20.0576C19.7254 22.8208 19.2562 22.9983 18.8556 22.9983C18.1785 22.9983 17.684 22.4734 17.684 21.6492C17.684 20.3939 18.4853 19.0372 20.4354 19.0372C20.9299 19.0372 21.4523 19.1361 21.7769 19.2451L21.3991 21.2333C21.3154 21.6416 21.2368 22.4201 21.2444 22.9146H20.0424V22.9121ZM20.3036 20.0439C20.2199 20.0287 20.1413 20.0211 20.0728 20.0211C19.4642 20.0211 19.0559 20.8453 19.0559 21.4007C19.0559 21.7557 19.2106 21.9408 19.4337 21.9408C19.6721 21.9408 20.0043 21.7024 20.1666 20.8073L20.3036 20.0439Z" fill="#21421D"/>
<path d="M24.5638 22.803C24.3026 22.9349 23.9248 22.9958 23.5013 22.9958C22.5833 22.9958 21.8453 22.4556 21.8453 21.3931C21.8453 20.0287 22.9079 19.0346 24.3813 19.0346C24.6906 19.0346 24.9518 19.0803 25.1446 19.1513L24.8352 20.1454C24.7033 20.0997 24.574 20.0769 24.3737 20.0769C23.6636 20.0769 23.2249 20.6247 23.2249 21.2561C23.2249 21.7405 23.5571 21.951 23.8868 21.951C24.1784 21.951 24.3889 21.8901 24.5816 21.8115L24.5638 22.803Z" fill="#21421D"/>
<path d="M26.7851 19.1183L26.6076 20.0059C26.5848 20.1225 26.5543 20.2671 26.5543 20.3913C26.5543 20.5841 26.6862 20.754 26.9702 20.754C27.1477 20.754 27.31 20.7083 27.4318 20.6145L27.7082 19.1183H29.0192L28.294 22.9095H26.9753L27.2669 21.53H27.2517C27.0666 21.6314 26.7902 21.6999 26.4199 21.6999C25.5881 21.6999 25.1951 21.2992 25.1951 20.6982C25.1951 20.5359 25.2179 20.328 25.2635 20.1276L25.4766 19.1183H26.7851Z" fill="#21421D"/>
<path d="M32.3339 22.6965C31.8242 22.9425 31.2308 22.9983 30.8453 22.9983C29.7346 22.9983 29.126 22.4125 29.126 21.3575C29.126 20.2012 29.9578 19.0372 31.3931 19.0372C32.1792 19.0372 32.7955 19.4683 32.7955 20.2468C32.8031 21.1952 31.9332 21.5807 30.3686 21.5351C30.3838 21.6187 30.4294 21.7202 30.5081 21.7887C30.6551 21.9129 30.8859 21.9814 31.1851 21.9814C31.5706 21.9814 31.9332 21.9053 32.2654 21.7506L32.3339 22.6965ZM31.5706 20.2291C31.5706 20.0972 31.4463 19.9831 31.2308 19.9831C30.7616 19.9831 30.5283 20.3381 30.4903 20.5841C31.2917 20.5917 31.5706 20.475 31.5706 20.2367V20.2291Z" fill="#21421D"/>
<path d="M33.3329 22.9121L34.0506 19.1183H35.3692L34.6516 22.9095H33.3329V22.9121Z" fill="#21421D"/>
<path d="M33.0921 19.0778L36.5131 19.0803L36.3204 20.049L32.8994 20.0465L33.0921 19.0778Z" fill="#21421D"/>
<path d="M14.3188 16.1437H37.0001L36.6172 18.1318H13.9891L14.3188 16.1437Z" fill="#21421D"/>
<path d="M32.0195 13.0752C32.0195 15.0564 31.2052 16.8474 29.893 18.1317L19.996 18.1323C18.6835 16.8479 17.869 15.0567 17.869 13.0752C17.869 9.16768 21.0367 6 24.9442 6C28.8518 6 32.0195 9.16768 32.0195 13.0752Z" fill="#D74C2E"/>
<path d="M30.929 13.0752C30.929 15.1895 29.8327 17.0476 28.1775 18.1123H21.6983C20.0502 17.0463 18.9595 15.1841 18.9595 13.0752C18.9595 9.76992 21.6389 7.09045 24.9442 7.09045C28.2495 7.09045 30.929 9.76992 30.929 13.0752Z" fill="#F49D31"/>
<path d="M29.9004 13.672C29.9004 15.5372 28.9957 17.1765 27.6297 18.1157H22.2828C20.9227 17.1753 20.0226 15.5324 20.0226 13.672C20.0226 10.7561 22.2338 8.39227 24.9615 8.39227C27.6892 8.39227 29.9004 10.7561 29.9004 13.672Z" fill="#E15D2F"/>
<defs>
<linearGradient id="paint0_linear" x1="25" y1="1" x2="25" y2="29" gradientUnits="userSpaceOnUse">
<stop stop-color="#E0E0E0"/>
<stop offset="1" stop-color="white" stop-opacity="0"/>
</linearGradient>
<linearGradient id="paint1_linear" x1="25" y1="2" x2="25" y2="28" gradientUnits="userSpaceOnUse">
<stop stop-color="white"/>
<stop offset="1" stop-color="white" stop-opacity="0"/>
</linearGradient>
</defs>
</svg>
