<svg width="50" height="30" viewBox="0 0 50 30" fill="none" xmlns="http://www.w3.org/2000/svg">
<rect x="0.5" y="0.5" width="49" height="29" rx="1.5" fill="white"/>
<rect x="0.5" y="0.5" width="49" height="29" rx="1.5" stroke="#C1C1C1"/>
<rect x="0.5" y="0.5" width="49" height="29" rx="1.5" stroke="url(#paint0_linear)"/>
<rect x="2" y="2" width="46" height="26" rx="1" fill="#F3F3F4"/>
<rect x="2" y="2" width="46" height="26" rx="1" fill="url(#paint1_linear)" fill-opacity="0.3"/>
<path d="M6.00604 10.1236C6.32309 10.1266 6.64015 10.1387 6.95418 10.1326C7.081 10.1296 7.11723 10.1748 7.11421 10.2954C7.1112 11.3203 7.11119 12.3421 7.11119 13.367C7.11119 13.4062 7.10516 13.4484 7.11119 13.4876C7.12025 13.5388 7.13837 13.5871 7.15045 13.6383C7.19574 13.6112 7.25009 13.5961 7.28331 13.5569C7.61546 13.1801 8.02914 12.942 8.52133 12.8606C9.34566 12.725 10.1428 12.7762 10.8252 13.3218C11.2963 13.6986 11.5409 14.2231 11.6707 14.7958C11.9183 15.884 11.9425 16.9752 11.5801 18.0452C11.1936 19.1847 10.3663 19.8327 9.19469 20.0226C8.08651 20.2035 7.01457 20.0558 6 19.5554C6.00604 16.4145 6.00604 13.2675 6.00604 10.1236ZM7.11421 17.0083C7.11421 17.5509 7.12025 18.0935 7.11119 18.636C7.10818 18.8018 7.17159 18.8772 7.31351 18.9375C7.66075 19.0882 8.02914 19.1304 8.40054 19.1605C9.37888 19.2359 10.2002 18.7235 10.5082 17.795C10.8252 16.8455 10.8132 15.8779 10.5142 14.9224C10.3572 14.419 10.0462 14.0241 9.52986 13.8312C9.21582 13.7137 8.89273 13.7106 8.5636 13.7589C7.81173 13.8704 7.11421 14.6662 7.11421 15.4258C7.11421 15.9533 7.11421 16.4808 7.11421 17.0083Z" fill="#F49431"/>
<path d="M18.3892 18.6602C18.513 18.9013 18.6338 19.1244 18.7395 19.3565C18.7546 19.3896 18.7063 19.474 18.664 19.5012C18.2986 19.7513 17.891 19.9081 17.4622 20.0106C16.81 20.1673 16.1487 20.1975 15.4935 20.0467C14.4578 19.8086 13.7995 19.1455 13.5036 18.1477C13.1805 17.0565 13.1805 15.9443 13.4824 14.847C13.8206 13.6142 14.8141 12.8455 16.0913 12.8184C16.4718 12.8094 16.8553 12.8425 17.2297 12.8998C18.1718 13.0505 18.6972 13.6534 18.9146 14.5486C19.0626 15.1575 19.0324 15.7724 18.9629 16.3904C18.9478 16.523 18.8874 16.5471 18.7667 16.5471C17.4501 16.5441 16.1306 16.5441 14.8141 16.5441C14.4095 16.5441 14.3853 16.5471 14.4215 16.939C14.4517 17.2706 14.497 17.6112 14.6057 17.9247C14.8624 18.6722 15.418 19.0701 16.194 19.1726C16.9821 19.2751 17.7068 19.1304 18.3892 18.6602ZM16.194 15.7122C16.7315 15.7122 17.269 15.7122 17.8064 15.7122C17.8125 15.7122 17.8155 15.7122 17.8215 15.7122C17.9423 15.7302 17.9876 15.673 17.9755 15.5584C17.9544 15.3595 17.9453 15.1575 17.9121 14.9616C17.8004 14.2954 17.4441 13.9036 16.7979 13.783C16.5382 13.7348 16.2574 13.7438 15.9917 13.7679C15.2579 13.8282 14.7174 14.2984 14.5363 15.0098C14.491 15.1846 14.4729 15.3655 14.4336 15.5403C14.4034 15.67 14.4396 15.7212 14.5816 15.7182C15.116 15.7091 15.6535 15.7122 16.194 15.7122Z" fill="#F49431"/>
<path d="M23.4591 10.003C23.6946 10.0271 23.9271 10.0482 24.1596 10.0754C24.7394 10.1417 25.298 10.2713 25.8053 10.5727C26.6628 11.0852 27.0705 11.8538 27.1158 12.8395C27.158 13.78 26.9316 14.621 26.2431 15.2992C25.7721 15.7634 25.1863 16.0015 24.5522 16.1402C23.8094 16.303 23.0575 16.2969 22.3026 16.2366C22.1154 16.2216 22.1033 16.2246 22.1033 16.4145C22.1033 17.5298 22.1033 18.6451 22.1033 19.7604C22.1033 19.9714 22.1033 19.9714 21.8859 19.9714C21.6383 19.9714 21.3937 19.9623 21.1461 19.9744C20.9891 19.9834 20.977 19.9081 20.977 19.7845C20.98 18.3889 20.977 16.9932 20.977 15.5976C20.977 13.8794 20.98 12.1613 20.974 10.4461C20.974 10.2864 21.0133 10.205 21.1793 10.1929C21.7077 10.1477 22.2362 10.0934 22.7676 10.0422C22.8582 10.0332 22.9458 10.0211 23.0333 10.009C23.1783 10.003 23.3172 10.003 23.4591 10.003ZM22.9578 15.2871C23.2054 15.2751 23.4893 15.2721 23.7671 15.2479C24.3348 15.1997 24.8722 15.055 25.298 14.6541C25.8868 14.1025 25.9985 13.3941 25.8868 12.6436C25.766 11.8418 25.2285 11.3775 24.4857 11.1485C23.752 10.9224 22.9971 10.9646 22.2422 11.049C22.1335 11.061 22.1003 11.1213 22.1003 11.2208C22.1033 11.3504 22.1003 11.483 22.1003 11.6127C22.1003 12.7521 22.1033 13.8915 22.0973 15.0309C22.0973 15.1846 22.1516 15.251 22.3026 15.254C22.511 15.263 22.7193 15.2751 22.9578 15.2871Z" fill="#65707A"/>
<path d="M36.1412 10.003C36.3012 10.0874 36.4885 10.1447 36.6183 10.2653C37.0501 10.6632 36.878 11.3233 36.3133 11.4861C35.8513 11.6217 35.4014 11.3745 35.3199 10.9435C35.2384 10.5185 35.486 10.1387 35.9117 10.0362C35.9389 10.0301 35.9661 10.0121 35.9932 10C36.0416 10.003 36.0899 10.003 36.1412 10.003Z" fill="#65707A"/>
<path d="M44.611 19.9985C44.3906 19.9985 44.1793 20.0045 43.9709 19.9925C43.9377 19.9895 43.8894 19.9262 43.8773 19.881C43.8018 19.6308 43.7354 19.3776 43.6629 19.1304C43.6478 19.0822 43.6055 19.046 43.5784 19.0008C43.5421 19.0339 43.5029 19.0611 43.4757 19.1002C42.9292 19.8779 42.1743 20.1944 41.2352 20.1311C40.8275 20.104 40.441 20.0226 40.0757 19.8357C39.5352 19.5584 39.1849 19.1123 39.0037 18.5486C38.5991 17.2947 38.5417 16.0196 38.9705 14.7656C39.36 13.6262 40.2025 13.0023 41.4013 12.8696C42.0324 12.8003 42.6574 12.8274 43.2643 13.0354C43.4304 13.0927 43.4123 12.9782 43.4123 12.8847C43.4123 12.0769 43.4123 11.269 43.4123 10.4582C43.4123 10.0693 43.373 10.1387 43.7414 10.1326C43.9226 10.1296 44.1038 10.1326 44.2849 10.1326C44.4933 10.1326 44.4933 10.1326 44.4933 10.3346C44.4933 11.7815 44.4933 13.2283 44.4933 14.6752C44.4933 15.902 44.4842 17.1259 44.4993 18.3527C44.5054 18.8561 44.5718 19.3625 44.608 19.8659C44.6141 19.9021 44.611 19.9412 44.611 19.9985ZM43.4123 15.9412C43.4123 15.4499 43.3942 14.9555 43.4183 14.4642C43.4304 14.1959 43.3308 14.0482 43.0922 13.9668C43.0077 13.9367 42.9231 13.8915 42.8386 13.8794C42.5759 13.8402 42.3132 13.8041 42.0505 13.783C41.057 13.7046 40.278 14.2381 39.9942 15.1877C39.8311 15.7332 39.81 16.2939 39.8402 16.8576C39.8643 17.2947 39.9126 17.7287 40.0908 18.1357C40.2508 18.5034 40.4803 18.8229 40.8396 19.0128C42.0142 19.6338 43.4123 18.7868 43.4183 17.4574C43.4153 16.954 43.4123 16.4476 43.4123 15.9412Z" fill="#65707A"/>
<path d="M32.0105 15.9744C32.0588 15.5343 32.0829 15.1032 32.0105 14.6752C31.9199 14.1537 31.6179 13.8855 31.0623 13.8222C30.2289 13.7287 29.4318 13.8915 28.6618 14.199C28.538 14.2472 28.4866 14.2412 28.4413 14.1115C28.381 13.9367 28.3055 13.7649 28.227 13.5961C28.1787 13.4966 28.1998 13.4484 28.2964 13.3941C28.7312 13.159 29.1962 13.0204 29.6824 12.948C30.2863 12.8546 30.8932 12.8033 31.5002 12.8938C32.4694 13.0384 33.0099 13.5961 33.0884 14.5727C33.1247 15.0128 33.1126 15.4559 33.1035 15.896C33.0794 17.0234 32.9707 18.1537 33.0945 19.2811C33.1156 19.465 33.1549 19.6488 33.1851 19.8297C33.1941 19.8779 33.2002 19.9262 33.2122 19.9955C32.9616 19.9955 32.7321 20.0015 32.5026 19.9895C32.4694 19.9895 32.4241 19.9201 32.409 19.8749C32.3275 19.6277 32.255 19.3776 32.1735 19.1274C32.1584 19.0852 32.1222 19.049 32.095 19.0098C32.0558 19.0369 32.0074 19.058 31.9803 19.0942C31.5304 19.7091 30.8993 19.9804 30.1625 20.0588C29.5767 20.1221 29.0271 20.0317 28.538 19.691C27.922 19.263 27.7046 18.6541 27.7438 17.9247C27.7891 17.1198 28.2209 16.6074 28.9366 16.2999C29.4106 16.095 29.9149 16.0286 30.4222 15.9985C30.9234 15.9714 31.4277 15.9804 31.9289 15.9744C31.9501 15.9864 31.9712 15.9804 32.0105 15.9744ZM32.0135 17.4454C32.0135 17.2796 32.0105 17.1138 32.0135 16.948C32.0165 16.8485 31.9863 16.8003 31.8776 16.8033C31.4398 16.8063 31.0019 16.7913 30.5671 16.8124C30.1655 16.8305 29.77 16.9088 29.4076 17.1078C29.1358 17.2585 28.9396 17.4665 28.8822 17.786C28.7675 18.41 29.16 18.9857 29.8032 19.1063C30.3829 19.2148 30.9325 19.1123 31.4096 18.7626C31.7961 18.4793 32.089 18.1296 32.0135 17.5991C32.0074 17.5479 32.0135 17.4966 32.0135 17.4454Z" fill="#65707A"/>
<path d="M35.5464 16.4537C35.5464 15.3474 35.5494 14.2442 35.5433 13.1379C35.5433 12.9993 35.5796 12.954 35.7215 12.9601C35.9782 12.9691 36.2348 12.9661 36.4915 12.9631C36.5881 12.9631 36.6304 12.9962 36.6274 13.0927C36.6243 13.2042 36.6274 13.3127 36.6274 13.4243C36.6274 15.5343 36.6274 17.6413 36.6274 19.7513C36.6274 19.9714 36.6274 19.9714 36.4039 19.9714C36.1774 19.9714 35.951 19.9623 35.7245 19.9744C35.5856 19.9804 35.5464 19.9382 35.5464 19.7996C35.5494 18.6843 35.5464 17.569 35.5464 16.4537Z" fill="#65707A"/>
<defs>
<linearGradient id="paint0_linear" x1="25" y1="1" x2="25" y2="29" gradientUnits="userSpaceOnUse">
<stop stop-color="#E0E0E0"/>
<stop offset="1" stop-color="white" stop-opacity="0"/>
</linearGradient>
<linearGradient id="paint1_linear" x1="25" y1="2" x2="25" y2="28" gradientUnits="userSpaceOnUse">
<stop stop-color="white"/>
<stop offset="1" stop-color="white" stop-opacity="0"/>
</linearGradient>
</defs>
</svg>
