<svg width="16" height="16" viewBox="0 0 16 16" fill="none" xmlns="http://www.w3.org/2000/svg">
<path d="M8.44375 15.1051H7.5519C6.83058 15.1051 6.2437 14.5182 6.2437 13.7969V13.4952C5.93704 13.3972 5.63909 13.2735 5.35285 13.1254L5.13903 13.3392C4.62115 13.8577 3.79158 13.8425 3.28874 13.339L2.6584 12.7087C2.15468 12.2055 2.14019 11.3762 2.65857 10.8584L2.87223 10.6448C2.7241 10.3585 2.60045 10.0606 2.50245 9.75391H2.20075C1.47946 9.75391 0.892578 9.16706 0.892578 8.44573V7.55386C0.892578 6.83253 1.47946 6.24568 2.20078 6.24568H2.50248C2.60048 5.93899 2.72413 5.64107 2.87225 5.35483L2.65843 5.14104C2.14036 4.62352 2.15465 3.79414 2.6586 3.29075L3.28899 2.66038C3.793 2.15569 4.62237 2.14309 5.13925 2.66055L5.35288 2.87418C5.63912 2.72608 5.93707 2.6024 6.24373 2.5044V2.2027C6.24373 1.48138 6.83058 0.894531 7.55193 0.894531H8.44378C9.1651 0.894531 9.75195 1.48138 9.75195 2.2027V2.50443C10.0586 2.6024 10.3566 2.72608 10.6428 2.87421L10.8566 2.66038C11.3745 2.14187 12.2041 2.15708 12.7069 2.66058L13.3373 3.29089C13.841 3.79406 13.8555 4.62335 13.3371 5.14118L13.1234 5.35483C13.2716 5.64107 13.3952 5.93896 13.4932 6.24568H13.7949C14.5162 6.24568 15.1031 6.83253 15.1031 7.55386V8.44573C15.1031 9.16706 14.5162 9.75391 13.7949 9.75391H13.4932C13.3952 10.0606 13.2716 10.3585 13.1234 10.6448L13.3373 10.8586C13.8553 11.3761 13.841 12.2055 13.3371 12.7089L12.7067 13.3392C12.2027 13.8439 11.3733 13.8565 10.8564 13.3391L10.6428 13.1254C10.3566 13.2735 10.0586 13.3972 9.75195 13.4952V13.7969C9.75195 14.5182 9.1651 15.1051 8.44375 15.1051ZM5.49204 12.251C5.88969 12.4862 6.31767 12.6638 6.76408 12.7791C6.94793 12.8265 7.07638 12.9923 7.07638 13.1822V13.7969C7.07638 14.0591 7.28973 14.2724 7.55193 14.2724H8.44378C8.70598 14.2724 8.91933 14.0591 8.91933 13.7969V13.1822C8.91933 12.9923 9.04778 12.8265 9.23163 12.7791C9.67804 12.6638 10.106 12.4862 10.5037 12.251C10.6673 12.1543 10.8756 12.1806 11.01 12.315L11.4454 12.7504C11.6332 12.9384 11.9346 12.934 12.1178 12.7506L12.7485 12.1199C12.9312 11.9374 12.9373 11.6359 12.7487 11.4475L12.3131 11.0119C12.1787 10.8775 12.1524 10.6692 12.2491 10.5056C12.4843 10.108 12.6619 9.67999 12.7771 9.23356C12.8246 9.04971 12.9904 8.92129 13.1802 8.92129H13.7949C14.0571 8.92129 14.2705 8.70796 14.2705 8.44576V7.55388C14.2705 7.29168 14.0571 7.07836 13.7949 7.07836H13.1802C12.9904 7.07836 12.8246 6.94991 12.7771 6.76609C12.6619 6.31965 12.4843 5.89167 12.2491 5.49405C12.1524 5.33046 12.1787 5.12214 12.3131 4.98775L12.7485 4.5523C12.9368 4.36429 12.9319 4.06287 12.7487 3.87994L12.118 3.2492C11.9352 3.06613 11.6336 3.06078 11.4456 3.24904L11.01 3.68465C10.8756 3.81907 10.6673 3.84538 10.5037 3.74863C10.1061 3.51346 9.67807 3.3358 9.23166 3.22059C9.04781 3.17316 8.91936 3.00735 8.91936 2.81748V2.2027C8.91936 1.9405 8.70601 1.72718 8.44381 1.72718H7.55196C7.28976 1.72718 7.07641 1.9405 7.07641 2.2027V2.81742C7.07641 3.00729 6.94796 3.1731 6.76411 3.22053C6.3177 3.33574 5.88972 3.5134 5.49207 3.74857C5.32843 3.8453 5.12013 3.81899 4.98574 3.6846L4.55032 3.24915C4.36258 3.06119 4.06108 3.06555 3.87798 3.24895L3.2472 3.87971C3.06451 4.06217 3.05841 4.36368 3.24703 4.55208L3.68264 4.98769C3.81703 5.12208 3.84334 5.33041 3.74662 5.494C3.51145 5.89161 3.33382 6.31959 3.21861 6.76603C3.17115 6.94988 3.00534 7.0783 2.8155 7.0783H2.20078C1.93858 7.07833 1.72523 7.29166 1.72523 7.55386V8.44573C1.72523 8.70793 1.93858 8.92126 2.20078 8.92126H2.81547C3.00534 8.92126 3.17112 9.04971 3.21858 9.23353C3.33379 9.67997 3.51145 10.1079 3.74659 10.5056C3.84332 10.6692 3.817 10.8775 3.68262 11.0119L3.24717 11.4473C3.05893 11.6353 3.06385 11.9367 3.247 12.1197L3.87773 12.7504C4.06055 12.9335 4.36208 12.9388 4.5501 12.7506L4.98568 12.315C5.08471 12.216 5.29074 12.1319 5.49204 12.251Z" fill="white"/>
<path d="M7.99815 11.092C6.29325 11.092 4.90625 9.70498 4.90625 8.0001C4.90625 6.29523 6.29325 4.9082 7.99815 4.9082C9.70305 4.9082 11.09 6.29523 11.09 8.0001C11.09 9.70498 9.70305 11.092 7.99815 11.092ZM7.99815 5.74085C6.75237 5.74085 5.7389 6.75435 5.7389 8.0001C5.7389 9.24585 6.7524 10.2594 7.99815 10.2594C9.2439 10.2594 10.2574 9.24585 10.2574 8.0001C10.2574 6.75435 9.24393 5.74085 7.99815 5.74085Z" fill="white"/>
</svg>
