<svg width="13" height="19" viewBox="0 0 13 19" fill="none" xmlns="http://www.w3.org/2000/svg">
<path d="M0.768 4.224C0.576 4.656 0.696 4.848 1.152 5.016L2.04 5.328C2.472 5.496 2.64 5.4 2.832 4.944C3.504 3.336 4.608 2.304 6.864 2.304C9.216 2.304 10.44 3.6 10.44 5.304C10.44 7.536 9.024 8.304 7.68 9.192C6.408 10.032 5.184 10.992 5.184 13.344C5.184 13.824 5.352 13.944 5.784 13.944H6.528C6.96 13.944 7.128 13.824 7.128 13.344C7.128 12 7.992 11.304 8.976 10.68C10.536 9.696 12.72 8.688 12.72 5.208C12.72 2.472 10.608 0.263999 6.912 0.263999C3.504 0.263999 1.656 1.896 0.768 4.224ZM6.24 15.528H6.096C5.16 15.528 4.872 15.84 4.872 16.752V16.944C4.872 17.88 5.16 18.144 6.096 18.144H6.24C7.176 18.144 7.464 17.856 7.464 16.944V16.752C7.464 15.84 7.176 15.528 6.24 15.528Z" fill="white"/>
</svg>
