<svg width="4" height="21" viewBox="0 0 4 21" fill="none" xmlns="http://www.w3.org/2000/svg">
<path d="M2.9 0.76H1.392C0.794 0.76 0.56 0.967999 0.586 1.566L0.924 13.916C0.95 14.514 1.132 14.696 1.73 14.696H2.536C3.134 14.696 3.316 14.514 3.342 13.916L3.706 1.566C3.732 0.967999 3.498 0.76 2.9 0.76ZM2.224 16.62H2.016C0.768 16.62 0.352 17.036 0.352 18.284V18.518C0.352 19.792 0.768 20.182 2.016 20.182H2.224C3.472 20.182 3.888 19.792 3.888 18.518V18.284C3.888 17.036 3.472 16.62 2.224 16.62Z" fill="white"/>
</svg>
