<svg width="16" height="15" viewBox="0 0 16 15" fill="none" xmlns="http://www.w3.org/2000/svg">
<path d="M13.1445 0.958984H2.41204C1.28992 0.958984 0.376953 1.87177 0.376953 2.99407V9.56211C0.376953 10.6819 1.28595 11.5932 2.40482 11.5972V14.5777L6.68813 11.5972H13.1445C14.2666 11.5972 15.1796 10.6842 15.1796 9.56211V2.99407C15.1796 1.87177 14.2666 0.958984 13.1445 0.958984ZM14.3122 9.56211C14.3122 10.2059 13.7884 10.7299 13.1445 10.7299H6.416L3.27216 12.9175V10.7299H2.41204C1.76813 10.7299 1.24429 10.2059 1.24429 9.56211V2.99407C1.24429 2.35007 1.76813 1.82633 2.41204 1.82633H13.1445C13.7884 1.82633 14.3122 2.35007 14.3122 2.99407V9.56211Z" fill="white"/>
<path d="M4.33984 4.02344H11.2188V4.89078H4.33984V4.02344Z" fill="white"/>
<path d="M4.33984 5.875H11.2188V6.74234H4.33984V5.875Z" fill="white"/>
<path d="M4.33984 7.72461H11.2188V8.59195H4.33984V7.72461Z" fill="white"/>
</svg>
