<svg width="24" height="12" viewBox="0 0 24 12" fill="none" xmlns="http://www.w3.org/2000/svg">
<path fill-rule="evenodd" clip-rule="evenodd" d="M20.6555 7.63214C21.4529 8.32043 22.2897 8.96516 22.9985 9.72314C23.3135 10.0629 23.6088 10.4027 23.8352 10.7948C24.1601 11.3524 23.8648 11.9623 23.3036 11.9884H19.8089C18.9032 12.0581 18.1944 11.7357 17.584 11.1868C17.1017 10.7512 16.6488 10.2895 16.1861 9.83641C15.9991 9.65344 15.7924 9.47919 15.5561 9.33979C15.0836 9.06971 14.6701 9.14812 14.3945 9.59246C14.1188 10.0368 14.0499 10.5334 14.0302 11.0387C13.9908 11.7706 13.7447 11.9535 12.9178 11.9884C11.1557 12.0581 9.48212 11.8229 7.91686 11.0387C6.54849 10.3417 5.4853 9.36593 4.55008 8.25073C2.74856 6.09003 1.37035 3.71152 0.12011 1.27202C-0.155533 0.723137 0.0413545 0.426912 0.730461 0.4182C1.87241 0.400775 3.00451 0.400775 4.14646 0.4182C4.60915 0.426912 4.91432 0.66215 5.09152 1.0455C5.71172 2.38722 6.45989 3.65925 7.40495 4.84415C7.66091 5.1578 7.91686 5.47145 8.2811 5.69797C8.68472 5.94192 8.9899 5.86351 9.18678 5.46273C9.30492 5.21007 9.36398 4.93998 9.38367 4.6699C9.47227 3.73766 9.48212 2.80542 9.32461 1.87319C9.22616 1.28945 8.86192 0.914812 8.20235 0.810262C7.86764 0.757987 7.91686 0.644725 8.08421 0.479187C8.39923 0.182962 8.66503 0 9.18678 0H13.1344C13.7546 0.10455 13.8924 0.357212 13.981 0.906099V4.78316C13.9712 5.00097 14.0991 5.63698 14.5421 5.77638C14.8867 5.88093 15.1229 5.62827 15.3297 5.4366C16.2747 4.54792 16.9442 3.50242 17.5545 2.41336C17.8203 1.93417 18.0566 1.43756 18.2731 0.940949C18.4405 0.575025 18.6965 0.392062 19.169 0.400775H22.9689C23.0772 0.400775 23.1953 0.400775 23.3036 0.4182C23.9435 0.514037 24.1207 0.757987 23.9238 1.31559C23.6088 2.18684 23.0083 2.90997 22.4176 3.63311C21.7876 4.40852 21.1083 5.1578 20.4783 5.94192C19.8876 6.65635 19.9368 7.01356 20.6555 7.63214Z" />
</svg>
