<svg width="248" height="41" viewBox="0 0 248 41" fill="none" xmlns="http://www.w3.org/2000/svg">
<rect width="248" height="41" fill="#DEF0FF"/>
<path d="M0 0L49 0L60 20.5L49 41H0V0Z" fill="white"/>
<path d="M82.918 17H81.8813V13.3853H77.939V17H76.9077V9.17969H77.939V12.542H81.8813V9.17969H82.918V17ZM89.5029 14.1587C89.5029 15.0431 89.3006 15.7557 88.896 16.2964C88.4914 16.8371 87.9435 17.1074 87.2524 17.1074C86.547 17.1074 85.992 16.8836 85.5874 16.436V19.2344H84.5938V11.1885H85.5015L85.5498 11.833C85.9544 11.3317 86.5166 11.0811 87.2363 11.0811C87.9346 11.0811 88.486 11.3442 88.8906 11.8706C89.2988 12.397 89.5029 13.1292 89.5029 14.0674V14.1587ZM88.5093 14.0459C88.5093 13.3906 88.3696 12.8732 88.0903 12.4937C87.811 12.1141 87.4279 11.9243 86.9409 11.9243C86.3394 11.9243 85.8882 12.1911 85.5874 12.7246V15.5015C85.8846 16.0314 86.3394 16.2964 86.9517 16.2964C87.4279 16.2964 87.8057 16.1084 88.085 15.7324C88.3678 15.3529 88.5093 14.7907 88.5093 14.0459ZM94.3584 17C94.3011 16.8854 94.2546 16.6813 94.2188 16.3877C93.7568 16.8675 93.2054 17.1074 92.5645 17.1074C91.9915 17.1074 91.5207 16.9463 91.1519 16.624C90.7866 16.2982 90.604 15.8864 90.604 15.3887C90.604 14.7835 90.8332 14.3145 91.2915 13.9814C91.7534 13.6449 92.4015 13.4766 93.2358 13.4766H94.2026V13.02C94.2026 12.6727 94.0988 12.397 93.8911 12.1929C93.6834 11.9852 93.3773 11.8813 92.9727 11.8813C92.6182 11.8813 92.321 11.9709 92.0811 12.1499C91.8411 12.3289 91.7212 12.5456 91.7212 12.7998H90.7222C90.7222 12.5098 90.8242 12.2305 91.0283 11.9619C91.236 11.6898 91.5153 11.4749 91.8662 11.3174C92.2207 11.1598 92.6092 11.0811 93.0317 11.0811C93.7013 11.0811 94.2259 11.2493 94.6055 11.5859C94.985 11.9189 95.182 12.3791 95.1963 12.9663V15.6411C95.1963 16.1746 95.2643 16.599 95.4004 16.9141V17H94.3584ZM92.7095 16.2427C93.021 16.2427 93.3164 16.1621 93.5957 16.001C93.875 15.8398 94.0773 15.6304 94.2026 15.3726V14.1802H93.4238C92.2064 14.1802 91.5977 14.5365 91.5977 15.249C91.5977 15.5605 91.7015 15.804 91.9092 15.9795C92.1169 16.1549 92.3836 16.2427 92.7095 16.2427ZM96.8452 17V11.1885H99.1118C99.8853 11.1885 100.478 11.3245 100.89 11.5967C101.305 11.8652 101.513 12.2609 101.513 12.7837C101.513 13.0522 101.432 13.2957 101.271 13.5142C101.11 13.729 100.872 13.8937 100.557 14.0083C100.908 14.0907 101.189 14.2518 101.4 14.4917C101.615 14.7316 101.722 15.0181 101.722 15.3511C101.722 15.8846 101.525 16.2928 101.131 16.5757C100.741 16.8586 100.188 17 99.4717 17H96.8452ZM97.8389 14.4487V16.1997H99.4824C99.8978 16.1997 100.208 16.1227 100.412 15.9688C100.619 15.8148 100.723 15.5981 100.723 15.3188C100.723 14.7388 100.297 14.4487 99.4448 14.4487H97.8389ZM97.8389 13.6538H99.1226C100.054 13.6538 100.519 13.3817 100.519 12.8374C100.519 12.2931 100.079 12.012 99.1978 11.9941H97.8389V13.6538ZM106.798 11.1885H107.792V17H106.798V12.7622L104.118 17H103.124V11.1885H104.118V15.4316L106.798 11.1885ZM113.705 11.9941H111.755V17H110.762V11.9941H108.85V11.1885H113.705V11.9941ZM116.573 16.2964C116.928 16.2964 117.237 16.189 117.502 15.9741C117.767 15.7593 117.914 15.4907 117.943 15.1685H118.883C118.865 15.5015 118.75 15.8184 118.539 16.1191C118.328 16.4199 118.045 16.6598 117.69 16.8389C117.34 17.0179 116.967 17.1074 116.573 17.1074C115.782 17.1074 115.152 16.8442 114.683 16.3179C114.217 15.7879 113.984 15.0646 113.984 14.1479V13.9814C113.984 13.4157 114.088 12.9126 114.296 12.4722C114.504 12.0317 114.801 11.6898 115.188 11.4463C115.578 11.2028 116.038 11.0811 116.568 11.0811C117.22 11.0811 117.76 11.2762 118.19 11.6665C118.623 12.0568 118.854 12.5635 118.883 13.1865H117.943C117.914 12.8105 117.771 12.5026 117.513 12.2627C117.259 12.0192 116.944 11.8975 116.568 11.8975C116.063 11.8975 115.671 12.0801 115.392 12.4453C115.116 12.807 114.978 13.3315 114.978 14.019V14.207C114.978 14.8766 115.116 15.3923 115.392 15.7539C115.667 16.1156 116.061 16.2964 116.573 16.2964ZM124.442 11.1885V17H123.443V14.7388H121.944L120.575 17H119.5L120.961 14.5884C120.589 14.4523 120.303 14.2428 120.102 13.96C119.905 13.6735 119.807 13.3405 119.807 12.9609C119.807 12.431 120.005 12.0049 120.403 11.6826C120.8 11.3568 121.332 11.1921 121.998 11.1885H124.442ZM120.806 12.9717C120.806 13.2546 120.902 13.4837 121.096 13.6592C121.289 13.8311 121.545 13.9188 121.864 13.9224H123.443V11.9941H122.014C121.645 11.9941 121.352 12.0854 121.133 12.2681C120.915 12.4471 120.806 12.6816 120.806 12.9717ZM133.514 17H132.52V14.5186H129.851V17H128.852V11.1885H129.851V13.7075H132.52V11.1885H133.514V17ZM138.702 17C138.645 16.8854 138.598 16.6813 138.562 16.3877C138.101 16.8675 137.549 17.1074 136.908 17.1074C136.335 17.1074 135.864 16.9463 135.496 16.624C135.13 16.2982 134.948 15.8864 134.948 15.3887C134.948 14.7835 135.177 14.3145 135.635 13.9814C136.097 13.6449 136.745 13.4766 137.58 13.4766H138.546V13.02C138.546 12.6727 138.443 12.397 138.235 12.1929C138.027 11.9852 137.721 11.8813 137.316 11.8813C136.962 11.8813 136.665 11.9709 136.425 12.1499C136.185 12.3289 136.065 12.5456 136.065 12.7998H135.066C135.066 12.5098 135.168 12.2305 135.372 11.9619C135.58 11.6898 135.859 11.4749 136.21 11.3174C136.564 11.1598 136.953 11.0811 137.375 11.0811C138.045 11.0811 138.57 11.2493 138.949 11.5859C139.329 11.9189 139.526 12.3791 139.54 12.9663V15.6411C139.54 16.1746 139.608 16.599 139.744 16.9141V17H138.702ZM137.053 16.2427C137.365 16.2427 137.66 16.1621 137.939 16.001C138.219 15.8398 138.421 15.6304 138.546 15.3726V14.1802H137.768C136.55 14.1802 135.941 14.5365 135.941 15.249C135.941 15.5605 136.045 15.804 136.253 15.9795C136.461 16.1549 136.727 16.2427 137.053 16.2427ZM142.183 11.1885V16.189H144.31V11.1885H145.303V16.189H147.425V11.1885H148.424V17H141.184V11.1885H142.183ZM156.067 15.6841L158.043 11.1885H159.284V17H158.291V12.7729L156.411 17H155.723L153.806 12.6816V17H152.812V11.1885H154.101L156.067 15.6841ZM164.473 17C164.415 16.8854 164.369 16.6813 164.333 16.3877C163.871 16.8675 163.32 17.1074 162.679 17.1074C162.106 17.1074 161.635 16.9463 161.266 16.624C160.901 16.2982 160.718 15.8864 160.718 15.3887C160.718 14.7835 160.947 14.3145 161.406 13.9814C161.868 13.6449 162.516 13.4766 163.35 13.4766H164.317V13.02C164.317 12.6727 164.213 12.397 164.005 12.1929C163.798 11.9852 163.492 11.8813 163.087 11.8813C162.732 11.8813 162.435 11.9709 162.195 12.1499C161.955 12.3289 161.835 12.5456 161.835 12.7998H160.836C160.836 12.5098 160.938 12.2305 161.143 11.9619C161.35 11.6898 161.63 11.4749 161.98 11.3174C162.335 11.1598 162.723 11.0811 163.146 11.0811C163.816 11.0811 164.34 11.2493 164.72 11.5859C165.099 11.9189 165.296 12.3791 165.311 12.9663V15.6411C165.311 16.1746 165.379 16.599 165.515 16.9141V17H164.473ZM162.824 16.2427C163.135 16.2427 163.431 16.1621 163.71 16.001C163.989 15.8398 164.192 15.6304 164.317 15.3726V14.1802H163.538C162.321 14.1802 161.712 14.5365 161.712 15.249C161.712 15.5605 161.816 15.804 162.023 15.9795C162.231 16.1549 162.498 16.2427 162.824 16.2427ZM170.623 12.0103H167.942V17H166.943V11.1885H170.623V12.0103ZM175.075 17C175.018 16.8854 174.971 16.6813 174.936 16.3877C174.474 16.8675 173.922 17.1074 173.281 17.1074C172.708 17.1074 172.237 16.9463 171.869 16.624C171.503 16.2982 171.321 15.8864 171.321 15.3887C171.321 14.7835 171.55 14.3145 172.008 13.9814C172.47 13.6449 173.118 13.4766 173.953 13.4766H174.919V13.02C174.919 12.6727 174.816 12.397 174.608 12.1929C174.4 11.9852 174.094 11.8813 173.689 11.8813C173.335 11.8813 173.038 11.9709 172.798 12.1499C172.558 12.3289 172.438 12.5456 172.438 12.7998H171.439C171.439 12.5098 171.541 12.2305 171.745 11.9619C171.953 11.6898 172.232 11.4749 172.583 11.3174C172.938 11.1598 173.326 11.0811 173.749 11.0811C174.418 11.0811 174.943 11.2493 175.322 11.5859C175.702 11.9189 175.899 12.3791 175.913 12.9663V15.6411C175.913 16.1746 175.981 16.599 176.117 16.9141V17H175.075ZM173.426 16.2427C173.738 16.2427 174.033 16.1621 174.312 16.001C174.592 15.8398 174.794 15.6304 174.919 15.3726V14.1802H174.141C172.923 14.1802 172.314 14.5365 172.314 15.249C172.314 15.5605 172.418 15.804 172.626 15.9795C172.834 16.1549 173.1 16.2427 173.426 16.2427ZM180.667 12.7783C180.667 12.5062 180.563 12.2913 180.355 12.1338C180.147 11.9727 179.863 11.8921 179.501 11.8921C179.15 11.8921 178.856 11.9834 178.62 12.166C178.387 12.3486 178.271 12.5635 178.271 12.8105H177.283C177.283 12.3057 177.494 11.8921 177.917 11.5698C178.339 11.2476 178.867 11.0864 179.501 11.0864C180.181 11.0864 180.711 11.2332 181.091 11.5269C181.47 11.8169 181.66 12.2323 181.66 12.7729C181.66 13.0343 181.581 13.2743 181.424 13.4927C181.266 13.7111 181.042 13.8848 180.752 14.0137C181.429 14.2428 181.768 14.694 181.768 15.3672C181.768 15.9007 181.562 16.3232 181.15 16.6348C180.738 16.9463 180.188 17.1021 179.501 17.1021C178.831 17.1021 178.278 16.9391 177.841 16.6133C177.408 16.2839 177.191 15.8398 177.191 15.2812H178.18C178.18 15.5641 178.305 15.8076 178.556 16.0117C178.81 16.2122 179.125 16.3125 179.501 16.3125C179.881 16.3125 180.187 16.2248 180.419 16.0493C180.652 15.8739 180.769 15.6465 180.769 15.3672C180.769 15.0413 180.67 14.8086 180.473 14.6689C180.28 14.5257 179.977 14.4541 179.565 14.4541H178.572V13.6162H179.651C180.328 13.5983 180.667 13.319 180.667 12.7783ZM186.816 11.1885H187.81V17H186.816V12.7622L184.136 17H183.143V11.1885H184.136V15.4316L186.816 11.1885ZM194.153 17H193.16V14.5186H190.49V17H189.491V11.1885H190.49V13.7075H193.16V11.1885H194.153V17ZM196.919 14.7979C196.927 14.3717 196.975 14.0352 197.064 13.7881C197.154 13.541 197.337 13.2671 197.612 12.9663L198.316 12.2412C198.617 11.901 198.767 11.5358 198.767 11.1455C198.767 10.7695 198.669 10.4759 198.472 10.2646C198.275 10.0498 197.988 9.94238 197.612 9.94238C197.247 9.94238 196.953 10.0391 196.731 10.2324C196.509 10.4258 196.398 10.6854 196.398 11.0112H195.405C195.412 10.4312 195.618 9.96387 196.022 9.60938C196.431 9.2513 196.961 9.07227 197.612 9.07227C198.289 9.07227 198.815 9.25488 199.191 9.62012C199.571 9.98177 199.761 10.4795 199.761 11.1133C199.761 11.7399 199.471 12.3576 198.891 12.9663L198.305 13.5464C198.044 13.8364 197.913 14.2536 197.913 14.7979H196.919ZM196.876 16.5005C196.876 16.3394 196.925 16.2051 197.021 16.0977C197.122 15.9867 197.269 15.9312 197.462 15.9312C197.655 15.9312 197.802 15.9867 197.902 16.0977C198.003 16.2051 198.053 16.3394 198.053 16.5005C198.053 16.6616 198.003 16.7959 197.902 16.9033C197.802 17.0072 197.655 17.0591 197.462 17.0591C197.269 17.0591 197.122 17.0072 197.021 16.9033C196.925 16.7959 196.876 16.6616 196.876 16.5005Z" fill="#313334"/>
<path d="M82.9233 26.3423C82.9233 27.1086 82.7944 27.7782 82.5366 28.3511C82.2788 28.9204 81.9136 29.3555 81.4409 29.6562C80.9683 29.957 80.4168 30.1074 79.7866 30.1074C79.1707 30.1074 78.6247 29.957 78.1484 29.6562C77.6722 29.3519 77.3016 28.9204 77.0366 28.3618C76.7752 27.7996 76.641 27.1497 76.6338 26.4121V25.8481C76.6338 25.0962 76.7645 24.432 77.0259 23.8555C77.2873 23.279 77.6561 22.8385 78.1323 22.5342C78.6121 22.2262 79.16 22.0723 79.7759 22.0723C80.4025 22.0723 80.9539 22.2244 81.4302 22.5288C81.91 22.8296 82.2788 23.2682 82.5366 23.8447C82.7944 24.4176 82.9233 25.0854 82.9233 25.8481V26.3423ZM81.8975 25.8374C81.8975 24.91 81.7113 24.1992 81.3389 23.7051C80.9665 23.2074 80.4455 22.9585 79.7759 22.9585C79.1242 22.9585 78.6104 23.2074 78.2344 23.7051C77.862 24.1992 77.6704 24.8867 77.6597 25.7676V26.3423C77.6597 27.241 77.8477 27.9482 78.2236 28.4639C78.6032 28.9759 79.1242 29.2319 79.7866 29.2319C80.4526 29.2319 80.9683 28.9902 81.3335 28.5068C81.6987 28.0199 81.8867 27.3234 81.8975 26.4175V25.8374ZM84.4004 24.1885H85.3994V29.189H88.0742V24.1885H89.0679V29.189H89.7607L89.6641 31.7241H88.7725V30H84.4004V24.1885ZM93.2466 30.1074C92.4588 30.1074 91.8179 29.8496 91.3237 29.334C90.8296 28.8148 90.5825 28.1219 90.5825 27.2554V27.0728C90.5825 26.4963 90.6917 25.9824 90.9102 25.5312C91.1322 25.0765 91.4401 24.722 91.834 24.4678C92.2314 24.21 92.6611 24.0811 93.123 24.0811C93.8786 24.0811 94.4658 24.3299 94.8848 24.8276C95.3037 25.3254 95.5132 26.0379 95.5132 26.9653V27.3789H91.5762C91.5905 27.9518 91.757 28.4155 92.0757 28.77C92.3979 29.1209 92.8062 29.2964 93.3003 29.2964C93.6512 29.2964 93.9484 29.2248 94.1919 29.0815C94.4354 28.9383 94.6484 28.7485 94.8311 28.5122L95.438 28.9849C94.951 29.7332 94.2205 30.1074 93.2466 30.1074ZM93.123 24.8975C92.722 24.8975 92.3854 25.0443 92.1133 25.3379C91.8411 25.6279 91.6729 26.0361 91.6084 26.5625H94.5195V26.4873C94.4909 25.9824 94.3548 25.5921 94.1113 25.3164C93.8678 25.0371 93.5384 24.8975 93.123 24.8975ZM101.416 30H100.422V27.5186H97.7529V30H96.7539V24.1885H97.7529V26.7075H100.422V24.1885H101.416V30ZM106.776 24.1885H107.77V30H106.776V25.7622L104.096 30H103.103V24.1885H104.096V28.4316L106.776 24.1885ZM113.684 24.9941H111.734V30H110.74V24.9941H108.828V24.1885H113.684V24.9941ZM116.632 30.1074C115.845 30.1074 115.204 29.8496 114.709 29.334C114.215 28.8148 113.968 28.1219 113.968 27.2554V27.0728C113.968 26.4963 114.077 25.9824 114.296 25.5312C114.518 25.0765 114.826 24.722 115.22 24.4678C115.617 24.21 116.047 24.0811 116.509 24.0811C117.264 24.0811 117.852 24.3299 118.271 24.8276C118.689 25.3254 118.899 26.0379 118.899 26.9653V27.3789H114.962C114.976 27.9518 115.143 28.4155 115.461 28.77C115.784 29.1209 116.192 29.2964 116.686 29.2964C117.037 29.2964 117.334 29.2248 117.578 29.0815C117.821 28.9383 118.034 28.7485 118.217 28.5122L118.824 28.9849C118.337 29.7332 117.606 30.1074 116.632 30.1074ZM116.509 24.8975C116.108 24.8975 115.771 25.0443 115.499 25.3379C115.227 25.6279 115.059 26.0361 114.994 26.5625H117.905V26.4873C117.877 25.9824 117.741 25.5921 117.497 25.3164C117.254 25.0371 116.924 24.8975 116.509 24.8975ZM127.53 30H126.537V27.5186H123.867V30H122.868V24.1885H123.867V26.7075H126.537V24.1885H127.53V30ZM132.719 30C132.661 29.8854 132.615 29.6813 132.579 29.3877C132.117 29.8675 131.566 30.1074 130.925 30.1074C130.352 30.1074 129.881 29.9463 129.512 29.624C129.147 29.2982 128.964 28.8864 128.964 28.3887C128.964 27.7835 129.194 27.3145 129.652 26.9814C130.114 26.6449 130.762 26.4766 131.596 26.4766H132.563V26.02C132.563 25.6727 132.459 25.397 132.251 25.1929C132.044 24.9852 131.738 24.8813 131.333 24.8813C130.979 24.8813 130.681 24.9709 130.441 25.1499C130.201 25.3289 130.082 25.5456 130.082 25.7998H129.083C129.083 25.5098 129.185 25.2305 129.389 24.9619C129.596 24.6898 129.876 24.4749 130.227 24.3174C130.581 24.1598 130.97 24.0811 131.392 24.0811C132.062 24.0811 132.586 24.2493 132.966 24.5859C133.345 24.9189 133.542 25.3791 133.557 25.9663V28.6411C133.557 29.1746 133.625 29.599 133.761 29.9141V30H132.719ZM131.07 29.2427C131.381 29.2427 131.677 29.1621 131.956 29.001C132.235 28.8398 132.438 28.6304 132.563 28.3726V27.1802H131.784C130.567 27.1802 129.958 27.5365 129.958 28.249C129.958 28.5605 130.062 28.804 130.27 28.9795C130.477 29.1549 130.744 29.2427 131.07 29.2427ZM142.091 30V26.9546H140.287L138.67 30H137.569L139.384 26.6699C138.375 26.2725 137.87 25.5617 137.87 24.5376C137.87 23.7928 138.113 23.2145 138.6 22.8027C139.091 22.3874 139.771 22.1797 140.641 22.1797H143.128V30H142.091ZM138.901 24.5376C138.901 25.0103 139.048 25.3898 139.341 25.6763C139.639 25.9627 140.05 26.1077 140.577 26.1113H142.091V23.0283H140.625C140.066 23.0283 139.639 23.1608 139.341 23.4258C139.048 23.6908 138.901 24.0614 138.901 24.5376ZM149.595 30H148.601V27.5186H145.932V30H144.933V24.1885H145.932V26.7075H148.601V24.1885H149.595V30ZM151.147 29.189L151.491 28.7646C151.877 28.2633 152.098 27.5114 152.151 26.5088L152.243 24.1885H155.986V29.189H156.733V31.708H155.739V30H151.684V31.708H150.69L150.696 29.189H151.147ZM152.323 29.189H154.993V25.1069H153.204L153.145 26.4927C153.084 27.6493 152.81 28.548 152.323 29.189ZM160.246 30.1074C159.458 30.1074 158.817 29.8496 158.323 29.334C157.829 28.8148 157.582 28.1219 157.582 27.2554V27.0728C157.582 26.4963 157.691 25.9824 157.909 25.5312C158.131 25.0765 158.439 24.722 158.833 24.4678C159.23 24.21 159.66 24.0811 160.122 24.0811C160.878 24.0811 161.465 24.3299 161.884 24.8276C162.303 25.3254 162.512 26.0379 162.512 26.9653V27.3789H158.575C158.59 27.9518 158.756 28.4155 159.075 28.77C159.397 29.1209 159.805 29.2964 160.299 29.2964C160.65 29.2964 160.947 29.2248 161.191 29.0815C161.434 28.9383 161.647 28.7485 161.83 28.5122L162.437 28.9849C161.95 29.7332 161.22 30.1074 160.246 30.1074ZM160.122 24.8975C159.721 24.8975 159.384 25.0443 159.112 25.3379C158.84 25.6279 158.672 26.0361 158.607 26.5625H161.519V26.4873C161.49 25.9824 161.354 25.5921 161.11 25.3164C160.867 25.0371 160.537 24.8975 160.122 24.8975ZM165.477 27.5239H164.752V30H163.753V24.1885H164.752V26.6484H165.402L167.357 24.1885H168.56L166.261 26.9814L168.753 30H167.491L165.477 27.5239ZM171.853 29.2964C172.207 29.2964 172.517 29.189 172.782 28.9741C173.047 28.7593 173.194 28.4907 173.222 28.1685H174.162C174.144 28.5015 174.03 28.8184 173.818 29.1191C173.607 29.4199 173.324 29.6598 172.97 29.8389C172.619 30.0179 172.246 30.1074 171.853 30.1074C171.061 30.1074 170.431 29.8442 169.962 29.3179C169.496 28.7879 169.264 28.0646 169.264 27.1479V26.9814C169.264 26.4157 169.368 25.9126 169.575 25.4722C169.783 25.0317 170.08 24.6898 170.467 24.4463C170.857 24.2028 171.317 24.0811 171.847 24.0811C172.499 24.0811 173.04 24.2762 173.469 24.6665C173.903 25.0568 174.133 25.5635 174.162 26.1865H173.222C173.194 25.8105 173.05 25.5026 172.792 25.2627C172.538 25.0192 172.223 24.8975 171.847 24.8975C171.342 24.8975 170.95 25.0801 170.671 25.4453C170.395 25.807 170.257 26.3315 170.257 27.019V27.207C170.257 27.8766 170.395 28.3923 170.671 28.7539C170.947 29.1156 171.34 29.2964 171.853 29.2964ZM175.301 29.479C175.301 29.3071 175.351 29.1639 175.451 29.0493C175.555 28.9347 175.709 28.8774 175.913 28.8774C176.117 28.8774 176.271 28.9347 176.375 29.0493C176.482 29.1639 176.536 29.3071 176.536 29.479C176.536 29.6437 176.482 29.7816 176.375 29.8926C176.271 30.0036 176.117 30.0591 175.913 30.0591C175.709 30.0591 175.555 30.0036 175.451 29.8926C175.351 29.7816 175.301 29.6437 175.301 29.479ZM179.667 22.1797L182.224 28.5605L184.781 22.1797H186.118V30H185.087V26.9546L185.184 23.6675L182.616 30H181.827L179.265 23.6836L179.367 26.9546V30H178.335V22.1797H179.667ZM191.371 30C191.314 29.8854 191.267 29.6813 191.231 29.3877C190.77 29.8675 190.218 30.1074 189.577 30.1074C189.004 30.1074 188.533 29.9463 188.165 29.624C187.799 29.2982 187.617 28.8864 187.617 28.3887C187.617 27.7835 187.846 27.3145 188.304 26.9814C188.766 26.6449 189.414 26.4766 190.249 26.4766H191.215V26.02C191.215 25.6727 191.111 25.397 190.904 25.1929C190.696 24.9852 190.39 24.8813 189.985 24.8813C189.631 24.8813 189.334 24.9709 189.094 25.1499C188.854 25.3289 188.734 25.5456 188.734 25.7998H187.735C187.735 25.5098 187.837 25.2305 188.041 24.9619C188.249 24.6898 188.528 24.4749 188.879 24.3174C189.233 24.1598 189.622 24.0811 190.044 24.0811C190.714 24.0811 191.239 24.2493 191.618 24.5859C191.998 24.9189 192.195 25.3791 192.209 25.9663V28.6411C192.209 29.1746 192.277 29.599 192.413 29.9141V30H191.371ZM189.722 29.2427C190.034 29.2427 190.329 29.1621 190.608 29.001C190.888 28.8398 191.09 28.6304 191.215 28.3726V27.1802H190.437C189.219 27.1802 188.61 27.5365 188.61 28.249C188.61 28.5605 188.714 28.804 188.922 28.9795C189.13 29.1549 189.396 29.2427 189.722 29.2427ZM198.676 27.1587C198.676 28.0431 198.473 28.7557 198.069 29.2964C197.664 29.8371 197.116 30.1074 196.425 30.1074C195.72 30.1074 195.165 29.8836 194.76 29.436V32.2344H193.767V24.1885H194.674L194.723 24.833C195.127 24.3317 195.689 24.0811 196.409 24.0811C197.107 24.0811 197.659 24.3442 198.063 24.8706C198.472 25.397 198.676 26.1292 198.676 27.0674V27.1587ZM197.682 27.0459C197.682 26.3906 197.542 25.8732 197.263 25.4937C196.984 25.1141 196.601 24.9243 196.114 24.9243C195.512 24.9243 195.061 25.1911 194.76 25.7246V28.5015C195.057 29.0314 195.512 29.2964 196.125 29.2964C196.601 29.2964 196.979 29.1084 197.258 28.7324C197.541 28.3529 197.682 27.7907 197.682 27.0459ZM201.753 27.5239H201.028V30H200.029V24.1885H201.028V26.6484H201.678L203.633 24.1885H204.836L202.538 26.9814L205.03 30H203.768L201.753 27.5239ZM208.209 30.1074C207.422 30.1074 206.781 29.8496 206.287 29.334C205.792 28.8148 205.545 28.1219 205.545 27.2554V27.0728C205.545 26.4963 205.655 25.9824 205.873 25.5312C206.095 25.0765 206.403 24.722 206.797 24.4678C207.194 24.21 207.624 24.0811 208.086 24.0811C208.841 24.0811 209.429 24.3299 209.848 24.8276C210.267 25.3254 210.476 26.0379 210.476 26.9653V27.3789H206.539C206.553 27.9518 206.72 28.4155 207.039 28.77C207.361 29.1209 207.769 29.2964 208.263 29.2964C208.614 29.2964 208.911 29.2248 209.155 29.0815C209.398 28.9383 209.611 28.7485 209.794 28.5122L210.401 28.9849C209.914 29.7332 209.183 30.1074 208.209 30.1074ZM208.086 24.8975C207.685 24.8975 207.348 25.0443 207.076 25.3379C206.804 25.6279 206.636 26.0361 206.571 26.5625H209.482V26.4873C209.454 25.9824 209.318 25.5921 209.074 25.3164C208.831 25.0371 208.501 24.8975 208.086 24.8975ZM215.885 24.9941H213.935V30H212.941V24.9941H211.029V24.1885H215.885V24.9941ZM218.833 30.1074C218.046 30.1074 217.405 29.8496 216.911 29.334C216.417 28.8148 216.169 28.1219 216.169 27.2554V27.0728C216.169 26.4963 216.279 25.9824 216.497 25.5312C216.719 25.0765 217.027 24.722 217.421 24.4678C217.818 24.21 218.248 24.0811 218.71 24.0811C219.465 24.0811 220.053 24.3299 220.472 24.8276C220.891 25.3254 221.1 26.0379 221.1 26.9653V27.3789H217.163C217.177 27.9518 217.344 28.4155 217.663 28.77C217.985 29.1209 218.393 29.2964 218.887 29.2964C219.238 29.2964 219.535 29.2248 219.779 29.0815C220.022 28.9383 220.235 28.7485 220.418 28.5122L221.025 28.9849C220.538 29.7332 219.807 30.1074 218.833 30.1074ZM218.71 24.8975C218.309 24.8975 217.972 25.0443 217.7 25.3379C217.428 25.6279 217.26 26.0361 217.195 26.5625H220.106V26.4873C220.078 25.9824 219.942 25.5921 219.698 25.3164C219.455 25.0371 219.125 24.8975 218.71 24.8975Z" fill="#3D97D0"/>
<path fill-rule="evenodd" clip-rule="evenodd" d="M23.12 12.68L21.44 8H16V10.8H19.4L24.68 25.4L38.32 21.64C38.32 21.64 40 21.28 40 19.08V12.68H23.12Z" fill="#4872BA"/>
<path fill-rule="evenodd" clip-rule="evenodd" d="M34.5999 27.8C33.4399 27.8 32.5199 28.72 32.5199 29.88C32.5199 31.04 33.4399 31.96 34.5999 31.96C35.7599 31.96 36.6799 31.04 36.6799 29.88C36.6799 28.72 35.7599 27.8 34.5999 27.8Z" fill="black"/>
<path fill-rule="evenodd" clip-rule="evenodd" d="M22.5999 27.8C21.4399 27.8 20.5199 28.72 20.5199 29.88C20.5199 31.04 21.4399 31.96 22.5999 31.96C23.7599 31.96 24.7199 31.04 24.7199 29.88C24.6799 28.72 23.7599 27.8 22.5999 27.8Z" fill="black"/>
</svg>
