<svg width="23" height="24" viewBox="0 0 23 24" fill="none" xmlns="http://www.w3.org/2000/svg">
<g clip-path="url(#clip0)">
<path d="M9.84509 9.42095L13.2399 21.6427L14.5979 22.3217C14.6827 22.2368 12.3063 7.21424 12.2215 7.04449C12.1366 6.87474 11.7971 5.85626 11.2879 6.78987C10.7787 7.72348 9.84509 9.42095 9.84509 9.42095Z" fill="#B51C15"/>
<path d="M14.5978 22.3217L18.417 22.152L12.9852 3.47981C12.9852 3.47981 8.57196 2.5462 8.48709 2.5462C8.40222 2.5462 1.27307 23.5948 1.27307 23.5948L6.36532 23.0856L7.61292 18.808L13.5454 18.5279L14.5978 22.3217ZM8.69078 15.1075L10.6937 8.23273L12.5948 15.1075H8.69078Z" fill="#E5251C"/>
<path d="M0 22.831L1.27306 23.5948L8.69077 2.58015L8.48708 2.5462L6.87454 3.47981L0 22.831Z" fill="#B51C15"/>
<path d="M22.2362 0L20.8104 1.341L20.3945 1.38344C20.3945 1.38344 20.386 1.55318 20.3012 1.82478L18.2473 3.73443L17.8399 4.37947C17.6787 4.45586 17.5004 4.53224 17.3137 4.60014V5.20274L16.0406 7.21425L17.3137 7.38399C17.3137 7.38399 18.8499 6.87475 19.7156 6.14484L20.0211 6.13635V13.9787L22.058 14.1484L22.2277 15.1075L22.9916 14.5134V0.594114L22.2362 0Z" fill="#0B0B0B"/>
<path d="M16.0406 3.98905V7.21425C16.0406 7.21425 18.3322 6.45038 19.1809 5.4319V14.8529L22.2362 15.1075V0L19.6052 0.25462C19.6052 0.25462 19.4355 2.71595 16.0406 3.98905Z" fill="#4E4E4E"/>
</g>
<defs>
<clipPath id="clip0">
<rect width="23" height="23.5948" fill="white"/>
</clipPath>
</defs>
</svg>
