<svg width="50" height="30" viewBox="0 0 50 30" fill="none" xmlns="http://www.w3.org/2000/svg">
<rect x="0.5" y="0.5" width="49" height="29" rx="1.5" fill="white"/>
<rect x="0.5" y="0.5" width="49" height="29" rx="1.5" stroke="#C1C1C1"/>
<rect x="0.5" y="0.5" width="49" height="29" rx="1.5" stroke="url(#paint0_linear)"/>
<rect x="2" y="2" width="46" height="26" rx="1" fill="#F3F3F4"/>
<rect x="2" y="2" width="46" height="26" rx="1" fill="url(#paint1_linear)" fill-opacity="0.3"/>
<path d="M33.2606 8.70693C33.0444 8.41177 32.8306 8.11661 32.6423 7.81912L21.087 14.4567L15.5091 11.2588C15.3811 11.6038 15.3029 11.9654 15.2767 12.3325L21.1404 15.728L33.2606 8.70693Z" fill="#2F9A41"/>
<path d="M21.0869 16.9551L15.0954 13.5155C15.0511 13.727 15.0331 13.9433 15.042 14.1592C15.042 16.7891 16.0867 19.3112 17.9462 21.1707C19.8058 23.0303 22.3279 24.075 24.9577 24.075C27.5875 24.075 30.1096 23.0303 31.9692 21.1707C33.8288 19.3112 34.8735 16.7891 34.8735 14.1592C34.8846 12.5902 34.5162 11.0418 33.7997 9.64586L21.0869 16.9551Z" fill="#2F9A41"/>
<path d="M31.8359 6.98711C31.5535 6.72056 31.2571 6.4692 30.9481 6.2341L21.0869 11.9583L16.3319 9.2438C16.1715 9.53896 16.0088 9.86201 15.8206 10.2106L21.0335 13.2203L31.8359 6.98711Z" fill="#2F9A41"/>
<path d="M29.9812 5.59032C29.608 5.36689 29.2197 5.16965 28.8192 5L21.0869 9.45296L17.6217 7.4984C17.3893 7.73081 17.1569 8.03526 16.9245 8.33042L21.0614 10.6963L29.9812 5.59032Z" fill="#2F9A41"/>
<defs>
<linearGradient id="paint0_linear" x1="25" y1="1" x2="25" y2="29" gradientUnits="userSpaceOnUse">
<stop stop-color="#E0E0E0"/>
<stop offset="1" stop-color="white" stop-opacity="0"/>
</linearGradient>
<linearGradient id="paint1_linear" x1="25" y1="2" x2="25" y2="28" gradientUnits="userSpaceOnUse">
<stop stop-color="white"/>
<stop offset="1" stop-color="white" stop-opacity="0"/>
</linearGradient>
</defs>
</svg>
