<svg width="50" height="30" viewBox="0 0 50 30" fill="none" xmlns="http://www.w3.org/2000/svg">
<rect x="0.5" y="0.5" width="49" height="29" rx="1.5" fill="white"/>
<rect x="0.5" y="0.5" width="49" height="29" rx="1.5" stroke="#C1C1C1"/>
<rect x="0.5" y="0.5" width="49" height="29" rx="1.5" stroke="url(#paint0_linear)"/>
<rect x="2" y="2" width="46" height="26" rx="1" fill="#F3F3F4"/>
<rect x="2" y="2" width="46" height="26" rx="1" fill="url(#paint1_linear)" fill-opacity="0.3"/>
<path d="M24.6444 5.39242C26.0975 5.39242 27.48 5.72286 28.7202 6.31399C28.9147 6.40085 29.1104 6.50544 29.3044 6.61012L28.4543 7.359L27.1789 6.05333L24.9822 7.96729L23.6884 6.59298L19.6482 10.1603L22.2352 12.9616L21.2252 13.8305L23.777 16.6318L22.767 17.5019L26.4181 21.4866L28.5786 19.5371L30.4577 21.6261C30.0853 21.9045 29.6779 22.1834 29.2353 22.4264C27.8886 23.1753 26.3289 23.6087 24.6628 23.6087C19.5418 23.6087 15.3779 19.5211 15.3779 14.4925C15.3605 9.49884 19.5245 5.3913 24.6449 5.3913L24.6444 5.39242ZM22.9431 13.9352L25.1589 11.9857L27.1433 14.1615L24.9275 16.1098L22.9431 13.9346V13.9352ZM24.52 17.694L26.7186 15.7274L28.7202 17.9027L26.5044 19.8521L24.52 17.694ZM21.3673 10.2289L23.5814 8.28057L25.5669 10.4553L23.3512 12.4048L21.3673 10.2289ZM25.4247 9.18559L27.0719 7.72378L28.5608 9.34167L26.9119 10.8206L25.4236 9.18559H25.4247ZM28.3657 15.884L30.0128 14.4228L31.5017 16.0578L29.8534 17.5202L28.3657 15.884ZM29.8183 19.1729L31.4666 17.7111L32.9543 19.329L31.3066 20.808L29.8183 19.1729ZM30.4916 11.6553L31.5909 10.6817L32.5825 11.7605L31.4844 12.7346L30.4916 11.6553ZM29.0742 8.43665L30.1734 7.44538L31.1662 8.54182L30.0669 9.51654L29.0747 8.43724L29.0742 8.43665ZM31.8925 14.8756L32.9906 13.9009L34 14.9796L32.8835 15.9538L31.8925 14.8756ZM26.9487 12.4562L28.5965 10.995L30.0848 12.6129L28.4376 14.0747L26.9487 12.4562Z" fill="#006CB4"/>
<defs>
<linearGradient id="paint0_linear" x1="25" y1="1" x2="25" y2="29" gradientUnits="userSpaceOnUse">
<stop stop-color="#E0E0E0"/>
<stop offset="1" stop-color="white" stop-opacity="0"/>
</linearGradient>
<linearGradient id="paint1_linear" x1="25" y1="2" x2="25" y2="28" gradientUnits="userSpaceOnUse">
<stop stop-color="white"/>
<stop offset="1" stop-color="white" stop-opacity="0"/>
</linearGradient>
</defs>
</svg>
