<svg width="50" height="30" viewBox="0 0 50 30" fill="none" xmlns="http://www.w3.org/2000/svg">
<rect x="0.5" y="0.5" width="49" height="29" rx="1.5" fill="white"/>
<rect x="0.5" y="0.5" width="49" height="29" rx="1.5" stroke="#C1C1C1"/>
<rect x="0.5" y="0.5" width="49" height="29" rx="1.5" stroke="url(#paint0_linear)"/>
<rect x="2" y="2" width="46" height="26" rx="1" fill="#F3F3F4"/>
<rect x="2" y="2" width="46" height="26" rx="1" fill="url(#paint1_linear)" fill-opacity="0.3"/>
<path d="M30.9789 18.0787C31.3282 18.2131 31.4626 18.7365 31.4893 18.9647C31.5432 19.3813 31.4226 19.5424 31.2882 19.5424C31.1538 19.5424 30.9656 19.3813 30.7644 19.0591C30.5628 18.7365 30.4823 18.3742 30.5899 18.186C30.6567 18.0649 30.8045 18.0115 30.9793 18.0787H30.9789ZM28.938 19.5962C29.153 19.5962 29.3946 19.6901 29.6096 19.8779C30.0257 20.2273 30.1467 20.63 29.9318 20.9255C29.8107 21.0732 29.6096 21.1671 29.3813 21.1671C29.153 21.1671 28.9113 21.0866 28.7502 20.9388C28.3742 20.6166 28.2669 20.0791 28.5082 19.784C28.6025 19.663 28.7502 19.5962 28.938 19.5962ZM24.2386 23.4768C19.1356 23.4768 15 19.3408 15 14.2382C15 9.13559 19.136 5 24.2382 5C29.3408 5 33.4768 9.136 33.4768 14.2382C33.4768 15.9702 32.9935 17.5954 32.1746 18.9785C32.1475 19.0186 32.0803 19.0052 32.067 18.9514C31.7448 16.6822 30.3616 15.4331 28.3475 15.0575C28.1726 15.0303 28.1459 14.9231 28.3742 14.8964C28.9919 14.8425 29.8646 14.8559 30.3212 14.9364C30.3479 14.7081 30.3616 14.4665 30.3616 14.2248C30.3616 10.8543 27.6221 8.11473 24.2515 8.11473C20.8814 8.11473 18.1419 10.8543 18.1419 14.2248C18.1419 17.5954 20.8814 20.3349 24.252 20.3349H24.5337C24.438 19.7898 24.3974 19.2363 24.4126 18.683C24.4264 18.307 24.507 18.2532 24.6681 18.5486C25.514 20.0123 26.7227 21.3282 29.0858 21.852C31.0194 22.2819 32.953 22.7786 35.0344 25.4238C35.2222 25.652 34.9405 25.8937 34.7255 25.7059C32.6041 23.8257 30.6705 23.208 28.9113 23.208C26.9372 23.2218 25.5946 23.4768 24.2382 23.4768H24.2386Z" fill="#FF8C00"/>
<defs>
<linearGradient id="paint0_linear" x1="25" y1="1" x2="25" y2="29" gradientUnits="userSpaceOnUse">
<stop stop-color="#E0E0E0"/>
<stop offset="1" stop-color="white" stop-opacity="0"/>
</linearGradient>
<linearGradient id="paint1_linear" x1="25" y1="2" x2="25" y2="28" gradientUnits="userSpaceOnUse">
<stop stop-color="white"/>
<stop offset="1" stop-color="white" stop-opacity="0"/>
</linearGradient>
</defs>
</svg>
