<svg width="50" height="30" viewBox="0 0 50 30" fill="none" xmlns="http://www.w3.org/2000/svg">
<rect x="0.5" y="0.5" width="49" height="29" rx="1.5" fill="white"/>
<rect x="0.5" y="0.5" width="49" height="29" rx="1.5" stroke="#C1C1C1"/>
<rect x="0.5" y="0.5" width="49" height="29" rx="1.5" stroke="url(#paint0_linear)"/>
<rect x="2" y="2" width="46" height="26" rx="1" fill="#F3F3F4"/>
<rect x="2" y="2" width="46" height="26" rx="1" fill="url(#paint1_linear)" fill-opacity="0.3"/>
<path d="M29.9559 15.0567H17.6856C17.6856 15.0567 18.056 16.2375 18.4727 16.8394C18.5885 16.8394 29.3771 16.8394 29.3771 16.8394C29.3771 16.8394 31.4608 18.46 32.4563 21.3308H21.0194C19.0284 19.7334 17.5467 17.5571 16.7827 15.0567C16.8753 14.7558 16.991 14.4548 17.1068 14.1538H29.9559C30.9514 13.4593 31.9469 12.3712 31.9469 12.3712H18.0097C18.1949 12.0702 18.3801 11.7692 18.6116 11.4683H32.6878C33.0582 11.0284 33.7991 9.68558 33.7991 9.68558H20.1396C20.4638 9.36146 20.811 9.06049 21.1815 8.78267H34.2158C34.5862 7.92606 34.8409 7 34.8409 7H20.6721C17.9634 8.92158 15.9261 11.7461 15 15.0567C15.9029 18.3443 17.9402 21.1919 20.6721 23.1366H34.7946C34.7946 23.1366 34.5399 18.8305 29.9559 15.0567Z" fill="#004B8D"/>
<defs>
<linearGradient id="paint0_linear" x1="25" y1="1" x2="25" y2="29" gradientUnits="userSpaceOnUse">
<stop stop-color="#E0E0E0"/>
<stop offset="1" stop-color="white" stop-opacity="0"/>
</linearGradient>
<linearGradient id="paint1_linear" x1="25" y1="2" x2="25" y2="28" gradientUnits="userSpaceOnUse">
<stop stop-color="white"/>
<stop offset="1" stop-color="white" stop-opacity="0"/>
</linearGradient>
</defs>
</svg>
